<svg width="125" height="45" viewBox="0 0 125 45" fill="none" xmlns="http://www.w3.org/2000/svg">
<rect y="0.928604" width="125" height="43.8482" rx="6.5445" fill="black"/>
<path d="M46.0831 14.7402C45.9465 14.4528 45.7487 14.2315 45.4896 14.076C45.2306 13.9159 44.9291 13.8358 44.5853 13.8358C44.2414 13.8358 43.9306 13.9159 43.6526 14.076C43.3795 14.2315 43.1628 14.4576 43.0026 14.7543C42.8472 15.0463 42.7695 15.3855 42.7695 15.7717C42.7695 16.1579 42.8472 16.4971 43.0026 16.7891C43.1628 17.0811 43.3795 17.3072 43.6526 17.4674C43.9306 17.6228 44.2414 17.7005 44.5853 17.7005C45.0657 17.7005 45.4614 17.5569 45.7723 17.2696C46.0831 16.9822 46.2645 16.5936 46.3163 16.1038H44.3521V15.5809H47.0016V16.0755C46.9639 16.4806 46.8368 16.8527 46.6201 17.1918C46.4034 17.5263 46.1185 17.7924 45.7652 17.9902C45.4119 18.1833 45.0186 18.2799 44.5853 18.2799C44.1284 18.2799 43.7115 18.1739 43.3347 17.962C42.9579 17.7453 42.6588 17.4462 42.4374 17.0647C42.2207 16.6831 42.1124 16.2521 42.1124 15.7717C42.1124 15.2913 42.2207 14.8603 42.4374 14.4787C42.6588 14.0925 42.9579 13.7934 43.3347 13.5814C43.7115 13.3648 44.1284 13.2564 44.5853 13.2564C45.1081 13.2564 45.5697 13.386 45.9701 13.645C46.3752 13.9041 46.6696 14.2691 46.8533 14.7402H46.0831ZM48.4947 13.8358V15.482H50.2893V16.0119H48.4947V17.7076H50.5012V18.2375H47.8517V13.3059H50.5012V13.8358H48.4947ZM54.5051 13.313V13.8358H53.1627V18.2375H52.5198V13.8358H51.1703V13.313H54.5051ZM57.8231 13.313V18.2375H57.1802V13.313H57.8231ZM61.95 13.313V13.8358H60.6075V18.2375H59.9646V13.8358H58.6151V13.313H61.95ZM66.8577 18.287C66.4008 18.287 65.9839 18.181 65.6071 17.969C65.2303 17.7524 64.9312 17.4533 64.7098 17.0717C64.4931 16.6855 64.3848 16.2521 64.3848 15.7717C64.3848 15.2913 64.4931 14.8603 64.7098 14.4787C64.9312 14.0925 65.2303 13.7934 65.6071 13.5814C65.9839 13.3648 66.4008 13.2564 66.8577 13.2564C67.3193 13.2564 67.7385 13.3648 68.1153 13.5814C68.4921 13.7934 68.7889 14.0902 69.0055 14.4717C69.2222 14.8532 69.3305 15.2866 69.3305 15.7717C69.3305 16.2569 69.2222 16.6902 69.0055 17.0717C68.7889 17.4533 68.4921 17.7524 68.1153 17.969C67.7385 18.181 67.3193 18.287 66.8577 18.287ZM66.8577 17.7288C67.2015 17.7288 67.51 17.6487 67.7832 17.4886C68.0611 17.3284 68.2778 17.1 68.4332 16.8032C68.5934 16.5065 68.6735 16.1627 68.6735 15.7717C68.6735 15.376 68.5934 15.0322 68.4332 14.7402C68.2778 14.4434 68.0635 14.215 67.7903 14.0548C67.5171 13.8947 67.2062 13.8146 66.8577 13.8146C66.5091 13.8146 66.1982 13.8947 65.925 14.0548C65.6519 14.215 65.4352 14.4434 65.275 14.7402C65.1196 15.0322 65.0419 15.376 65.0419 15.7717C65.0419 16.1627 65.1196 16.5065 65.275 16.8032C65.4352 17.1 65.6519 17.3284 65.925 17.4886C66.203 17.6487 66.5138 17.7288 66.8577 17.7288ZM74.0511 18.2375H73.4082L70.8223 14.3162V18.2375H70.1793V13.3059H70.8223L73.4082 17.2201V13.3059H74.0511V18.2375Z" fill="white"/>
<path d="M49.1985 23.6785C48.9623 23.1818 48.6203 22.7991 48.1724 22.5304C47.7246 22.2535 47.2034 22.1151 46.609 22.1151C46.0145 22.1151 45.4771 22.2535 44.9966 22.5304C44.5243 22.7991 44.1497 23.1899 43.8729 23.703C43.6041 24.2078 43.4698 24.7941 43.4698 25.4619C43.4698 26.1296 43.6041 26.7159 43.8729 27.2208C44.1497 27.7257 44.5243 28.1165 44.9966 28.3934C45.4771 28.6621 46.0145 28.7965 46.609 28.7965C47.4396 28.7965 48.1236 28.5481 48.661 28.0514C49.1985 27.5547 49.512 26.8828 49.6016 26.036H46.2059V25.1321H50.7864V25.9871C50.7212 26.6874 50.5014 27.3307 50.1268 27.917C49.7522 28.4952 49.2595 28.9553 48.6488 29.2973C48.0381 29.6311 47.3581 29.7981 46.609 29.7981C45.8191 29.7981 45.0984 29.6149 44.447 29.2484C43.7955 28.8738 43.2784 28.3567 42.8957 27.6972C42.5211 27.0376 42.3338 26.2925 42.3338 25.4619C42.3338 24.6313 42.5211 23.8862 42.8957 23.2266C43.2784 22.5589 43.7955 22.0418 44.447 21.6753C45.0984 21.3007 45.8191 21.1135 46.609 21.1135C47.5128 21.1135 48.3109 21.3374 49.003 21.7853C49.7033 22.2331 50.2123 22.8642 50.5299 23.6785H49.1985ZM55.1753 29.8347C54.5483 29.8347 53.9783 29.6922 53.4653 29.4072C52.9604 29.1222 52.5614 28.7191 52.2683 28.198C51.9833 27.6687 51.8407 27.0579 51.8407 26.3658C51.8407 25.6817 51.9873 25.0791 52.2805 24.558C52.5818 24.0287 52.9889 23.6256 53.5019 23.3487C54.015 23.0637 54.589 22.9212 55.2242 22.9212C55.8594 22.9212 56.4335 23.0637 56.9465 23.3487C57.4595 23.6256 57.8626 24.0246 58.1557 24.5458C58.457 25.0669 58.6077 25.6736 58.6077 26.3658C58.6077 27.0579 58.453 27.6687 58.1435 28.198C57.8422 28.7191 57.431 29.1222 56.9098 29.4072C56.3887 29.6922 55.8105 29.8347 55.1753 29.8347ZM55.1753 28.8576C55.5744 28.8576 55.9489 28.7639 56.2991 28.5766C56.6493 28.3893 56.9302 28.1084 57.1419 27.7338C57.3618 27.3592 57.4717 26.9032 57.4717 26.3658C57.4717 25.8283 57.3658 25.3723 57.1541 24.9977C56.9424 24.6231 56.6655 24.3463 56.3235 24.1671C55.9815 23.9798 55.611 23.8862 55.212 23.8862C54.8048 23.8862 54.4303 23.9798 54.0882 24.1671C53.7544 24.3463 53.4857 24.6231 53.2821 24.9977C53.0785 25.3723 52.9767 25.8283 52.9767 26.3658C52.9767 26.9113 53.0744 27.3714 53.2699 27.746C53.4734 28.1206 53.7422 28.4015 54.076 28.5888C54.4099 28.768 54.7763 28.8576 55.1753 28.8576ZM62.9884 29.8347C62.3614 29.8347 61.7914 29.6922 61.2784 29.4072C60.7735 29.1222 60.3745 28.7191 60.0814 28.198C59.7963 27.6687 59.6538 27.0579 59.6538 26.3658C59.6538 25.6817 59.8004 25.0791 60.0936 24.558C60.3949 24.0287 60.802 23.6256 61.315 23.3487C61.828 23.0637 62.4021 22.9212 63.0373 22.9212C63.6725 22.9212 64.2466 23.0637 64.7596 23.3487C65.2726 23.6256 65.6757 24.0246 65.9688 24.5458C66.2701 25.0669 66.4208 25.6736 66.4208 26.3658C66.4208 27.0579 66.266 27.6687 65.9566 28.198C65.6553 28.7191 65.2441 29.1222 64.7229 29.4072C64.2018 29.6922 63.6236 29.8347 62.9884 29.8347ZM62.9884 28.8576C63.3875 28.8576 63.762 28.7639 64.1122 28.5766C64.4623 28.3893 64.7433 28.1084 64.955 27.7338C65.1749 27.3592 65.2848 26.9032 65.2848 26.3658C65.2848 25.8283 65.1789 25.3723 64.9672 24.9977C64.7555 24.6231 64.4786 24.3463 64.1366 24.1671C63.7946 23.9798 63.4241 23.8862 63.0251 23.8862C62.6179 23.8862 62.2433 23.9798 61.9013 24.1671C61.5675 24.3463 61.2987 24.6231 61.0952 24.9977C60.8916 25.3723 60.7898 25.8283 60.7898 26.3658C60.7898 26.9113 60.8875 27.3714 61.083 27.746C61.2865 28.1206 61.5553 28.4015 61.8891 28.5888C62.223 28.768 62.5894 28.8576 62.9884 28.8576ZM70.6427 22.9212C71.2209 22.9212 71.7258 23.0474 72.1574 23.2999C72.5971 23.5523 72.9228 23.8699 73.1345 24.2526V23.0312H74.2583V29.8714C74.2583 30.4821 74.128 31.0236 73.8674 31.4959C73.6068 31.9764 73.2323 32.3509 72.7437 32.6197C72.2632 32.8884 71.7013 33.0228 71.058 33.0228C70.1786 33.0228 69.4457 32.8151 68.8594 32.3998C68.2731 31.9845 67.927 31.4186 67.8212 30.702H68.9205C69.0426 31.1091 69.2951 31.4348 69.6778 31.6791C70.0605 31.9316 70.5206 32.0578 71.058 32.0578C71.6688 32.0578 72.1655 31.8664 72.5482 31.4837C72.9391 31.101 73.1345 30.5635 73.1345 29.8714V28.4667C72.9147 28.8576 72.5889 29.1833 72.1574 29.4439C71.7258 29.7044 71.2209 29.8347 70.6427 29.8347C70.0483 29.8347 69.5068 29.6881 69.0182 29.395C68.5377 29.1018 68.1591 28.6906 67.8822 28.1613C67.6054 27.632 67.4669 27.0294 67.4669 26.3535C67.4669 25.6695 67.6054 25.071 67.8822 24.558C68.1591 24.0368 68.5377 23.6337 69.0182 23.3487C69.5068 23.0637 70.0483 22.9212 70.6427 22.9212ZM73.1345 26.3658C73.1345 25.8609 73.0327 25.4212 72.8292 25.0466C72.6256 24.672 72.3487 24.387 71.9986 24.1915C71.6566 23.988 71.2779 23.8862 70.8626 23.8862C70.4473 23.8862 70.0687 23.9839 69.7266 24.1793C69.3846 24.3748 69.1118 24.6598 68.9083 25.0344C68.7047 25.4089 68.6029 25.8487 68.6029 26.3535C68.6029 26.8666 68.7047 27.3144 68.9083 27.6972C69.1118 28.0717 69.3846 28.3608 69.7266 28.5644C70.0687 28.7598 70.4473 28.8576 70.8626 28.8576C71.2779 28.8576 71.6566 28.7598 71.9986 28.5644C72.3487 28.3608 72.6256 28.0717 72.8292 27.6972C73.0327 27.3144 73.1345 26.8706 73.1345 26.3658ZM77.2482 20.6859V29.7248H76.1367V20.6859H77.2482ZM85.25 26.1215C85.25 26.3332 85.2377 26.5571 85.2133 26.7933H79.8633C79.904 27.4529 80.1279 27.97 80.5351 28.3445C80.9504 28.711 81.4512 28.8942 82.0375 28.8942C82.5179 28.8942 82.917 28.7843 83.2345 28.5644C83.5603 28.3364 83.7883 28.0351 83.9186 27.6605H85.1156C84.9364 28.3038 84.5782 28.8291 84.0407 29.2362C83.5033 29.6352 82.8355 29.8347 82.0375 29.8347C81.4023 29.8347 80.8323 29.6922 80.3274 29.4072C79.8307 29.1222 79.4398 28.7191 79.1548 28.198C78.8698 27.6687 78.7273 27.0579 78.7273 26.3658C78.7273 25.6736 78.8658 25.0669 79.1426 24.5458C79.4195 24.0246 79.8063 23.6256 80.303 23.3487C80.8079 23.0637 81.3861 22.9212 82.0375 22.9212C82.6727 22.9212 83.2345 23.0597 83.7231 23.3365C84.2117 23.6134 84.5863 23.9961 84.8469 24.4847C85.1156 24.9651 85.25 25.5107 85.25 26.1215ZM84.1018 25.8894C84.1018 25.4659 84.0081 25.1036 83.8208 24.8023C83.6335 24.4928 83.377 24.2608 83.0513 24.106C82.7337 23.9432 82.3795 23.8618 81.9886 23.8618C81.4268 23.8618 80.9463 24.0409 80.5473 24.3992C80.1564 24.7575 79.9325 25.2542 79.8755 25.8894H84.1018ZM95.6656 23.703C95.6656 24.4114 95.4213 25.0018 94.9327 25.4741C94.4523 25.9382 93.7154 26.1703 92.7219 26.1703H91.0851V29.7248H89.9736V21.2112H92.7219C93.6828 21.2112 94.4116 21.4432 94.9083 21.9074C95.4132 22.3716 95.6656 22.9701 95.6656 23.703ZM92.7219 25.2542C93.3408 25.2542 93.7968 25.1199 94.0899 24.8511C94.3831 24.5824 94.5297 24.1997 94.5297 23.703C94.5297 22.6525 93.9271 22.1273 92.7219 22.1273H91.0851V25.2542H92.7219ZM98.1587 20.6859V29.7248H97.0471V20.6859H98.1587ZM99.6378 26.3535C99.6378 25.6695 99.7762 25.071 100.053 24.558C100.33 24.0368 100.709 23.6337 101.189 23.3487C101.678 23.0637 102.219 22.9212 102.814 22.9212C103.4 22.9212 103.909 23.0474 104.34 23.2999C104.772 23.5523 105.094 23.8699 105.305 24.2526V23.0312H106.429V29.7248H105.305V28.4789C105.086 28.8698 104.756 29.1955 104.316 29.4561C103.884 29.7085 103.38 29.8347 102.801 29.8347C102.207 29.8347 101.669 29.6881 101.189 29.395C100.709 29.1018 100.33 28.6906 100.053 28.1613C99.7762 27.632 99.6378 27.0294 99.6378 26.3535ZM105.305 26.3658C105.305 25.8609 105.204 25.4212 105 25.0466C104.796 24.672 104.52 24.387 104.169 24.1915C103.827 23.988 103.449 23.8862 103.033 23.8862C102.618 23.8862 102.24 23.9839 101.897 24.1793C101.555 24.3748 101.283 24.6598 101.079 25.0344C100.876 25.4089 100.774 25.8487 100.774 26.3535C100.774 26.8666 100.876 27.3144 101.079 27.6972C101.283 28.0717 101.555 28.3608 101.897 28.5644C102.24 28.7598 102.618 28.8576 103.033 28.8576C103.449 28.8576 103.827 28.7598 104.169 28.5644C104.52 28.3608 104.796 28.0717 105 27.6972C105.204 27.3144 105.305 26.8706 105.305 26.3658ZM114.073 23.0312L110.042 32.8762H108.894L110.213 29.6515L107.514 23.0312H108.747L110.848 28.4545L112.925 23.0312H114.073Z" fill="white"/>
<path d="M23.9372 22.3914L27.2653 19.0633L16.5156 13.0216C15.8031 12.6366 15.1357 12.5826 14.5504 13.0035L23.9372 22.3914ZM27.8326 26.2879L31.2924 24.3419C31.9677 23.9637 32.338 23.428 32.338 22.8337C32.338 22.2406 31.9677 21.7037 31.2935 21.3256L28.1612 19.5664L24.635 23.0915L27.8326 26.2879ZM13.9719 13.8218C13.8999 14.0435 13.8594 14.2911 13.8594 14.5624V31.113C13.8594 31.5418 13.9539 31.911 14.125 32.2047L23.2382 23.0904L13.9719 13.8218ZM23.9372 23.7882L14.8746 32.8519C15.0479 32.9183 15.2347 32.9532 15.4317 32.9532C15.7829 32.9532 16.1487 32.8496 16.5212 32.6425L26.9378 26.7933L23.9372 23.7882Z" fill="white"/>
</svg>
