<svg width="182" height="45" viewBox="0 0 182 45" fill="none" xmlns="http://www.w3.org/2000/svg">
<path fill-rule="evenodd" clip-rule="evenodd" d="M23.6484 27.441C25.8807 23.459 27.7511 24.4243 29.3198 26.2946C30.8885 28.1648 30.3153 30.0355 27.4192 30.2464C24.5231 30.4576 22.9243 30.9404 20.4204 32.7805C17.9165 34.6206 10.7288 42.6016 10.7288 42.6016L13.2056 40.508L17.6272 36.5378C19.9363 34.4343 21.864 32.6789 22.6597 32.2248C24.2781 31.3007 26.9316 31.1581 28.3638 31.1581C28.4359 31.1262 31.2986 31.2039 34.7288 28.823C37.0936 27.1816 39.2722 25.9548 40.1113 24.2095C40.4978 23.405 39.561 22.6067 38.828 23.1155L33.9912 26.4728C33.4608 26.8409 32.726 26.7082 32.3578 26.1778C31.9897 25.6474 32.1222 24.9124 32.6526 24.5442L38.9841 20.1493C39.3619 19.8871 39.4713 19.3794 39.2353 18.9848L38.7619 18.3031C38.4749 17.9439 37.9609 17.869 37.5834 18.131L31.2516 22.5262C30.7212 22.8943 29.9865 22.7615 29.6181 22.2314C29.2499 21.701 29.3825 20.9662 29.9129 20.5976L34.7497 17.2404C35.4825 16.7316 35.062 15.5747 34.1735 15.6555C32.2447 15.8311 30.3337 17.4432 27.9691 19.0846C26.053 20.4146 24.4127 22.2255 23.5554 24.2313C23.0951 25.5356 21.9502 28.0447 20.5615 29.2022C19.5378 30.0556 15.0975 32.1903 10.7934 34.4677L10.6827 34.5269C8.4618 35.7039 4.903 37.6368 3.05962 39.1657C1.40119 40.5414 1.45206 42.2553 2.24099 44.0831C2.0532 43.6117 1.08544 40.3497 8.53451 36.9738C16.5891 33.3238 21.4161 31.4232 23.6486 27.4412" fill="#E6E6E6"/>
<path fill-rule="evenodd" clip-rule="evenodd" d="M30.4656 7.20517H30.4661L30.5733 7.12285L30.6069 7.09686L30.749 6.98768L30.856 6.90536L30.8925 6.87741L31.0368 6.76649L31.1434 6.68438L31.1823 6.65447L31.329 6.54158L31.4351 6.45991L31.4766 6.42803L31.6253 6.31383L31.7308 6.2326L31.7749 6.19875L31.9253 6.08302L32.0299 6.00267L32.0767 5.96664L32.2289 5.8496L32.3326 5.7699L32.3819 5.73212L32.5357 5.61421L32.6383 5.5356L32.6903 5.49586L32.8453 5.37707L32.9464 5.29955L33.001 5.25785L33.1573 5.13819L33.2571 5.06198L33.3143 5.01831L33.4715 4.89799L33.5698 4.8231L33.6294 4.77746L33.7877 4.65693L33.8845 4.58334L33.9465 4.53617L34.1054 4.41542L34.2002 4.34358L34.2648 4.29467L34.4245 4.1737L34.5173 4.10361C34.7247 3.94683 34.9328 3.79048 35.1409 3.63435L35.1536 3.62475L35.2252 3.57125L35.3857 3.45115L35.4721 3.38652L35.5459 3.33149L35.7064 3.21227L35.7907 3.14982L35.8667 3.09348L36.027 2.97513L36.1089 2.91465L36.187 2.857L36.3469 2.73952L36.4264 2.68122L36.5065 2.62248C36.6862 2.49103 36.8655 2.36067 37.0439 2.23162L37.0581 2.22136L37.1419 2.16087C37.3168 2.03488 37.4906 1.91042 37.6634 1.78726L37.7059 1.75713L37.9878 1.55755L37.999 1.54969L38.2835 1.35033L38.3224 1.32325L38.5798 1.14485L38.632 1.10882L38.8956 0.928241L38.9185 0.912956L39.1901 0.72888L39.2203 0.708791L39.4419 0.560307L39.4945 0.52537L39.5146 0.51205C39.6963 0.391735 39.8753 0.274695 40.0518 0.161367L40.093 0.134727L40.3044 0L25.6858 6.79902C25.3796 6.79182 25.0717 6.78832 24.7628 6.78832C11.2678 6.78876 0.327586 13.5959 0.327586 21.9928C0.327586 24.6404 1.41567 27.1297 3.32827 29.2976H3.32739L0.228669 38.1275C0.228669 38.1275 -1.0068 41.4066 2.26573 44.1411C1.52768 42.4619 1.35278 40.6505 2.87233 39.3244C2.92889 39.275 2.98763 39.2252 3.04811 39.1748L3.05925 39.1656C3.11624 39.1182 3.17454 39.0706 3.23503 39.0226L3.25337 39.008C3.31538 38.9586 3.37892 38.9088 3.44443 38.8586L3.44683 38.8566L3.44945 38.8547L3.45884 38.8477C3.52348 38.7979 3.58964 38.7481 3.65755 38.6977L3.67589 38.6841C3.74293 38.6343 3.81171 38.5843 3.88159 38.5339L3.89796 38.5219C3.97046 38.4697 4.04448 38.4173 4.12003 38.3645L4.12593 38.3603L4.13685 38.3529C4.2124 38.3 4.28948 38.247 4.36787 38.1935L4.3766 38.1874C4.4539 38.1347 4.53251 38.0817 4.61243 38.0284L4.63536 38.0133C4.71593 37.9596 4.79782 37.9057 4.88079 37.8515L4.89106 37.8448L4.90372 37.8365C4.98408 37.7843 5.06552 37.7317 5.14806 37.679L5.18191 37.6574C5.26095 37.607 5.34087 37.5565 5.4221 37.5054L5.44416 37.4915L5.47145 37.4744L5.71776 37.3214L5.73261 37.3122L5.742 37.3065C5.92498 37.1938 6.11233 37.0803 6.3034 36.9661L6.33026 36.9499L6.35559 36.9349L6.61893 36.7787H6.61936L6.63923 36.7669L6.68269 36.7414L6.88729 36.6215L6.95389 36.5826L6.97769 36.5689L7.24081 36.4167L7.27422 36.3975L7.29693 36.3846L7.57424 36.2259L7.59935 36.2117L7.61049 36.2053L7.91314 36.0341L7.92907 36.0252L7.99677 35.9872L8.23281 35.8551L8.26295 35.8383L8.28216 35.8276L8.30094 35.8171L8.57039 35.6675L8.60053 35.6509L8.60271 35.6496L8.93505 35.4668L8.94138 35.4631L9.00711 35.4273L9.15363 35.3472L9.2853 35.2753L9.3008 35.267L9.44841 35.1871L9.59646 35.107L9.63183 35.0878L9.74494 35.0266L9.89364 34.9467L9.98033 34.9L10.0426 34.8666L10.1921 34.7867L10.3306 34.7128L10.3417 34.707L10.4915 34.6273L10.6415 34.5476L10.6817 34.5262L10.7915 34.4681L10.7924 34.4672H10.7931C15.0965 32.1897 19.5368 30.0551 20.5604 29.2017C21.8889 28.0946 22.8969 25.8855 23.3266 24.8254C23.3934 24.6286 23.469 24.431 23.5535 24.233L23.5544 24.2308C23.8068 23.6401 24.1367 23.0464 24.5389 22.4643C25.3833 21.2425 26.545 20.0715 27.9678 19.0841C30.3324 17.4427 32.2435 15.8305 34.1722 15.655C34.5718 15.6187 34.9334 15.848 35.0706 16.2253C35.2079 16.6029 35.0782 17.011 34.7485 17.2398L29.9116 20.5971C29.3813 20.9655 29.2487 21.7002 29.6169 22.2308C29.985 22.761 30.7198 22.8938 31.2504 22.5256L37.5821 18.1305C37.9597 17.8685 38.4737 17.9434 38.7606 18.3026C38.8375 18.3989 38.915 18.4984 38.9929 18.6008C39.0087 18.6218 39.0218 18.6404 39.0357 18.6626C39.1047 18.7714 39.1707 18.8788 39.234 18.9843C39.4701 19.3786 39.3607 19.8865 38.9829 20.1488L32.6514 24.5437C32.121 24.9118 31.9885 25.6468 32.3566 26.1772C32.7248 26.7076 33.4595 26.8404 33.9899 26.4722L38.8268 23.115C39.1565 22.8861 39.5843 22.9071 39.8897 23.1678C40.195 23.4281 40.2837 23.8471 40.1098 24.2089C39.2709 25.9545 37.0924 27.1812 34.7273 28.8224C33.3045 29.8101 31.8013 30.4889 30.3615 30.8529C29.6754 31.0261 29.0041 31.1278 28.3624 31.1578H28.36C28.1449 31.1676 27.9333 31.1696 27.7257 31.1632C26.5821 31.1949 24.1601 31.3669 22.6584 32.2244C21.8627 32.6786 19.9353 34.434 17.6259 36.5375H17.6262H17.6255L17.6253 36.5379L17.5233 36.6307L17.4209 36.7239L17.41 36.734L17.318 36.8176L17.2148 36.9117L17.1309 36.9881L17.111 37.0063L17.0067 37.101L16.9023 37.1962L16.8486 37.2449L16.7973 37.2919L16.6918 37.3877L16.5861 37.484L16.5636 37.5043L16.48 37.5803L16.3734 37.6771L16.276 37.7655L16.2666 37.774L16.1597 37.871L16.0522 37.9684L15.9863 38.0282L15.9448 38.066L15.8369 38.1636L15.7286 38.2614L15.6946 38.2924L15.6203 38.3592L15.5118 38.4573L15.4028 38.5553L15.4009 38.557L15.2936 38.6536L15.1845 38.7518L15.1059 38.8226L15.0751 38.8501L14.9655 38.9483L14.8558 39.0466L14.8098 39.0881L14.7462 39.1449L14.6364 39.2431L14.5266 39.3412L14.513 39.3532L14.4163 39.4394L14.306 39.5375L14.2154 39.618L14.196 39.6353L14.0857 39.7329L13.9754 39.8307L13.9176 39.8818L13.8651 39.9281L13.7549 40.0255L13.6446 40.1227L13.6197 40.1445L13.5343 40.2192L13.4243 40.3159L13.3221 40.4054L13.3142 40.4124L13.2042 40.5085L13.0943 40.6042L13.0251 40.6644L12.9845 40.6996L12.8747 40.7948L12.7651 40.8895L12.729 40.921L12.6559 40.9841L12.5465 41.0782L12.4375 41.1719L12.434 41.1749L12.3288 41.2653L12.22 41.3582L12.1403 41.4261L12.1117 41.4505L11.8953 41.6339L11.8484 41.6735L11.8429 41.678L11.68 41.8152L11.5728 41.9049L11.5582 41.9174L11.5368 41.9353L11.3595 42.0831L11.2704 42.1571L11.2534 42.1713L11.1475 42.2587L11.042 42.3456L11.0368 42.3499L10.949 42.422L10.7278 42.6021C14.5787 40.9254 18.6786 38.3835 20.8068 36.9991V36.9986C22.0942 37.1292 23.4155 37.1971 24.7623 37.1971C38.2575 37.1971 47.7598 30.9228 47.7598 22.5256C47.7598 17.9615 42.6173 15.0083 37.4994 12.2216L37.5 12.2212C39.8299 9.92493 45.8686 5.24846 45.8686 5.24846L45.8328 5.27161L45.8046 5.28973C45.6644 5.37969 45.5175 5.47075 45.3646 5.56246L45.3435 5.57512C45.2703 5.61901 45.1961 5.6629 45.1203 5.70723L45.0814 5.72972C45.0085 5.77186 44.9345 5.81444 44.8591 5.85724L44.8329 5.87209L44.6006 6.00201L44.5768 6.01533L44.555 6.02712L44.3108 6.1601L44.2991 6.16644L44.2715 6.18129C44.189 6.22583 44.1054 6.27016 44.0206 6.31492L44.0003 6.32562C43.8239 6.41842 43.6433 6.51166 43.4584 6.60556L43.4165 6.62695L43.4044 6.63285C43.2053 6.73351 43.0018 6.83483 42.7939 6.93659L42.7863 6.94052L42.4677 7.09533L42.4605 7.09883L42.1537 7.24556L42.1205 7.2615L41.8054 7.41021L41.8043 7.41064L41.5377 7.53511L41.4648 7.56895L41.4025 7.59778L41.1305 7.7229L41.1206 7.72748L41.1141 7.73054C40.8916 7.83251 40.6662 7.93427 40.4389 8.03624L40.4201 8.04475L40.299 8.09891L40.0644 8.2035L40.0175 8.22425C39.795 8.32294 39.5705 8.42186 39.3452 8.52012L39.3067 8.53715C38.8366 8.74219 38.3617 8.94657 37.8861 9.14877L37.8656 9.15751V9.15816L37.8647 9.15773C33.4735 11.0249 29.0347 12.7281 27.9656 13.4777C24.0561 16.2194 25.8174 19.438 19.7431 22.9449C15.2786 25.5224 10.3328 25.3136 8.69595 22.4787C7.05914 19.6435 9.35124 15.256 13.8158 12.6785C19.8897 9.1717 21.7968 12.306 26.126 10.2912C26.838 9.95976 28.4582 8.74503 30.4656 7.20539V7.20517Z" fill="#186D30"/>
<path fill-rule="evenodd" clip-rule="evenodd" d="M22.828 18.7835C17.7901 24.877 9.61473 22.9163 11.787 17.5165C13.959 12.1165 20.8975 12.5388 23.4617 12.2978C26.0259 12.0565 27.987 10.186 27.987 10.186L36.8929 2.37579L35.8618 3.09441L30.4603 7.2061C28.4529 8.74574 26.8327 9.96047 26.1207 10.2919C21.7917 12.3067 19.8846 9.17241 13.8105 12.6792C9.34593 15.2567 7.05383 19.6444 8.69064 22.4794C10.3275 25.3143 15.2733 25.5231 19.7378 22.9456C25.8119 19.4387 24.0508 16.2199 27.9603 13.4784C29.0294 12.7286 33.4684 11.0256 37.8605 9.158C38.5221 8.87566 39.2737 8.55293 40.0596 8.20399C23.1717 14.4576 27.8666 12.6899 22.8287 18.7837" fill="#E6E6E6"/>
<path d="M79.9856 40.0865C75.5592 39.4496 71.9925 39.4974 69.2856 40.2298C69.827 38.7012 70.1455 37.0294 70.241 35.2142C70.5594 29.7368 70.6391 23.9091 70.4798 17.7312C70.3525 12.9544 69.9066 9.88131 69.1423 8.51196C70.8301 8.35274 72.7408 8.01836 74.8745 7.50884C77.04 6.96747 78.7278 6.41018 79.9379 5.83696C79.2691 7.49291 78.887 11.2825 78.7914 17.2057C78.7914 19.1483 78.7914 21.2023 78.7914 23.3678C78.8551 28.0809 78.9188 31.2654 78.9825 32.9213C79.1417 36.3288 79.4761 38.7172 79.9856 40.0865ZM82.995 2.01553C85.9248 2.27029 88.5042 2.89128 90.7334 3.87848C92.9944 4.83384 94.73 6.01211 95.9401 7.4133C97.1821 8.81449 98.0419 10.3271 98.5196 11.9512C99.0291 13.5435 99.1246 15.1517 98.8062 16.7758C98.424 18.3044 97.7871 19.6737 96.8955 20.8838C96.0038 22.094 94.9529 23.0971 93.7428 23.8932C92.5327 24.6575 91.1633 25.2944 89.6347 25.8039C88.138 26.3134 86.5935 26.6637 85.0013 26.8548C83.409 27.014 81.769 27.0618 80.0812 26.9981V26.2338C82.2148 25.4059 84.0141 24.3231 85.4789 22.9856C86.9438 21.6163 87.9788 20.1992 88.5839 18.7343C89.1889 17.2376 89.4596 15.6931 89.3959 14.1008C89.3641 12.5085 88.9978 11.0596 88.2972 9.75393C87.5966 8.41643 86.5617 7.27 85.1923 6.31464C83.823 5.35928 82.2307 4.7383 80.4155 4.45169C78.8233 4.19693 77.1833 4.2447 75.4955 4.595C73.8395 4.91345 72.2632 5.55035 70.7664 6.50571C69.2697 7.42922 67.9322 8.55973 66.7539 9.89723C65.6075 11.2347 64.7318 12.8748 64.1267 14.8173C63.5535 16.728 63.3624 18.7821 63.5535 20.9794C63.7127 22.9538 64.2382 24.7371 65.1298 26.3294C66.0533 27.8898 67.2953 29.0681 68.8557 29.8642V29.912C65.7667 30.8036 63.1236 30.9629 60.9263 30.3896C58.7289 29.8164 57.0252 28.7337 55.8151 27.1414C54.605 25.5173 53.9681 23.6066 53.9044 21.4093C53.8407 18.8298 54.3343 16.4255 55.3852 14.1963C56.4361 11.9353 57.901 10.0246 59.7798 8.46419C61.6905 6.87193 63.8719 5.53443 66.324 4.45169C68.808 3.36895 71.483 2.62059 74.349 2.2066C77.2151 1.79262 80.0971 1.72893 82.995 2.01553Z" fill="#FF5E04"/>
<path d="M137.438 27.1414C138.839 28.1923 139.922 29.291 140.686 30.4374C141.482 31.5838 141.785 32.8736 141.593 34.3066C141.371 35.8033 140.59 37.1567 139.253 38.3669C137.947 39.577 136.355 40.5164 134.476 41.1852C132.597 41.8539 130.527 42.2361 128.266 42.3316C126.005 42.3953 123.856 42.1565 121.818 41.6151C119.811 41.0419 117.98 40.0069 116.324 38.5102C114.7 37.0135 113.57 35.1505 112.933 32.9213L112.455 31.2495C112.455 31.2495 112.439 31.2017 112.407 31.1062C112.153 32.0297 111.866 32.9054 111.548 33.7334C111.229 34.5295 110.831 35.3257 110.353 36.1218C109.876 36.8861 109.366 37.5548 108.825 38.128C108.283 38.6694 107.646 39.1152 106.914 39.4655C106.213 39.784 105.465 39.9273 104.669 39.8954C102.854 39.8954 101.437 39.2745 100.418 38.0325C99.3985 36.7587 98.9368 35.262 99.0323 33.5423C99.1597 31.7908 99.8285 30.2782 101.039 29.0044C101.898 28.1127 102.933 27.3643 104.143 26.7593C105.354 26.1542 106.58 25.6129 107.822 25.1352C109.095 24.6575 110.035 24.2276 110.64 23.8454C110.449 23.0175 110.226 22.2373 109.971 21.5048C109.748 20.7724 109.446 20.0559 109.064 19.3553C108.681 18.6228 108.204 18.1133 107.631 17.8267C107.057 17.5082 106.436 17.4764 105.768 17.7312C105.226 17.9222 104.86 18.3362 104.669 18.9731C104.478 19.61 104.542 20.2947 104.86 21.0271C105.21 21.7596 105.831 22.3328 106.723 22.7468C106.5 23.4155 106.118 24.0206 105.577 24.562C105.035 25.1033 104.414 25.5014 103.714 25.7562C102.217 26.3612 100.943 26.3134 99.8921 25.6129C98.8412 24.8804 98.3795 23.7977 98.5069 22.3646C98.6661 20.8998 99.5259 19.5463 101.086 18.3044C102.201 17.3809 103.586 16.6484 105.242 16.1071C106.898 15.5338 108.554 15.2313 110.21 15.1995C111.356 15.1995 112.36 15.3109 113.219 15.5338C114.111 15.7568 114.859 16.0593 115.464 16.4414C116.07 16.8236 116.611 17.349 117.089 18.0178C117.566 18.6865 117.948 19.403 118.235 20.1673C118.553 20.9316 118.856 21.871 119.143 22.9856L120.767 29.0521C122.2 34.4658 124.429 37.937 127.454 39.4655C129.333 40.4209 130.973 40.4209 132.374 39.4655C133.425 38.7331 133.903 37.73 133.807 36.4562C133.744 35.7237 133.377 34.9913 132.709 34.2588C132.072 33.4946 131.387 32.8736 130.655 32.3959C129.922 31.8864 129.015 31.3132 127.932 30.6762C126.881 30.0393 126.164 29.5776 125.782 29.291C124.827 28.5904 124.031 27.8261 123.394 26.9981C122.757 26.1383 122.311 25.2785 122.056 24.4187C121.834 23.5588 121.754 22.7149 121.818 21.887C121.881 21.059 122.104 20.2629 122.486 19.4986C123.028 18.384 123.919 17.4605 125.161 16.728C126.435 15.9956 127.789 15.5498 129.222 15.3905C130.655 15.1995 132.04 15.1995 133.377 15.3905C134.715 15.5498 135.845 16.0115 136.769 16.7758C137.692 17.5082 138.186 18.4158 138.25 19.4986C138.25 20.3902 137.915 21.1386 137.247 21.7437C136.578 22.3169 135.798 22.6512 134.906 22.7468C134.014 22.8423 133.107 22.6672 132.183 22.2213C131.26 21.7437 130.575 21.0271 130.129 20.0718C131.053 19.817 131.61 19.4349 131.801 18.9254C132.024 18.384 131.913 17.9063 131.467 17.4923C131.021 17.0783 130.448 16.8554 129.747 16.8236C128.887 16.7917 128.25 17.0783 127.836 17.6834C127.454 18.2566 127.327 18.8457 127.454 19.4508C127.486 19.5782 127.518 19.7056 127.55 19.8329C127.613 19.9603 127.677 20.0877 127.741 20.2151C127.804 20.3106 127.884 20.4221 127.98 20.5495C128.107 20.6768 128.203 20.7883 128.266 20.8838C128.362 20.9794 128.489 21.0908 128.648 21.2182C128.808 21.3137 128.919 21.4093 128.983 21.5048C129.078 21.5685 129.222 21.664 129.413 21.7914C129.604 21.9188 129.747 22.0143 129.843 22.078C129.938 22.1417 130.081 22.2373 130.273 22.3646C130.495 22.492 130.639 22.5876 130.702 22.6512C134.365 25.0396 136.61 26.5364 137.438 27.1414ZM111.213 25.8517C110.321 26.7752 109.589 27.6987 109.016 28.6222C108.443 29.5457 108.06 30.6285 107.869 31.8704C107.742 32.6347 107.742 33.2398 107.869 33.6856C108.029 34.1315 108.283 34.3544 108.634 34.3544C109.812 34.2907 110.879 32.364 111.834 28.5745C111.548 27.3007 111.341 26.3931 111.213 25.8517Z" fill="#FF5E04"/>
<path d="M142.912 15.916C144.631 15.5975 146.446 15.0721 148.357 14.3396C150.3 13.5754 151.749 12.8111 152.704 12.0468V15.916H156.908V17.5401C156.43 17.5401 155.713 17.5401 154.758 17.5401C153.803 17.5401 153.102 17.5401 152.656 17.5401C152.688 26.2338 152.72 31.4246 152.752 33.1124C152.752 34.8002 152.895 36.074 153.182 36.9338C153.5 37.7937 154.01 38.1599 154.71 38.0325C155.666 37.714 156.032 36.6472 155.809 34.8321C155.586 32.985 154.949 31.4405 153.898 30.1986C155.745 29.2751 157.146 29.498 158.102 30.8673C158.993 32.1411 159.137 33.6697 158.532 35.453C157.831 37.5867 156.318 38.956 153.994 39.5611C153.261 39.7521 152.481 39.8636 151.653 39.8954C146.717 39.8954 144.249 37.1568 144.249 31.6794C144.249 30.8196 144.249 29.6731 144.249 28.2401C144.281 26.7752 144.281 25.7402 144.249 25.1352C144.249 24.5301 144.233 23.7181 144.201 22.699C144.201 21.68 144.169 20.9316 144.106 20.4539C144.074 19.9762 144.01 19.419 143.915 18.7821C143.819 18.1451 143.692 17.6197 143.533 17.2057C143.373 16.7599 143.166 16.33 142.912 15.916Z" fill="#FF5E04"/>
<path d="M159.858 23.5588C160.654 20.4062 162.39 18.1133 165.065 16.6803C167.74 15.2472 170.574 15.088 173.568 16.2026C176.593 17.3172 178.886 19.3712 180.446 22.3646C182.007 25.3581 182.389 28.4312 181.593 31.5838C180.797 34.7047 179.061 36.9816 176.386 38.4146C173.711 39.8477 170.861 40.0069 167.836 38.8923C164.842 37.7777 162.565 35.7237 161.005 32.7303C159.444 29.7368 159.062 26.6797 159.858 23.5588ZM173.09 26.2816C171.753 23.6385 170.367 21.5526 168.934 20.024C167.533 18.4954 166.498 17.9063 165.829 18.2566C165.161 18.6069 165.065 19.8011 165.543 21.8392C166.02 23.8454 166.944 26.1701 168.313 28.8133C169.683 31.4246 171.068 33.5105 172.469 35.0709C173.902 36.5995 174.953 37.1886 175.622 36.8383C176.259 36.488 176.338 35.2938 175.861 33.2557C175.415 31.2176 174.491 28.8929 173.09 26.2816Z" fill="#FF5E04"/>
</svg>
