<svg width="125" height="45" viewBox="0 0 125 45" fill="none" xmlns="http://www.w3.org/2000/svg">
<g clip-path="url(#clip0_1122_7633)">
<rect y="0.499557" width="125" height="43.8482" rx="6.5445" fill="black"/>
<path d="M29.1399 32.0242C27.9459 33.1816 26.6423 32.9989 25.3874 32.4506C24.0594 31.8902 22.8411 31.8658 21.44 32.4506C19.6856 33.206 18.7596 32.9867 17.7119 32.0242C11.7664 25.896 12.6436 16.5635 19.3932 16.2224C21.0379 16.3077 22.1832 17.124 23.1456 17.1971C24.5833 16.9047 25.96 16.064 27.4951 16.1737C29.3348 16.3199 30.7237 17.0509 31.6374 18.3667C27.8362 20.645 28.7378 25.6523 32.2222 27.0534C31.5278 28.8809 30.6262 30.6962 29.1277 32.0364L29.1399 32.0242ZM23.0238 16.1493C22.8411 13.4324 25.0463 11.1907 27.5804 10.9714C27.9337 14.1147 24.7295 16.4539 23.0238 16.1493Z" fill="white"/>
<path d="M43.6548 13.3908C44.1918 13.3908 44.6558 13.492 45.0467 13.6946C45.4424 13.8924 45.7438 14.1774 45.9511 14.5495C46.163 14.9216 46.269 15.3596 46.269 15.8636C46.269 16.3676 46.163 16.8057 45.9511 17.1778C45.7438 17.5452 45.4424 17.8278 45.0467 18.0256C44.6558 18.2187 44.1918 18.3153 43.6548 18.3153H42.1217V13.3908H43.6548ZM43.6548 17.7854C44.2907 17.7854 44.7759 17.6182 45.1103 17.2838C45.4447 16.9446 45.6119 16.4712 45.6119 15.8636C45.6119 15.2513 45.4424 14.7732 45.1032 14.4294C44.7688 14.0855 44.286 13.9136 43.6548 13.9136H42.7646V17.7854H43.6548ZM48.8057 18.3789C48.443 18.3789 48.1133 18.2965 47.8166 18.1316C47.5245 17.9667 47.2937 17.7336 47.1242 17.4321C46.9593 17.126 46.8769 16.7727 46.8769 16.3723C46.8769 15.9767 46.9617 15.6281 47.1312 15.3267C47.3055 15.0205 47.541 14.7873 47.8378 14.6272C48.1345 14.4623 48.4666 14.3799 48.834 14.3799C49.2014 14.3799 49.5334 14.4623 49.8302 14.6272C50.1269 14.7873 50.3601 15.0181 50.5297 15.3196C50.7039 15.621 50.7911 15.972 50.7911 16.3723C50.7911 16.7727 50.7016 17.126 50.5226 17.4321C50.3483 17.7336 50.1104 17.9667 49.809 18.1316C49.5075 18.2965 49.1731 18.3789 48.8057 18.3789ZM48.8057 17.8137C49.0365 17.8137 49.2532 17.7595 49.4557 17.6512C49.6583 17.5428 49.8208 17.3803 49.9432 17.1636C50.0704 16.947 50.134 16.6832 50.134 16.3723C50.134 16.0615 50.0728 15.7977 49.9503 15.581C49.8278 15.3643 49.6677 15.2042 49.4698 15.1006C49.272 14.9922 49.0577 14.9381 48.8269 14.9381C48.5914 14.9381 48.3747 14.9922 48.1769 15.1006C47.9838 15.2042 47.8283 15.3643 47.7106 15.581C47.5928 15.7977 47.5339 16.0615 47.5339 16.3723C47.5339 16.6879 47.5905 16.954 47.7035 17.1707C47.8213 17.3874 47.9767 17.5499 48.1698 17.6582C48.3629 17.7618 48.5749 17.8137 48.8057 17.8137ZM56.7941 14.4435L55.586 18.3153H54.9218L53.9892 15.2419L53.0566 18.3153H52.3924L51.1772 14.4435H51.8343L52.7245 17.6935L53.6854 14.4435H54.3425L55.2821 17.7006L56.1582 14.4435H56.7941ZM59.3187 14.3728C59.7897 14.3728 60.1712 14.5165 60.4633 14.8038C60.7553 15.0864 60.9013 15.4962 60.9013 16.0332V18.3153H60.2654V16.125C60.2654 15.7388 60.1689 15.4444 59.9757 15.2419C59.7826 15.0346 59.5188 14.931 59.1844 14.931C58.8453 14.931 58.5744 15.037 58.3719 15.2489C58.1741 15.4609 58.0752 15.7694 58.0752 16.1745V18.3153H57.4322V14.4435H58.0752V14.9946C58.2023 14.7968 58.3743 14.6437 58.5909 14.5353C58.8123 14.427 59.0549 14.3728 59.3187 14.3728ZM62.5945 13.0869V18.3153H61.9516V13.0869H62.5945ZM65.3789 18.3789C65.0162 18.3789 64.6865 18.2965 64.3898 18.1316C64.0977 17.9667 63.8669 17.7336 63.6974 17.4321C63.5325 17.126 63.4501 16.7727 63.4501 16.3723C63.4501 15.9767 63.5349 15.6281 63.7044 15.3267C63.8787 15.0205 64.1142 14.7873 64.411 14.6272C64.7077 14.4623 65.0398 14.3799 65.4072 14.3799C65.7746 14.3799 66.1066 14.4623 66.4034 14.6272C66.7001 14.7873 66.9333 15.0181 67.1029 15.3196C67.2771 15.621 67.3643 15.972 67.3643 16.3723C67.3643 16.7727 67.2748 17.126 67.0958 17.4321C66.9215 17.7336 66.6836 17.9667 66.3822 18.1316C66.0807 18.2965 65.7463 18.3789 65.3789 18.3789ZM65.3789 17.8137C65.6097 17.8137 65.8264 17.7595 66.0289 17.6512C66.2315 17.5428 66.394 17.3803 66.5164 17.1636C66.6436 16.947 66.7072 16.6832 66.7072 16.3723C66.7072 16.0615 66.646 15.7977 66.5235 15.581C66.401 15.3643 66.2409 15.2042 66.0431 15.1006C65.8452 14.9922 65.6309 14.9381 65.4001 14.9381C65.1646 14.9381 64.9479 14.9922 64.7501 15.1006C64.557 15.2042 64.4015 15.3643 64.2838 15.581C64.166 15.7977 64.1071 16.0615 64.1071 16.3723C64.1071 16.6879 64.1637 16.954 64.2767 17.1707C64.3945 17.3874 64.5499 17.5499 64.743 17.6582C64.9361 17.7618 65.1481 17.8137 65.3789 17.8137ZM67.9694 16.3653C67.9694 15.9696 68.0495 15.6234 68.2096 15.3267C68.3698 15.0252 68.5888 14.792 68.8667 14.6272C69.1493 14.4623 69.4626 14.3799 69.8064 14.3799C70.1455 14.3799 70.4399 14.4529 70.6896 14.5989C70.9392 14.7449 71.1253 14.9286 71.2477 15.15V14.4435H71.8977V18.3153H71.2477V17.5946C71.1206 17.8207 70.9298 18.0091 70.6754 18.1599C70.4258 18.3059 70.1338 18.3789 69.7993 18.3789C69.4555 18.3789 69.1446 18.2941 68.8667 18.1245C68.5888 17.955 68.3698 17.7171 68.2096 17.4109C68.0495 17.1048 67.9694 16.7562 67.9694 16.3653ZM71.2477 16.3723C71.2477 16.0803 71.1889 15.8259 71.0711 15.6093C70.9533 15.3926 70.7932 15.2277 70.5907 15.1147C70.3928 14.9969 70.1738 14.9381 69.9336 14.9381C69.6934 14.9381 69.4743 14.9946 69.2765 15.1076C69.0787 15.2207 68.9209 15.3855 68.8031 15.6022C68.6854 15.8189 68.6265 16.0732 68.6265 16.3653C68.6265 16.662 68.6854 16.9211 68.8031 17.1425C68.9209 17.3591 69.0787 17.5263 69.2765 17.6441C69.4743 17.7571 69.6934 17.8137 69.9336 17.8137C70.1738 17.8137 70.3928 17.7571 70.5907 17.6441C70.7932 17.5263 70.9533 17.3591 71.0711 17.1425C71.1889 16.9211 71.2477 16.6644 71.2477 16.3723ZM72.744 16.3653C72.744 15.9696 72.8241 15.6234 72.9843 15.3267C73.1444 15.0252 73.3634 14.792 73.6413 14.6272C73.9239 14.4623 74.2395 14.3799 74.5881 14.3799C74.8895 14.3799 75.1698 14.4506 75.4289 14.5919C75.6879 14.7285 75.8858 14.9098 76.0224 15.1359V13.0869H76.6724V18.3153H76.0224V17.5876C75.8952 17.8184 75.7068 18.0091 75.4571 18.1599C75.2075 18.3059 74.9155 18.3789 74.581 18.3789C74.2372 18.3789 73.9239 18.2941 73.6413 18.1245C73.3634 17.955 73.1444 17.7171 72.9843 17.4109C72.8241 17.1048 72.744 16.7562 72.744 16.3653ZM76.0224 16.3723C76.0224 16.0803 75.9635 15.8259 75.8457 15.6093C75.728 15.3926 75.5678 15.2277 75.3653 15.1147C75.1674 14.9969 74.9484 14.9381 74.7082 14.9381C74.468 14.9381 74.249 14.9946 74.0511 15.1076C73.8533 15.2207 73.6955 15.3855 73.5777 15.6022C73.46 15.8189 73.4011 16.0732 73.4011 16.3653C73.4011 16.662 73.46 16.9211 73.5777 17.1425C73.6955 17.3591 73.8533 17.5263 74.0511 17.6441C74.249 17.7571 74.468 17.8137 74.7082 17.8137C74.9484 17.8137 75.1674 17.7571 75.3653 17.6441C75.5678 17.5263 75.728 17.3591 75.8457 17.1425C75.9635 16.9211 76.0224 16.6644 76.0224 16.3723ZM81.3311 18.3789C80.9684 18.3789 80.6387 18.2965 80.342 18.1316C80.05 17.9667 79.8192 17.7336 79.6496 17.4321C79.4847 17.126 79.4023 16.7727 79.4023 16.3723C79.4023 15.9767 79.4871 15.6281 79.6567 15.3267C79.8309 15.0205 80.0664 14.7873 80.3632 14.6272C80.6599 14.4623 80.992 14.3799 81.3594 14.3799C81.7268 14.3799 82.0589 14.4623 82.3556 14.6272C82.6524 14.7873 82.8855 15.0181 83.0551 15.3196C83.2294 15.621 83.3165 15.972 83.3165 16.3723C83.3165 16.7727 83.227 17.126 83.048 17.4321C82.8737 17.7336 82.6359 17.9667 82.3344 18.1316C82.033 18.2965 81.6985 18.3789 81.3311 18.3789ZM81.3311 17.8137C81.5619 17.8137 81.7786 17.7595 81.9811 17.6512C82.1837 17.5428 82.3462 17.3803 82.4687 17.1636C82.5958 16.947 82.6594 16.6832 82.6594 16.3723C82.6594 16.0615 82.5982 15.7977 82.4757 15.581C82.3533 15.3643 82.1931 15.2042 81.9953 15.1006C81.7975 14.9922 81.5831 14.9381 81.3523 14.9381C81.1168 14.9381 80.9002 14.9922 80.7023 15.1006C80.5092 15.2042 80.3538 15.3643 80.236 15.581C80.1183 15.7977 80.0594 16.0615 80.0594 16.3723C80.0594 16.6879 80.1159 16.954 80.2289 17.1707C80.3467 17.3874 80.5021 17.5499 80.6953 17.6582C80.8884 17.7618 81.1003 17.8137 81.3311 17.8137ZM86.0483 14.3728C86.5193 14.3728 86.9009 14.5165 87.1929 14.8038C87.4849 15.0864 87.6309 15.4962 87.6309 16.0332V18.3153H86.9951V16.125C86.9951 15.7388 86.8985 15.4444 86.7054 15.2419C86.5123 15.0346 86.2485 14.931 85.9141 14.931C85.5749 14.931 85.3041 15.037 85.1015 15.2489C84.9037 15.4609 84.8048 15.7694 84.8048 16.1745V18.3153H84.1619V14.4435H84.8048V14.9946C84.932 14.7968 85.1039 14.6437 85.3206 14.5353C85.542 14.427 85.7845 14.3728 86.0483 14.3728ZM91.3491 14.9734V17.2555C91.3491 17.4439 91.3891 17.5781 91.4692 17.6582C91.5493 17.7336 91.6882 17.7713 91.886 17.7713H92.3594V18.3153H91.7801C91.4221 18.3153 91.1536 18.2329 90.9746 18.068C90.7956 17.9032 90.7061 17.6323 90.7061 17.2555V14.9734H90.2045V14.4435H90.7061V13.4685H91.3491V14.4435H92.3594V14.9734H91.3491ZM95.0602 14.3728C95.3522 14.3728 95.616 14.4364 95.8515 14.5636C96.087 14.6861 96.2707 14.8721 96.4026 15.1218C96.5392 15.3714 96.6075 15.6752 96.6075 16.0332V18.3153H95.9716V16.125C95.9716 15.7388 95.8751 15.4444 95.682 15.2419C95.4888 15.0346 95.2251 14.931 94.8906 14.931C94.5515 14.931 94.2807 15.037 94.0781 15.2489C93.8803 15.4609 93.7814 15.7694 93.7814 16.1745V18.3153H93.1384V13.0869H93.7814V14.9946C93.9086 14.7968 94.0828 14.6437 94.3042 14.5353C94.5303 14.427 94.7823 14.3728 95.0602 14.3728ZM101.19 16.231C101.19 16.3535 101.183 16.483 101.169 16.6196H98.0746C98.0982 17.0011 98.2277 17.3002 98.4632 17.5169C98.7034 17.7289 98.9931 17.8349 99.3323 17.8349C99.6102 17.8349 99.841 17.7713 100.025 17.6441C100.213 17.5122 100.345 17.3379 100.42 17.1213H101.113C101.009 17.4934 100.802 17.7972 100.491 18.0327C100.18 18.2635 99.7939 18.3789 99.3323 18.3789C98.9649 18.3789 98.6351 18.2965 98.3431 18.1316C98.0558 17.9667 97.8297 17.7336 97.6648 17.4321C97.5 17.126 97.4175 16.7727 97.4175 16.3723C97.4175 15.972 97.4976 15.621 97.6578 15.3196C97.8179 15.0181 98.0417 14.7873 98.329 14.6272C98.621 14.4623 98.9554 14.3799 99.3323 14.3799C99.6997 14.3799 100.025 14.46 100.307 14.6201C100.59 14.7803 100.807 15.0017 100.957 15.2843C101.113 15.5622 101.19 15.8778 101.19 16.231ZM100.526 16.0968C100.526 15.8518 100.472 15.6422 100.364 15.468C100.255 15.289 100.107 15.1547 99.9187 15.0652C99.735 14.971 99.5301 14.9239 99.304 14.9239C98.979 14.9239 98.7011 15.0276 98.4703 15.2348C98.2442 15.4421 98.1147 15.7294 98.0817 16.0968H100.526Z" fill="white"/>
<path d="M47.5506 26.9663H43.8373L43.1533 28.8595H41.9807L45.0588 20.3948H46.3414L49.4072 28.8595H48.2346L47.5506 26.9663ZM47.233 26.0624L45.694 21.7628L44.1549 26.0624H47.233ZM51.8603 23.3996C52.0801 23.0169 52.4059 22.6993 52.8375 22.4468C53.2772 22.1863 53.7861 22.056 54.3643 22.056C54.9587 22.056 55.4962 22.1985 55.9766 22.4835C56.4652 22.7685 56.8479 23.1716 57.1248 23.6927C57.4017 24.2057 57.5401 24.8043 57.5401 25.4883C57.5401 26.1642 57.4017 26.7668 57.1248 27.2961C56.8479 27.8254 56.4652 28.2366 55.9766 28.5297C55.4962 28.8229 54.9587 28.9695 54.3643 28.9695C53.7943 28.9695 53.2894 28.8432 52.8497 28.5908C52.4181 28.3302 52.0883 28.0086 51.8603 27.6259V32.0353H50.7488V22.1659H51.8603V23.3996ZM56.4041 25.4883C56.4041 24.9834 56.3024 24.5437 56.0988 24.1691C55.8952 23.7945 55.6183 23.5095 55.2682 23.3141C54.9262 23.1186 54.5475 23.0209 54.1322 23.0209C53.7251 23.0209 53.3464 23.1227 52.9962 23.3263C52.6542 23.5217 52.3774 23.8108 52.1657 24.1935C51.9621 24.5681 51.8603 25.0038 51.8603 25.5005C51.8603 26.0054 51.9621 26.4492 52.1657 26.8319C52.3774 27.2065 52.6542 27.4956 52.9962 27.6991C53.3464 27.8946 53.7251 27.9923 54.1322 27.9923C54.5475 27.9923 54.9262 27.8946 55.2682 27.6991C55.6183 27.4956 55.8952 27.2065 56.0988 26.8319C56.3024 26.4492 56.4041 26.0013 56.4041 25.4883ZM60.1147 23.3996C60.3346 23.0169 60.6603 22.6993 61.0919 22.4468C61.5316 22.1863 62.0406 22.056 62.6187 22.056C63.2132 22.056 63.7506 22.1985 64.2311 22.4835C64.7197 22.7685 65.1024 23.1716 65.3792 23.6927C65.6561 24.2057 65.7945 24.8043 65.7945 25.4883C65.7945 26.1642 65.6561 26.7668 65.3792 27.2961C65.1024 27.8254 64.7197 28.2366 64.2311 28.5297C63.7506 28.8229 63.2132 28.9695 62.6187 28.9695C62.0487 28.9695 61.5438 28.8432 61.1041 28.5908C60.6725 28.3302 60.3427 28.0086 60.1147 27.6259V32.0353H59.0032V22.1659H60.1147V23.3996ZM64.6586 25.4883C64.6586 24.9834 64.5568 24.5437 64.3532 24.1691C64.1496 23.7945 63.8728 23.5095 63.5226 23.3141C63.1806 23.1186 62.802 23.0209 62.3867 23.0209C61.9795 23.0209 61.6008 23.1227 61.2507 23.3263C60.9087 23.5217 60.6318 23.8108 60.4201 24.1935C60.2165 24.5681 60.1147 25.0038 60.1147 25.5005C60.1147 26.0054 60.2165 26.4492 60.4201 26.8319C60.6318 27.2065 60.9087 27.4956 61.2507 27.6991C61.6008 27.8946 61.9795 27.9923 62.3867 27.9923C62.802 27.9923 63.1806 27.8946 63.5226 27.6991C63.8728 27.4956 64.1496 27.2065 64.3532 26.8319C64.5568 26.4492 64.6586 26.0013 64.6586 25.4883ZM73.2135 28.945C72.6517 28.945 72.1468 28.8473 71.6989 28.6519C71.2592 28.4483 70.9131 28.1714 70.6607 27.8213C70.4082 27.463 70.2779 27.0518 70.2698 26.5876H71.4546C71.4953 26.9866 71.6582 27.3246 71.9432 27.6014C72.2364 27.8701 72.6598 28.0045 73.2135 28.0045C73.7428 28.0045 74.1581 27.8742 74.4594 27.6136C74.7689 27.3449 74.9236 27.0029 74.9236 26.5876C74.9236 26.2619 74.834 25.9972 74.6549 25.7937C74.4757 25.5901 74.2518 25.4354 73.983 25.3295C73.7143 25.2236 73.352 25.1096 72.8959 24.9875C72.3341 24.8409 71.8821 24.6943 71.5401 24.5478C71.2062 24.4012 70.9172 24.1732 70.6729 23.8637C70.4367 23.5462 70.3186 23.1227 70.3186 22.5934C70.3186 22.1293 70.4367 21.718 70.6729 21.3597C70.909 21.0014 71.2388 20.7246 71.6623 20.5291C72.0938 20.3337 72.5865 20.236 73.1402 20.236C73.9383 20.236 74.5897 20.4355 75.0946 20.8345C75.6076 21.2335 75.8967 21.7628 75.9618 22.4224H74.7404C74.6996 22.0967 74.5286 21.8117 74.2273 21.5674C73.926 21.3149 73.527 21.1887 73.0303 21.1887C72.5661 21.1887 72.1875 21.3109 71.8943 21.5552C71.6012 21.7913 71.4546 22.1252 71.4546 22.5568C71.4546 22.8662 71.5401 23.1186 71.7111 23.3141C71.8903 23.5095 72.1061 23.6602 72.3585 23.766C72.6191 23.8637 72.9814 23.9777 73.4456 24.108C74.0075 24.2627 74.4594 24.4175 74.8014 24.5722C75.1434 24.7188 75.4366 24.9508 75.6809 25.2684C75.9252 25.5779 76.0473 26.0013 76.0473 26.5387C76.0473 26.954 75.9374 27.3449 75.7175 27.7114C75.4977 28.0778 75.1719 28.375 74.7404 28.603C74.3088 28.831 73.7998 28.945 73.2135 28.945ZM79.0389 23.082V27.0273C79.0389 27.3531 79.1081 27.5851 79.2465 27.7236C79.385 27.8539 79.6252 27.919 79.9672 27.919H80.7856V28.8595H79.784C79.1651 28.8595 78.7009 28.717 78.3915 28.432C78.0821 28.147 77.9273 27.6788 77.9273 27.0273V23.082H77.0601V22.1659H77.9273V20.4803H79.0389V22.1659H80.7856V23.082H79.0389ZM85.0516 28.9695C84.4246 28.9695 83.8546 28.827 83.3416 28.542C82.8367 28.2569 82.4377 27.8539 82.1445 27.3327C81.8595 26.8034 81.717 26.1927 81.717 25.5005C81.717 24.8165 81.8636 24.2139 82.1568 23.6927C82.4581 23.1634 82.8652 22.7603 83.3782 22.4835C83.8912 22.1985 84.4653 22.056 85.1005 22.056C85.7357 22.056 86.3097 22.1985 86.8228 22.4835C87.3358 22.7603 87.7389 23.1594 88.032 23.6805C88.3333 24.2017 88.484 24.8083 88.484 25.5005C88.484 26.1927 88.3292 26.8034 88.0198 27.3327C87.7185 27.8539 87.3073 28.2569 86.7861 28.542C86.265 28.827 85.6868 28.9695 85.0516 28.9695ZM85.0516 27.9923C85.4506 27.9923 85.8252 27.8986 86.1754 27.7114C86.5255 27.5241 86.8065 27.2431 87.0182 26.8685C87.2381 26.494 87.348 26.0379 87.348 25.5005C87.348 24.9631 87.2421 24.507 87.0304 24.1325C86.8187 23.7579 86.5418 23.481 86.1998 23.3019C85.8578 23.1146 85.4873 23.0209 85.0883 23.0209C84.6811 23.0209 84.3065 23.1146 83.9645 23.3019C83.6307 23.481 83.3619 23.7579 83.1584 24.1325C82.9548 24.507 82.853 24.9631 82.853 25.5005C82.853 26.0461 82.9507 26.5062 83.1461 26.8808C83.3497 27.2553 83.6184 27.5363 83.9523 27.7236C84.2862 27.9027 84.6526 27.9923 85.0516 27.9923ZM91.057 23.253C91.2524 22.8703 91.5293 22.5731 91.8876 22.3613C92.254 22.1496 92.6978 22.0438 93.219 22.0438V23.1919H92.9258C91.6799 23.1919 91.057 23.8678 91.057 25.2196V28.8595H89.9454V22.1659H91.057V23.253ZM100.609 25.2562C100.609 25.4679 100.597 25.6919 100.573 25.928H95.2227C95.2634 26.5876 95.4874 27.1047 95.8945 27.4793C96.3098 27.8457 96.8106 28.0289 97.3969 28.0289C97.8774 28.0289 98.2764 27.919 98.594 27.6991C98.9197 27.4711 99.1477 27.1698 99.278 26.7953H100.475C100.296 27.4386 99.9376 27.9638 99.4001 28.3709C98.8627 28.77 98.195 28.9695 97.3969 28.9695C96.7618 28.9695 96.1918 28.827 95.6869 28.542C95.1902 28.2569 94.7993 27.8539 94.5143 27.3327C94.2293 26.8034 94.0868 26.1927 94.0868 25.5005C94.0868 24.8083 94.2252 24.2017 94.5021 23.6805C94.7789 23.1594 95.1657 22.7603 95.6625 22.4835C96.1673 22.1985 96.7455 22.056 97.3969 22.056C98.0321 22.056 98.594 22.1944 99.0826 22.4713C99.5712 22.7481 99.9457 23.1309 100.206 23.6194C100.475 24.0999 100.609 24.6455 100.609 25.2562ZM99.4612 25.0241C99.4612 24.6007 99.3676 24.2383 99.1803 23.937C98.993 23.6276 98.7365 23.3955 98.4108 23.2408C98.0932 23.0779 97.739 22.9965 97.3481 22.9965C96.7862 22.9965 96.3058 23.1756 95.9068 23.5339C95.5159 23.8922 95.2919 24.389 95.2349 25.0241H99.4612Z" fill="white"/>
</g>
<defs>
<clipPath id="clip0_1122_7633">
<rect width="125" height="43.8482" fill="white" transform="translate(0 0.5)"/>
</clipPath>
</defs>
</svg>
