<svg width="126" height="201" viewBox="0 0 126 201" fill="none" xmlns="http://www.w3.org/2000/svg">
<path d="M114.782 196.429C115.036 196.46 115.258 196.489 115.447 196.517C115.42 196.525 115.392 196.533 115.363 196.542C114.771 196.709 113.872 196.919 112.68 197.157C110.297 197.633 106.76 198.215 102.203 198.778C93.0894 199.905 79.9051 200.958 63.7358 200.943C47.5595 200.927 33.0462 200.437 22.6082 199.823C17.3886 199.516 13.191 199.178 10.3152 198.853C8.87599 198.69 7.77429 198.532 7.04285 198.383C6.80357 198.334 6.60935 198.288 6.45849 198.244C6.46039 198.243 6.4623 198.243 6.46422 198.242C6.75103 198.155 7.17574 198.059 7.73048 197.956C8.83738 197.749 10.4306 197.52 12.4021 197.279C16.3435 196.797 21.7794 196.268 27.8219 195.777C39.908 194.793 54.4062 193.958 64.2081 193.938C74.0123 193.918 86.9791 194.47 97.5232 195.098C102.795 195.412 107.459 195.745 110.817 196.035C112.496 196.18 113.846 196.314 114.782 196.429ZM6.12002 198.111C6.12004 198.111 6.12037 198.112 6.12097 198.112L6.12002 198.111Z" fill="white" stroke="#7A7A7A" stroke-width="0.552135"/>
<path d="M1.84623 33.8476L1.8226 33.5721C1.88169 33.546 1.95521 33.5138 2.04252 33.4761C2.30327 33.3633 2.68707 33.2008 3.1777 33.0028C4.15903 32.6069 5.56727 32.0692 7.27268 31.5031C10.6854 30.3703 15.2794 29.1266 20.0198 28.6744C24.5412 28.2444 29.1665 28.5356 33.024 30.3072L39.3623 196.917L39.0176 196.915C38.6103 196.914 38.0211 196.911 37.2939 196.908C35.8394 196.903 33.8324 196.896 31.6224 196.892C28.1292 196.884 24.1277 196.884 20.9992 196.905C19.4352 196.916 18.088 196.931 17.1312 196.954C16.6533 196.965 16.27 196.978 16.005 196.993C15.9559 196.996 15.9101 196.999 15.868 197.002C15.8639 196.956 15.8593 196.904 15.8543 196.847C15.8277 196.544 15.7881 196.09 15.7365 195.496C15.6333 194.308 15.482 192.557 15.2894 190.325C14.9041 185.86 14.3538 179.468 13.6934 171.79C12.3725 156.434 10.6114 135.937 8.8503 115.431C7.08918 94.9252 5.32806 74.4117 4.00722 59.0245L2.4112 40.4304L1.96404 35.2203L1.84623 33.8476Z" fill="white" stroke="#7A7A7A" stroke-width="0.552135"/>
<path opacity="0.3" d="M6.861 42.0385C6.86113 42.0385 6.86127 42.0384 6.8614 42.0384C6.99341 41.9972 7.18624 41.938 7.42861 41.8663C7.91346 41.7228 8.59607 41.5295 9.38637 41.33C10.8824 40.9525 12.7511 40.5567 14.3922 40.4324L14.3939 40.582C14.3975 40.8734 14.4033 41.3063 14.4117 41.8722C14.4286 43.0041 14.4563 44.6684 14.4999 46.7982C14.5869 51.0578 14.7371 57.1799 14.9894 64.6302C15.494 79.5306 16.4074 99.7451 18.0426 121C19.6776 142.256 21.6536 159.047 23.221 170.524C24.0047 176.263 24.6863 180.674 25.172 183.65C25.4149 185.138 25.6088 186.268 25.742 187.026C25.8062 187.391 25.8563 187.669 25.891 187.86L19.4072 188.197L19.3681 187.873C19.3221 187.492 19.2544 186.927 19.1673 186.195C18.993 184.731 18.7409 182.596 18.43 179.914C17.8082 174.549 16.9509 166.992 16.0089 158.226C14.1249 140.695 11.9026 118.33 10.5487 98.9907C9.19473 79.6472 8.26989 65.3554 7.68355 55.8997C7.39038 51.1719 7.18183 47.653 7.04658 45.3163C6.97896 44.1479 6.92966 43.275 6.89726 42.6943C6.88107 42.4039 6.8691 42.1866 6.86118 42.0419L6.861 42.0385Z" fill="white" stroke="#7A7A7A" stroke-width="0.552135"/>
<path d="M36.0233 38.0845C25.3606 35.9206 15.6861 36.6259 9.05724 37.7238L9.05692 37.7239C6.33408 38.1781 4.12102 38.697 2.56615 39.1106L2.56593 39.1107C1.75642 39.3267 1.12441 39.5146 0.689385 39.6501C0.670254 39.6561 0.651504 39.6619 0.633138 39.6677L1.57733 37.8066L1.62434 37.7861C1.70513 37.7508 1.82082 37.7006 1.97069 37.6379C2.27036 37.5125 2.70762 37.3368 3.27462 37.1311C4.821 36.577 7.33402 35.8 10.6406 35.2223L10.6409 35.2223C16.4345 34.2045 24.6662 33.7824 34.4308 36.1742L36.0233 38.0845Z" fill="white" stroke="#7A7A7A" stroke-width="0.552135"/>
<path d="M8.74784 47.761L8.74794 47.761C14.2464 46.8004 23.0711 46.1416 35.4296 47.8259L34.4018 46.0383C23.4344 43.6767 15.222 44.2576 9.85515 45.3631L9.85476 45.3632C7.38056 45.8692 5.50876 46.4874 4.2504 46.98L8.74784 47.761ZM8.74784 47.761C6.62367 48.1329 4.99747 48.5504 3.85456 48.897M8.74784 47.761L3.85456 48.897M3.85456 48.897C3.19036 49.0968 2.68937 49.2713 2.34974 49.3984C2.31779 49.4104 2.28727 49.4219 2.25817 49.433L2.46227 47.7709C2.72388 47.6385 3.3175 47.3457 4.25026 46.98L3.85456 48.897Z" fill="white" stroke="#7A7A7A" stroke-width="0.552135"/>
<path d="M35.5686 58.9982C25.4534 57.1889 16.6039 57.9013 10.6603 58.9237C7.98487 59.3825 5.89597 59.9053 4.54469 60.285L4.5446 60.285C3.9639 60.4484 3.51812 60.5865 3.2183 60.6835L3.52162 58.9912C3.55098 58.9772 3.58251 58.962 3.6154 58.9461L3.61946 58.9441C3.63018 58.9389 3.64122 58.9336 3.65258 58.9281C3.76142 58.8754 3.90009 58.8083 4.06931 58.729C4.44261 58.554 4.96458 58.3196 5.62988 58.056C7.01032 57.5137 9.01026 56.8391 11.5773 56.3072C16.9383 55.2021 24.7836 54.7119 34.6587 57.3073L35.5686 58.9982Z" fill="white" stroke="#7A7A7A" stroke-width="0.552135"/>
<path d="M6.53181 67.9597L6.53223 67.9595C8.00395 67.4537 10.1153 66.8347 12.7224 66.3659L12.723 66.3658C18.3386 65.3423 26.2482 65.0034 35.0005 67.9422L35.8774 69.7125C26.984 67.9574 18.1615 68.3737 11.9042 69.134C9.45538 69.429 7.39572 69.7814 5.8808 70.0767C4.82928 70.2781 4.03791 70.4533 3.55619 70.5658L4.28358 68.8223L4.35956 68.7895C4.46609 68.7437 4.61956 68.6784 4.81793 68.5977C5.21472 68.4363 5.79198 68.2127 6.53181 67.9597Z" fill="white" stroke="#7A7A7A" stroke-width="0.552135"/>
<path d="M36.1524 79.1224C26.4265 77.7705 18.2666 78.3411 13.0888 79.0727L13.0886 79.0727C12.665 79.1329 12.2559 79.1938 11.8607 79.2581C9.39844 79.6443 7.44664 80.084 6.1028 80.4297C5.42351 80.6042 4.89906 80.7543 4.54171 80.862C4.53947 80.8627 4.53723 80.8634 4.535 80.864L5.18611 79.154C5.21182 79.1434 5.24047 79.1316 5.27177 79.1186C5.34295 79.0892 5.42782 79.054 5.52307 79.0155C5.76375 78.9181 6.09702 78.7875 6.52106 78.6362L6.52142 78.6361C7.76176 78.1915 9.78472 77.5654 12.5492 77.0706C17.6457 76.1584 25.2712 75.6912 35.1736 77.6171L36.1524 79.1224Z" fill="white" stroke="#7A7A7A" stroke-width="0.552135"/>
<path d="M7.46922 88.4887L7.46921 88.4887C6.97147 88.6759 6.57375 88.8387 6.28227 88.9606C6.21247 88.9897 6.14709 89.0173 6.08693 89.0427C5.99139 89.083 5.909 89.1177 5.84295 89.1445L5.21673 90.9201C5.58847 90.8132 6.14752 90.6592 6.86742 90.4799M7.46922 88.4887L6.93447 90.7477M7.46922 88.4887C8.81251 87.9834 10.8881 87.3053 13.5652 86.7879L13.5655 86.7878C18.9894 85.7351 26.8831 85.3352 36.1881 88.3714M7.46922 88.4887L37.4819 90.6191L37.3349 90.2862C37.2194 90.2515 37.1038 90.2175 36.9881 90.184M6.86742 90.4799C6.86754 90.4799 6.86765 90.4798 6.86776 90.4798L6.93447 90.7477M6.86742 90.4799C6.86728 90.4799 6.86714 90.48 6.867 90.48L6.93447 90.7477M6.86742 90.4799C8.31231 90.1157 10.4075 89.6495 12.9452 89.2519M6.93447 90.7477C8.37243 90.3853 10.4595 89.9208 12.9881 89.5246C19.338 88.5267 28.4764 87.9511 37.1339 90.5143L36.9881 90.184M12.9452 89.2519L12.9881 89.5245L12.9453 89.2518C12.9453 89.2519 12.9452 89.2519 12.9452 89.2519ZM12.9452 89.2519C19.2585 88.2598 28.3409 87.6797 36.9881 90.184M36.9881 90.184L36.1881 88.3714M36.1881 88.3714C36.2269 88.384 36.2658 88.3968 36.3047 88.4096L36.3909 88.1473L36.1384 88.2588L36.1881 88.3714ZM5.10373 91.2405C4.90028 91.3004 4.78814 91.336 4.77588 91.3401L4.89017 91.016L5.10373 91.2405Z" fill="white" stroke="#7A7A7A" stroke-width="0.552135"/>
<path d="M36.7564 100.134L36.0177 98.4253C27.7171 95.7741 20.1307 96.1159 14.7674 97.031C11.7173 97.5523 9.38763 98.2617 8.05229 98.7041C7.7401 98.8088 7.48187 98.899 7.28043 98.9694C7.25806 98.9772 7.2364 98.9847 7.21543 98.9921C7.11034 99.0287 7.01676 99.0614 6.94033 99.0866L6.45022 100.684C6.66578 100.638 6.95269 100.58 7.30443 100.511C7.30459 100.511 7.30475 100.511 7.3049 100.511L7.35755 100.782C8.70859 100.514 11.022 100.103 13.9133 99.7518L36.7564 100.134ZM36.7564 100.134C29.068 98.2297 20.1223 98.7136 13.8799 99.4778" fill="white" stroke="#7A7A7A" stroke-width="0.552135"/>
<path d="M9.21714 109.225L9.21755 109.225C10.4437 108.863 12.3222 108.394 14.7649 108.034C19.8415 107.293 27.3656 107.033 36.6054 109.238L37.8633 111.075C29.3799 109.607 20.3876 109.972 14.1437 110.576C11.7 110.811 9.672 111.083 8.26025 111.295C7.55782 111.4 7.00496 111.491 6.62696 111.556L7.62402 109.748C7.62642 109.747 7.62885 109.747 7.63132 109.746C7.64005 109.743 7.64922 109.739 7.65878 109.736C7.73554 109.708 7.84497 109.668 7.98653 109.618C8.26965 109.52 8.68233 109.382 9.21714 109.225Z" fill="white" stroke="#7A7A7A" stroke-width="0.552135"/>
<path d="M9.18367 121.076L9.18278 121.076C8.40581 121.17 7.78661 121.252 7.35629 121.31C7.32586 121.314 7.29637 121.318 7.26784 121.322L8.40949 119.587C8.50641 119.566 8.63773 119.534 8.79356 119.495C8.82889 119.487 8.8659 119.477 8.90458 119.468C9.14323 119.409 9.4455 119.334 9.80795 119.248C11.0521 118.956 13.0019 118.535 15.4668 118.189L15.4672 118.189C20.8202 117.43 28.5998 117.007 36.8541 118.935L37.4507 120.534C30.0265 119.485 20.7035 119.966 14.2866 120.547C12.2419 120.728 10.4917 120.921 9.18367 121.076Z" fill="white" stroke="#7A7A7A" stroke-width="0.552135"/>
<path d="M37.5467 131.31C30.049 130.161 21.5057 130.553 15.585 131.096L15.5848 131.096C13.1271 131.323 11.1189 131.573 9.81771 131.75L9.81746 131.75C9.3343 131.817 8.94816 131.874 8.67232 131.916L9.38907 130.223C9.38964 130.223 9.39021 130.223 9.39078 130.223C9.40422 130.218 9.4187 130.213 9.43423 130.207C9.4977 130.185 9.57872 130.156 9.67775 130.121C9.92379 130.035 10.2798 129.915 10.7362 129.774L10.7367 129.774C12.032 129.373 14.1401 128.807 16.8344 128.383C22.0449 127.57 29.4335 127.299 37.3783 129.847L37.5467 131.31Z" fill="white" stroke="#7A7A7A" stroke-width="0.552135"/>
<path d="M38.0817 142.878C31.7222 141 23.4314 141 17.4381 141.355L17.4379 141.355C14.6426 141.521 12.3386 141.763 10.95 141.926L10.9495 141.926C10.5309 141.976 10.1957 142.02 9.95554 142.052L10.4401 140.493C10.5024 140.473 10.5854 140.448 10.6882 140.418C10.9368 140.344 11.3015 140.24 11.7677 140.12L11.7684 140.12C13.2374 139.738 15.7261 139.186 18.8075 138.863C24.0656 138.318 31.0479 138.44 37.7087 141.192L38.0817 142.878Z" fill="white" stroke="#7A7A7A" stroke-width="0.552135"/>
<path d="M12.3913 154.322L12.3913 154.322L12.3901 154.322C11.8085 154.443 11.3469 154.547 11.026 154.622C11.011 154.626 10.9964 154.629 10.9821 154.633L11.5022 152.958C11.5254 152.95 11.5497 152.941 11.5746 152.931C11.616 152.915 11.6629 152.897 11.7145 152.877C11.7223 152.874 11.7303 152.871 11.7384 152.868C11.7997 152.844 11.8677 152.818 11.9425 152.789C12.2416 152.674 12.65 152.522 13.1602 152.352L13.1609 152.352C14.563 151.881 16.7338 151.267 19.5126 150.91L19.5129 150.91C24.1968 150.305 30.6131 150.429 37.9787 153.205L38.1312 154.59C31.6902 152.437 24.0622 152.685 18.4753 153.344C15.9331 153.644 13.8041 154.034 12.3913 154.322Z" fill="white" stroke="#7A7A7A" stroke-width="0.552135"/>
<path d="M39.5976 164.082C33.0034 162.569 25.0018 162.913 19.1942 163.509L18.9463 163.534V163.539C16.562 163.79 14.5573 164.084 13.1888 164.308C12.5243 164.415 12.01 164.506 11.6742 164.567L12.1678 162.94L12.1815 162.935C12.272 162.906 12.4015 162.865 12.5678 162.814C12.9003 162.712 13.3805 162.57 13.9886 162.405C15.3736 162.03 17.4162 161.54 19.8738 161.157H19.8778L19.8989 161.154C25.4623 160.287 33.0927 159.968 39.9241 162.712L39.5976 164.082Z" fill="white" stroke="#7A7A7A" stroke-width="0.552135"/>
<path d="M13.8093 174.278L13.8087 174.278C13.3032 174.363 12.8984 174.435 12.6118 174.487L13.2525 172.765C13.3422 172.738 13.4558 172.701 13.5851 172.66C13.6074 172.652 13.6304 172.645 13.6541 172.637C13.8798 172.564 14.1686 172.471 14.5167 172.364C15.8605 171.956 18.0744 171.34 20.8621 170.886C25.8743 170.079 32.7168 169.814 39.6365 172.266L41.1816 174.261C38.2865 173.366 34.8356 172.981 31.352 172.892C27.5091 172.794 23.608 173.056 20.3361 173.4C17.5821 173.688 15.2703 174.035 13.8093 174.278Z" fill="white" stroke="#7A7A7A" stroke-width="0.552135"/>
<path d="M21.5982 180.948L21.5981 180.948C18.8805 181.314 16.7331 181.885 15.4078 182.292L21.5982 180.948ZM21.5982 180.948C26.2865 180.313 32.6678 180.277 39.4601 182.678L40.7787 184.895M21.5982 180.948L40.7787 184.895M40.7787 184.895C34.7182 183.202 27.0527 183.259 21.3043 183.663C18.5494 183.856 16.2267 184.132 14.7158 184.337C14.1208 184.417 13.6498 184.487 13.3282 184.536M40.7787 184.895L13.3282 184.536M13.3282 184.536L14.0205 182.757C14.0215 182.757 14.0225 182.756 14.0235 182.756L14.035 182.752C14.1045 182.727 14.1996 182.692 14.3198 182.65C14.5737 182.561 14.9401 182.437 15.4077 182.292L13.3282 184.536Z" fill="white" stroke="#7A7A7A" stroke-width="0.552135"/>
<path opacity="0.2" d="M33.0235 30.3072L39.3615 196.917L39.0168 196.915C38.6094 196.913 38.0202 196.911 37.293 196.908C35.9004 196.903 34.0014 196.896 31.9028 196.892C32.153 184.351 32.615 146.33 30.2361 105.714C27.9274 66.2682 22.4832 38.4545 20.3301 28.646C24.7522 28.2585 29.2544 28.5762 33.0235 30.3072Z" fill="white" stroke="#7A7A7A" stroke-width="0.552135"/>
<path d="M34.2937 38.2994L34.3037 38.9682C26.7318 37.7067 18.7527 38.051 12.644 38.7151C9.54384 39.0521 6.92185 39.4718 5.07437 39.8074C4.15056 39.9753 3.42023 40.1221 2.92041 40.227C2.72648 40.2678 2.56725 40.3022 2.44487 40.3291L2.36329 39.7355C2.38189 39.7303 2.40162 39.7249 2.42246 39.7192C2.61373 39.6669 2.89909 39.5912 3.27359 39.4982C4.02259 39.3123 5.12806 39.0576 6.55026 38.7833C9.39477 38.2347 13.5057 37.6079 18.5653 37.2968C23.62 36.9862 27.6073 37.2516 30.328 37.5939C31.6883 37.765 32.732 37.9553 33.434 38.1024C33.785 38.1759 34.0507 38.2387 34.2278 38.2828C34.2513 38.2887 34.2733 38.2942 34.2937 38.2994Z" fill="white" stroke="#7A7A7A" stroke-width="0.552135"/>
<path d="M17.7211 47.3039L17.6938 47.0292L17.7211 47.3039ZM17.7211 47.3039C9.87711 48.0836 6.30313 48.4652 3.20383 49.6644L3.26762 50.406C3.34018 50.3867 3.42472 50.3646 3.52103 50.3399C3.89926 50.243 4.45913 50.1068 5.18857 49.9489C6.64743 49.6332 8.78472 49.2305 11.5039 48.8812C16.8834 48.1902 24.5416 47.7081 33.7306 48.5223V48.1199C33.6878 48.112 33.639 48.1031 33.5845 48.0933C33.3431 48.0499 32.9887 47.9887 32.5382 47.9176C31.6371 47.7755 30.352 47.594 28.818 47.4373C25.748 47.1236 21.69 46.9097 17.7211 47.3039Z" fill="white" stroke="#7A7A7A" stroke-width="0.552135"/>
<path d="M4.22316 61.5629L4.17193 60.9667C4.18679 60.9626 4.2024 60.9582 4.21876 60.9536C4.39275 60.9049 4.651 60.8345 4.98655 60.7477C5.65768 60.5742 6.6379 60.3354 7.87157 60.0755C10.3392 59.5555 13.8193 58.9511 17.867 58.6134L17.867 58.6134C21.9072 58.2762 26.0278 58.4563 29.1417 58.7215C30.6979 58.8541 32.0008 59.0078 32.9143 59.1282C33.371 59.1885 33.7303 59.2404 33.975 59.2772C34.0318 59.2857 34.0825 59.2935 34.1268 59.3003L34.164 60.2831C34.158 60.2819 34.152 60.2808 34.1458 60.2796C33.9097 60.2352 33.5632 60.1725 33.1201 60.0992C32.234 59.9525 30.9612 59.7629 29.4121 59.5912C26.3149 59.2478 22.1082 58.9751 17.6762 59.2596C13.2494 59.5437 9.80592 60.1473 7.46657 60.6807C6.29689 60.9475 5.40323 61.1967 4.80068 61.3797C4.5623 61.4522 4.36948 61.5142 4.22316 61.5629Z" fill="white" stroke="#7A7A7A" stroke-width="0.552135"/>
<path d="M34.5648 70.438C29.1543 69.298 21.8013 69.6504 15.7774 70.2899C12.6972 70.6168 9.95505 71.0199 7.98292 71.3413C6.99676 71.502 6.20289 71.6423 5.65527 71.7425C5.42977 71.7838 5.24601 71.8182 5.10777 71.8445L5.01954 70.8155C5.04944 70.81 5.08199 70.804 5.11715 70.7976C5.34114 70.7567 5.67067 70.6978 6.09196 70.6261C6.93458 70.4826 8.14406 70.2878 9.61021 70.0825C12.5432 69.6719 16.5001 69.2201 20.6004 69.0542C24.6951 68.8886 28.2433 69.1426 30.7671 69.4378C32.0288 69.5855 33.034 69.7434 33.7229 69.8642C34.0674 69.9246 34.3327 69.9757 34.5114 70.0116C34.5302 70.0154 34.548 70.019 34.5648 70.0224V70.438Z" fill="white" stroke="#7A7A7A" stroke-width="0.552135"/>
<path d="M34.8818 80.4918C29.2845 79.1701 22.0515 79.4299 16.1966 80.022C13.2062 80.3244 10.5665 80.7146 8.67423 81.0291C7.72802 81.1864 6.96845 81.3248 6.44511 81.4239C6.24167 81.4625 6.07391 81.4951 5.94475 81.5206L5.91475 81.0526C5.93887 81.0467 5.96491 81.0403 5.99283 81.0336C6.1902 80.9858 6.48171 80.917 6.85703 80.8329C7.6077 80.6647 8.69347 80.4358 10.0317 80.1932C12.7088 79.7079 16.3935 79.1686 20.4256 78.9512C24.4575 78.7341 28.1416 78.8825 30.8181 79.0854C32.1561 79.1868 33.2415 79.3017 33.992 79.3913C34.3671 79.436 34.6585 79.4744 34.8558 79.5016C34.8758 79.5043 34.8949 79.507 34.913 79.5095L34.8818 80.4918Z" fill="white" stroke="#7A7A7A" stroke-width="0.552135"/>
<path d="M6.81558 91.7642L6.75563 91.0643C6.76942 91.0603 6.78387 91.0561 6.79899 91.0517C6.96907 91.0026 7.223 90.9318 7.5562 90.8455C8.22262 90.673 9.20606 90.4389 10.47 90.1939C12.998 89.7039 16.6472 89.1703 21.1255 88.9984C25.6002 88.8266 29.2151 89.1708 31.709 89.5571C32.9559 89.7502 33.9225 89.9539 34.5759 90.1089C34.9026 90.1864 35.151 90.2517 35.317 90.2974C35.3383 90.3032 35.3582 90.3088 35.3768 90.314L35.4112 91.345C35.2871 91.3001 35.1339 91.2476 34.9501 91.1896C34.3692 91.0062 33.4834 90.7676 32.2523 90.5415C29.7901 90.0893 25.947 89.6872 20.3996 89.8764L20.3996 89.8764C14.8577 90.0656 11.3814 90.5743 9.28458 91.039C8.23591 91.2714 7.53106 91.4931 7.0846 91.6589C6.98154 91.6971 6.89222 91.7324 6.81558 91.7642Z" fill="white" stroke="#7A7A7A" stroke-width="0.552135"/>
<path d="M7.66647 101.703L7.60763 101.017C7.63602 101.012 7.66675 101.007 7.69975 101.001C7.92108 100.962 8.24501 100.907 8.65481 100.84C9.47446 100.706 10.6374 100.524 12.0097 100.334C14.7557 99.9536 18.3348 99.5403 21.6784 99.4065L21.6784 99.4065C24.7424 99.2837 28.3156 99.5608 31.1295 99.8701C32.535 100.025 33.7482 100.187 34.6099 100.31C35.0407 100.372 35.3836 100.424 35.6185 100.461C35.6665 100.468 35.71 100.475 35.7489 100.481V101.644C35.653 101.611 35.5384 101.574 35.404 101.534C34.9032 101.385 34.1261 101.193 33.0069 101.012C30.769 100.651 27.1615 100.337 21.6585 100.513L21.6585 100.513C16.1633 100.689 12.5926 101.004 10.3926 101.275C9.29256 101.411 8.53476 101.535 8.0501 101.627C7.89506 101.656 7.76794 101.682 7.66647 101.703Z" fill="white" stroke="#7A7A7A" stroke-width="0.552135"/>
<path d="M8.59013 112.441L8.5367 111.819C8.541 111.818 8.54534 111.818 8.54974 111.817C8.73244 111.796 9.00244 111.765 9.35124 111.726C10.0488 111.649 11.0616 111.541 12.3213 111.418C14.8408 111.173 18.3477 110.868 22.2971 110.63L22.2971 110.63C26.2322 110.394 29.74 110.583 32.2639 110.831C33.5257 110.955 34.5408 111.093 35.2398 111.201C35.5893 111.255 35.8597 111.301 36.0422 111.333C36.0642 111.337 36.0849 111.341 36.1043 111.344L36.1459 112.439C35.966 112.408 35.7173 112.367 35.4053 112.318C34.7081 112.208 33.6947 112.062 32.4278 111.915C29.8943 111.62 26.3453 111.32 22.2816 111.3L22.2815 111.3C18.2162 111.28 14.7196 111.58 12.2386 111.885C10.998 112.037 10.011 112.191 9.33341 112.307C9.01577 112.361 8.76609 112.407 8.59013 112.441Z" fill="white" stroke="#7A7A7A" stroke-width="0.552135"/>
<path d="M36.4983 121.498C30.4544 120.567 23.6756 120.684 18.3826 121.038C15.6861 121.218 13.3715 121.459 11.7306 121.656C10.9102 121.754 10.258 121.842 9.81063 121.904C9.65118 121.926 9.51774 121.946 9.41197 121.961L9.3823 121.615L9.38775 121.615C9.56922 121.597 9.8377 121.57 10.1854 121.538C10.8809 121.472 11.8934 121.379 13.1608 121.27C15.6956 121.054 19.2498 120.777 23.3269 120.533L23.3269 120.533C27.3921 120.289 30.7402 120.417 33.0705 120.605C34.2355 120.699 35.1459 120.808 35.7641 120.893C36.0732 120.936 36.3091 120.973 36.4673 120.999C36.4734 121 36.4793 121.001 36.4852 121.002L36.4983 121.498Z" fill="white" stroke="#7A7A7A" stroke-width="0.552135"/>
<path d="M36.9125 132.614C30.9639 131.601 24.3297 131.84 19.1579 132.335C16.52 132.587 14.2581 132.907 12.6553 133.164C11.8539 133.292 11.217 133.405 10.7802 133.486C10.6334 133.513 10.5092 133.536 10.4089 133.555L10.2967 132.251L10.3216 132.248C10.5128 132.228 10.7932 132.198 11.1497 132.162C11.8627 132.089 12.8799 131.987 14.0967 131.874C16.5306 131.647 19.7612 131.372 22.9507 131.181C26.1262 130.991 29.6615 131.156 32.4078 131.37C33.7799 131.477 34.9529 131.596 35.7827 131.688C36.1975 131.734 36.5264 131.773 36.7515 131.801C36.7949 131.806 36.8344 131.811 36.87 131.815L36.9125 132.614Z" fill="white" stroke="#7A7A7A" stroke-width="0.552135"/>
<path d="M37.3535 143.823C31.8909 141.88 25.3634 141.732 20.1787 142.072C17.5232 142.246 15.2119 142.549 13.5641 142.809C12.7401 142.938 12.0817 143.057 11.6289 143.144C11.472 143.174 11.3397 143.2 11.2338 143.221L11.1682 142.46C11.2961 142.448 11.4692 142.433 11.6876 142.415C12.2162 142.37 13.0098 142.306 14.0688 142.232C16.1867 142.084 19.3659 141.893 23.6086 141.722L23.6086 141.722C27.8304 141.551 31.3181 141.946 33.7484 142.383C34.9634 142.601 35.9138 142.83 36.5591 143.004C36.8818 143.091 37.1281 143.164 37.2931 143.216C37.3146 143.222 37.3348 143.229 37.3535 143.234V143.823Z" fill="white" stroke="#7A7A7A" stroke-width="0.552135"/>
<path d="M25.393 153.432C29.167 153.351 32.3243 153.777 34.5365 154.222C35.6424 154.444 36.5118 154.672 37.1034 154.843C37.3991 154.929 37.6254 155 37.7771 155.05C37.7929 155.056 37.8079 155.061 37.8221 155.065V156.038C37.6342 155.995 37.3723 155.938 37.0448 155.87C36.3311 155.721 35.3059 155.522 34.0578 155.318C31.5624 154.911 28.1717 154.487 24.5955 154.421C21.0179 154.355 17.8689 154.673 15.6141 155.008C14.4865 155.175 13.5818 155.347 12.9582 155.477C12.6847 155.534 12.4652 155.583 12.3047 155.62L12.244 154.914C12.2533 154.912 12.2629 154.91 12.2728 154.907C12.4458 154.87 12.702 154.816 13.0334 154.75C13.6963 154.619 14.6599 154.443 15.8605 154.261C18.2622 153.898 21.6097 153.514 25.393 153.432ZM25.393 153.432L25.3871 153.156L25.393 153.432Z" fill="white" stroke="#7A7A7A" stroke-width="0.552135"/>
<path d="M13.64 165.408C13.4445 165.43 13.2831 165.449 13.1589 165.464L13.1318 164.869C13.1572 164.864 13.1845 164.859 13.2138 164.853C13.4195 164.815 13.721 164.76 14.1027 164.695C14.8663 164.564 15.9511 164.39 17.2344 164.219C19.8028 163.876 23.159 163.544 26.3259 163.584L26.3259 163.584C29.4419 163.623 32.4655 163.817 34.7109 164.001C35.8333 164.092 36.7607 164.182 37.4072 164.248C37.7305 164.282 37.9835 164.309 38.1556 164.328C38.162 164.329 38.1683 164.33 38.1746 164.33V165.413C34.166 164.364 27.9486 164.376 22.7049 164.65C19.9976 164.792 17.5375 165.005 15.7543 165.182C14.8626 165.27 14.14 165.35 13.64 165.408Z" fill="white" stroke="#7A7A7A" stroke-width="0.552135"/>
<path d="M38.51 174.218C34.299 173.486 28.1961 173.829 23.12 174.358C20.5096 174.63 18.1609 174.952 16.4648 175.206C15.6167 175.333 14.9315 175.443 14.4582 175.521C14.2819 175.55 14.135 175.575 14.02 175.595L13.9523 174.807C21.1213 173.344 27.2911 173.188 31.6813 173.401C33.9007 173.509 35.6648 173.711 36.8726 173.886C37.4765 173.973 37.9412 174.054 38.2542 174.112C38.3555 174.131 38.4409 174.148 38.51 174.161V174.218Z" fill="white" stroke="#7A7A7A" stroke-width="0.552135"/>
<path d="M38.6321 184.834C38.7536 184.853 38.8551 184.87 38.9357 184.883V185.393C33.7165 184.657 27.7122 184.924 22.9891 185.377C20.5774 185.609 18.4952 185.89 17.0156 186.113C16.2758 186.224 15.6865 186.321 15.2818 186.39C15.1545 186.412 15.0455 186.431 14.9558 186.447L14.8204 184.88C21.0908 183.845 27.1391 183.848 31.6414 184.114C33.9219 184.249 35.8041 184.451 37.1153 184.62C37.7709 184.704 38.2837 184.78 38.6321 184.834Z" fill="white" stroke="#7A7A7A" stroke-width="0.552135"/>
<path d="M14.2435 184.885L14.3254 185.69L13.5206 185.038L14.2435 184.885Z" fill="white" stroke="#7A7A7A" stroke-width="0.552135"/>
<path d="M13.4029 174.903L13.4668 175.646L12.7619 175.008C12.8662 174.989 12.9763 174.97 13.0848 174.953C13.1995 174.934 13.3091 174.917 13.4029 174.903Z" fill="white" stroke="#7A7A7A" stroke-width="0.552135"/>
<path d="M12.5919 164.954L12.6308 165.635L11.9052 165.062C12.0235 165.04 12.1478 165.02 12.269 165.001C12.3863 164.983 12.4973 164.967 12.5919 164.954Z" fill="white" stroke="#7A7A7A" stroke-width="0.552135"/>
<path d="M11.7 155.032L11.7441 155.546L11.2037 155.14C11.2692 155.125 11.337 155.11 11.4052 155.095C11.5097 155.072 11.6111 155.051 11.7 155.032Z" fill="white" stroke="#7A7A7A" stroke-width="0.552135"/>
<path d="M10.6183 142.514L10.6537 142.924L10.2112 142.561C10.2596 142.555 10.3085 142.549 10.357 142.543C10.4504 142.532 10.5399 142.522 10.6183 142.514Z" fill="white" stroke="#7A7A7A" stroke-width="0.552135"/>
<path d="M9.74447 132.31L9.82513 133.248L8.84472 132.425C9.00253 132.401 9.17091 132.378 9.33235 132.358C9.48563 132.339 9.62873 132.322 9.74447 132.31Z" fill="white" stroke="#7A7A7A" stroke-width="0.552135"/>
<path d="M8.83095 121.674L8.87692 122.209L7.79673 121.799C7.88519 121.788 7.97485 121.777 8.06394 121.766C8.33778 121.732 8.60008 121.701 8.79397 121.678L8.83095 121.674Z" fill="white" stroke="#7A7A7A" stroke-width="0.552135"/>
<path d="M7.99598 111.888L8.04358 112.442L7.05652 112.025C7.15989 112.009 7.2661 111.993 7.37177 111.977C7.60639 111.942 7.82933 111.91 7.99598 111.888Z" fill="white" stroke="#7A7A7A" stroke-width="0.552135"/>
<path d="M7.06597 101.112L7.09632 101.466L6.70268 101.181C6.75607 101.171 6.80982 101.16 6.86275 101.15C6.93457 101.136 7.00348 101.123 7.06597 101.112Z" fill="white" stroke="#7A7A7A" stroke-width="0.552135"/>
<path d="M6.21578 91.2149L6.25975 91.7283L5.54987 91.3956C5.63814 91.3711 5.72851 91.3463 5.81752 91.3221C5.96175 91.2829 6.09994 91.2458 6.21578 91.2149Z" fill="white" stroke="#7A7A7A" stroke-width="0.552135"/>
<path d="M5.372 81.1881L5.40955 81.7262L4.74671 81.3593C4.8597 81.3258 4.9765 81.293 5.08942 81.2624C5.19108 81.2349 5.28744 81.2097 5.372 81.1881Z" fill="white" stroke="#7A7A7A" stroke-width="0.552135"/>
<path d="M4.47649 70.9313L4.53538 71.6181L3.76858 71.0935L4.15437 71.0051L4.47649 70.9313Z" fill="white" stroke="#7A7A7A" stroke-width="0.552135"/>
<path d="M3.63211 61.1292L3.65068 61.3453L3.4442 61.189C3.50596 61.1692 3.56532 61.1503 3.62045 61.1329C3.62436 61.1317 3.62825 61.1304 3.63211 61.1292Z" fill="white" stroke="#7A7A7A" stroke-width="0.552135"/>
<path d="M2.66416 49.8716L2.68643 50.1305L2.4651 49.9485C2.52149 49.9266 2.57775 49.9049 2.63161 49.8842C2.64257 49.8799 2.65343 49.8758 2.66416 49.8716Z" fill="white" stroke="#7A7A7A" stroke-width="0.552135"/>
<path d="M1.8092 39.8971L1.8626 40.5184L0.928473 40.1628C1.07892 40.1168 1.23168 40.0705 1.37586 40.0271C1.53658 39.9786 1.68613 39.9338 1.8092 39.8971Z" fill="white" stroke="#7A7A7A" stroke-width="0.552135"/>
<path d="M111.934 189.001C112.024 189.034 112.115 189.068 112.203 189.102L111.518 189.367L111.568 188.867C111.676 188.907 111.803 188.953 111.934 189.001Z" fill="white" stroke="#7A7A7A" stroke-width="0.552135"/>
<path d="M113.258 178.286C113.422 178.336 113.588 178.388 113.746 178.44L112.565 178.72L112.623 178.098C112.794 178.147 113.019 178.213 113.258 178.286Z" fill="white" stroke="#7A7A7A" stroke-width="0.552135"/>
<path d="M113.938 167.102C114.049 167.146 114.17 167.195 114.294 167.245L113.676 167.452L113.719 167.015C113.785 167.041 113.859 167.07 113.938 167.102Z" fill="white" stroke="#7A7A7A" stroke-width="0.552135"/>
<path d="M115.103 157.195C115.269 157.253 115.446 157.313 115.614 157.371L114.617 157.89L114.693 157.055C114.812 157.095 114.953 157.144 115.103 157.195Z" fill="white" stroke="#7A7A7A" stroke-width="0.552135"/>
<path d="M116.108 147.33C116.369 147.45 116.664 147.586 116.942 147.715L115.559 148.377L115.681 147.135C115.803 147.19 115.949 147.257 116.108 147.33Z" fill="white" stroke="#7A7A7A" stroke-width="0.552135"/>
<path d="M117.254 135.352C117.396 135.398 117.547 135.447 117.693 135.494L116.777 135.911L116.844 135.219C116.962 135.257 117.104 135.303 117.254 135.352Z" fill="white" stroke="#7A7A7A" stroke-width="0.552135"/>
<path d="M118.412 123.804C118.573 123.854 118.737 123.907 118.89 123.958L117.911 124.449L117.987 123.675C118.109 123.711 118.256 123.755 118.412 123.804Z" fill="white" stroke="#7A7A7A" stroke-width="0.552135"/>
<path d="M119.329 112.806C119.427 112.831 119.527 112.858 119.623 112.885L119.014 113.285L119.069 112.739C119.147 112.759 119.236 112.781 119.329 112.806Z" fill="white" stroke="#7A7A7A" stroke-width="0.552135"/>
<path d="M120.68 102.847C120.793 102.875 120.909 102.904 121.021 102.931L119.993 103.335L120.056 102.694C120.226 102.736 120.448 102.79 120.68 102.847Z" fill="white" stroke="#7A7A7A" stroke-width="0.552135"/>
<path d="M121.881 92.1078C122.082 92.1331 122.292 92.1601 122.492 92.1867L121.02 92.8961L121.107 92.0131L121.142 92.0174C121.335 92.0405 121.599 92.0724 121.881 92.1078Z" fill="white" stroke="#7A7A7A" stroke-width="0.552135"/>
<path d="M122.727 80.4717C122.909 80.5072 123.095 80.5443 123.259 80.5787L122.122 81.7176L122.254 80.3819C122.387 80.4067 122.553 80.438 122.727 80.4717Z" fill="white" stroke="#7A7A7A" stroke-width="0.552135"/>
<path d="M123.93 69.765C124.133 69.8252 124.346 69.8888 124.545 69.9493L123.23 70.4977L123.319 69.5857C123.485 69.6339 123.7 69.697 123.93 69.765Z" fill="white" stroke="#7A7A7A" stroke-width="0.552135"/>
<path d="M92.9674 59.2287L92.9677 59.2286C100.304 57.364 111.749 56.2322 123.516 61.9927L110.222 196.918H85.0847V62.0002C85.177 61.9549 85.3114 61.8903 85.486 61.8097C85.8501 61.6414 86.3887 61.4034 87.083 61.1258C88.4717 60.5705 90.4828 59.8575 92.9674 59.2287Z" fill="white" stroke="#7A7A7A" stroke-width="0.552135"/>
<path d="M110.979 189.262C105.845 187.509 99.3677 187.315 94.1541 187.56C91.4859 187.685 89.1399 187.926 87.4607 188.135C86.621 188.24 85.9478 188.337 85.4841 188.408C85.3277 188.432 85.1952 188.453 85.0881 188.47V187.531L85.1374 187.527C85.3355 187.512 85.6265 187.49 85.9974 187.464C86.7392 187.411 87.8006 187.338 89.0785 187.262C91.6347 187.11 95.0558 186.943 98.5176 186.88C101.959 186.819 105.144 187.279 107.469 187.755C108.632 187.993 109.578 188.235 110.234 188.417C110.561 188.508 110.816 188.584 110.988 188.637C111.006 188.642 111.023 188.648 111.039 188.653L110.979 189.262Z" fill="white" stroke="#7A7A7A" stroke-width="0.552135"/>
<path d="M112.049 178.4C106.877 176.547 100.14 176.158 94.6746 176.232C91.8774 176.269 89.4041 176.429 87.63 176.579C86.7428 176.654 86.0302 176.726 85.539 176.78C85.3578 176.8 85.2067 176.818 85.0881 176.832V176.368C85.1039 176.366 85.1205 176.365 85.1378 176.363C85.3293 176.341 85.6113 176.31 85.9726 176.274C86.6953 176.201 87.7349 176.107 89.001 176.021C91.5339 175.849 94.9702 175.709 98.5878 175.837C102.197 175.965 105.627 176.528 108.156 177.06C109.42 177.326 110.458 177.584 111.18 177.776C111.54 177.871 111.822 177.95 112.013 178.005C112.039 178.013 112.063 178.02 112.086 178.026L112.049 178.4Z" fill="white" stroke="#7A7A7A" stroke-width="0.552135"/>
<path d="M113.122 167.48C107.913 165.814 100.909 165.548 95.1855 165.698C92.2579 165.775 89.656 165.961 87.7858 166.128C86.8506 166.212 86.0982 166.291 85.5792 166.349C85.3773 166.371 85.2108 166.39 85.0825 166.406L85.0766 165.585C85.0891 165.583 85.1021 165.581 85.1156 165.578C85.2931 165.549 85.5573 165.507 85.9024 165.457C86.5924 165.357 87.6058 165.223 88.8959 165.092C91.4764 164.83 95.1634 164.577 99.5852 164.613C103.996 164.649 107.45 165.214 109.797 165.769C110.971 166.046 111.869 166.321 112.471 166.526C112.772 166.628 113 166.713 113.151 166.772C113.165 166.777 113.178 166.782 113.19 166.787L113.122 167.48Z" fill="white" stroke="#7A7A7A" stroke-width="0.552135"/>
<path d="M85.0749 156.083V155.505C85.1046 155.5 85.137 155.495 85.1721 155.489C85.387 155.456 85.7032 155.408 86.1076 155.351C86.9165 155.237 88.0779 155.087 89.4866 154.941C92.3047 154.65 96.1085 154.377 100.056 154.45C103.993 154.523 107.57 155.173 110.163 155.806C111.46 156.122 112.509 156.433 113.234 156.665C113.596 156.781 113.877 156.877 114.067 156.944C114.099 156.955 114.129 156.966 114.156 156.976L114.058 157.977C113.859 157.901 113.576 157.797 113.217 157.673C112.456 157.409 111.353 157.053 109.984 156.687C107.246 155.954 103.437 155.176 99.1537 154.994L99.1536 154.994C94.8771 154.813 91.2749 155.105 88.7406 155.443C87.4733 155.611 86.4727 155.792 85.7878 155.93C85.4885 155.99 85.2495 156.043 85.0749 156.083Z" fill="white" stroke="#7A7A7A" stroke-width="0.552135"/>
<path d="M85.0778 145.82L85.0829 145.137C85.1045 145.133 85.1275 145.13 85.1519 145.126C85.3498 145.098 85.6427 145.056 86.0214 145.007C86.7787 144.907 87.8791 144.775 89.2492 144.642C91.9898 144.377 95.8082 144.111 100.119 144.11C104.41 144.109 108.215 144.842 110.948 145.575C112.314 145.942 113.411 146.308 114.165 146.583C114.543 146.72 114.834 146.834 115.031 146.914C115.073 146.931 115.11 146.946 115.143 146.96L114.998 148.434C114.815 148.358 114.562 148.256 114.243 148.135C113.526 147.861 112.475 147.486 111.137 147.08C108.463 146.269 104.641 145.333 100.044 144.836C95.4412 144.337 91.6134 144.61 88.934 145.008C87.5943 145.207 86.5414 145.437 85.8218 145.619C85.5099 145.697 85.2606 145.766 85.0778 145.82Z" fill="white" stroke="#7A7A7A" stroke-width="0.552135"/>
<path d="M116.247 135.756C110.18 133.402 102.386 133.021 96.0893 133.23C92.8765 133.336 90.044 133.596 88.0144 133.829C86.9995 133.946 86.1851 134.056 85.6239 134.137C85.3992 134.17 85.215 134.197 85.0749 134.219V133.46C85.0864 133.458 85.0984 133.456 85.1108 133.455C85.2898 133.429 85.5578 133.392 85.9118 133.347C86.6199 133.258 87.6722 133.139 89.0459 133.02C91.7933 132.783 95.8264 132.544 100.963 132.545C105.345 132.545 109.236 133.192 112.031 133.84C113.428 134.164 114.551 134.487 115.323 134.73C115.71 134.851 116.008 134.952 116.21 135.022C116.249 135.036 116.284 135.048 116.316 135.059L116.247 135.756Z" fill="white" stroke="#7A7A7A" stroke-width="0.552135"/>
<path d="M117.366 124.393C117.152 124.317 116.839 124.21 116.436 124.08C115.621 123.816 114.44 123.458 112.972 123.079C110.037 122.32 105.952 121.476 101.356 121.136L101.336 121.412L101.356 121.136C96.7635 120.797 92.6181 120.92 89.6209 121.129C88.1221 121.233 86.9097 121.359 86.0714 121.458C85.6523 121.508 85.3265 121.551 85.1052 121.582C85.0972 121.583 85.0893 121.584 85.0816 121.585L85.0773 121.148C85.1014 121.145 85.1272 121.142 85.1548 121.139C85.367 121.115 85.6821 121.082 86.0923 121.044C86.9127 120.968 88.113 120.874 89.63 120.804C92.6642 120.663 96.9639 120.615 102.022 120.987L102.042 120.712L102.022 120.987C107.081 121.359 110.996 122.005 113.644 122.557C114.968 122.833 115.976 123.086 116.651 123.269C116.988 123.36 117.243 123.435 117.412 123.486C117.427 123.49 117.441 123.495 117.454 123.499L117.366 124.393Z" fill="white" stroke="#7A7A7A" stroke-width="0.552135"/>
<path d="M118.485 113.072C112.474 110.853 104.135 110.449 97.2781 110.599C93.7787 110.675 90.6542 110.896 88.4046 111.098C87.2797 111.199 86.3732 111.295 85.7476 111.366C85.4711 111.398 85.2495 111.424 85.0881 111.444V110.613C85.1256 110.608 85.1674 110.603 85.2134 110.597C85.4521 110.566 85.8045 110.523 86.2583 110.474C87.1659 110.374 88.479 110.247 90.0982 110.139C93.3371 109.922 97.7984 109.777 102.689 110.068C107.58 110.359 111.598 111.003 114.392 111.574C115.789 111.859 116.88 112.126 117.621 112.322C117.991 112.419 118.274 112.499 118.463 112.554C118.489 112.562 118.512 112.569 118.534 112.575L118.485 113.072Z" fill="white" stroke="#7A7A7A" stroke-width="0.552135"/>
<path d="M119.517 102.564L119.44 103.343C116.866 102.201 113.508 101.531 109.912 101.165C106.144 100.783 102.093 100.733 98.3698 100.836C94.6459 100.938 91.245 101.194 88.7753 101.425C87.5403 101.54 86.5377 101.648 85.8437 101.728C85.5171 101.766 85.2589 101.797 85.0767 101.82L85.0832 100.709C85.1232 100.706 85.1677 100.703 85.2166 100.7C85.4703 100.682 85.8439 100.658 86.3235 100.63C87.2825 100.574 88.6648 100.505 90.3562 100.45C93.7396 100.342 98.3581 100.294 103.3 100.536C108.241 100.779 112.356 101.3 115.235 101.76C116.674 101.99 117.805 102.205 118.574 102.362C118.959 102.441 119.254 102.505 119.452 102.55C119.475 102.555 119.496 102.56 119.517 102.564Z" fill="white" stroke="#7A7A7A" stroke-width="0.552135"/>
<path d="M119.924 91.8669C120.197 91.8993 120.412 91.9257 120.563 91.9447L120.484 92.7477C112.51 91.1057 103.637 91.0292 96.7369 91.3654C93.2412 91.5358 90.2476 91.8123 88.1275 92.0463C87.0674 92.1633 86.2256 92.2697 85.6484 92.3469C85.4143 92.3782 85.2238 92.4047 85.0798 92.4252L85.0962 91.3514C92.8228 90.3354 101.702 90.4843 108.683 90.8922C112.208 91.0981 115.245 91.3698 117.401 91.59C118.478 91.7 119.336 91.7972 119.924 91.8669Z" fill="white" stroke="#7A7A7A" stroke-width="0.552135"/>
<path d="M121.535 82.0782C115.202 79.8498 106.103 79.3875 98.5647 79.4814C94.7223 79.5293 91.2742 79.722 88.7868 79.9027C87.543 79.9931 86.5391 80.0804 85.8458 80.1453C85.5173 80.176 85.2585 80.2016 85.077 80.2202L85.083 79.3513C85.144 79.3467 85.2155 79.3414 85.2973 79.3353C85.6012 79.3128 86.0455 79.2809 86.6069 79.243C87.7297 79.1671 89.3208 79.0675 91.1933 78.9722C94.939 78.7816 99.8069 78.6088 104.303 78.6788C108.796 78.7488 113.214 79.1475 116.51 79.529C118.157 79.7197 119.523 79.906 120.477 80.0446C120.954 80.1139 121.328 80.1713 121.583 80.2112C121.632 80.219 121.676 80.2261 121.717 80.2325L121.535 82.0782Z" fill="white" stroke="#7A7A7A" stroke-width="0.552135"/>
<path d="M122.749 69.7634C119.787 68.7625 116.017 68.2432 112.021 68.0259C107.87 67.8 103.457 67.8992 99.4198 68.1313C95.3824 68.3634 91.7177 68.7287 89.0625 69.0359C87.7347 69.1895 86.6591 69.3286 85.9151 69.4294C85.5556 69.4781 85.2734 69.5178 85.0778 69.5459L85.0827 68.9948C85.1301 68.9875 85.1848 68.9791 85.2465 68.9697C85.5058 68.9305 85.8898 68.8743 86.3873 68.8068C87.3825 68.6718 88.8319 68.4915 90.6465 68.3103C94.2761 67.9481 99.3658 67.583 105.205 67.5719C111.041 67.5606 115.501 67.989 118.5 68.4195C119.999 68.6347 121.133 68.8505 121.891 69.012C122.27 69.0928 122.555 69.16 122.744 69.2068C122.764 69.2119 122.784 69.2166 122.802 69.2212L122.749 69.7634Z" fill="white" stroke="#7A7A7A" stroke-width="0.552135"/>
<path opacity="0.2" d="M105.707 70.1764C105.757 70.1742 105.814 70.1717 105.878 70.1691C106.149 70.158 106.541 70.1444 107.028 70.1343C108.001 70.1141 109.347 70.1083 110.841 70.1653C113.761 70.2768 117.201 70.6277 119.523 71.5585L108.21 178.836L100.474 179.983L105.707 70.1764Z" fill="white" stroke="#7A7A7A" stroke-width="0.552135"/>
<path d="M121.285 66.3712L121.285 66.3713C122.071 66.5974 122.847 66.8477 123.619 67.122L124.804 69.4424C123.799 69.1227 122.752 68.8393 121.673 68.5921C119.626 68.1212 117.464 67.7763 115.248 67.53C101.655 66.0073 86.0325 68.2515 82.5939 68.7937L83.9431 67.0263C85.4374 66.6353 99.5908 62.9368 113.996 64.859C116.441 65.1894 118.892 65.6776 121.285 66.3712Z" fill="white" stroke="#7A7A7A" stroke-width="0.552135"/>
<path d="M121.611 79.7022C119.831 79.3726 117.994 79.1077 116.124 78.8956C101.748 77.2639 85.6588 78.7153 82.4425 79.0391L83.5172 77.3613C83.54 77.3558 83.5659 77.3495 83.5948 77.3425L83.609 77.3391C83.7255 77.3109 83.8912 77.2708 84.1045 77.2214C84.531 77.1225 85.1484 76.986 85.9396 76.8324C87.5222 76.5251 89.8006 76.1494 92.638 75.8703C98.3132 75.3122 106.222 75.141 115.27 76.6761L115.27 76.6761C117.162 76.9955 119.103 77.3907 121.085 77.8758L121.087 77.8763C121.617 78.0011 122.153 78.1385 122.691 78.2803L123.37 80.0452C122.792 79.923 122.205 79.8082 121.611 79.7022ZM121.611 79.7022C121.612 79.7023 121.612 79.7023 121.612 79.7024L121.562 79.9738L121.611 79.7021C121.611 79.7021 121.611 79.7022 121.611 79.7022Z" fill="white" stroke="#7A7A7A" stroke-width="0.552135"/>
<path d="M122.776 91.6764C122.065 91.5802 121.364 91.4892 120.672 91.4008L120.671 91.4006C119.174 91.2154 117.723 91.0496 116.318 90.9018L116.318 90.9018C96.0449 88.8014 85.1595 90.852 82.2707 91.5412L83.9704 89.3017C85.1392 88.9123 96.7028 85.1418 115.122 88.5264L115.123 88.5265C116.68 88.8086 118.286 89.1473 119.942 89.5428L119.942 89.5428C120.403 89.6529 120.87 89.7654 121.336 89.8848L122.776 91.6764Z" fill="white" stroke="#7A7A7A" stroke-width="0.552135"/>
<path d="M114.877 101.124L114.877 101.124C101.189 98.9743 86.2756 100.039 83.1025 100.305L84.4198 98.5199C84.4362 98.5162 84.4544 98.5122 84.4743 98.5077C84.4846 98.5054 84.4954 98.503 84.5066 98.5005C84.6166 98.476 84.7736 98.4412 84.9758 98.3986C85.3803 98.3135 85.9667 98.1971 86.7182 98.0705C88.2213 97.8171 90.3854 97.5222 93.0762 97.3528C98.4581 97.0141 105.944 97.1775 114.461 99.1778L114.461 99.1779C115.879 99.5089 117.322 99.8925 118.789 100.332L118.79 100.333C119.28 100.477 119.771 100.632 120.267 100.791L121.318 102.425C120.651 102.256 119.975 102.098 119.293 101.949C117.846 101.631 116.368 101.358 114.877 101.124Z" fill="white" stroke="#7A7A7A" stroke-width="0.552135"/>
<path d="M119.781 112.37C119.235 112.207 118.688 112.053 118.142 111.905L118.142 111.905C116.679 111.511 115.208 111.174 113.745 110.887L119.781 112.37ZM119.781 112.37L119.077 110.61C118.647 110.469 118.221 110.333 117.8 110.202L117.799 110.202C116.119 109.68 114.476 109.24 112.875 108.871L112.875 108.871C97.0697 105.22 85.5404 108.441 84.2501 108.807L83.1828 110.314C86.2631 109.854 99.7731 108.129 113.745 110.887L119.781 112.37Z" fill="white" stroke="#7A7A7A" stroke-width="0.552135"/>
<path d="M113.248 121.877L113.248 121.877C101.057 119.4 86.0561 120.497 82.5971 120.801L84.2259 119.07C85.5499 118.788 99.6668 115.882 112.493 119.455L112.493 119.455C113.932 119.852 115.355 120.335 116.74 120.912C117.273 121.134 117.799 121.37 118.319 121.619L119.088 123.451C118.538 123.258 117.976 123.076 117.401 122.906C116.071 122.507 114.677 122.169 113.248 121.877Z" fill="white" stroke="#7A7A7A" stroke-width="0.552135"/>
<path d="M116.321 132.788L116.32 132.787C114.705 132.186 113.127 131.679 111.598 131.251C103.536 129.001 96.7071 128.968 91.8038 129.517C87.6654 129.981 84.9208 130.854 83.9105 131.175C83.8049 131.209 83.7182 131.237 83.6509 131.257L82.4311 133.456C85.3494 132.86 98.4597 130.525 112.182 133.432C113.817 133.777 115.459 134.198 117.09 134.703M116.321 132.788L117.009 134.966M116.321 132.788C116.633 132.902 116.948 133.022 117.264 133.146M116.321 132.788L118.477 135.446L118.343 135.109C118.229 135.07 118.114 135.032 118 134.994M117.09 134.703C117.09 134.703 117.09 134.703 117.09 134.703L117.009 134.966M117.09 134.703C117.09 134.703 117.09 134.703 117.09 134.703L117.009 134.966M117.09 134.703C117.394 134.796 117.698 134.894 118 134.994M117.009 134.966C117.385 135.082 117.76 135.204 118.134 135.329L118 134.994M118 134.994L117.264 133.146M117.264 133.146C117.301 133.16 117.338 133.175 117.375 133.189L117.477 132.933L117.22 133.035L117.264 133.146ZM82.2543 133.774C82.033 133.821 81.9103 133.849 81.895 133.853L82.0739 133.53L82.2543 133.774Z" fill="white" stroke="#7A7A7A" stroke-width="0.552135"/>
<path d="M116.944 147.082C116.542 146.892 116.135 146.71 115.722 146.537L115.721 146.537C114.213 145.904 112.633 145.391 111.018 144.98L111.017 144.98C104.285 143.273 96.9045 143.338 91.1946 143.832C86.9285 144.201 83.5834 144.811 82.119 145.107L84.0056 142.902C84.0103 142.9 84.0148 142.898 84.019 142.896C84.0486 142.884 84.0851 142.869 84.1261 142.852C84.1343 142.848 84.1427 142.845 84.1512 142.841C84.2556 142.797 84.3985 142.737 84.5861 142.666C84.9613 142.523 85.5191 142.332 86.3006 142.131C87.864 141.728 90.326 141.282 94.0143 141.096L94.0143 141.096C101.819 140.701 106.822 141.533 110.498 142.739C112.157 143.285 113.548 143.905 114.808 144.528C115.173 144.71 115.527 144.889 115.872 145.067L116.944 147.082Z" fill="white" stroke="#7A7A7A" stroke-width="0.552135"/>
<path d="M110.131 153.405L110.131 153.405C111.388 153.791 112.675 154.246 113.997 154.772L114 154.773C114.25 154.87 114.501 154.973 114.758 155.078L115.722 156.81C115.38 156.69 115.039 156.575 114.697 156.464C113.339 156.02 111.984 155.645 110.648 155.33C102.993 153.522 95.8259 153.678 90.5555 154.29C87.9197 154.596 85.7563 155.017 84.2409 155.364C83.5233 155.529 82.9509 155.677 82.5423 155.788L84.0546 153.518C84.1005 153.502 84.1576 153.48 84.2256 153.454C85.0774 153.132 87.6523 152.158 91.6069 151.64C96.1625 151.043 102.536 151.057 110.131 153.405Z" fill="white" stroke="#7A7A7A" stroke-width="0.552135"/>
<path d="M108.767 162.75L108.767 162.75C110.218 163.217 111.672 163.811 113.107 164.544C113.333 164.66 113.556 164.78 113.783 164.902L114.561 166.74C114.315 166.636 114.066 166.536 113.816 166.441C112.378 165.884 110.85 165.446 109.273 165.108C103.134 163.779 96.2291 163.905 90.8469 164.365C88.1535 164.595 85.8367 164.909 84.1817 165.168C83.3945 165.291 82.7569 165.402 82.2993 165.485L84.0253 163.588C84.0471 163.581 84.0722 163.572 84.1006 163.562C85.6588 163.013 97.1289 158.973 108.767 162.75Z" fill="white" stroke="#7A7A7A" stroke-width="0.552135"/>
<path d="M107.743 176.396L107.743 176.396C96.5835 174.311 85.4769 175.728 82.6216 176.161L84.03 174.353C84.1032 174.333 84.2036 174.304 84.33 174.267C86.4398 173.654 95.8029 170.936 107.102 174.045C108.759 174.503 110.457 175.084 112.177 175.819L112.177 175.819L112.18 175.82C112.409 175.914 112.64 176.014 112.869 176.117L114.041 177.991C113.594 177.844 113.144 177.704 112.691 177.572C111.059 177.094 109.401 176.706 107.743 176.396Z" fill="white" stroke="#7A7A7A" stroke-width="0.552135"/>
<path d="M106.885 184.665L106.886 184.665C108.383 185.114 109.917 185.691 111.479 186.41C111.48 186.41 111.48 186.41 111.48 186.41L111.66 186.494L111.738 186.531L112.493 188.609C112.361 188.558 112.229 188.508 112.094 188.459C110.706 187.946 109.165 187.554 107.543 187.258L107.494 187.53L107.543 187.258C98.1645 185.546 85.8628 187.013 83.084 187.385L84.1706 185.547C84.2186 185.533 84.2707 185.517 84.3239 185.499C84.4342 185.463 84.5736 185.414 84.7377 185.357C84.7507 185.353 84.7638 185.348 84.777 185.343C85.1413 185.216 85.6321 185.046 86.2383 184.856C87.4506 184.477 89.1253 184.02 91.1607 183.682C95.2318 183.007 100.744 182.81 106.885 184.665Z" fill="white" stroke="#7A7A7A" stroke-width="0.552135"/>
<path d="M37.9863 180.429L38.2623 180.42L38.5158 188.429L38.6254 191.889L38.3494 191.898L38.6254 191.89L38.7829 196.917H84.5321V5.52912C83.8247 5.22774 83.1251 4.9402 82.4284 4.67198L82.4275 4.67164C78.1657 3.01387 74.0391 1.90545 70.1091 1.21772L37.9863 180.429ZM37.9863 180.429L38.2623 180.42L38.157 177.133L37.7608 164.626L37.7608 164.626L37.6587 161.35L37.6587 161.35L37.2848 149.519L37.0089 149.527L37.2848 149.519L37.1753 146.088L36.8247 134.989L36.8246 134.989L36.723 131.661L36.723 131.66L36.3831 120.979L36.2736 117.538L36.2736 117.537L35.9302 106.57L35.9302 106.57L35.8242 103.294L35.8242 103.294L35.4244 90.5982L35.4244 90.598L35.3263 87.53L35.3263 87.5299L34.994 76.9664L34.7181 76.9751L34.994 76.9664L34.8996 73.9773L34.4538 59.8546L34.4538 59.8544L34.3558 56.794L34.3558 56.7939L34.0881 48.3175L33.9445 43.7622L33.9445 43.7621L33.8474 40.7121L33.8474 40.712L33.4397 27.8507L33.4397 27.8505L33.3377 24.552L33.3376 24.5518L32.9644 12.7654L32.9644 12.7652L32.862 9.58745L32.862 9.58722L32.7578 6.26237C32.8046 6.23736 32.8624 6.20674 32.9312 6.17092C33.1444 6.05984 33.4627 5.89886 33.88 5.70063C34.7148 5.30414 35.9458 4.75874 37.5265 4.16568C40.6881 2.97947 45.2467 1.60325 50.8289 0.846037C54.3539 0.368907 58.2874 0.139345 62.5376 0.361079L62.5379 0.361095C64.7429 0.473747 67.035 0.710478 69.3984 1.09746L69.3998 1.09769C69.6149 1.13176 69.8296 1.16911 70.0469 1.2069L70.1088 1.21766L37.9863 180.429Z" fill="white" stroke="#7A7A7A" stroke-width="0.552135"/>
<path opacity="0.3" d="M39.9147 34.2143C39.9238 34.1957 39.9361 34.1709 39.9516 34.1401C39.9895 34.0643 40.0462 33.9525 40.1206 33.8092C40.2695 33.5225 40.4893 33.1101 40.7721 32.6088C41.338 31.6059 42.1552 30.2492 43.1608 28.833C44.167 27.4161 45.358 25.945 46.6706 24.7101C47.8722 23.5795 49.1642 22.6578 50.4985 22.1502C50.4959 22.2122 50.4931 22.281 50.49 22.3567C50.4736 22.7599 50.4499 23.3563 50.4205 24.1298C50.3617 25.6767 50.2803 27.9317 50.1899 30.7641C50.0091 36.429 49.792 44.4041 49.6474 53.6453C49.358 72.1264 49.3579 95.6767 50.5157 115.941C51.6731 136.196 52.8319 154.768 53.7013 168.277C54.136 175.031 54.4984 180.519 54.7521 184.319C54.879 186.219 54.9786 187.697 55.0466 188.699C55.0806 189.201 55.1067 189.584 55.1242 189.841L55.1295 189.918L45.3114 189.377L45.2806 188.978L45.1382 187.136C45.0144 185.531 44.8349 183.199 44.6121 180.291C44.1666 174.474 43.5482 166.35 42.8563 157.123C41.4726 138.668 39.7954 115.798 38.6211 98.1391C37.4477 80.4926 37.7727 64.4982 38.391 52.9153C38.7002 47.1241 39.0827 42.4362 39.3878 39.1967C39.5403 37.577 39.6736 36.3194 39.7686 35.4671C39.8161 35.0409 39.8541 34.716 39.8802 34.4979C39.8932 34.3888 39.9033 34.3064 39.91 34.2514L39.9147 34.2143Z" fill="white" stroke="#7A7A7A" stroke-width="0.552135"/>
<path opacity="0.3" d="M82.1202 29.1806L82.4861 58.1559L82.4861 58.1566C83.01 92.4995 80.6652 176.926 80.0871 196.917H74.4066C74.9449 183.027 76.635 138.76 77.4588 111.515L77.1828 111.506L77.4588 111.515C77.951 95.1925 78.1887 75.8471 78.3033 60.5832C78.3606 52.9511 78.3871 46.339 78.3993 41.6348C78.4055 39.2828 78.408 37.4077 78.409 36.1206C78.4095 35.4771 78.4096 34.9805 78.4096 34.6449L78.4095 34.2637L78.4095 34.2465C79.5173 33.0969 80.5602 31.6308 81.3284 30.449C81.6414 29.9677 81.91 29.5316 82.1202 29.1806Z" fill="white" stroke="#7A7A7A" stroke-width="0.552135"/>
<path d="M38.0926 192.197L38.1103 192.908L37.1663 192.326C37.2915 192.306 37.4228 192.287 37.5515 192.269C37.751 192.241 37.9426 192.216 38.0926 192.197Z" fill="white" stroke="#7A7A7A" stroke-width="0.552135"/>
<path d="M37.7168 180.72L37.7467 181.665L35.8689 180.911C36.1497 180.875 36.4532 180.841 36.7445 180.811C37.0836 180.776 37.3988 180.747 37.6292 180.728C37.66 180.725 37.6892 180.723 37.7168 180.72Z" fill="white" stroke="#7A7A7A" stroke-width="0.552135"/>
<path d="M37.2185 164.948L37.2323 165.382C37.1772 165.365 37.1184 165.348 37.0569 165.331C36.7902 165.256 36.4642 165.173 36.1496 165.095C36.1457 165.094 36.1417 165.093 36.1378 165.092C36.3122 165.064 36.4806 165.039 36.6366 165.018C36.8664 164.987 37.0674 164.964 37.2185 164.948Z" fill="white" stroke="#7A7A7A" stroke-width="0.552135"/>
<path d="M36.7406 149.834L36.7697 150.753L35.5805 149.998C35.7895 149.962 36.0119 149.929 36.2213 149.9C36.4181 149.873 36.5993 149.851 36.7406 149.834Z" fill="white" stroke="#7A7A7A" stroke-width="0.552135"/>
<path d="M36.2722 135.301V135.972L35.5184 135.402C35.6715 135.377 35.8271 135.355 35.9716 135.337C36.0819 135.323 36.1843 135.311 36.2722 135.301Z" fill="white" stroke="#7A7A7A" stroke-width="0.552135"/>
<path d="M35.8788 121.308V122.129L34.9406 121.479C35.1288 121.443 35.3216 121.408 35.4985 121.376C35.6393 121.35 35.7696 121.327 35.8788 121.308Z" fill="white" stroke="#7A7A7A" stroke-width="0.552135"/>
<path d="M35.375 106.911L35.4039 107.711L34.2925 107.087C34.5436 107.043 34.783 107.004 34.9902 106.971C35.1374 106.947 35.2681 106.927 35.375 106.911Z" fill="white" stroke="#7A7A7A" stroke-width="0.552135"/>
<path d="M34.8755 90.9276L34.8969 91.6021L34.1727 91.0383C34.3022 91.0184 34.4329 90.9979 34.5551 90.9786C34.672 90.9601 34.7816 90.9427 34.8755 90.9276Z" fill="white" stroke="#7A7A7A" stroke-width="0.552135"/>
<path d="M33.5019 77.4788C33.6871 77.441 33.8751 77.4051 34.0485 77.3732C34.2 77.3453 34.339 77.3208 34.4534 77.301L34.466 77.697C34.4694 77.8055 34.4729 77.9147 34.476 78.0153C34.3058 77.925 34.0994 77.8119 33.8913 77.6965C33.7585 77.6228 33.6256 77.5484 33.5019 77.4788ZM34.7659 78.4537C34.7654 78.4353 34.7621 78.3289 34.7574 78.1808C34.7344 78.1811 34.6837 78.1849 34.6293 78.2155C34.5922 78.2364 34.5524 78.2704 34.5242 78.3213C34.5197 78.3295 34.5157 78.3376 34.5122 78.3456C34.6267 78.4042 34.7109 78.4439 34.7468 78.4542C34.7468 78.4543 34.7469 78.4543 34.747 78.4543C34.7595 78.4579 34.7661 78.4578 34.7659 78.4537ZM33.0958 77.5667C33.4897 77.7897 34.1229 78.145 34.486 78.3322L33.0958 77.5667Z" fill="white" stroke="#7A7A7A" stroke-width="0.552135"/>
<path d="M33.9104 60.2012L33.9246 60.6538L33.566 60.2716C33.6757 60.2491 33.7786 60.2281 33.8691 60.2096L33.9104 60.2012Z" fill="white" stroke="#7A7A7A" stroke-width="0.552135"/>
<path d="M33.3945 44.0878L33.407 44.445L32.8981 44.1487C32.9794 44.1383 33.0586 44.1285 33.1336 44.1192C33.2291 44.1075 33.3175 44.0969 33.3945 44.0878Z" fill="white" stroke="#7A7A7A" stroke-width="0.552135"/>
<path d="M32.8976 28.1929L32.9091 28.5602L32.3742 28.2934C32.4462 28.2795 32.5176 28.2657 32.5864 28.2525C32.6995 28.2308 32.8057 28.2104 32.8976 28.1929Z" fill="white" stroke="#7A7A7A" stroke-width="0.552135"/>
<path d="M32.4337 13.0763L32.4362 13.3311L32.094 13.1245C32.1828 13.11 32.2651 13.0981 32.3391 13.0883C32.3724 13.0838 32.404 13.0799 32.4337 13.0763Z" fill="white" stroke="#7A7A7A" stroke-width="0.552135"/>
<path d="M85.2679 13.1491C85.2938 13.1531 85.3198 13.1572 85.346 13.1613L85.08 13.3623L85.0797 13.1199C85.1384 13.129 85.2022 13.1389 85.2679 13.1491Z" fill="white" stroke="#7A7A7A" stroke-width="0.552135"/>
<path d="M85.3343 28.2239C85.4065 28.2339 85.4809 28.2447 85.5552 28.2563L85.0796 28.5347L85.0771 28.1906C85.1542 28.2 85.2416 28.2111 85.3343 28.2239Z" fill="white" stroke="#7A7A7A" stroke-width="0.552135"/>
<path d="M85.5657 43.4371C85.7217 43.453 85.8897 43.4698 86.0583 43.4858L85.0793 44.071V43.3862C85.2129 43.4005 85.3813 43.4183 85.5657 43.4371Z" fill="white" stroke="#7A7A7A" stroke-width="0.552135"/>
<path d="M85.2612 60.3822C85.3703 60.4033 85.4886 60.4261 85.607 60.4485L85.0793 60.9472V60.3468C85.1356 60.3578 85.1969 60.3697 85.2612 60.3822Z" fill="white" stroke="#7A7A7A" stroke-width="0.552135"/>
<path d="M85.2984 77.1441C85.4102 77.1511 85.5285 77.162 85.6453 77.1781L85.0793 77.6506V77.1347C85.1446 77.1363 85.2188 77.1391 85.2984 77.1441Z" fill="white" stroke="#7A7A7A" stroke-width="0.552135"/>
<path d="M85.2758 91.258C85.349 91.2684 85.4256 91.2795 85.5024 91.2909L85.0874 91.6571L85.0929 91.2323C85.1494 91.2401 85.2111 91.2488 85.2758 91.258Z" fill="white" stroke="#7A7A7A" stroke-width="0.552135"/>
<path d="M85.2524 107.023C85.3693 107.039 85.4955 107.06 85.6208 107.085L85.0793 107.572V107C85.1325 107.006 85.1907 107.014 85.2524 107.023Z" fill="white" stroke="#7A7A7A" stroke-width="0.552135"/>
<path d="M85.293 121.499C85.4 121.515 85.5103 121.534 85.6161 121.554L85.0793 122.036V121.468C85.1446 121.477 85.217 121.487 85.293 121.499Z" fill="white" stroke="#7A7A7A" stroke-width="0.552135"/>
<path d="M85.0793 135.461C85.1166 135.466 85.1561 135.472 85.1969 135.478L85.0793 135.647V135.461Z" fill="white" stroke="#7A7A7A" stroke-width="0.552135"/>
<path d="M85.1112 150.197C85.1676 150.204 85.2251 150.212 85.2811 150.221L85.0793 150.629V150.192C85.0898 150.194 85.1005 150.195 85.1112 150.197Z" fill="white" stroke="#7A7A7A" stroke-width="0.552135"/>
<path d="M85.3405 164.302C85.3716 164.305 85.4029 164.309 85.4343 164.312L85.0801 164.554L85.0776 164.276C85.157 164.284 85.2468 164.292 85.3405 164.302Z" fill="white" stroke="#7A7A7A" stroke-width="0.552135"/>
<path d="M85.5153 180.901C85.6787 180.92 85.8508 180.941 86.0157 180.964L85.0813 181.617L85.0799 180.853C85.2023 180.866 85.3531 180.882 85.5153 180.901Z" fill="white" stroke="#7A7A7A" stroke-width="0.552135"/>
<g opacity="0.5">
<path d="M32.9836 13.1797V13.004C33.0745 12.9894 33.1914 12.9709 33.333 12.9488C33.7118 12.8896 34.267 12.8049 34.9718 12.7028C36.3814 12.4985 38.3895 12.2247 40.7819 11.9463C45.568 11.3895 51.8876 10.8153 58.0311 10.7442C64.1711 10.673 70.8529 11.2534 76.0037 11.8524C78.5782 12.1518 80.7684 12.4557 82.3147 12.6847C83.0879 12.7992 83.7 12.8949 84.1186 12.962C84.2892 12.9894 84.4277 13.012 84.5318 13.0291V13.6182L83.9062 13.5763C83.3152 13.5368 82.4625 13.4799 81.4158 13.4102C79.3223 13.2709 76.4523 13.0807 73.3464 12.8772C67.1352 12.4704 59.9788 12.0104 56.2033 11.7981C52.4076 11.5846 46.5197 11.9402 41.5945 12.3469C39.129 12.5505 36.8997 12.7673 35.2869 12.9333C34.4804 13.0163 33.828 13.0865 33.377 13.1361C33.2211 13.1532 33.0893 13.1678 32.9836 13.1797Z" fill="white" stroke="#7A7A7A" stroke-width="0.552135"/>
<path d="M33.5915 28.6564C33.5466 28.6646 33.5049 28.6722 33.4665 28.6792L33.4482 28.0938C33.5613 28.0771 33.7126 28.0548 33.8991 28.0276C34.3478 27.9622 35.0002 27.8687 35.8145 27.7561C37.4432 27.5309 39.7193 27.2295 42.309 26.9248C47.4911 26.315 53.9184 25.693 58.9251 25.6394C63.9278 25.586 70.3848 26.2083 75.5994 26.8458C78.2049 27.1644 80.497 27.4863 82.1377 27.7285C82.958 27.8497 83.6153 27.9509 84.0674 28.0218C84.2625 28.0523 84.4193 28.0773 84.5346 28.0958V28.4563C77.2823 27.4793 57.2701 26.5649 50.2407 26.7047C46.6613 26.7757 42.3863 27.2849 39.0123 27.7749C37.324 28.02 35.8587 28.2608 34.8154 28.4402C34.2937 28.5299 33.8775 28.6044 33.5915 28.6564Z" fill="white" stroke="#7A7A7A" stroke-width="0.552135"/>
<path d="M84.5326 43.8847L84.2004 43.8733C83.7968 43.8597 83.2042 43.84 82.4477 43.8159C80.9347 43.7677 78.766 43.702 76.1432 43.6319C70.8977 43.4916 63.8353 43.3337 56.5681 43.2628C49.2936 43.1919 43.5597 43.5107 39.6428 43.8475C37.6843 44.0159 36.1801 44.1888 35.1646 44.3197C34.6569 44.3852 34.2713 44.4402 34.0123 44.4789C33.9874 44.4826 33.9637 44.4862 33.9411 44.4896V44.0114C34.0359 43.9997 34.1577 43.9847 34.3049 43.9668C34.6982 43.919 35.2727 43.8504 35.9972 43.7676C37.4462 43.602 39.4947 43.3793 41.8924 43.151C46.6891 42.6944 52.8781 42.216 58.4588 42.1273C64.0392 42.0388 70.6192 42.3438 75.8077 42.6715C78.4011 42.8353 80.6454 43.0046 82.2412 43.1329C83.0391 43.1971 83.6749 43.2511 84.111 43.289C84.2835 43.3039 84.4248 43.3164 84.5326 43.326V43.8847Z" fill="white" stroke="#7A7A7A" stroke-width="0.552135"/>
<path d="M34.4872 61.0272L34.4578 60.0949C34.5643 60.0772 34.7053 60.0538 34.8783 60.0255C35.3042 59.9557 35.9242 59.8561 36.6994 59.7365C38.2499 59.4973 40.4214 59.1784 42.9051 58.8595C47.8754 58.2215 54.0841 57.5854 59.0663 57.5867L59.0663 57.3106L59.0663 57.5867C63.7884 57.5878 70.209 58.26 75.4584 58.9339C78.0812 59.2706 80.408 59.6072 82.0791 59.8596C82.9146 59.9859 83.5861 60.091 84.0486 60.1646C84.2517 60.1969 84.4144 60.2231 84.5331 60.2424V61.0553C84.4741 61.0471 84.4071 61.038 84.3321 61.0279C83.9929 60.9821 83.4915 60.9165 82.8416 60.837C81.5419 60.6782 79.6482 60.464 77.2708 60.2425C72.5162 59.7995 65.8256 59.327 58.0803 59.2089C50.33 59.0906 44.3536 59.5634 40.3122 60.0664C38.2915 60.3179 36.7546 60.577 35.7215 60.7735C35.205 60.8718 34.8144 60.9544 34.5523 61.0126C34.5297 61.0176 34.5079 61.0225 34.4872 61.0272Z" fill="white" stroke="#7A7A7A" stroke-width="0.552135"/>
<path d="M84.5316 77.0111V77.7561L84.2267 77.7374C83.8363 77.7137 83.2635 77.6792 82.5332 77.636C81.0726 77.5497 78.9822 77.4287 76.4627 77.2899C71.4239 77.0125 64.6684 76.6642 57.8026 76.3811C50.9232 76.0974 45.1488 76.4463 41.093 76.8664C39.065 77.0764 37.4663 77.3043 36.3738 77.4798C35.8275 77.5676 35.4077 77.6423 35.124 77.6952C35.0844 77.7025 35.0474 77.7095 35.0131 77.716L34.9969 77.2047C35.0786 77.1911 35.1807 77.1741 35.3024 77.1542C35.6562 77.0962 36.1752 77.0131 36.835 76.9127C38.1546 76.7117 40.0371 76.4413 42.2878 76.1636C46.7903 75.6081 52.7618 75.0242 58.6458 74.9085C64.5254 74.7929 71.0535 75.3273 76.1163 75.8917C78.6467 76.1737 80.809 76.463 82.3386 76.6818C83.1033 76.7911 83.7097 76.8828 84.1248 76.9472C84.2923 76.9732 84.4286 76.9947 84.5316 77.0111Z" fill="white" stroke="#7A7A7A" stroke-width="0.552135"/>
<path d="M35.4206 91.7407V90.843C35.5088 90.831 35.6209 90.8158 35.7555 90.7978C36.1287 90.7481 36.6752 90.6769 37.3679 90.5913C38.7534 90.4202 40.7237 90.1916 43.0618 89.9617C47.7391 89.5017 53.8837 89.0372 59.7623 89.0169L59.7614 88.7408L59.7623 89.0169C65.6378 88.9964 71.8876 89.5377 76.6717 90.0849C79.0631 90.3584 81.0867 90.6332 82.5122 90.8395C83.2249 90.9427 83.788 91.0288 84.1728 91.089C84.319 91.1119 84.4394 91.131 84.5324 91.146V91.7432C84.4624 91.7375 84.3803 91.731 84.2864 91.7237C83.9273 91.6957 83.3957 91.6561 82.7043 91.6096C81.3216 91.5166 79.3001 91.3961 76.7434 91.2858C71.6299 91.0651 64.3747 90.885 55.8057 91.0471C47.2417 91.209 42.0724 91.3891 39.0432 91.5288C37.5285 91.5986 36.5484 91.6584 35.9461 91.7008C35.7209 91.7166 35.5485 91.73 35.4206 91.7407Z" fill="white" stroke="#7A7A7A" stroke-width="0.552135"/>
<path d="M35.9255 107.716V106.808C35.993 106.798 36.0751 106.784 36.1714 106.769C36.4847 106.72 36.948 106.65 37.5465 106.566C38.7436 106.397 40.4816 106.171 42.6436 105.944C46.9678 105.49 52.9861 105.032 59.7619 105.014C66.5359 104.995 72.8177 105.488 77.4065 105.986C79.7006 106.234 81.5709 106.484 82.8672 106.672C83.5154 106.766 84.02 106.844 84.3623 106.899C84.469 106.916 84.5599 106.931 84.6345 106.943L84.5561 107.887C84.4563 107.877 84.3307 107.864 84.1805 107.85C83.7533 107.809 83.127 107.75 82.3303 107.68C80.737 107.542 78.462 107.359 75.7341 107.186C70.279 106.84 63.0095 106.531 55.7575 106.677L55.7631 106.953L55.7575 106.677C48.5119 106.823 43.4786 107.092 40.2553 107.325C38.6436 107.442 37.4843 107.549 36.7271 107.628C36.3743 107.664 36.1088 107.694 35.9255 107.716Z" fill="white" stroke="#7A7A7A" stroke-width="0.552135"/>
<path d="M36.4195 122.279L36.3856 121.216C36.4713 121.202 36.5797 121.184 36.7096 121.162C37.0753 121.102 37.6118 121.015 38.2941 120.911C39.6587 120.702 41.6062 120.421 43.9365 120.134C48.5982 119.561 54.7876 118.963 60.9066 118.866L60.9022 118.59L60.9066 118.866C67.0189 118.769 72.9787 119.408 77.4127 120.072C79.6291 120.404 81.4628 120.742 82.7419 120.997C83.3814 121.124 83.8822 121.231 84.2228 121.305C84.3467 121.333 84.4494 121.355 84.5299 121.374V122.328C84.4682 122.318 84.3978 122.307 84.3188 122.295C83.9685 122.241 83.4497 122.165 82.7745 122.074C81.4242 121.893 79.4482 121.655 76.9427 121.426C71.9318 120.969 64.8019 120.552 56.3222 120.709C47.848 120.866 42.7942 121.283 39.8549 121.662C38.385 121.852 37.4419 122.033 36.863 122.167C36.6811 122.209 36.535 122.247 36.4195 122.279Z" fill="white" stroke="#7A7A7A" stroke-width="0.552135"/>
<path d="M36.8225 136.173V135.217C36.8569 135.21 36.8955 135.203 36.9381 135.194C37.1615 135.151 37.4966 135.089 37.9415 135.014C38.8312 134.864 40.1598 134.661 41.9115 134.453C45.4148 134.036 50.61 133.597 57.3699 133.508C64.1258 133.42 70.9751 133.895 76.1376 134.392C78.7183 134.64 80.8763 134.894 82.3888 135.086C83.145 135.182 83.7399 135.262 84.1454 135.319C84.3032 135.34 84.4323 135.359 84.5311 135.373V136.224C84.397 136.213 84.2194 136.198 84.0016 136.181C83.4663 136.139 82.6882 136.078 81.7174 136.005C79.7756 135.859 77.0623 135.666 73.9757 135.472C67.8043 135.086 60.1347 134.703 54.1575 134.716C48.1783 134.728 43.7636 135.112 40.8408 135.493C39.3794 135.684 38.291 135.874 37.5664 136.017C37.2487 136.079 37.001 136.133 36.8225 136.173Z" fill="white" stroke="#7A7A7A" stroke-width="0.552135"/>
<path d="M37.3234 150.888L37.2877 149.764C37.3655 149.753 37.4612 149.74 37.574 149.725C37.9207 149.679 38.4286 149.613 39.0729 149.534C40.3616 149.374 42.1954 149.161 44.3753 148.942C48.7362 148.506 54.4781 148.053 60.01 147.986L60.0066 147.71L60.01 147.986C65.5359 147.919 71.7223 148.459 76.5318 149.018C78.9356 149.297 80.9933 149.58 82.45 149.793C83.1782 149.9 83.7562 149.989 84.1518 150.052C84.3062 150.076 84.4328 150.097 84.5298 150.112V151.486C84.4599 151.475 84.3789 151.463 84.2871 151.449C83.9193 151.394 83.3778 151.315 82.6815 151.22C81.2889 151.029 79.2773 150.772 76.7995 150.505C71.8443 149.971 65.0229 149.399 57.5591 149.248C50.0921 149.097 44.9532 149.532 41.6763 150.007C40.0378 150.244 38.8647 150.491 38.0988 150.68C37.7643 150.763 37.5074 150.834 37.3234 150.888Z" fill="white" stroke="#7A7A7A" stroke-width="0.552135"/>
<path d="M37.7806 165.189L37.7706 164.873C37.8781 164.859 38.0193 164.841 38.1918 164.819C38.6251 164.764 39.2561 164.685 40.0462 164.59C41.6265 164.401 43.8431 164.15 46.3881 163.898C51.4805 163.396 57.8791 162.896 63.1252 162.904L63.1253 162.904C68.3751 162.912 73.7884 163.247 77.8911 163.58C79.942 163.746 81.6644 163.912 82.874 164.037C83.4787 164.099 83.9552 164.15 84.2803 164.187C84.3796 164.198 84.4647 164.207 84.5351 164.215V164.652C84.4662 164.654 84.3844 164.656 84.2899 164.658C83.9528 164.665 83.4554 164.675 82.8145 164.683C81.5327 164.7 79.6774 164.714 77.3844 164.7C72.7983 164.671 66.4624 164.53 59.4634 164.084C52.4411 163.636 46.9426 163.93 43.1967 164.338C41.3237 164.542 39.8889 164.774 38.9209 164.955C38.4368 165.046 38.0695 165.124 37.8224 165.179C37.8081 165.183 37.7941 165.186 37.7806 165.189Z" fill="white" stroke="#7A7A7A" stroke-width="0.552135"/>
<path d="M38.2835 181.327L38.2626 180.672C38.3779 180.661 38.5308 180.645 38.7184 180.626C39.1784 180.581 39.8468 180.515 40.6801 180.437C42.3467 180.28 44.6724 180.071 47.3089 179.864C52.5841 179.449 59.095 179.039 64.0589 179.057L64.0589 179.057C69.021 179.075 74.1962 179.514 78.1335 179.951C80.1015 180.168 81.7589 180.385 82.9241 180.548C83.5067 180.629 83.9661 180.696 84.2797 180.743C84.3766 180.758 84.4595 180.771 84.5279 180.781V181.598C84.4828 181.593 84.4328 181.588 84.3779 181.582C84.0767 181.55 83.6295 181.504 83.0452 181.448C81.8765 181.337 80.159 181.184 77.9622 181.02C73.5687 180.693 67.2581 180.322 59.5866 180.148C51.9104 179.973 46.5083 180.285 43.0218 180.641C41.2785 180.819 40.0141 181.009 39.1837 181.154C38.7854 181.224 38.487 181.283 38.2835 181.327Z" fill="white" stroke="#7A7A7A" stroke-width="0.552135"/>
<path d="M84.5274 193.069V193.962C84.466 193.947 84.3966 193.93 84.3195 193.912C83.96 193.827 83.4327 193.706 82.7595 193.561C81.4133 193.271 79.4836 192.887 77.1479 192.509C72.4778 191.752 66.1783 191.019 59.67 191.113C53.1714 191.208 47.829 191.716 44.1099 192.201C42.2504 192.443 40.7965 192.68 39.8067 192.856C39.3118 192.944 38.9329 193.017 38.6773 193.068C38.6581 193.072 38.6395 193.075 38.6217 193.079L38.6179 192.135C38.6974 192.123 38.7964 192.109 38.9138 192.093C39.2609 192.044 39.7692 191.974 40.4133 191.89C41.7016 191.722 43.533 191.497 45.7047 191.269C50.0491 190.813 55.7502 190.346 61.1868 190.3C66.6139 190.254 72.5015 190.957 77.0377 191.674C79.3046 192.032 81.2316 192.393 82.5916 192.664C83.2715 192.8 83.8096 192.913 84.1775 192.993C84.3204 193.024 84.4376 193.049 84.5274 193.069Z" fill="white" stroke="#7A7A7A" stroke-width="0.552135"/>
</g>
<path d="M31.6935 12.6578C31.7079 12.5982 31.7242 12.5327 31.7422 12.4623C31.8228 12.1466 31.9339 11.7428 32.0467 11.3434C32.1594 10.9445 32.2731 10.5516 32.3588 10.2585C32.3996 10.1188 32.434 10.0018 32.4588 9.91757C32.5113 9.90276 32.5779 9.88408 32.6586 9.8617L32.6587 9.86167C34.7415 9.28297 46.0051 6.3126 58.2634 6.3126C60.0573 6.3126 61.8444 6.37307 63.5867 6.48197L63.5868 6.48197C66.2622 6.64779 68.8448 6.92225 71.2286 7.24265C75.1369 7.76968 78.5146 8.42676 80.9149 8.952C82.115 9.21461 83.0705 9.4442 83.7255 9.60802C84.053 9.68993 84.3054 9.75539 84.4756 9.8003C84.5217 9.81246 84.5618 9.82311 84.5957 9.83217L85.6105 12.6451C85.4144 12.6142 85.1588 12.5743 84.8482 12.5267C84.8481 12.5267 84.848 12.5267 84.848 12.5267L84.8062 12.7996C82.6129 12.4601 77.6994 11.7428 71.944 11.1953L31.6935 12.6578ZM31.6935 12.6578C31.9193 12.6198 32.2391 12.5666 32.6424 12.5009L32.6433 12.5007C36.4048 11.8997 47.476 10.2707 57.7894 10.1951C59.9058 10.1796 62.1038 10.2405 64.2925 10.3459L64.2936 10.346C66.9098 10.482 69.5139 10.6864 71.9701 10.9205L31.6935 12.6578Z" fill="white" stroke="#7A7A7A" stroke-width="0.552135"/>
<path d="M84.8511 27.5906L84.8513 27.5906C85.2615 27.6607 85.5949 27.7193 85.8434 27.7638L84.6051 25.0526C84.5827 25.0459 84.5571 25.0383 84.5283 25.0298C84.3986 24.9917 84.2048 24.936 83.95 24.8659C83.4403 24.7258 82.6864 24.5284 81.7123 24.3002C79.7641 23.8438 76.9352 23.2642 73.4176 22.773L84.8511 27.5906ZM84.8511 27.5906C82.7832 27.239 78.7736 26.6002 73.9131 26.0596M84.8511 27.5906L73.9131 26.0596M31.9326 27.811L32.8933 24.8913C32.9529 24.8747 33.0318 24.853 33.1296 24.8267L33.1296 24.8267L33.1315 24.8262C35.1387 24.2719 45.039 21.753 58.6877 21.753C61.1498 21.753 63.4908 21.8397 65.6896 21.9862L65.69 21.9862C68.5241 22.1704 71.118 22.4531 73.4174 22.773L31.9326 27.811ZM31.9326 27.811C32.2108 27.756 32.6079 27.6795 33.1099 27.5873C37.0896 26.8503 47.7214 25.088 58.3066 25.088C60.9142 25.088 63.5735 25.1942 66.1594 25.3641L31.9326 27.811ZM73.9131 26.0596C71.4947 25.7873 68.8635 25.5383 66.1596 25.3641L73.9131 26.0596Z" fill="white" stroke="#7A7A7A" stroke-width="0.552135"/>
<path d="M84.8298 42.8042L84.8297 42.8042C82.7668 42.6154 79.356 42.3285 75.2802 42.079C72.8931 41.9316 70.2788 41.7996 67.5702 41.705L67.57 41.705C65.1259 41.6216 62.602 41.5687 60.1034 41.5687C56.5405 41.5687 52.8392 41.7275 49.3406 41.9584L49.3588 42.2337L49.3406 41.9584C43.9599 42.3137 39.0522 42.8387 35.8492 43.2202L35.8487 43.2203C34.9758 43.326 34.2283 43.4202 33.6314 43.496L33.6309 43.496C33.156 43.5573 32.7777 43.608 32.5083 43.6448L33.599 40.9956C33.6065 40.994 33.6142 40.9925 33.6223 40.9909L33.6223 40.991L33.6299 40.9893C34.0544 40.8924 35.2983 40.6293 37.1897 40.2977C40.224 39.7745 44.9285 39.0926 50.6311 38.69C53.5013 38.4903 56.6233 38.3623 59.9148 38.3623C62.534 38.3623 64.9976 38.4226 67.2765 38.528L67.2766 38.528C70.1515 38.66 72.7361 38.8522 74.9808 39.0669C78.0642 39.3627 80.5082 39.6979 82.1804 39.9589C83.0165 40.0894 83.6596 40.2014 84.0932 40.2806C84.31 40.3202 84.4744 40.3516 84.5844 40.3731C84.6048 40.3771 84.6232 40.3807 84.6398 40.384L86.3815 42.9505C86.0176 42.9152 85.4928 42.8652 84.8298 42.8042Z" fill="white" stroke="#7A7A7A" stroke-width="0.552135"/>
<path d="M76.1221 58.3574L76.1222 58.3574C79.9998 58.879 83.1477 59.4229 84.8573 59.7367L76.1221 58.3574ZM76.1221 58.3574C73.7789 58.0434 71.1707 57.7414 68.452 57.5029L68.4519 57.5029M76.1221 58.3574L68.4519 57.5029M68.4519 57.5029C65.2461 57.2229 61.8866 57.0338 58.6416 57.0338C55.534 57.0338 52.431 57.1966 49.5154 57.4428L49.5386 57.7179M68.4519 57.5029L49.5386 57.7179M49.5386 57.7179L49.5154 57.4428C43.6502 57.9381 38.5306 58.7734 35.5971 59.3103L35.597 59.3104M49.5386 57.7179L35.597 59.3104M35.597 59.3104C35.0181 59.4165 34.5228 59.5112 34.1243 59.5906M35.597 59.3104L34.1243 59.5906M34.1243 59.5906C33.8341 59.6478 33.5947 59.6966 33.4103 59.7349L34.1453 57.069C34.1455 57.0689 34.1458 57.0689 34.146 57.0688C34.4994 56.9823 35.4314 56.7569 36.8304 56.4673C39.7854 55.8575 44.8122 54.9651 50.825 54.4795L50.8251 54.4795C53.419 54.2685 56.1929 54.137 59.0644 54.137C62.2547 54.137 65.3636 54.3136 68.251 54.5809C71.0562 54.8446 73.6538 55.1947 75.9169 55.5564C78.5868 55.9856 80.7933 56.4309 82.3317 56.7687C83.1008 56.9376 83.7029 57.0796 84.1123 57.1793C84.317 57.2292 84.4735 57.2685 84.5786 57.2952C84.5888 57.2978 84.5984 57.3003 84.6076 57.3026L85.7338 59.9005C85.5092 59.8574 85.2148 59.8019 84.8575 59.7368L34.1243 59.5906Z" fill="white" stroke="#7A7A7A" stroke-width="0.552135"/>
<path d="M33.1993 76.9894L34.2726 74.3644C34.2762 74.3635 34.2798 74.3624 34.2835 74.3614C34.3758 74.3358 34.5139 74.2985 34.6954 74.2517L34.6954 74.2517L34.6992 74.2507C35.1521 74.127 35.8809 73.9392 36.8443 73.7133C39.7118 73.0471 44.6431 72.0535 50.5938 71.4889L50.5938 71.4888C53.3678 71.2252 56.3632 71.0558 59.4746 71.0558C62.7572 71.0558 65.9008 71.2102 68.782 71.4436L68.782 71.4436C71.5796 71.6694 74.1295 71.9709 76.3248 72.2834L76.3248 72.2834C78.8537 72.6429 80.9133 73.0139 82.34 73.2948C83.0533 73.4352 83.6084 73.5531 83.9847 73.6358C84.1729 73.6772 84.3163 73.7097 84.4126 73.7319C84.4177 73.7331 84.4227 73.7343 84.4276 73.7354L84.5597 74.0201L84.5599 74.0208L85.7787 76.666C85.5448 76.624 85.2356 76.5695 84.8571 76.5052C84.8569 76.5051 84.8568 76.5051 84.8566 76.5051L84.8104 76.7772M33.1993 76.9894L76.41 75.3293M33.1993 76.9894C33.2007 76.9891 33.202 76.9888 33.2033 76.9886C33.5396 76.9199 34.0346 76.8216 34.6701 76.7024L34.6717 76.7021L34.6717 76.7021C34.8221 76.6748 34.9835 76.6449 35.1538 76.6133C35.3773 76.5719 35.6159 76.5276 35.8644 76.4829L35.8659 76.4827L35.8659 76.4827C38.8573 75.9611 43.7462 75.2158 49.5617 74.7623L33.1993 76.9894ZM84.8104 76.7772C83.1609 76.4942 80.1944 76.0301 76.3791 75.6037M84.8104 76.7772C85.3019 76.8608 85.676 76.9276 85.9198 76.9722L84.8104 76.7772ZM76.3791 75.6037L76.41 75.3293M76.3791 75.6037L76.4098 75.3293C76.4098 75.3293 76.4099 75.3293 76.41 75.3293M76.3791 75.6037C74.1333 75.3508 71.5933 75.1169 68.8535 74.9391L68.8713 74.6636C71.6157 74.8417 74.16 75.076 76.41 75.3293" fill="white" stroke="#7A7A7A" stroke-width="0.552135"/>
<path d="M76.2233 89.5528L76.2233 89.5528C73.96 89.3072 71.4506 89.0691 68.847 88.8763C65.4874 88.627 61.9739 88.4567 58.6402 88.4567C55.2846 88.4567 51.9152 88.6079 48.7813 88.8349C43.4374 89.2202 38.7745 89.81 36.0378 90.1993C35.696 90.2445 35.3858 90.2899 35.1063 90.3316C34.6142 90.4038 34.2226 90.4636 33.9442 90.507L35.0718 87.8219L35.141 87.7964C35.4456 87.6924 36.1372 87.4684 37.1992 87.184C39.5661 86.5534 43.7809 85.6357 49.7122 85.1128C52.4628 84.8724 55.5835 84.7179 59.0626 84.7179C62.6351 84.7179 65.9092 84.8988 68.8411 85.1811L68.8413 85.1811C71.6336 85.448 74.1096 85.8055 76.2319 86.1818L76.2321 86.1818C78.9407 86.6595 81.0642 87.1673 82.5093 87.5551C83.2318 87.749 83.7846 87.913 84.1561 88.0282C84.3419 88.0858 84.4823 88.1312 84.5759 88.1621C84.584 88.1647 84.5918 88.1673 84.5992 88.1698L85.682 90.7621C85.4684 90.7296 85.1878 90.6874 84.8462 90.6372L84.8457 90.6371C83.175 90.3954 80.0501 89.9688 76.2233 89.5528Z" fill="white" stroke="#7A7A7A" stroke-width="0.552135"/>
<path d="M75.5707 105.212C73.427 105.004 71.0117 104.816 68.3652 104.679L68.3649 104.679C65.7528 104.547 62.9174 104.464 59.9085 104.464C55.7008 104.464 51.8297 104.627 48.4192 104.868C43.0896 105.239 38.8893 105.795 36.3125 106.196M36.3125 106.196C36.3127 106.196 36.3129 106.196 36.3131 106.196L36.3545 106.469L36.312 106.196C36.3122 106.196 36.3123 106.196 36.3125 106.196ZM33.9498 106.588L35.1608 103.684C35.1664 103.683 35.1722 103.681 35.1782 103.68C35.2758 103.654 35.4215 103.617 35.6124 103.57L35.6132 103.57C35.9593 103.484 36.4579 103.363 37.0927 103.224L37.0927 103.224L37.0939 103.224C39.4702 102.694 43.7759 101.866 49.3369 101.339L49.3372 101.339C52.4694 101.038 56.0046 100.834 59.8102 100.834C62.9037 100.834 65.8205 100.981 68.4966 101.214L68.4968 101.214C71.1578 101.444 73.5817 101.76 75.6933 102.095C78.4992 102.541 80.7597 103.023 82.3178 103.392C83.0968 103.577 83.7001 103.734 84.1081 103.845C84.3121 103.9 84.4673 103.944 84.5712 103.974C84.5829 103.977 84.594 103.98 84.6044 103.983L85.7299 106.579C85.5069 106.537 85.2134 106.485 84.8526 106.423C84.8525 106.423 84.8525 106.423 84.8524 106.423L84.8058 106.695C83.0995 106.4 79.8805 105.906 75.544 105.487L33.9498 106.588Z" fill="white" stroke="#7A7A7A" stroke-width="0.552135"/>
<path d="M34.6982 120.965C34.7185 120.911 34.7401 120.855 34.7625 120.795C34.8953 120.442 35.0636 119.985 35.2289 119.534C35.3941 119.083 35.5566 118.636 35.6777 118.302L35.8235 117.899L35.8308 117.879L36.0706 117.81C36.4982 117.694 37.2718 117.491 38.3378 117.243L38.338 117.243C41.1969 116.577 46.1579 115.587 52.1075 115.098L52.1076 115.098C54.3389 114.913 56.7092 114.801 59.1612 114.801C62.0866 114.801 65.0136 114.977 67.7876 115.252L67.788 115.252C70.2913 115.497 72.667 115.821 74.8106 116.16C80.0952 117.004 83.9553 117.965 84.7171 118.161L85.7667 121.051C85.5381 121.008 85.2315 120.952 84.8552 120.884C82.9192 120.536 79.1211 119.894 74.5975 119.338C72.3857 119.066 70.0006 118.816 67.5765 118.631C64.997 118.431 62.3709 118.306 59.8447 118.306C56.9135 118.306 53.8829 118.469 50.9818 118.718L34.6982 120.965ZM34.6982 120.965C35.0144 120.904 35.4736 120.818 36.0565 120.714C36.3078 120.668 36.5817 120.621 36.8747 120.57C37.0406 120.541 37.2126 120.511 37.3902 120.48L37.3919 120.48L37.3919 120.48C40.4904 119.955 45.5142 119.187 50.9818 118.718L34.6982 120.965Z" fill="white" stroke="#7A7A7A" stroke-width="0.552135"/>
<path d="M73.263 133.641L73.2634 133.641C78.5677 134.091 83.0176 134.631 84.8427 134.862L84.8439 134.862C85.0273 134.886 85.1841 134.907 85.3126 134.924L84.5861 132.402C84.5711 132.398 84.5549 132.394 84.5377 132.389C84.4048 132.356 84.2071 132.307 83.9484 132.246C83.431 132.124 82.6702 131.951 81.698 131.75C79.7536 131.348 76.9645 130.834 73.5885 130.386C71.5059 130.111 69.2051 129.859 66.7395 129.678L66.739 129.678C64.1905 129.486 61.4684 129.37 58.6417 129.37C55.9691 129.37 53.5143 129.464 51.2859 129.614L51.2673 129.339L51.2859 129.614C44.6131 130.066 39.9834 131.04 37.7069 131.614C37.1899 131.746 36.7972 131.854 36.5251 131.933C36.3921 131.973 36.2888 132.005 36.2156 132.028L35.269 134.908C35.5562 134.864 35.9753 134.8 36.5092 134.723L36.5135 134.722L36.5135 134.722C36.6078 134.71 36.7019 134.696 36.8027 134.681C36.8528 134.674 36.9045 134.667 36.9587 134.659M73.263 133.641L36.9587 134.659M73.263 133.641C71.0911 133.461 68.7673 133.29 66.4275 133.166L73.263 133.641ZM36.9587 134.659C36.9587 134.659 36.9586 134.659 36.9586 134.659L36.9979 134.932L36.9589 134.659C39.6158 134.277 44.4953 133.65 50.0636 133.272C52.9064 133.075 55.9249 132.946 58.9251 132.946C61.3504 132.946 63.9027 133.029 66.4274 133.166L36.9587 134.659ZM35.1721 135.203C34.9709 135.235 34.8652 135.253 34.8652 135.253L34.9624 134.957L35.1721 135.203Z" fill="white" stroke="#7A7A7A" stroke-width="0.552135"/>
<path d="M71.6375 148.04L71.6377 148.04C77.7025 148.573 82.849 149.305 84.8489 149.607L84.8492 149.607C85.0311 149.635 85.1868 149.659 85.3148 149.679L84.5793 147.009C84.5588 147.002 84.536 146.994 84.5107 146.985C84.3755 146.939 84.1722 146.871 83.9019 146.787C83.3614 146.618 82.5533 146.383 81.4873 146.117C79.3554 145.587 76.1922 144.938 72.0761 144.468L72.076 144.468C70.0783 144.238 67.854 144.05 65.419 143.941L65.4186 143.941C63.872 143.87 62.2418 143.832 60.5251 143.832C57.6592 143.832 55.0194 143.926 52.6209 144.08L52.6208 144.08C46.0056 144.502 41.231 145.375 38.5718 145.976L38.5716 145.976C37.9025 146.127 37.3664 146.258 36.97 146.362C36.6892 146.437 36.4771 146.497 36.3356 146.538C36.3071 146.547 36.2814 146.554 36.2587 146.561L36.2556 146.57L36.1268 146.952C36.02 147.268 35.8771 147.692 35.7328 148.122C35.5885 148.552 35.4429 148.987 35.3305 149.327C35.3076 149.396 35.2861 149.461 35.2663 149.521C35.3026 149.515 35.3409 149.509 35.3813 149.502C35.748 149.442 36.2849 149.355 36.9667 149.253C37.1106 149.231 37.2587 149.208 37.414 149.185C40.3699 148.746 45.5635 148.062 51.4389 147.696L71.6375 148.04ZM71.6375 148.04C69.5101 147.854 67.2647 147.692 65.0073 147.586M71.6375 148.04L65.0073 147.586M65.0073 147.586C63.0821 147.488 61.1417 147.435 59.2534 147.435C56.6048 147.435 53.9605 147.537 51.439 147.696L65.0073 147.586Z" fill="white" stroke="#7A7A7A" stroke-width="0.552135"/>
<path d="M63.2758 162.368C62.5537 162.357 61.8236 162.354 61.0948 162.354C57.0844 162.354 53.0564 162.584 49.4049 162.906C44.9486 163.295 41.0517 163.817 38.4061 164.214L38.405 164.214C38.0617 164.267 37.741 164.316 37.4429 164.361L37.4419 164.362C36.6102 164.492 35.954 164.601 35.5055 164.678C35.4714 164.684 35.4384 164.69 35.4066 164.695L37.1725 161.693C37.2373 161.677 37.3294 161.655 37.4467 161.627L37.4469 161.627C37.8717 161.525 38.636 161.344 39.671 161.122L39.6717 161.122C42.146 160.584 46.1646 159.797 50.7662 159.209C54.3665 158.749 58.3209 158.415 62.1818 158.415C62.7319 158.415 63.276 158.419 63.816 158.434L63.816 158.434L63.8188 158.434C66.0564 158.475 68.2277 158.607 70.2711 158.791L70.2714 158.791C77.8854 159.471 83.7101 160.865 84.6673 161.099L85.7579 163.799C85.5297 163.772 85.2205 163.737 84.8377 163.695L84.8373 163.695C82.3122 163.419 76.581 162.852 69.715 162.55L69.7145 162.55C67.6525 162.463 65.4872 162.395 63.2758 162.368ZM63.2758 162.368C63.276 162.368 63.2762 162.368 63.2764 162.368L63.2721 162.644L63.2754 162.368C63.2756 162.368 63.2757 162.368 63.2758 162.368Z" fill="white" stroke="#7A7A7A" stroke-width="0.552135"/>
<path d="M35.3688 180.463L36.934 177.621C36.9777 177.611 37.0332 177.599 37.1 177.584C37.2894 177.544 37.5701 177.484 37.9348 177.411C38.3149 177.336 38.7816 177.246 39.3347 177.144L39.3349 177.144C42.0824 176.636 46.8839 175.872 52.748 175.442L52.7481 175.442C55.4065 175.246 58.2792 175.123 61.2834 175.123H61.6756C63.8394 175.129 65.9285 175.209 67.909 175.329C76.1892 175.834 82.6087 177.136 84.7472 177.614L84.749 177.614C85.0001 177.669 85.1917 177.712 85.3202 177.743C85.3377 177.747 85.354 177.751 85.3692 177.754L86.3151 180.469C86.2969 180.467 86.2782 180.464 86.259 180.461C85.9308 180.416 85.4507 180.352 84.8424 180.275C81.5144 179.844 74.3509 178.99 67.3513 178.635C65.347 178.529 63.3575 178.468 61.472 178.468H61.4699C61.3595 178.468 61.2437 178.468 61.1233 178.473C58.267 178.48 55.0997 178.628 51.9807 178.843C46.5158 179.213 41.1952 179.778 37.9647 180.152C37.9589 180.153 37.9539 180.153 37.9497 180.153C37.9425 180.154 37.9358 180.155 37.9322 180.155H37.9252L37.9093 180.157C36.9516 180.269 36.182 180.362 35.6516 180.428C35.5481 180.44 35.4537 180.452 35.3688 180.463Z" fill="white" stroke="#7A7A7A" stroke-width="0.552135"/>
<path d="M85.9006 192.77C85.637 192.707 85.2899 192.624 84.8674 192.527L84.8667 192.527C81.6328 191.794 73.9611 190.231 65.6123 189.838L65.6118 189.838C64.3706 189.781 63.1097 189.747 61.8479 189.747C61.0503 189.747 60.2476 189.754 59.4485 189.777C56.3998 189.837 53.3677 190.015 50.5527 190.242C45.6667 190.635 41.4348 191.179 38.8947 191.542C38.7497 191.561 38.61 191.581 38.478 191.6C38.4198 191.609 38.3631 191.617 38.3081 191.625L38.3075 191.625C37.691 191.714 37.2076 191.788 36.8782 191.84C36.8469 191.845 36.8171 191.849 36.7886 191.854C36.806 191.791 36.8254 191.723 36.8462 191.65C36.9435 191.308 37.0734 190.866 37.2035 190.426C37.3336 189.987 37.4637 189.553 37.5613 189.227L37.6777 188.841C37.6903 188.838 37.7035 188.835 37.7176 188.832C37.8469 188.803 38.04 188.761 38.2934 188.708L38.2934 188.708L38.2948 188.708C38.6125 188.64 39.0289 188.558 39.533 188.464L39.5341 188.464C41.8103 188.031 45.8923 187.349 51.0938 186.883L51.094 186.883C53.8092 186.637 56.8291 186.453 60.0566 186.393L60.0569 186.393C60.7985 186.378 61.5553 186.37 62.3196 186.37C63.6618 186.37 64.9514 186.408 66.1881 186.476L66.1882 186.476C77.1436 187.067 83.8658 190.009 84.6671 190.376L85.9006 192.77Z" fill="white" stroke="#7A7A7A" stroke-width="0.552135"/>
<path opacity="0.3" d="M87.083 61.1256C88.4026 60.598 90.2842 59.9279 92.6001 59.323C91.7864 72.2611 90.4746 105.879 91.0765 136.531C91.6334 164.949 93.6939 187.193 94.74 196.917H85.0847V62C85.177 61.9548 85.3114 61.8902 85.486 61.8095C85.8501 61.6413 86.3887 61.4032 87.083 61.1256Z" fill="white" stroke="#7A7A7A" stroke-width="0.552135"/>
<path opacity="0.4" d="M37.5265 4.16585C40.5703 3.02385 44.9089 1.70573 50.2091 0.933397C46.2978 6.69885 38.1437 21.0681 33.9975 45.4421L32.7579 6.26251C32.8046 6.23751 32.8624 6.20689 32.9312 6.17108C33.1444 6.06001 33.4627 5.89903 33.88 5.70079C34.7148 5.30431 35.9458 4.75891 37.5265 4.16585Z" fill="white" stroke="#7A7A7A" stroke-width="0.552135"/>
<g opacity="0.4">
<mask id="path-144-inside-1_1122_7705" fill="white">
<path d="M49.3345 49.4851C49.3345 49.4851 49.2926 49.5606 49.2129 49.7088C49.2699 49.5836 49.3114 49.5078 49.3345 49.4851Z"/>
</mask>
<path d="M49.3345 49.4851C49.3345 49.4851 49.2926 49.5606 49.2129 49.7088C49.2699 49.5836 49.3114 49.5078 49.3345 49.4851Z" fill="white"/>
<path d="M49.3345 49.4851L49.8174 49.7528L48.9469 49.0919L49.3345 49.4851ZM49.2129 49.7088L48.7104 49.4801L49.6992 49.9703L49.2129 49.7088ZM49.3345 49.4851C48.8516 49.2174 48.8516 49.2174 48.8516 49.2174C48.8516 49.2174 48.8515 49.2174 48.8515 49.2174C48.8515 49.2174 48.8515 49.2175 48.8515 49.2175C48.8515 49.2175 48.8515 49.2175 48.8515 49.2176C48.8514 49.2176 48.8514 49.2177 48.8513 49.2178C48.8512 49.218 48.8511 49.2183 48.8509 49.2187C48.8505 49.2194 48.8499 49.2204 48.8492 49.2217C48.8477 49.2243 48.8457 49.2281 48.8429 49.233C48.8375 49.2429 48.8295 49.2575 48.819 49.2767C48.798 49.3152 48.7671 49.3721 48.7266 49.4473L49.6992 49.9703C49.7385 49.8973 49.7683 49.8424 49.7882 49.806C49.7981 49.7878 49.8055 49.7743 49.8104 49.7654C49.8129 49.761 49.8147 49.7577 49.8158 49.7556C49.8164 49.7545 49.8168 49.7538 49.8171 49.7533C49.8172 49.7531 49.8173 49.7529 49.8173 49.7528C49.8174 49.7528 49.8174 49.7528 49.8174 49.7528C49.8174 49.7528 49.8174 49.7528 49.8174 49.7528C49.8174 49.7528 49.8174 49.7528 49.8174 49.7528C49.8174 49.7528 49.8174 49.7528 49.8174 49.7528C49.8174 49.7528 49.8174 49.7528 49.3345 49.4851ZM49.7154 49.9376C49.7411 49.8812 49.7597 49.844 49.7713 49.8226C49.7772 49.8117 49.7786 49.8101 49.7757 49.8145C49.7741 49.8168 49.7698 49.8234 49.7627 49.8326C49.7563 49.8409 49.7427 49.858 49.7221 49.8783L48.9469 49.0919C48.8696 49.1681 48.8191 49.2622 48.8015 49.2945C48.7724 49.348 48.7417 49.4113 48.7104 49.4801L49.7154 49.9376Z" fill="#7A7A7A" mask="url(#path-144-inside-1_1122_7705)"/>
</g>
<g opacity="0.2">
<path d="M3.41484 37.0795C4.87748 36.5628 7.13853 35.8714 10.067 35.3248C9.68261 36.0311 9.22379 36.9242 8.89823 37.7494C6.49005 38.1562 4.48865 38.6117 2.99897 38.9958L3.41484 37.0795Z" fill="white" stroke="#7A7A7A" stroke-width="0.552135"/>
<path d="M4.41599 46.9151C5.58613 46.4661 7.24577 45.9244 9.38749 45.46L8.59332 47.7862C6.77633 48.1101 5.33226 48.4659 4.25158 48.7782L4.41599 46.9151Z" fill="white" stroke="#7A7A7A" stroke-width="0.552135"/>
<path d="M5.74469 58.0089C7.03881 57.5064 8.84977 56.9002 11.1375 56.3995L10.4787 58.9536C8.19429 59.3515 6.34837 59.7936 5.03779 60.1471L5.74469 58.0089Z" fill="white" stroke="#7A7A7A" stroke-width="0.552135"/>
<path d="M6.68079 67.9069C8.06456 67.438 9.97716 66.8827 12.3097 66.4408L11.7064 69.1569C9.55079 69.4215 7.70513 69.7289 6.27832 69.999C6.28413 69.9692 6.28999 69.9392 6.29589 69.909C6.42373 69.2539 6.57043 68.5022 6.68079 67.9069Z" fill="white" stroke="#7A7A7A" stroke-width="0.552135"/>
<path d="M6.67868 78.5763C7.86521 78.1593 9.69503 77.6038 12.1374 77.1432L11.6698 79.2857C9.51955 79.6288 7.76883 80.0108 6.48466 80.33L6.67868 78.5763Z" fill="white" stroke="#7A7A7A" stroke-width="0.552135"/>
<path d="M7.61763 88.43C8.89402 87.9574 10.7771 87.3508 13.1674 86.8642L12.7457 89.281C10.5293 89.6345 8.66075 90.0378 7.28238 90.3742C7.40145 89.7428 7.53165 89.0116 7.61763 88.43Z" fill="white" stroke="#7A7A7A" stroke-width="0.552135"/>
<path d="M8.17757 98.6625C9.45756 98.2423 11.5661 97.6093 14.2928 97.1143C14.0421 97.8513 13.8325 98.7568 13.6812 99.5016C11.1254 99.8174 9.03487 100.177 7.68059 100.437C7.78159 99.8353 7.98558 99.1888 8.17757 98.6625Z" fill="white" stroke="#7A7A7A" stroke-width="0.552135"/>
<path d="M9.36664 109.183C10.5122 108.851 12.1812 108.439 14.3104 108.103C14.1952 108.471 14.1123 108.88 14.0522 109.276C13.9807 109.748 13.9395 110.215 13.9164 110.598C11.8188 110.804 10.0393 111.036 8.70913 111.229L9.36664 109.183Z" fill="white" stroke="#7A7A7A" stroke-width="0.552135"/>
<path d="M9.96773 119.21C11.1217 118.941 12.8215 118.58 14.9354 118.265C14.5875 119.012 14.2836 119.938 14.0958 120.563C12.3221 120.722 10.7775 120.889 9.56091 121.031C9.68063 120.464 9.83235 119.765 9.96773 119.21Z" fill="white" stroke="#7A7A7A" stroke-width="0.552135"/>
<path d="M10.8737 129.73C12.0849 129.361 13.9425 128.867 16.284 128.471C15.889 129.302 15.5825 130.361 15.3898 131.112C13.2759 131.31 11.5064 131.524 10.2498 131.69L10.8737 129.73Z" fill="white" stroke="#7A7A7A" stroke-width="0.552135"/>
<path d="M11.9163 140.079C13.315 139.721 15.5472 139.234 18.2912 138.917C17.9339 139.644 17.5439 140.616 17.2581 141.363C14.8061 141.513 12.745 141.719 11.3677 141.875L11.9163 140.079Z" fill="white" stroke="#7A7A7A" stroke-width="0.552135"/>
<path d="M13.2939 152.306C14.6224 151.867 16.5907 151.318 19.0756 150.968L18.2961 153.364C16.0704 153.632 14.1717 153.967 12.808 154.237C12.9526 153.615 13.1305 152.877 13.2939 152.306Z" fill="white" stroke="#7A7A7A" stroke-width="0.552135"/>
<path d="M14.1364 162.371L19.4953 161.236L18.9938 163.531C16.8257 163.759 14.9687 164.022 13.6145 164.236L14.1364 162.371Z" fill="white" stroke="#7A7A7A" stroke-width="0.552135"/>
<path d="M14.6575 172.318C15.9498 171.929 17.9687 171.377 20.4837 170.947L20.1178 173.421C17.6973 173.678 15.6325 173.98 14.2079 174.21C14.3487 173.585 14.5161 172.858 14.6575 172.318Z" fill="white" stroke="#7A7A7A" stroke-width="0.552135"/>
<path d="M15.5582 182.247C16.835 181.861 18.8007 181.349 21.259 180.996L21.0633 183.681C18.6391 183.857 16.5645 184.095 15.1055 184.286C15.1301 184.175 15.1556 184.06 15.1816 183.942C15.3076 183.373 15.4462 182.746 15.5582 182.247Z" fill="white" stroke="#7A7A7A" stroke-width="0.552135"/>
</g>
<g opacity="0.2">
<path d="M121.107 66.318C121.166 66.9806 121.237 67.774 121.304 68.5077C119.425 68.0919 117.453 67.7795 115.434 67.5499C115.164 66.6482 114.796 65.6891 114.479 64.9249C116.703 65.2443 118.928 65.6967 121.107 66.318Z" fill="white" stroke="#7A7A7A" stroke-width="0.552135"/>
<path d="M120.912 77.8341C121.013 78.3993 121.127 79.0496 121.226 79.6329C119.625 79.3463 117.981 79.1108 116.31 78.9178L115.701 76.7506C117.401 77.0468 119.14 77.4046 120.912 77.8341Z" fill="white" stroke="#7A7A7A" stroke-width="0.552135"/>
<path d="M119.788 89.5047L120.273 91.3508C118.978 91.1927 117.718 91.0492 116.493 90.9194L115.612 88.6157C116.967 88.8697 118.359 89.166 119.788 89.5047Z" fill="white" stroke="#7A7A7A" stroke-width="0.552135"/>
<path d="M118.628 100.284L118.897 101.863C117.644 101.596 116.37 101.362 115.085 101.157L114.85 99.2696C116.091 99.5665 117.351 99.9038 118.628 100.284Z" fill="white" stroke="#7A7A7A" stroke-width="0.552135"/>
<path d="M117.645 110.149C117.711 110.637 117.756 111.222 117.787 111.807C116.5 111.469 115.209 111.175 113.922 110.918C113.733 110.262 113.527 109.566 113.351 108.979C114.752 109.311 116.184 109.699 117.645 110.149Z" fill="white" stroke="#7A7A7A" stroke-width="0.552135"/>
<path d="M116.602 120.853C116.716 121.445 116.848 122.137 116.967 122.777C115.824 122.448 114.637 122.163 113.423 121.912C113.266 121.175 113.093 120.352 112.95 119.675C112.943 119.641 112.936 119.609 112.929 119.576C114.172 119.935 115.401 120.359 116.602 120.853Z" fill="white" stroke="#7A7A7A" stroke-width="0.552135"/>
<path d="M116.174 132.736L116.618 134.562C115.201 134.138 113.776 133.776 112.358 133.471L112.008 131.37C113.362 131.759 114.753 132.212 116.174 132.736Z" fill="white" stroke="#7A7A7A" stroke-width="0.552135"/>
<path d="M114.694 144.473L115.198 146.323C113.905 145.81 112.563 145.38 111.195 145.026C111.101 144.334 110.997 143.548 110.911 142.879C112.341 143.373 113.571 143.921 114.694 144.473Z" fill="white" stroke="#7A7A7A" stroke-width="0.552135"/>
<path d="M114.223 156.3C114.224 156.305 114.226 156.311 114.227 156.317C113.086 155.956 111.948 155.644 110.824 155.374L110.545 153.538C111.625 153.881 112.728 154.274 113.857 154.72C113.968 155.197 114.094 155.742 114.223 156.3Z" fill="white" stroke="#7A7A7A" stroke-width="0.552135"/>
<path d="M112.988 164.485L113.346 166.266C112.106 165.814 110.803 165.446 109.463 165.151C109.373 164.425 109.272 163.611 109.18 162.888C110.453 163.319 111.727 163.849 112.988 164.485Z" fill="white" stroke="#7A7A7A" stroke-width="0.552135"/>
<path d="M112.036 175.759L112.281 177.453C110.844 177.047 109.388 176.709 107.932 176.431L107.527 174.165C109.003 174.59 110.511 175.114 112.036 175.759Z" fill="white" stroke="#7A7A7A" stroke-width="0.552135"/>
<path d="M111.351 186.347L111.659 188.301C110.444 187.883 109.122 187.551 107.739 187.291L107.317 184.794C108.636 185.209 109.983 185.723 111.351 186.347Z" fill="white" stroke="#7A7A7A" stroke-width="0.552135"/>
</g>
<g opacity="0.5">
<path d="M37.3462 40.2718C40.2893 39.7688 44.7379 39.128 50.1119 38.7281C49.5354 39.8139 49.2554 41.0962 49.1225 41.9733C44.0676 42.3123 39.4473 42.798 36.2907 43.1687C36.61 42.2425 37.0239 41.0795 37.3462 40.2718Z" fill="white" stroke="#7A7A7A" stroke-width="0.552135"/>
<path d="M36.9891 56.4373C39.8912 55.8437 44.6808 55.0009 50.4007 54.5171L49.3419 57.4601C43.8447 57.9319 39.0187 58.6982 36.059 59.2295L36.9891 56.4373Z" fill="white" stroke="#7A7A7A" stroke-width="0.552135"/>
<path d="M37.0107 73.6757C39.835 73.0254 44.5411 72.0861 50.2066 71.5266L49.3694 74.7773C43.906 75.211 39.2761 75.899 36.2934 76.4091L37.0107 73.6757Z" fill="white" stroke="#7A7A7A" stroke-width="0.552135"/>
<path d="M37.3546 87.146C39.6963 86.5309 43.7327 85.6647 49.3481 85.1477L48.5789 88.8516C43.5881 89.2176 39.2095 89.7585 36.4677 90.1411L37.3546 87.146Z" fill="white" stroke="#7A7A7A" stroke-width="0.552135"/>
<path d="M37.2734 103.185C39.6272 102.666 43.7189 101.89 48.965 101.375L48.2151 104.882C43.2416 105.235 39.268 105.746 36.7029 106.136L37.2734 103.185Z" fill="white" stroke="#7A7A7A" stroke-width="0.552135"/>
<path d="M38.5095 117.205C41.3288 116.555 46.0601 115.621 51.7223 115.132L50.7891 118.736C45.6284 119.186 40.8804 119.897 37.7982 120.413L38.5095 117.205Z" fill="white" stroke="#7A7A7A" stroke-width="0.552135"/>
<path d="M37.8819 131.573C40.1682 131.006 44.597 130.094 50.8974 129.643L49.8716 133.287C44.6379 133.648 40.0321 134.226 37.339 134.606L37.8819 131.573Z" fill="white" stroke="#7A7A7A" stroke-width="0.552135"/>
<path d="M38.7351 145.941C41.3698 145.354 45.9518 144.528 52.2371 144.106L51.2453 147.709C45.7202 148.062 40.8166 148.691 37.8387 149.124L38.7351 145.941Z" fill="white" stroke="#7A7A7A" stroke-width="0.552135"/>
<path d="M39.8295 161.089C42.236 160.569 46.0145 159.833 50.3439 159.264L49.2202 162.928L38.8434 164.162L39.8295 161.089Z" fill="white" stroke="#7A7A7A" stroke-width="0.552135"/>
<path d="M39.4959 177.117C42.2093 176.621 46.804 175.896 52.3995 175.47L51.7747 178.859C46.6018 179.214 41.5811 179.74 38.3668 180.109L39.4959 177.117Z" fill="white" stroke="#7A7A7A" stroke-width="0.552135"/>
<path d="M39.7355 188.427C41.9929 188.003 45.8648 187.366 50.7613 186.913L50.3382 190.26C45.7735 190.632 41.7984 191.134 39.2697 191.49L39.7355 188.427Z" fill="white" stroke="#7A7A7A" stroke-width="0.552135"/>
</g>
<path opacity="0.2" d="M84.5304 180.238L84.8413 180.278C85.4497 180.355 85.9299 180.419 86.258 180.464C86.2768 180.467 86.2951 180.469 86.3129 180.472L85.3674 177.757C85.3522 177.754 85.3359 177.75 85.3184 177.746C85.1899 177.715 84.9982 177.671 84.7472 177.617L84.5295 177.57V177.347V163.972V163.663L84.8358 163.697C85.2187 163.739 85.5278 163.775 85.7561 163.801L84.6617 161.092L84.5295 161.044V160.851V149.883V149.562L84.8471 149.61C85.029 149.638 85.1847 149.662 85.3127 149.681L84.5394 146.873L84.5295 146.837V146.8V135.138V134.824L84.8414 134.865C85.0248 134.889 85.1817 134.909 85.3101 134.926L84.5402 132.252L84.5295 132.214V132.175V121.16V120.83L84.8541 120.888C85.2305 120.955 85.5372 121.011 85.7657 121.054L84.7171 118.165L84.5298 118.12V117.902V106.697V106.37L84.8525 106.425C85.2133 106.487 85.5069 106.539 85.7299 106.581L84.5526 103.867L84.5298 103.814V103.757V90.9138V90.5943L84.846 90.6407C85.1875 90.6909 85.4682 90.7331 85.6818 90.7656L84.5511 88.0577L84.5298 88.0067V87.9513V76.7799V76.453L84.8521 76.5078C85.2308 76.5721 85.5401 76.6266 85.7742 76.6687L84.5551 74.0235L84.5298 73.9685V73.908V60.0119V59.6809L84.8554 59.7403C85.2129 59.8055 85.5074 59.861 85.7322 59.9041L84.5525 57.1818L84.5298 57.1292V57.072V43.0814V42.7788L84.8311 42.8065C85.494 42.8675 86.0189 42.9176 86.3828 42.9529L84.5774 40.293L84.5298 40.2228V40.1379V27.8648V27.5376L84.8523 27.5927C85.2625 27.6627 85.596 27.7214 85.8445 27.7659L84.5547 24.9412L84.5298 24.8866V24.8265V12.8023V12.4808L84.8476 12.5294C85.1583 12.577 85.414 12.6169 85.6101 12.6478L84.5462 9.69931L84.5298 9.6539V9.60561V5.53075C83.8224 5.22938 83.1225 4.94185 82.4267 4.67393L82.4258 4.67359C78.1639 3.01581 74.0373 1.90739 70.1073 1.21966C70.1072 1.21965 70.1072 1.21964 70.1071 1.21963L84.5304 180.238ZM84.5304 180.238V180.552V190.138V190.314L84.6679 190.378M84.5304 180.238L84.6679 190.378M84.6679 190.378L85.9015 192.773C85.6379 192.709 85.2907 192.626 84.8682 192.529L84.5304 192.452V192.799V196.919H58.6517C58.9913 194.807 59.3516 192.526 59.7288 190.097L59.7289 190.096C59.8114 189.551 59.8954 188.997 59.9805 188.436C60.0937 187.69 60.209 186.931 60.3253 186.16L60.3253 186.159C60.676 183.815 61.0346 181.353 61.4008 178.791L61.4008 178.791C61.5346 177.85 61.668 176.894 61.8032 175.926C61.8513 175.582 61.8996 175.236 61.9483 174.888L61.9484 174.887C62.4805 171.009 63.0167 166.929 63.5449 162.681C63.7299 161.206 63.915 159.707 64.0964 158.194L63.8223 158.161L64.0964 158.193C64.4964 154.845 64.8855 151.405 65.2664 147.895L65.2665 147.894C65.4134 146.505 65.5611 145.104 65.7045 143.696C66.048 140.336 66.3761 136.923 66.6859 133.469L66.6859 133.468C66.803 132.129 66.9202 130.781 67.0334 129.429C67.3244 125.959 67.5925 122.452 67.8301 118.929C67.9209 117.623 68.0076 116.312 68.0903 114.999L68.0903 114.998C68.2944 111.665 68.4758 108.319 68.6268 104.97L68.351 104.957L68.6268 104.97C68.6868 103.633 68.7436 102.293 68.7965 100.952L68.7965 100.952C68.9441 97.0063 69.0495 93.0678 69.1027 89.1592V89.1554C69.1027 89.0897 69.1036 89.0226 69.1045 88.9534L69.1045 88.9524C69.1054 88.8847 69.1063 88.8149 69.1063 88.7458C69.1217 87.4557 69.1365 86.1799 69.144 84.9114C69.1631 81.5022 69.1591 78.1757 69.125 74.9392C69.1135 73.6668 69.0948 72.4132 69.0761 71.1676L69.0761 71.1673C69.0006 66.5042 68.872 62.0373 68.702 57.7705L68.702 57.77C68.6531 56.5962 68.6039 55.4409 68.551 54.2965L68.2753 54.3092L68.551 54.2965C68.3509 49.9657 68.1096 45.8535 67.8372 41.9642M84.6679 190.378L69.3967 1.09943C67.1577 0.732813 64.9828 0.501042 62.8851 0.381875C63.1738 1.95763 63.5136 3.88976 63.8758 6.16541C64.0912 7.51748 64.318 8.99098 64.552 10.5843L64.5521 10.585C65.0163 13.8027 65.5073 17.5043 65.9836 21.6813M67.8372 41.9642C67.8373 41.9643 67.8373 41.9644 67.8373 41.9645L67.5618 41.9833L67.8372 41.964C67.8372 41.964 67.8372 41.9641 67.8372 41.9642ZM67.8372 41.9642C67.7506 40.695 67.6597 39.4528 67.5655 38.233L67.5655 38.2327C67.2107 33.6865 66.8218 29.4759 66.4175 25.6125L66.4174 25.6122C66.2741 24.2571 66.1306 22.9462 65.9836 21.6813M65.9836 21.6813C65.9836 21.6814 65.9836 21.6815 65.9836 21.6815L65.7093 21.7128M65.9836 21.6813C65.9836 21.6812 65.9835 21.6811 65.9835 21.6809L65.7093 21.7128M65.7093 21.7128C65.8563 22.9766 65.9996 24.2866 66.1429 25.6413L64.2789 10.6244C64.7427 13.8398 65.2334 17.5386 65.7093 21.7128Z" fill="white" stroke="#7A7A7A" stroke-width="0.552135"/>
</svg>
