<svg width="223" height="201" viewBox="0 0 223 201" fill="none" xmlns="http://www.w3.org/2000/svg">
<path d="M6.14933 202.214H5.75817V202.605V215.234H1.27788V202.605V194.915H6.14933H24.9663H30.2289H49.0467H54.3093H73.127H78.3897H97.2074H102.47H121.288H126.55H145.368H150.631H169.448H174.71H193.528H198.791H217.609H222.48V202.605V215.234H218V202.605V202.214H217.609H198.791H198.4V202.605V215.234H193.919V202.605V202.214H193.528H174.71H174.319V202.605V215.234H169.839V202.605V202.214H169.448H150.631H150.24V202.605V215.234H145.759V202.605V202.214H145.368H126.55H126.159V202.605V215.234H121.679V202.605V202.214H121.288H102.47H102.079V202.605V215.234H97.5986V202.605V202.214H97.2074H78.3897H77.9985V202.605V215.234H73.5182V202.605V202.214H73.127H54.3093H53.9181V202.605V215.234H49.4378V202.605V202.214H49.0467H30.2289H29.8378V202.605V215.234H25.3575V202.605V202.214H24.9663H6.14933Z" fill="white" stroke="#7A7A7A" stroke-width="0.782313"/>
<path d="M190.419 191.469H169.833V3.26164C169.858 3.25182 169.886 3.24131 169.915 3.23013C170.129 3.14877 170.439 3.03239 170.819 2.89268C171.581 2.61317 172.628 2.24069 173.769 1.86841C174.91 1.49588 176.14 1.12496 177.271 0.847566C178.409 0.568244 179.418 0.391156 180.125 0.391156C180.183 0.391156 180.304 0.424048 180.497 0.5818C180.684 0.734666 180.899 0.972726 181.139 1.29913C181.618 1.95064 182.154 2.89683 182.722 4.05416C183.857 6.36478 185.092 9.45506 186.237 12.557C187.381 15.6564 188.431 18.757 189.195 21.0835C189.577 22.2465 189.888 23.2156 190.103 23.8938C190.21 24.2329 190.294 24.4992 190.35 24.6807L190.415 24.8877L190.419 24.9023V191.469Z" fill="white" stroke="#7A7A7A" stroke-width="0.782313"/>
<mask id="path-3-inside-1_1122_7694" fill="white">
<path d="M166.732 12.8736V8.97845H159.874V45.1995C159.874 45.1995 140.738 60.1636 110.76 63.1575V191.858H166.731V187.069H162.505V184.061H166.731V182.564H162.505V179.556H166.731V178.058H162.505V175.049H166.731V173.56H162.505V170.544H166.731V169.054H162.505V166.039H166.731V164.548H162.505V161.533H166.731V160.042H162.505V157.034H166.731V155.536H162.505V152.528H166.731V151.031H162.505V148.023H166.731V146.525H162.505V143.517H166.731V142.02H162.505V139.011H166.731V137.515H162.505V134.507H166.731V133.009H162.505V130.001H166.731V128.504H162.505V125.496H166.731V123.999H162.505V120.99H166.731V119.493H162.505V116.485H166.731V114.987H162.505V111.979H166.731V110.482H162.505V107.474H166.731V105.984H162.505V102.968H166.731V101.478H162.505V98.4617H166.731V96.9714H162.505V93.9556H166.731V92.4661H162.505V89.4503H166.731V87.9608H162.505V84.952H166.731V83.4547H162.505V80.4459H166.731V78.9485H162.505V75.9405H166.731V74.4432H162.505V71.4352H166.731V69.9378H162.505V66.9291H166.731V65.4325H162.505V62.4261H166.731V60.9287H162.505V57.9207H166.731V56.4234H162.505V53.4146H166.731V51.9173H162.505V48.9093H166.731V47.4119H162.505V44.4031H166.731V42.9066H162.505V39.8978H166.731V38.4005H162.505V35.3917H166.731V33.9014H162.505V30.8863H166.731V29.3968H162.505V26.381H166.731V24.8907H162.505V21.8757H166.731V20.3854H162.505V17.3703H166.731V15.88H162.505V12.872H166.732V12.8736ZM123.985 178.407C122.776 178.322 121.551 178.215 120.326 178.095V170.248C120.326 170.248 121.679 170.354 123.985 170.446V178.407ZM123.985 167.416C121.672 167.225 120.326 167.019 120.326 167.019V158.64C121.566 158.76 122.783 158.852 123.985 158.924V167.416ZM123.985 155.333C121.687 155.198 120.326 155.028 120.326 155.028V145.52C121.573 145.605 122.791 145.663 123.985 145.691V155.333ZM123.985 142.455C121.672 142.434 120.326 142.321 120.326 142.321V131.401C121.58 131.373 122.798 131.337 123.985 131.281V142.455ZM123.985 128.648C121.687 128.74 120.326 128.712 120.326 128.712V120.929C121.566 120.901 122.783 120.844 123.985 120.773V128.648ZM123.985 117.288C121.695 117.537 120.326 117.628 120.326 117.628V110.59C121.573 110.519 122.791 110.426 123.985 110.32V117.288ZM123.985 107.313C121.687 107.555 120.326 107.604 120.326 107.604V99.8206C121.566 99.7213 122.783 99.6008 123.985 99.4584V107.313ZM123.985 96.7618C121.695 97.124 120.326 97.2797 120.326 97.2797V90.2412C121.573 90.0707 122.791 89.8868 123.985 89.6803V96.7618ZM123.985 86.9211C121.687 87.3607 120.326 87.5524 120.326 87.5524V80.6414C121.573 80.4005 122.798 80.1447 123.985 79.8756V86.9211ZM123.985 76.9168C121.695 77.4277 120.326 77.6687 120.326 77.6687V64.3513C121.573 64.0955 122.791 63.8264 123.985 63.5424V76.9168ZM129.043 178.669C127.879 178.627 126.691 178.577 125.497 178.506V170.496C126.547 170.524 127.742 170.545 129.043 170.56V178.669ZM129.043 167.685C127.735 167.65 126.548 167.593 125.497 167.523V159.009C126.706 159.066 127.886 159.094 129.043 159.108V167.685ZM129.043 155.489C127.75 155.489 126.555 155.453 125.497 155.411V145.726C126.706 145.747 127.894 145.74 129.043 145.712V155.489ZM129.043 142.363C127.735 142.42 126.548 142.448 125.497 142.455V131.202C126.714 131.131 127.894 131.046 129.043 130.947V142.363ZM129.043 128.322C127.743 128.435 126.555 128.521 125.497 128.585V120.666C126.699 120.574 127.886 120.46 129.043 120.326V128.322ZM129.043 116.643C127.743 116.827 126.555 116.983 125.497 117.111V110.171C126.714 110.051 127.894 109.909 129.043 109.753V116.643ZM129.043 106.667C127.743 106.865 126.555 107.021 125.497 107.149V99.2667C126.699 99.1111 127.878 98.9264 129.043 98.7277V106.667ZM129.043 95.8684C127.75 96.1171 126.555 96.337 125.497 96.5138V89.4182C126.706 89.1913 127.894 88.9567 129.043 88.7087V95.8684ZM129.043 85.8282C127.743 86.1403 126.555 86.3954 125.497 86.616V79.5353C126.714 79.2583 127.894 78.9681 129.043 78.67V85.8282ZM129.043 75.6964C127.743 76.0367 126.555 76.3278 125.497 76.5765V63.1732C126.706 62.8751 127.894 62.5559 129.043 62.2227V75.6964ZM134.101 178.747C132.937 178.747 131.758 178.74 130.555 178.711V170.566C131.674 170.566 132.861 170.559 134.101 170.531V178.747ZM134.101 167.678C132.854 167.714 131.667 167.721 130.555 167.707V159.114C131.765 159.107 132.952 159.086 134.101 159.036V167.678ZM134.101 155.39C132.861 155.446 131.675 155.482 130.555 155.489V145.663C131.772 145.613 132.952 145.542 134.101 145.45V155.39ZM134.101 141.987C132.854 142.114 131.675 142.206 130.555 142.278V130.804C131.78 130.677 132.959 130.542 134.101 130.393V141.987ZM134.101 127.733C132.861 127.91 131.675 128.052 130.555 128.165V120.147C131.765 119.992 132.944 119.821 134.101 119.637V127.733ZM134.101 115.82C132.861 116.047 131.675 116.238 130.555 116.416V109.534C131.772 109.356 132.959 109.158 134.101 108.938V115.82ZM134.101 105.758C132.861 106.014 131.675 106.234 130.555 106.426V98.4649C131.765 98.238 132.944 97.9963 134.101 97.7412V105.758ZM134.101 94.7825C132.869 95.0665 131.682 95.3286 130.555 95.5562V88.3691C131.772 88.0851 132.952 87.7871 134.101 87.482V94.7825ZM134.101 84.5295C132.869 84.8769 131.682 85.189 130.555 85.466V78.271C131.78 77.9378 132.959 77.6045 134.101 77.2564V84.5295ZM134.101 74.2773C132.861 74.6466 131.675 74.9869 130.555 75.292V61.783C131.772 61.4208 132.952 61.0453 134.101 60.662V74.2773ZM139.159 178.662C138.002 178.697 136.823 178.726 135.613 178.74V170.496C136.754 170.46 137.942 170.417 139.159 170.353V178.662ZM139.159 167.409C137.942 167.509 136.755 167.58 135.613 167.622V158.967C136.838 158.902 138.017 158.81 139.159 158.711V167.409ZM139.159 155C137.95 155.134 136.762 155.233 135.613 155.305V145.314C136.838 145.201 138.017 145.059 139.159 144.903V155ZM139.159 141.334C137.942 141.526 136.755 141.681 135.613 141.817V130.181C136.846 130.003 138.025 129.811 139.159 129.606V141.334ZM139.159 126.896C137.942 127.13 136.762 127.335 135.613 127.513V119.375C136.83 119.162 138.017 118.928 139.159 118.686V126.896ZM139.159 114.812C137.95 115.075 136.762 115.323 135.613 115.543V108.647C136.846 108.399 138.025 108.136 139.159 107.867V114.812ZM139.159 104.602C137.95 104.914 136.762 105.191 135.613 105.439V97.3931C136.83 97.1091 138.01 96.804 139.159 96.4919V104.602ZM139.159 93.4909C137.95 93.8242 136.762 94.1363 135.613 94.4133V87.0627C136.838 86.7224 138.017 86.3672 139.159 85.9987V93.4909ZM139.159 83.0111C137.95 83.4014 136.762 83.7699 135.613 84.104V76.7964C136.846 76.406 138.025 76.0156 139.159 75.6252V83.0111ZM139.159 72.6595C137.95 73.071 136.762 73.4614 135.613 73.8158V60.1433C136.838 59.7107 138.017 59.271 139.159 58.8306V72.6595ZM144.217 178.421C143.076 178.485 141.896 178.549 140.671 178.606V170.269C141.835 170.197 143.015 170.113 144.217 170.013V178.421ZM144.217 166.848C143.015 167.019 141.828 167.161 140.671 167.274V158.561C141.903 158.426 143.091 158.277 144.217 158.113V166.848ZM144.217 154.29C143.023 154.503 141.836 154.68 140.671 154.822V144.683C141.903 144.491 143.091 144.279 144.217 144.052V154.29ZM144.217 140.377C143.015 140.646 141.828 140.873 140.671 141.079V129.315C141.919 129.067 143.098 128.805 144.217 128.535V140.377ZM144.217 125.753C143.023 126.065 141.836 126.342 140.671 126.583V118.352C141.903 118.082 143.083 117.792 144.217 117.494V125.753ZM144.217 113.578C143.023 113.904 141.836 114.195 140.671 114.465V107.49C141.919 107.163 143.098 106.83 144.217 106.489V113.578ZM144.217 103.148C143.023 103.531 141.836 103.878 140.671 104.198V96.0733C141.903 95.7189 143.083 95.3567 144.217 94.9945V103.148ZM144.217 91.9725C143.031 92.3628 141.843 92.7243 140.671 93.0654V85.5019C141.911 85.0904 143.091 84.6649 144.217 84.2463V91.9725ZM144.217 81.2376C143.023 81.6921 141.836 82.1177 140.671 82.5151V75.0862C141.919 74.6395 143.098 74.185 144.217 73.7383V81.2376ZM144.217 70.8007C143.023 71.2764 141.843 71.716 140.671 72.1275V58.2282C141.911 57.7244 143.091 57.2206 144.217 56.7097V70.8007ZM149.275 178.01C148.156 178.123 146.977 178.222 145.729 178.315V169.871C146.901 169.765 148.088 169.63 149.275 169.481V178.01ZM149.275 165.976C148.08 166.225 146.894 166.438 145.729 166.622V157.88C146.984 157.674 148.171 157.454 149.275 157.228V165.976ZM149.275 153.183C148.095 153.495 146.909 153.772 145.729 153.999V143.732C146.984 143.455 148.171 143.165 149.275 142.866V153.183ZM149.275 139.092C148.08 139.44 146.894 139.752 145.729 140.035V128.151C146.999 127.818 148.178 127.477 149.275 127.13V139.092ZM149.275 124.27C148.095 124.668 146.909 125.022 145.729 125.349V117.09C146.977 116.75 148.163 116.395 149.275 116.047V124.27ZM149.275 112.088C148.095 112.478 146.909 112.833 145.729 113.166V106.007C146.999 105.596 148.178 105.177 149.275 104.759V112.088ZM149.275 101.352C148.088 101.821 146.909 102.254 145.729 102.651V94.4915C146.984 94.073 148.163 93.6474 149.275 93.2289V101.352ZM149.275 90.1559C148.103 90.6175 146.916 91.0501 145.729 91.4616V83.6643C146.991 83.1605 148.171 82.6708 149.275 82.181V90.1559ZM149.275 79.173C148.095 79.698 146.909 80.1948 145.729 80.6563V73.1211C146.999 72.5891 148.178 72.0642 149.275 71.5533V79.173ZM149.275 68.665C148.095 69.204 146.909 69.7149 145.729 70.1976V56.0283C146.991 55.4392 148.171 54.8572 149.275 54.2971V68.665ZM154.334 187.07H150.787V181.478C152.027 181.358 153.222 181.216 154.334 181.06V187.07ZM154.334 177.456C153.275 177.591 152.088 177.733 150.787 177.867V169.282C151.974 169.119 153.154 168.935 154.334 168.729V177.456ZM154.334 164.734C153.147 165.074 151.967 165.379 150.787 165.649V156.908C152.103 156.61 153.282 156.311 154.334 156.027V164.734ZM154.334 151.572C153.169 152.019 151.982 152.409 150.787 152.757V142.441C152.103 142.065 153.29 141.675 154.334 141.313V151.572ZM154.334 137.425C153.147 137.864 151.967 138.269 150.787 138.638V126.633C152.118 126.185 153.298 125.732 154.334 125.306V137.425ZM154.334 122.354C153.162 122.858 151.975 123.319 150.787 123.752V115.572C152.095 115.146 153.282 114.728 154.334 114.337V122.354ZM154.334 110.25C153.169 110.725 151.99 111.173 150.787 111.584V104.17C152.118 103.623 153.298 103.098 154.334 102.602V110.25ZM154.334 99.1244C153.162 99.6986 151.975 100.238 150.787 100.735V92.646C152.095 92.1352 153.282 91.6384 154.334 91.1776V99.1244ZM154.334 87.9357C153.176 88.5037 151.99 89.0357 150.787 89.5395V81.5004C152.103 80.8973 153.29 80.316 154.334 79.7762V87.9357ZM154.334 76.7181C153.169 77.3424 151.982 77.9315 150.787 78.4846V70.8359C152.118 70.1835 153.298 69.5662 154.334 68.9912V76.7181ZM154.334 66.16C153.169 66.7914 151.982 67.3945 150.787 67.9625V53.5022C152.103 52.7927 153.29 52.1261 154.334 51.5011V66.16ZM160.034 187.07H155.846V180.819C157.479 180.549 158.908 180.23 160.034 179.854V187.07ZM160.034 176.598C160.034 176.598 158.507 176.889 155.846 177.257V168.445C157.259 168.182 158.658 167.877 160.034 167.537V176.598ZM160.034 162.826C158.643 163.365 157.244 163.854 155.846 164.287V155.588C158.567 154.779 160.034 154.148 160.034 154.148V162.826ZM160.034 148.89C158.689 149.671 157.29 150.359 155.846 150.962V140.752C158.583 139.716 160.034 138.928 160.034 138.928V148.89ZM160.034 134.991C158.65 135.665 157.252 136.283 155.846 136.836V124.654C158.689 123.369 160.034 122.419 160.034 122.419V134.991ZM160.034 119.488C158.673 120.283 157.275 121.013 155.846 121.68V113.769C158.538 112.733 160.034 112.003 160.034 112.003V119.488ZM160.034 107.604C158.696 108.327 157.29 109.002 155.846 109.626V101.85C158.65 100.41 160.034 99.3739 160.034 99.3739V107.604ZM160.034 95.9317C158.673 96.8048 157.275 97.6129 155.846 98.3585V90.5111C158.538 89.2837 160.034 88.4466 160.034 88.4466V95.9317ZM160.034 84.7071C158.718 85.5872 157.313 86.4032 155.846 87.1691V78.9743C158.583 77.484 160.034 76.4764 160.034 76.4764V84.7071ZM160.034 73.3339C158.681 74.2421 157.282 75.0933 155.846 75.8951V68.133C158.666 66.487 160.034 65.4012 160.034 65.4012V73.3339ZM160.034 62.7046C158.696 63.6269 157.29 64.4929 155.846 65.3159V50.5866C158.598 48.8694 160.034 47.7413 160.034 47.7413V62.7046Z"/>
</mask>
<path d="M166.732 12.8736V8.97845H159.874V45.1995C159.874 45.1995 140.738 60.1636 110.76 63.1575V191.858H166.731V187.069H162.505V184.061H166.731V182.564H162.505V179.556H166.731V178.058H162.505V175.049H166.731V173.56H162.505V170.544H166.731V169.054H162.505V166.039H166.731V164.548H162.505V161.533H166.731V160.042H162.505V157.034H166.731V155.536H162.505V152.528H166.731V151.031H162.505V148.023H166.731V146.525H162.505V143.517H166.731V142.02H162.505V139.011H166.731V137.515H162.505V134.507H166.731V133.009H162.505V130.001H166.731V128.504H162.505V125.496H166.731V123.999H162.505V120.99H166.731V119.493H162.505V116.485H166.731V114.987H162.505V111.979H166.731V110.482H162.505V107.474H166.731V105.984H162.505V102.968H166.731V101.478H162.505V98.4617H166.731V96.9714H162.505V93.9556H166.731V92.4661H162.505V89.4503H166.731V87.9608H162.505V84.952H166.731V83.4547H162.505V80.4459H166.731V78.9485H162.505V75.9405H166.731V74.4432H162.505V71.4352H166.731V69.9378H162.505V66.9291H166.731V65.4325H162.505V62.4261H166.731V60.9287H162.505V57.9207H166.731V56.4234H162.505V53.4146H166.731V51.9173H162.505V48.9093H166.731V47.4119H162.505V44.4031H166.731V42.9066H162.505V39.8978H166.731V38.4005H162.505V35.3917H166.731V33.9014H162.505V30.8863H166.731V29.3968H162.505V26.381H166.731V24.8907H162.505V21.8757H166.731V20.3854H162.505V17.3703H166.731V15.88H162.505V12.872H166.732V12.8736ZM123.985 178.407C122.776 178.322 121.551 178.215 120.326 178.095V170.248C120.326 170.248 121.679 170.354 123.985 170.446V178.407ZM123.985 167.416C121.672 167.225 120.326 167.019 120.326 167.019V158.64C121.566 158.76 122.783 158.852 123.985 158.924V167.416ZM123.985 155.333C121.687 155.198 120.326 155.028 120.326 155.028V145.52C121.573 145.605 122.791 145.663 123.985 145.691V155.333ZM123.985 142.455C121.672 142.434 120.326 142.321 120.326 142.321V131.401C121.58 131.373 122.798 131.337 123.985 131.281V142.455ZM123.985 128.648C121.687 128.74 120.326 128.712 120.326 128.712V120.929C121.566 120.901 122.783 120.844 123.985 120.773V128.648ZM123.985 117.288C121.695 117.537 120.326 117.628 120.326 117.628V110.59C121.573 110.519 122.791 110.426 123.985 110.32V117.288ZM123.985 107.313C121.687 107.555 120.326 107.604 120.326 107.604V99.8206C121.566 99.7213 122.783 99.6008 123.985 99.4584V107.313ZM123.985 96.7618C121.695 97.124 120.326 97.2797 120.326 97.2797V90.2412C121.573 90.0707 122.791 89.8868 123.985 89.6803V96.7618ZM123.985 86.9211C121.687 87.3607 120.326 87.5524 120.326 87.5524V80.6414C121.573 80.4005 122.798 80.1447 123.985 79.8756V86.9211ZM123.985 76.9168C121.695 77.4277 120.326 77.6687 120.326 77.6687V64.3513C121.573 64.0955 122.791 63.8264 123.985 63.5424V76.9168ZM129.043 178.669C127.879 178.627 126.691 178.577 125.497 178.506V170.496C126.547 170.524 127.742 170.545 129.043 170.56V178.669ZM129.043 167.685C127.735 167.65 126.548 167.593 125.497 167.523V159.009C126.706 159.066 127.886 159.094 129.043 159.108V167.685ZM129.043 155.489C127.75 155.489 126.555 155.453 125.497 155.411V145.726C126.706 145.747 127.894 145.74 129.043 145.712V155.489ZM129.043 142.363C127.735 142.42 126.548 142.448 125.497 142.455V131.202C126.714 131.131 127.894 131.046 129.043 130.947V142.363ZM129.043 128.322C127.743 128.435 126.555 128.521 125.497 128.585V120.666C126.699 120.574 127.886 120.46 129.043 120.326V128.322ZM129.043 116.643C127.743 116.827 126.555 116.983 125.497 117.111V110.171C126.714 110.051 127.894 109.909 129.043 109.753V116.643ZM129.043 106.667C127.743 106.865 126.555 107.021 125.497 107.149V99.2667C126.699 99.1111 127.878 98.9264 129.043 98.7277V106.667ZM129.043 95.8684C127.75 96.1171 126.555 96.337 125.497 96.5138V89.4182C126.706 89.1913 127.894 88.9567 129.043 88.7087V95.8684ZM129.043 85.8282C127.743 86.1403 126.555 86.3954 125.497 86.616V79.5353C126.714 79.2583 127.894 78.9681 129.043 78.67V85.8282ZM129.043 75.6964C127.743 76.0367 126.555 76.3278 125.497 76.5765V63.1732C126.706 62.8751 127.894 62.5559 129.043 62.2227V75.6964ZM134.101 178.747C132.937 178.747 131.758 178.74 130.555 178.711V170.566C131.674 170.566 132.861 170.559 134.101 170.531V178.747ZM134.101 167.678C132.854 167.714 131.667 167.721 130.555 167.707V159.114C131.765 159.107 132.952 159.086 134.101 159.036V167.678ZM134.101 155.39C132.861 155.446 131.675 155.482 130.555 155.489V145.663C131.772 145.613 132.952 145.542 134.101 145.45V155.39ZM134.101 141.987C132.854 142.114 131.675 142.206 130.555 142.278V130.804C131.78 130.677 132.959 130.542 134.101 130.393V141.987ZM134.101 127.733C132.861 127.91 131.675 128.052 130.555 128.165V120.147C131.765 119.992 132.944 119.821 134.101 119.637V127.733ZM134.101 115.82C132.861 116.047 131.675 116.238 130.555 116.416V109.534C131.772 109.356 132.959 109.158 134.101 108.938V115.82ZM134.101 105.758C132.861 106.014 131.675 106.234 130.555 106.426V98.4649C131.765 98.238 132.944 97.9963 134.101 97.7412V105.758ZM134.101 94.7825C132.869 95.0665 131.682 95.3286 130.555 95.5562V88.3691C131.772 88.0851 132.952 87.7871 134.101 87.482V94.7825ZM134.101 84.5295C132.869 84.8769 131.682 85.189 130.555 85.466V78.271C131.78 77.9378 132.959 77.6045 134.101 77.2564V84.5295ZM134.101 74.2773C132.861 74.6466 131.675 74.9869 130.555 75.292V61.783C131.772 61.4208 132.952 61.0453 134.101 60.662V74.2773ZM139.159 178.662C138.002 178.697 136.823 178.726 135.613 178.74V170.496C136.754 170.46 137.942 170.417 139.159 170.353V178.662ZM139.159 167.409C137.942 167.509 136.755 167.58 135.613 167.622V158.967C136.838 158.902 138.017 158.81 139.159 158.711V167.409ZM139.159 155C137.95 155.134 136.762 155.233 135.613 155.305V145.314C136.838 145.201 138.017 145.059 139.159 144.903V155ZM139.159 141.334C137.942 141.526 136.755 141.681 135.613 141.817V130.181C136.846 130.003 138.025 129.811 139.159 129.606V141.334ZM139.159 126.896C137.942 127.13 136.762 127.335 135.613 127.513V119.375C136.83 119.162 138.017 118.928 139.159 118.686V126.896ZM139.159 114.812C137.95 115.075 136.762 115.323 135.613 115.543V108.647C136.846 108.399 138.025 108.136 139.159 107.867V114.812ZM139.159 104.602C137.95 104.914 136.762 105.191 135.613 105.439V97.3931C136.83 97.1091 138.01 96.804 139.159 96.4919V104.602ZM139.159 93.4909C137.95 93.8242 136.762 94.1363 135.613 94.4133V87.0627C136.838 86.7224 138.017 86.3672 139.159 85.9987V93.4909ZM139.159 83.0111C137.95 83.4014 136.762 83.7699 135.613 84.104V76.7964C136.846 76.406 138.025 76.0156 139.159 75.6252V83.0111ZM139.159 72.6595C137.95 73.071 136.762 73.4614 135.613 73.8158V60.1433C136.838 59.7107 138.017 59.271 139.159 58.8306V72.6595ZM144.217 178.421C143.076 178.485 141.896 178.549 140.671 178.606V170.269C141.835 170.197 143.015 170.113 144.217 170.013V178.421ZM144.217 166.848C143.015 167.019 141.828 167.161 140.671 167.274V158.561C141.903 158.426 143.091 158.277 144.217 158.113V166.848ZM144.217 154.29C143.023 154.503 141.836 154.68 140.671 154.822V144.683C141.903 144.491 143.091 144.279 144.217 144.052V154.29ZM144.217 140.377C143.015 140.646 141.828 140.873 140.671 141.079V129.315C141.919 129.067 143.098 128.805 144.217 128.535V140.377ZM144.217 125.753C143.023 126.065 141.836 126.342 140.671 126.583V118.352C141.903 118.082 143.083 117.792 144.217 117.494V125.753ZM144.217 113.578C143.023 113.904 141.836 114.195 140.671 114.465V107.49C141.919 107.163 143.098 106.83 144.217 106.489V113.578ZM144.217 103.148C143.023 103.531 141.836 103.878 140.671 104.198V96.0733C141.903 95.7189 143.083 95.3567 144.217 94.9945V103.148ZM144.217 91.9725C143.031 92.3628 141.843 92.7243 140.671 93.0654V85.5019C141.911 85.0904 143.091 84.6649 144.217 84.2463V91.9725ZM144.217 81.2376C143.023 81.6921 141.836 82.1177 140.671 82.5151V75.0862C141.919 74.6395 143.098 74.185 144.217 73.7383V81.2376ZM144.217 70.8007C143.023 71.2764 141.843 71.716 140.671 72.1275V58.2282C141.911 57.7244 143.091 57.2206 144.217 56.7097V70.8007ZM149.275 178.01C148.156 178.123 146.977 178.222 145.729 178.315V169.871C146.901 169.765 148.088 169.63 149.275 169.481V178.01ZM149.275 165.976C148.08 166.225 146.894 166.438 145.729 166.622V157.88C146.984 157.674 148.171 157.454 149.275 157.228V165.976ZM149.275 153.183C148.095 153.495 146.909 153.772 145.729 153.999V143.732C146.984 143.455 148.171 143.165 149.275 142.866V153.183ZM149.275 139.092C148.08 139.44 146.894 139.752 145.729 140.035V128.151C146.999 127.818 148.178 127.477 149.275 127.13V139.092ZM149.275 124.27C148.095 124.668 146.909 125.022 145.729 125.349V117.09C146.977 116.75 148.163 116.395 149.275 116.047V124.27ZM149.275 112.088C148.095 112.478 146.909 112.833 145.729 113.166V106.007C146.999 105.596 148.178 105.177 149.275 104.759V112.088ZM149.275 101.352C148.088 101.821 146.909 102.254 145.729 102.651V94.4915C146.984 94.073 148.163 93.6474 149.275 93.2289V101.352ZM149.275 90.1559C148.103 90.6175 146.916 91.0501 145.729 91.4616V83.6643C146.991 83.1605 148.171 82.6708 149.275 82.181V90.1559ZM149.275 79.173C148.095 79.698 146.909 80.1948 145.729 80.6563V73.1211C146.999 72.5891 148.178 72.0642 149.275 71.5533V79.173ZM149.275 68.665C148.095 69.204 146.909 69.7149 145.729 70.1976V56.0283C146.991 55.4392 148.171 54.8572 149.275 54.2971V68.665ZM154.334 187.07H150.787V181.478C152.027 181.358 153.222 181.216 154.334 181.06V187.07ZM154.334 177.456C153.275 177.591 152.088 177.733 150.787 177.867V169.282C151.974 169.119 153.154 168.935 154.334 168.729V177.456ZM154.334 164.734C153.147 165.074 151.967 165.379 150.787 165.649V156.908C152.103 156.61 153.282 156.311 154.334 156.027V164.734ZM154.334 151.572C153.169 152.019 151.982 152.409 150.787 152.757V142.441C152.103 142.065 153.29 141.675 154.334 141.313V151.572ZM154.334 137.425C153.147 137.864 151.967 138.269 150.787 138.638V126.633C152.118 126.185 153.298 125.732 154.334 125.306V137.425ZM154.334 122.354C153.162 122.858 151.975 123.319 150.787 123.752V115.572C152.095 115.146 153.282 114.728 154.334 114.337V122.354ZM154.334 110.25C153.169 110.725 151.99 111.173 150.787 111.584V104.17C152.118 103.623 153.298 103.098 154.334 102.602V110.25ZM154.334 99.1244C153.162 99.6986 151.975 100.238 150.787 100.735V92.646C152.095 92.1352 153.282 91.6384 154.334 91.1776V99.1244ZM154.334 87.9357C153.176 88.5037 151.99 89.0357 150.787 89.5395V81.5004C152.103 80.8973 153.29 80.316 154.334 79.7762V87.9357ZM154.334 76.7181C153.169 77.3424 151.982 77.9315 150.787 78.4846V70.8359C152.118 70.1835 153.298 69.5662 154.334 68.9912V76.7181ZM154.334 66.16C153.169 66.7914 151.982 67.3945 150.787 67.9625V53.5022C152.103 52.7927 153.29 52.1261 154.334 51.5011V66.16ZM160.034 187.07H155.846V180.819C157.479 180.549 158.908 180.23 160.034 179.854V187.07ZM160.034 176.598C160.034 176.598 158.507 176.889 155.846 177.257V168.445C157.259 168.182 158.658 167.877 160.034 167.537V176.598ZM160.034 162.826C158.643 163.365 157.244 163.854 155.846 164.287V155.588C158.567 154.779 160.034 154.148 160.034 154.148V162.826ZM160.034 148.89C158.689 149.671 157.29 150.359 155.846 150.962V140.752C158.583 139.716 160.034 138.928 160.034 138.928V148.89ZM160.034 134.991C158.65 135.665 157.252 136.283 155.846 136.836V124.654C158.689 123.369 160.034 122.419 160.034 122.419V134.991ZM160.034 119.488C158.673 120.283 157.275 121.013 155.846 121.68V113.769C158.538 112.733 160.034 112.003 160.034 112.003V119.488ZM160.034 107.604C158.696 108.327 157.29 109.002 155.846 109.626V101.85C158.65 100.41 160.034 99.3739 160.034 99.3739V107.604ZM160.034 95.9317C158.673 96.8048 157.275 97.6129 155.846 98.3585V90.5111C158.538 89.2837 160.034 88.4466 160.034 88.4466V95.9317ZM160.034 84.7071C158.718 85.5872 157.313 86.4032 155.846 87.1691V78.9743C158.583 77.484 160.034 76.4764 160.034 76.4764V84.7071ZM160.034 73.3339C158.681 74.2421 157.282 75.0933 155.846 75.8951V68.133C158.666 66.487 160.034 65.4012 160.034 65.4012V73.3339ZM160.034 62.7046C158.696 63.6269 157.29 64.4929 155.846 65.3159V50.5866C158.598 48.8694 160.034 47.7413 160.034 47.7413V62.7046Z" fill="white" stroke="#7A7A7A" stroke-width="1.56463" mask="url(#path-3-inside-1_1122_7694)"/>
<path d="M48.6388 49.9624V191.468H33.336V66.2001L33.3835 66.0475C33.4261 65.911 33.4889 65.7107 33.5697 65.4556C33.7314 64.9453 33.965 64.2162 34.2524 63.3411C34.8273 61.5905 35.6172 59.2578 36.4778 56.9262C37.3393 54.5921 38.2679 52.2696 39.1198 50.5349C39.5467 49.6655 39.947 48.9593 40.3024 48.4758C40.4806 48.2333 40.6372 48.0613 40.7691 47.9534C40.907 47.8406 40.9765 47.8317 40.9878 47.8317C41.508 47.8317 42.2573 47.9625 43.1129 48.1725C43.9606 48.3805 44.8845 48.6589 45.7424 48.9389C46.5995 49.2187 47.3864 49.4987 47.9592 49.7088C48.2455 49.8138 48.478 49.9013 48.6388 49.9624Z" fill="white" stroke="#7A7A7A" stroke-width="0.782313"/>
<mask id="path-5-inside-2_1122_7694" fill="white">
<path d="M54.2525 57.1309V59.3957H51.0708V60.5167H54.2525V62.787H51.0708V63.9088H54.2525V66.1791H51.0708V67.301H54.2525V69.5704H51.0708V70.6923H54.2525V72.9618H51.0708V74.0836H54.2525V76.3484H51.0708V77.4749H54.2525V79.7397H51.0708V80.8663H54.2525V83.131H51.0708V84.2584H54.2525V86.5232H51.0708V87.6497H54.2525V89.9145H51.0708V91.0418H54.2525V93.3066H51.0708V94.4331H54.2525V96.6979H51.0708V97.8245H54.2525V100.089H51.0708V101.217H54.2525V103.481H51.0708V104.607H54.2525V106.872H51.0708V107.998H54.2525V110.263H51.0708V111.39H54.2525V113.655H51.0708V114.776H54.2525V117.047H51.0708V118.169H54.2525V120.438H51.0708V121.56H54.2525V123.829H51.0708V124.951H54.2525V127.221H51.0708V128.342H54.2525V130.606H51.0708V131.734H54.2525V133.999H51.0708V135.125H54.2525V137.39H51.0708V138.516H54.2525V140.781H51.0708V141.908H54.2525V144.173H51.0708V145.299H54.2525V147.564H51.0708V148.691H54.2525V150.956H51.0708V152.083H54.2525V154.347H51.0708V155.474H54.2525V157.739H51.0708V158.865H54.2525V161.13H51.0708V162.257H54.2525V164.521H51.0708V165.648H54.2525V167.913H51.0708V169.034H54.2525V171.304H51.0708V172.426H54.2525V174.696H51.0708V175.818H54.2525V178.087H51.0708V179.209H54.2525V181.474H51.0708V182.601H54.2525V184.865H51.0708V185.993H54.2525V188.257H51.0708V191.862H93.2015V94.9807C70.6364 92.7269 56.2325 81.4632 56.2325 81.4632V54.1988H51.0708V57.1309H54.2525ZM83.2473 175.74C84.9833 175.671 86.0019 175.591 86.0019 175.591V181.498C85.0803 181.589 84.1579 181.669 83.2473 181.733V175.74ZM83.2473 167.067C84.1525 167.014 85.0686 166.944 86.0019 166.853V173.161C86.0019 173.161 84.9888 173.316 83.2473 173.46V167.067ZM83.2473 157.107C84.1462 157.085 85.0631 157.042 86.0019 156.978V164.135C86.0019 164.135 84.977 164.263 83.2473 164.365V157.107ZM83.2473 146.259C84.1407 146.301 85.0568 146.329 86.0019 146.35V154.57C86.0019 154.57 84.9888 154.655 83.2473 154.671V146.259ZM83.2473 138.35C84.1525 138.403 85.0686 138.446 86.0019 138.467V144.326C86.0019 144.326 84.977 144.347 83.2473 144.278V138.35ZM83.2473 130.483C84.1462 130.563 85.0631 130.632 86.0019 130.686V135.983C86.0019 135.983 84.9715 135.914 83.2473 135.727V130.483ZM83.2473 122.306C84.1525 122.413 85.0686 122.504 86.0019 122.578V128.437C86.0019 128.437 84.977 128.4 83.2473 128.218V122.306ZM83.2473 114.946C84.1462 115.101 85.0631 115.24 86.0019 115.368V120.666C86.0019 120.666 84.9715 120.548 83.2473 120.276V114.946ZM83.2473 107.565C84.1407 107.768 85.0631 107.96 86.0019 108.142V113.343C86.0019 113.343 84.977 113.199 83.2473 112.868V107.565ZM83.2473 95.271C84.1462 95.4846 85.0631 95.688 86.0019 95.8796V105.904C86.0019 105.904 84.9715 105.723 83.2473 105.338V95.271ZM79.4398 175.826C80.4185 175.815 81.3181 175.799 82.1091 175.778V181.807C81.2102 181.86 80.3168 181.898 79.4398 181.93V175.826ZM79.4398 167.205C80.3105 167.194 81.1984 167.173 82.1091 167.13V173.539C81.3181 173.592 80.4247 173.635 79.4398 173.662V167.205ZM79.4398 157.122C80.305 157.143 81.1984 157.149 82.1091 157.133V164.424C81.3127 164.456 80.413 164.482 79.4398 164.482V157.122ZM79.4398 146.008C80.305 146.083 81.193 146.146 82.1091 146.2V154.671C81.3181 154.666 80.4247 154.645 79.4398 154.602V146.008ZM79.4398 138.013C80.3105 138.114 81.2039 138.2 82.1091 138.269V144.23C81.3127 144.181 80.4193 144.118 79.4398 144.032V138.013ZM79.4398 130.055C80.305 130.172 81.193 130.279 82.1091 130.37V135.594C81.3127 135.498 80.4193 135.38 79.4398 135.241V130.055ZM79.4398 121.755C80.316 121.905 81.2039 122.044 82.1091 122.161V128.094C81.3127 127.998 80.4193 127.881 79.4398 127.731V121.755ZM79.4398 114.215C80.305 114.402 81.1984 114.578 82.1091 114.749V120.09C81.3127 119.956 80.413 119.791 79.4398 119.604V114.215ZM79.4398 106.658C80.305 106.882 81.193 107.101 82.1091 107.309V112.639C81.3127 112.473 80.4193 112.282 79.4398 112.046V106.658ZM79.4398 94.2775C80.305 94.5286 81.1984 94.7687 82.1091 94.9933V105.082C81.3127 104.895 80.4193 104.676 79.4398 104.42V94.2775ZM75.6331 175.805C76.5664 175.826 77.4598 175.831 78.3023 175.831V181.962C77.3972 181.983 76.5093 181.989 75.6331 181.989V175.805ZM75.6331 167.152C76.4983 167.19 77.3917 167.205 78.3023 167.211V173.678C77.466 173.689 76.5719 173.684 75.6331 173.657V167.152ZM75.6331 156.925C76.4983 156.995 77.3855 157.048 78.3023 157.085V164.482C77.4598 164.477 76.5664 164.45 75.6331 164.408V156.925ZM75.6331 145.592C76.4921 145.704 77.38 145.805 78.3023 145.901V154.537C77.4598 154.484 76.5719 154.415 75.6331 154.318V145.592ZM75.6331 137.495C76.5038 137.634 77.3917 137.762 78.3023 137.88V143.915C77.4598 143.83 76.5664 143.723 75.6331 143.59V137.495ZM75.6331 129.441C76.4921 129.607 77.3855 129.756 78.3023 129.889V135.07C77.4598 134.936 76.5664 134.792 75.6331 134.621V129.441ZM75.6331 121.014C76.5038 121.206 77.3917 121.388 78.3023 121.558V127.551C77.4598 127.407 76.5664 127.241 75.6331 127.049V121.014ZM75.6331 113.291C76.4983 113.521 77.3855 113.745 78.3023 113.958V119.369C77.4543 119.198 76.5609 119 75.6331 118.787V113.291ZM75.6331 105.594C76.4921 105.856 77.38 106.107 78.3023 106.358V111.774C77.4543 111.566 76.5609 111.33 75.6331 111.069V105.594ZM75.6331 93.1024C76.4983 93.3911 77.3855 93.6743 78.3023 93.9465V104.116C77.4598 103.886 76.5664 103.63 75.6331 103.352V93.1024ZM71.8256 175.671C72.7416 175.719 73.635 175.751 74.4948 175.778V181.984C73.5842 181.973 72.6963 181.952 71.8256 181.925V175.671ZM71.8256 166.907C72.6845 166.981 73.5725 167.051 74.4948 167.099V173.615C73.6358 173.583 72.7416 173.53 71.8256 173.455V166.907ZM71.8256 156.514C72.6845 156.631 73.5725 156.738 74.4948 156.823V164.343C73.6296 164.29 72.7362 164.215 71.8256 164.114V156.514ZM71.8256 144.999C72.6791 145.154 73.567 145.298 74.4948 145.431V154.19C73.6358 154.088 72.7416 153.971 71.8256 153.827V144.999ZM71.8256 136.78C72.6845 136.961 73.5787 137.137 74.4948 137.298V143.424C73.6296 143.29 72.7416 143.135 71.8256 142.959V136.78ZM71.8256 128.635C72.6791 128.838 73.567 129.036 74.4948 129.223V134.414C73.6296 134.248 72.7362 134.062 71.8256 133.864V128.635ZM71.8256 120.073C72.6908 120.309 73.5787 120.538 74.4948 120.752V126.808C73.6296 126.621 72.7362 126.413 71.8256 126.178V120.073ZM71.8256 112.174C72.6845 112.452 73.5725 112.719 74.4948 112.976V118.509C73.6296 118.301 72.7362 118.066 71.8256 117.814V112.174ZM71.8256 104.366C72.6791 104.66 73.567 104.954 74.4948 105.247V110.747C73.6296 110.496 72.7362 110.219 71.8256 109.925V104.366ZM71.8256 91.7248C72.6845 92.0557 73.5725 92.3866 74.4948 92.7128V103.004C73.6296 102.737 72.7362 102.443 71.8256 102.133V91.7248ZM68.018 175.414C68.9232 175.489 69.8111 175.553 70.6873 175.607V181.882C69.7657 181.839 68.8778 181.792 68.018 181.743V175.414ZM68.018 166.458C68.8661 166.581 69.7595 166.693 70.6873 166.795V173.353C69.8166 173.268 68.9232 173.16 68.018 173.032V166.458ZM68.018 155.873C68.8661 156.043 69.7595 156.204 70.6873 156.348V163.981C69.8111 163.874 68.9177 163.741 68.018 163.58V155.873ZM68.018 144.192C68.8606 144.395 69.7477 144.593 70.6873 144.78V153.635C69.8166 153.48 68.9232 153.309 68.018 153.106V144.192ZM68.018 135.882C68.8715 136.106 69.7595 136.325 70.6873 136.528V142.723C69.8111 142.541 68.9177 142.333 68.018 142.098V135.882ZM68.018 127.598C68.8606 127.855 69.7477 128.106 70.6873 128.352V133.602C69.8111 133.399 68.9177 133.18 68.018 132.935V127.598ZM68.018 118.947C68.8715 119.219 69.7595 119.491 70.6873 119.759V125.874C69.8111 125.634 68.9177 125.372 68.018 125.084V118.947ZM68.018 110.855C68.8661 111.171 69.754 111.491 70.6873 111.8V117.493C69.8048 117.237 68.9114 116.965 68.018 116.671V110.855ZM68.018 102.945C68.8606 103.282 69.7477 103.624 70.6873 103.96V109.552C69.8111 109.253 68.9177 108.933 68.018 108.591V102.945ZM68.018 90.1273C68.8661 90.5122 69.754 90.8908 70.6873 91.2702V101.733C69.8048 101.423 68.9177 101.092 68.018 100.734V90.1273ZM64.2105 184.152C65.0758 184.232 65.9692 184.296 66.8798 184.36V188.254H64.2105V184.152ZM64.2105 175.014C65.1039 175.126 65.9973 175.227 66.8798 175.308V181.663C65.941 181.594 65.0531 181.519 64.2105 181.433V175.014ZM64.2105 165.79C65.0413 165.962 65.9348 166.127 66.8798 166.282V172.862C66.0036 172.722 65.1102 172.563 64.2105 172.376V165.79ZM64.2105 154.981C65.0413 155.206 65.9348 155.425 66.8798 155.633V163.361C65.9919 163.191 65.0984 162.982 64.2105 162.747V154.981ZM64.2105 143.135C65.0359 143.397 65.9238 143.653 66.8798 143.904V152.85C66.0036 152.636 65.1102 152.402 64.2105 152.14V143.135ZM64.2105 134.793C65.0468 135.055 65.9402 135.321 66.8798 135.578V141.794C65.9919 141.549 65.0984 141.282 64.2105 140.982V134.793ZM64.2105 126.295C65.0359 126.61 65.9238 126.925 66.8798 127.235V132.623C65.9919 132.372 65.0984 132.105 64.2105 131.811V126.295ZM64.2105 117.616C65.0468 117.931 65.9348 118.251 66.8798 118.567V124.709C65.9919 124.41 65.1039 124.084 64.2105 123.732V117.616ZM64.2105 109.301C65.0413 109.669 65.9293 110.038 66.8798 110.417V116.287C65.9864 115.977 65.093 115.652 64.2105 115.304V109.301ZM64.2105 101.3C65.0359 101.685 65.9238 102.08 66.8798 102.481V108.153C65.9919 107.805 65.0984 107.431 64.2105 107.036V101.3ZM64.2105 88.3115C65.0413 88.7332 65.9293 89.1713 66.8798 89.6149V100.28C65.9919 99.9171 65.0984 99.5322 64.2105 99.1262V88.3115ZM60.4038 183.73C61.2401 183.848 62.1397 183.955 63.073 184.046V188.254H60.4038V183.73ZM60.4038 174.448C61.2917 174.603 62.1796 174.741 63.073 174.865V181.328C62.0944 181.226 61.201 181.12 60.4038 181.018V174.448ZM60.4038 164.888C61.1947 165.102 62.0826 165.326 63.073 165.55V172.13C62.1851 171.927 61.2972 171.697 60.4038 171.441V164.888ZM60.4038 153.811C61.1892 154.083 62.0826 154.377 63.073 154.66V162.425C62.1742 162.163 61.28 161.87 60.4038 161.534V153.811ZM60.4038 141.762C61.1838 142.083 62.0709 142.425 63.073 142.761V151.798C62.1851 151.52 61.2972 151.216 60.4038 150.885V141.762ZM60.4038 133.506C61.1947 133.8 62.0881 134.114 63.073 134.435V140.593C62.1796 140.266 61.2862 139.92 60.4038 139.541V133.506ZM60.4038 124.672C61.1838 125.046 62.0709 125.441 63.073 125.852V131.433C62.1679 131.124 61.28 130.787 60.4038 130.43V124.672ZM60.4038 116.073C61.1947 116.421 62.0881 116.795 63.073 117.179V123.268C62.1796 122.894 61.2862 122.488 60.4038 122.055V116.073ZM60.4038 107.491C61.1892 107.897 62.0826 108.334 63.073 108.789V114.84C62.1679 114.46 61.2745 114.06 60.4038 113.633V107.491ZM60.4038 99.3727C61.1838 99.8053 62.0709 100.27 63.073 100.761V106.518C62.1742 106.101 61.28 105.659 60.4038 105.188V99.3727ZM60.4038 86.2079C61.1892 86.6781 62.0826 87.1795 63.073 87.7138V98.5982C62.1742 98.171 61.28 97.7173 60.4038 97.2416V86.2079ZM56.1128 182.822C56.9608 183.105 58.0365 183.345 59.2655 183.548V188.254H56.1128V182.822ZM56.1128 173.551C57.1486 173.807 58.2016 174.037 59.2655 174.235V180.868C57.262 180.59 56.1128 180.371 56.1128 180.371V173.551ZM56.1128 163.472C56.1128 163.472 57.2167 163.948 59.2655 164.557V171.104C58.2125 170.778 57.1595 170.41 56.1128 170.005V163.472ZM56.1128 152.017C56.1128 152.017 57.2057 152.61 59.2655 153.39V161.075C58.1789 160.621 57.1259 160.104 56.1128 159.516V152.017ZM56.1128 139.588C56.1128 139.588 57.1259 140.304 59.2655 141.271V150.441C58.2071 150.024 57.1541 149.56 56.1128 149.053V139.588ZM56.1128 131.748C56.1128 131.748 57.2393 132.298 59.2655 133.078V139.033C58.1899 138.531 57.1369 137.981 56.1128 137.382V131.748ZM56.1128 122.242C56.1128 122.242 57.1541 123.022 59.2655 124.106V129.96C58.1789 129.489 57.1196 128.982 56.1128 128.437V122.242ZM56.1128 114.017C56.1128 114.017 57.2393 114.647 59.2655 115.571V121.478C58.1899 120.918 57.1369 120.309 56.1128 119.652V114.017ZM56.1128 105.007C56.1128 105.007 57.2057 105.766 59.2655 106.887V113.055C58.1617 112.479 57.1032 111.865 56.1128 111.202V105.007ZM56.1128 96.6698C56.1128 96.6698 57.1431 97.4873 59.2655 98.7257V104.569C58.1844 103.966 57.1314 103.324 56.1128 102.64V96.6698ZM56.1128 83.3767C56.1128 83.3767 57.194 84.2263 59.2655 85.5187V96.6064C58.1789 95.9868 57.1196 95.3351 56.1128 94.6412V83.3767Z"/>
</mask>
<path d="M54.2525 57.1309V59.3957H51.0708V60.5167H54.2525V62.787H51.0708V63.9088H54.2525V66.1791H51.0708V67.301H54.2525V69.5704H51.0708V70.6923H54.2525V72.9618H51.0708V74.0836H54.2525V76.3484H51.0708V77.4749H54.2525V79.7397H51.0708V80.8663H54.2525V83.131H51.0708V84.2584H54.2525V86.5232H51.0708V87.6497H54.2525V89.9145H51.0708V91.0418H54.2525V93.3066H51.0708V94.4331H54.2525V96.6979H51.0708V97.8245H54.2525V100.089H51.0708V101.217H54.2525V103.481H51.0708V104.607H54.2525V106.872H51.0708V107.998H54.2525V110.263H51.0708V111.39H54.2525V113.655H51.0708V114.776H54.2525V117.047H51.0708V118.169H54.2525V120.438H51.0708V121.56H54.2525V123.829H51.0708V124.951H54.2525V127.221H51.0708V128.342H54.2525V130.606H51.0708V131.734H54.2525V133.999H51.0708V135.125H54.2525V137.39H51.0708V138.516H54.2525V140.781H51.0708V141.908H54.2525V144.173H51.0708V145.299H54.2525V147.564H51.0708V148.691H54.2525V150.956H51.0708V152.083H54.2525V154.347H51.0708V155.474H54.2525V157.739H51.0708V158.865H54.2525V161.13H51.0708V162.257H54.2525V164.521H51.0708V165.648H54.2525V167.913H51.0708V169.034H54.2525V171.304H51.0708V172.426H54.2525V174.696H51.0708V175.818H54.2525V178.087H51.0708V179.209H54.2525V181.474H51.0708V182.601H54.2525V184.865H51.0708V185.993H54.2525V188.257H51.0708V191.862H93.2015V94.9807C70.6364 92.7269 56.2325 81.4632 56.2325 81.4632V54.1988H51.0708V57.1309H54.2525ZM83.2473 175.74C84.9833 175.671 86.0019 175.591 86.0019 175.591V181.498C85.0803 181.589 84.1579 181.669 83.2473 181.733V175.74ZM83.2473 167.067C84.1525 167.014 85.0686 166.944 86.0019 166.853V173.161C86.0019 173.161 84.9888 173.316 83.2473 173.46V167.067ZM83.2473 157.107C84.1462 157.085 85.0631 157.042 86.0019 156.978V164.135C86.0019 164.135 84.977 164.263 83.2473 164.365V157.107ZM83.2473 146.259C84.1407 146.301 85.0568 146.329 86.0019 146.35V154.57C86.0019 154.57 84.9888 154.655 83.2473 154.671V146.259ZM83.2473 138.35C84.1525 138.403 85.0686 138.446 86.0019 138.467V144.326C86.0019 144.326 84.977 144.347 83.2473 144.278V138.35ZM83.2473 130.483C84.1462 130.563 85.0631 130.632 86.0019 130.686V135.983C86.0019 135.983 84.9715 135.914 83.2473 135.727V130.483ZM83.2473 122.306C84.1525 122.413 85.0686 122.504 86.0019 122.578V128.437C86.0019 128.437 84.977 128.4 83.2473 128.218V122.306ZM83.2473 114.946C84.1462 115.101 85.0631 115.24 86.0019 115.368V120.666C86.0019 120.666 84.9715 120.548 83.2473 120.276V114.946ZM83.2473 107.565C84.1407 107.768 85.0631 107.96 86.0019 108.142V113.343C86.0019 113.343 84.977 113.199 83.2473 112.868V107.565ZM83.2473 95.271C84.1462 95.4846 85.0631 95.688 86.0019 95.8796V105.904C86.0019 105.904 84.9715 105.723 83.2473 105.338V95.271ZM79.4398 175.826C80.4185 175.815 81.3181 175.799 82.1091 175.778V181.807C81.2102 181.86 80.3168 181.898 79.4398 181.93V175.826ZM79.4398 167.205C80.3105 167.194 81.1984 167.173 82.1091 167.13V173.539C81.3181 173.592 80.4247 173.635 79.4398 173.662V167.205ZM79.4398 157.122C80.305 157.143 81.1984 157.149 82.1091 157.133V164.424C81.3127 164.456 80.413 164.482 79.4398 164.482V157.122ZM79.4398 146.008C80.305 146.083 81.193 146.146 82.1091 146.2V154.671C81.3181 154.666 80.4247 154.645 79.4398 154.602V146.008ZM79.4398 138.013C80.3105 138.114 81.2039 138.2 82.1091 138.269V144.23C81.3127 144.181 80.4193 144.118 79.4398 144.032V138.013ZM79.4398 130.055C80.305 130.172 81.193 130.279 82.1091 130.37V135.594C81.3127 135.498 80.4193 135.38 79.4398 135.241V130.055ZM79.4398 121.755C80.316 121.905 81.2039 122.044 82.1091 122.161V128.094C81.3127 127.998 80.4193 127.881 79.4398 127.731V121.755ZM79.4398 114.215C80.305 114.402 81.1984 114.578 82.1091 114.749V120.09C81.3127 119.956 80.413 119.791 79.4398 119.604V114.215ZM79.4398 106.658C80.305 106.882 81.193 107.101 82.1091 107.309V112.639C81.3127 112.473 80.4193 112.282 79.4398 112.046V106.658ZM79.4398 94.2775C80.305 94.5286 81.1984 94.7687 82.1091 94.9933V105.082C81.3127 104.895 80.4193 104.676 79.4398 104.42V94.2775ZM75.6331 175.805C76.5664 175.826 77.4598 175.831 78.3023 175.831V181.962C77.3972 181.983 76.5093 181.989 75.6331 181.989V175.805ZM75.6331 167.152C76.4983 167.19 77.3917 167.205 78.3023 167.211V173.678C77.466 173.689 76.5719 173.684 75.6331 173.657V167.152ZM75.6331 156.925C76.4983 156.995 77.3855 157.048 78.3023 157.085V164.482C77.4598 164.477 76.5664 164.45 75.6331 164.408V156.925ZM75.6331 145.592C76.4921 145.704 77.38 145.805 78.3023 145.901V154.537C77.4598 154.484 76.5719 154.415 75.6331 154.318V145.592ZM75.6331 137.495C76.5038 137.634 77.3917 137.762 78.3023 137.88V143.915C77.4598 143.83 76.5664 143.723 75.6331 143.59V137.495ZM75.6331 129.441C76.4921 129.607 77.3855 129.756 78.3023 129.889V135.07C77.4598 134.936 76.5664 134.792 75.6331 134.621V129.441ZM75.6331 121.014C76.5038 121.206 77.3917 121.388 78.3023 121.558V127.551C77.4598 127.407 76.5664 127.241 75.6331 127.049V121.014ZM75.6331 113.291C76.4983 113.521 77.3855 113.745 78.3023 113.958V119.369C77.4543 119.198 76.5609 119 75.6331 118.787V113.291ZM75.6331 105.594C76.4921 105.856 77.38 106.107 78.3023 106.358V111.774C77.4543 111.566 76.5609 111.33 75.6331 111.069V105.594ZM75.6331 93.1024C76.4983 93.3911 77.3855 93.6743 78.3023 93.9465V104.116C77.4598 103.886 76.5664 103.63 75.6331 103.352V93.1024ZM71.8256 175.671C72.7416 175.719 73.635 175.751 74.4948 175.778V181.984C73.5842 181.973 72.6963 181.952 71.8256 181.925V175.671ZM71.8256 166.907C72.6845 166.981 73.5725 167.051 74.4948 167.099V173.615C73.6358 173.583 72.7416 173.53 71.8256 173.455V166.907ZM71.8256 156.514C72.6845 156.631 73.5725 156.738 74.4948 156.823V164.343C73.6296 164.29 72.7362 164.215 71.8256 164.114V156.514ZM71.8256 144.999C72.6791 145.154 73.567 145.298 74.4948 145.431V154.19C73.6358 154.088 72.7416 153.971 71.8256 153.827V144.999ZM71.8256 136.78C72.6845 136.961 73.5787 137.137 74.4948 137.298V143.424C73.6296 143.29 72.7416 143.135 71.8256 142.959V136.78ZM71.8256 128.635C72.6791 128.838 73.567 129.036 74.4948 129.223V134.414C73.6296 134.248 72.7362 134.062 71.8256 133.864V128.635ZM71.8256 120.073C72.6908 120.309 73.5787 120.538 74.4948 120.752V126.808C73.6296 126.621 72.7362 126.413 71.8256 126.178V120.073ZM71.8256 112.174C72.6845 112.452 73.5725 112.719 74.4948 112.976V118.509C73.6296 118.301 72.7362 118.066 71.8256 117.814V112.174ZM71.8256 104.366C72.6791 104.66 73.567 104.954 74.4948 105.247V110.747C73.6296 110.496 72.7362 110.219 71.8256 109.925V104.366ZM71.8256 91.7248C72.6845 92.0557 73.5725 92.3866 74.4948 92.7128V103.004C73.6296 102.737 72.7362 102.443 71.8256 102.133V91.7248ZM68.018 175.414C68.9232 175.489 69.8111 175.553 70.6873 175.607V181.882C69.7657 181.839 68.8778 181.792 68.018 181.743V175.414ZM68.018 166.458C68.8661 166.581 69.7595 166.693 70.6873 166.795V173.353C69.8166 173.268 68.9232 173.16 68.018 173.032V166.458ZM68.018 155.873C68.8661 156.043 69.7595 156.204 70.6873 156.348V163.981C69.8111 163.874 68.9177 163.741 68.018 163.58V155.873ZM68.018 144.192C68.8606 144.395 69.7477 144.593 70.6873 144.78V153.635C69.8166 153.48 68.9232 153.309 68.018 153.106V144.192ZM68.018 135.882C68.8715 136.106 69.7595 136.325 70.6873 136.528V142.723C69.8111 142.541 68.9177 142.333 68.018 142.098V135.882ZM68.018 127.598C68.8606 127.855 69.7477 128.106 70.6873 128.352V133.602C69.8111 133.399 68.9177 133.18 68.018 132.935V127.598ZM68.018 118.947C68.8715 119.219 69.7595 119.491 70.6873 119.759V125.874C69.8111 125.634 68.9177 125.372 68.018 125.084V118.947ZM68.018 110.855C68.8661 111.171 69.754 111.491 70.6873 111.8V117.493C69.8048 117.237 68.9114 116.965 68.018 116.671V110.855ZM68.018 102.945C68.8606 103.282 69.7477 103.624 70.6873 103.96V109.552C69.8111 109.253 68.9177 108.933 68.018 108.591V102.945ZM68.018 90.1273C68.8661 90.5122 69.754 90.8908 70.6873 91.2702V101.733C69.8048 101.423 68.9177 101.092 68.018 100.734V90.1273ZM64.2105 184.152C65.0758 184.232 65.9692 184.296 66.8798 184.36V188.254H64.2105V184.152ZM64.2105 175.014C65.1039 175.126 65.9973 175.227 66.8798 175.308V181.663C65.941 181.594 65.0531 181.519 64.2105 181.433V175.014ZM64.2105 165.79C65.0413 165.962 65.9348 166.127 66.8798 166.282V172.862C66.0036 172.722 65.1102 172.563 64.2105 172.376V165.79ZM64.2105 154.981C65.0413 155.206 65.9348 155.425 66.8798 155.633V163.361C65.9919 163.191 65.0984 162.982 64.2105 162.747V154.981ZM64.2105 143.135C65.0359 143.397 65.9238 143.653 66.8798 143.904V152.85C66.0036 152.636 65.1102 152.402 64.2105 152.14V143.135ZM64.2105 134.793C65.0468 135.055 65.9402 135.321 66.8798 135.578V141.794C65.9919 141.549 65.0984 141.282 64.2105 140.982V134.793ZM64.2105 126.295C65.0359 126.61 65.9238 126.925 66.8798 127.235V132.623C65.9919 132.372 65.0984 132.105 64.2105 131.811V126.295ZM64.2105 117.616C65.0468 117.931 65.9348 118.251 66.8798 118.567V124.709C65.9919 124.41 65.1039 124.084 64.2105 123.732V117.616ZM64.2105 109.301C65.0413 109.669 65.9293 110.038 66.8798 110.417V116.287C65.9864 115.977 65.093 115.652 64.2105 115.304V109.301ZM64.2105 101.3C65.0359 101.685 65.9238 102.08 66.8798 102.481V108.153C65.9919 107.805 65.0984 107.431 64.2105 107.036V101.3ZM64.2105 88.3115C65.0413 88.7332 65.9293 89.1713 66.8798 89.6149V100.28C65.9919 99.9171 65.0984 99.5322 64.2105 99.1262V88.3115ZM60.4038 183.73C61.2401 183.848 62.1397 183.955 63.073 184.046V188.254H60.4038V183.73ZM60.4038 174.448C61.2917 174.603 62.1796 174.741 63.073 174.865V181.328C62.0944 181.226 61.201 181.12 60.4038 181.018V174.448ZM60.4038 164.888C61.1947 165.102 62.0826 165.326 63.073 165.55V172.13C62.1851 171.927 61.2972 171.697 60.4038 171.441V164.888ZM60.4038 153.811C61.1892 154.083 62.0826 154.377 63.073 154.66V162.425C62.1742 162.163 61.28 161.87 60.4038 161.534V153.811ZM60.4038 141.762C61.1838 142.083 62.0709 142.425 63.073 142.761V151.798C62.1851 151.52 61.2972 151.216 60.4038 150.885V141.762ZM60.4038 133.506C61.1947 133.8 62.0881 134.114 63.073 134.435V140.593C62.1796 140.266 61.2862 139.92 60.4038 139.541V133.506ZM60.4038 124.672C61.1838 125.046 62.0709 125.441 63.073 125.852V131.433C62.1679 131.124 61.28 130.787 60.4038 130.43V124.672ZM60.4038 116.073C61.1947 116.421 62.0881 116.795 63.073 117.179V123.268C62.1796 122.894 61.2862 122.488 60.4038 122.055V116.073ZM60.4038 107.491C61.1892 107.897 62.0826 108.334 63.073 108.789V114.84C62.1679 114.46 61.2745 114.06 60.4038 113.633V107.491ZM60.4038 99.3727C61.1838 99.8053 62.0709 100.27 63.073 100.761V106.518C62.1742 106.101 61.28 105.659 60.4038 105.188V99.3727ZM60.4038 86.2079C61.1892 86.6781 62.0826 87.1795 63.073 87.7138V98.5982C62.1742 98.171 61.28 97.7173 60.4038 97.2416V86.2079ZM56.1128 182.822C56.9608 183.105 58.0365 183.345 59.2655 183.548V188.254H56.1128V182.822ZM56.1128 173.551C57.1486 173.807 58.2016 174.037 59.2655 174.235V180.868C57.262 180.59 56.1128 180.371 56.1128 180.371V173.551ZM56.1128 163.472C56.1128 163.472 57.2167 163.948 59.2655 164.557V171.104C58.2125 170.778 57.1595 170.41 56.1128 170.005V163.472ZM56.1128 152.017C56.1128 152.017 57.2057 152.61 59.2655 153.39V161.075C58.1789 160.621 57.1259 160.104 56.1128 159.516V152.017ZM56.1128 139.588C56.1128 139.588 57.1259 140.304 59.2655 141.271V150.441C58.2071 150.024 57.1541 149.56 56.1128 149.053V139.588ZM56.1128 131.748C56.1128 131.748 57.2393 132.298 59.2655 133.078V139.033C58.1899 138.531 57.1369 137.981 56.1128 137.382V131.748ZM56.1128 122.242C56.1128 122.242 57.1541 123.022 59.2655 124.106V129.96C58.1789 129.489 57.1196 128.982 56.1128 128.437V122.242ZM56.1128 114.017C56.1128 114.017 57.2393 114.647 59.2655 115.571V121.478C58.1899 120.918 57.1369 120.309 56.1128 119.652V114.017ZM56.1128 105.007C56.1128 105.007 57.2057 105.766 59.2655 106.887V113.055C58.1617 112.479 57.1032 111.865 56.1128 111.202V105.007ZM56.1128 96.6698C56.1128 96.6698 57.1431 97.4873 59.2655 98.7257V104.569C58.1844 103.966 57.1314 103.324 56.1128 102.64V96.6698ZM56.1128 83.3767C56.1128 83.3767 57.194 84.2263 59.2655 85.5187V96.6064C58.1789 95.9868 57.1196 95.3351 56.1128 94.6412V83.3767Z" fill="white" stroke="#7A7A7A" stroke-width="1.56463" mask="url(#path-5-inside-2_1122_7694)"/>
<path d="M109.164 172.703L109.142 173.094L109.164 173.095L109.186 173.094L109.164 172.703ZM109.164 172.703C109.186 173.094 109.186 173.094 109.186 173.094L109.187 173.094L109.19 173.093L109.204 173.093L109.259 173.09C109.309 173.087 109.383 173.084 109.482 173.08C109.678 173.072 109.97 173.062 110.348 173.053C111.105 173.036 112.21 173.024 113.597 173.047C116.372 173.094 120.274 173.28 124.782 173.839C133.625 174.936 144.769 177.463 154.302 183.158L139.042 191.469H79.2781L64.0178 183.158C73.5512 177.462 84.6966 174.935 93.5416 173.839C98.0506 173.28 101.954 173.094 104.729 173.047C106.117 173.024 107.222 173.036 107.979 173.053C108.358 173.062 108.649 173.072 108.846 173.08C108.944 173.084 109.019 173.087 109.068 173.09L109.124 173.093L109.138 173.093L109.141 173.094L109.142 173.094C109.142 173.094 109.142 173.094 109.164 172.703ZM71.7785 187.039L71.866 187.087H71.9656H146.354H146.454L146.541 187.039L151.622 184.272L151.434 183.537H66.8844L66.6974 184.272L71.7785 187.039Z" fill="white" stroke="#7A7A7A" stroke-width="0.782313"/>
</svg>
