<svg width="150" height="202" viewBox="0 0 150 202" fill="none" xmlns="http://www.w3.org/2000/svg">
<path d="M99.8027 9.39673H50.5054V34.0579H99.8027V9.39673Z" fill="white" stroke="#7A7A7A" stroke-width="1.25337" stroke-miterlimit="10"/>
<path d="M125.534 15.1664H24.7793V41.4019H125.534V15.1664Z" fill="white" stroke="#7A7A7A" stroke-width="1.25337" stroke-miterlimit="10"/>
<path d="M131.826 37.0979H18.4941V51.8964H131.826V37.0979Z" fill="white" stroke="#7A7A7A" stroke-width="1.25337" stroke-miterlimit="10"/>
<path d="M10.9961 65.4318V202H55.5783V112.152C55.5783 102.228 64.3443 94.1827 75.1584 94.1827C85.9724 94.1827 94.7384 102.228 94.7384 112.152V202H139.321V65.4318H10.9961Z" fill="white" stroke="#7A7A7A" stroke-width="1.25337" stroke-miterlimit="10"/>
<path d="M139.321 47.067H10.9961V61.8654H139.321V47.067Z" fill="white" stroke="#7A7A7A" stroke-width="1.25337" stroke-miterlimit="10"/>
<path d="M141.606 66.588H7.56361L1.59131 60.1845H147.577L141.606 66.588Z" fill="white" stroke="#7A7A7A" stroke-width="1.25337" stroke-miterlimit="10"/>
<path d="M12.8013 74.2778H136.908" stroke="#7A7A7A" stroke-width="1.25337" stroke-miterlimit="10"/>
<path d="M42.9219 202V78.7014" stroke="#7A7A7A" stroke-width="1.25337" stroke-miterlimit="10"/>
<path d="M106.785 85.1036V78.7014" stroke="#7A7A7A" stroke-width="1.25337" stroke-miterlimit="10"/>
<path d="M106.785 202V89.9825" stroke="#7A7A7A" stroke-width="1.25337" stroke-miterlimit="10"/>
<path d="M56.779 119.064H42.7852V122.382H56.779V119.064Z" fill="white" stroke="#7A7A7A" stroke-width="1.25337" stroke-miterlimit="10"/>
<path d="M106.965 119.064H92.9707V122.382H106.965V119.064Z" fill="white" stroke="#7A7A7A" stroke-width="1.25337" stroke-miterlimit="10"/>
<path d="M108.953 27.2355C108.953 30.1333 106.393 32.4821 103.235 32.4821C100.078 32.4821 97.5171 30.1333 97.5171 27.2355C97.5171 24.3377 100.076 21.9889 103.235 21.9889C106.392 21.9889 108.953 24.3377 108.953 27.2355Z" fill="white" stroke="#7A7A7A" stroke-width="1.25337" stroke-miterlimit="10"/>
<path d="M128.008 89.8512C128.008 92.749 125.449 95.0978 122.29 95.0978C119.132 95.0978 116.572 92.749 116.572 89.8512C116.572 86.9534 119.132 84.6046 122.29 84.6046C125.449 84.6046 128.008 86.9534 128.008 89.8512Z" fill="white" stroke="#7A7A7A" stroke-width="1.25337" stroke-miterlimit="10"/>
<path d="M33.0998 89.8512C33.0998 92.749 30.5404 95.0978 27.3819 95.0978C24.2247 95.0978 21.6641 92.749 21.6641 89.8512C21.6641 86.9534 24.2234 84.6046 27.3819 84.6046C30.5404 84.6034 33.0998 86.9534 33.0998 89.8512Z" fill="white" stroke="#7A7A7A" stroke-width="1.25337" stroke-miterlimit="10"/>
<path d="M53.4919 27.2355C53.4919 30.1333 50.9325 32.4821 47.774 32.4821C44.6155 32.4821 42.0562 30.1333 42.0562 27.2355C42.0562 24.3377 44.6155 21.9889 47.774 21.9889C50.9325 21.9889 53.4919 24.3377 53.4919 27.2355Z" fill="white" stroke="#7A7A7A" stroke-width="1.25337" stroke-miterlimit="10"/>
<path d="M97.5166 21.4635H53.4922V31.9579H97.5166V21.4635Z" fill="white" stroke="#7A7A7A" stroke-width="1.25337" stroke-miterlimit="10"/>
<path d="M84.8748 4.67361C84.8748 6.70156 80.5231 8.346 75.1549 8.346C69.7867 8.346 65.4351 6.70156 65.4351 4.67361C65.4351 2.64567 69.7867 1 75.1549 1C80.5231 1 84.8748 2.64442 84.8748 4.67361Z" fill="white" stroke="#7A7A7A" stroke-width="1.25337" stroke-miterlimit="10"/>
<path d="M58.0894 9.39563L64.9503 4.67294H85.0467L94.1951 9.39563H58.0894Z" fill="white" stroke="#7A7A7A" stroke-width="1.25337" stroke-miterlimit="10"/>
<path d="M44.3483 147.393H8.3291V151.065H44.3483V147.393Z" fill="white" stroke="#7A7A7A" stroke-width="1.25337" stroke-miterlimit="10"/>
<path d="M44.3483 118.535H8.3291V122.207H44.3483V118.535Z" fill="white" stroke="#7A7A7A" stroke-width="1.25337" stroke-miterlimit="10"/>
<path d="M141.541 147.393H105.522V151.065H141.541V147.393Z" fill="white" stroke="#7A7A7A" stroke-width="1.25337" stroke-miterlimit="10"/>
<path d="M141.541 118.535H105.522V122.207H141.541V118.535Z" fill="white" stroke="#7A7A7A" stroke-width="1.25337" stroke-miterlimit="10"/>
<path d="M16.8994 145.819V122.732" stroke="#7A7A7A" stroke-width="1.25337" stroke-miterlimit="10"/>
<path d="M16.8994 117.485V100.17" stroke="#7A7A7A" stroke-width="1.25337" stroke-miterlimit="10"/>
<path d="M16.8994 194.618V152.117" stroke="#7A7A7A" stroke-width="1.25337" stroke-miterlimit="10"/>
<path d="M133.537 145.819V122.732" stroke="#7A7A7A" stroke-width="1.25337" stroke-miterlimit="10"/>
<path d="M133.537 117.485V100.17" stroke="#7A7A7A" stroke-width="1.25337" stroke-miterlimit="10"/>
<path d="M133.537 194.618V152.117" stroke="#7A7A7A" stroke-width="1.25337" stroke-miterlimit="10"/>
<path d="M111.807 145.819V122.732" stroke="#7A7A7A" stroke-width="1.25337" stroke-miterlimit="10"/>
<path d="M111.807 117.485V100.17" stroke="#7A7A7A" stroke-width="1.25337" stroke-miterlimit="10"/>
<path d="M111.807 182.686V152.117" stroke="#7A7A7A" stroke-width="1.25337" stroke-miterlimit="10"/>
<path d="M111.807 194.617V187.564" stroke="#7A7A7A" stroke-width="1.25337" stroke-miterlimit="10"/>
<path d="M38.6289 145.819V122.732" stroke="#7A7A7A" stroke-width="1.25337" stroke-miterlimit="10"/>
<path d="M38.6289 117.485V100.17" stroke="#7A7A7A" stroke-width="1.25337" stroke-miterlimit="10"/>
<path d="M38.6289 194.618V152.117" stroke="#7A7A7A" stroke-width="1.25337" stroke-miterlimit="10"/>
<path d="M38.6252 100.17H16.8994V102.268H38.6252V100.17Z" fill="white" stroke="#7A7A7A" stroke-width="1.25337" stroke-miterlimit="10"/>
<path d="M133.56 100.17H111.834V102.268H133.56V100.17Z" fill="white" stroke="#7A7A7A" stroke-width="1.25337" stroke-miterlimit="10"/>
</svg>
