<svg width="40" height="40" viewBox="0 0 40 40" fill="none" xmlns="http://www.w3.org/2000/svg">
<path d="M35.0002 29.1666C35.0002 32.3883 32.3885 35 29.1668 35C25.9452 35 23.3335 32.3883 23.3335 29.1666C23.3335 25.945 25.9452 23.3333 29.1668 23.3333C32.3885 23.3333 35.0002 25.945 35.0002 29.1666Z" stroke="#FF0E04" stroke-opacity="0.5" stroke-width="2.5"/>
<path d="M29.1667 23.3333H10.8333C7.61167 23.3333 5 25.945 5 29.1666C5 32.3883 7.61167 35 10.8333 35H29.1667C32.3883 35 35 32.3883 35 29.1666C35 25.945 32.3883 23.3333 29.1667 23.3333Z" stroke="#FF0E04" stroke-width="2.5"/>
<path d="M5 10.8333C5 14.055 7.61167 16.6667 10.8333 16.6667C14.055 16.6667 16.6667 14.055 16.6667 10.8333C16.6667 7.61167 14.055 5 10.8333 5C7.61167 5 5 7.61167 5 10.8333Z" stroke="#FF0E04" stroke-opacity="0.5" stroke-width="2.5"/>
<path d="M10.8333 5H29.1667C32.3883 5 35 7.61167 35 10.8333C35 14.055 32.3883 16.6667 29.1667 16.6667H10.8333C7.61167 16.6667 5 14.055 5 10.8333C5 7.61167 7.61167 5 10.8333 5Z" stroke="#FF0E04" stroke-width="2.5"/>
</svg>
