<svg width="40" height="40" viewBox="0 0 40 40" fill="none" xmlns="http://www.w3.org/2000/svg">
<path d="M25.2146 22.9113C24.9336 23.182 24.5579 23.3333 24.1669 23.3333C23.7759 23.3333 23.4003 23.182 23.1193 22.9113C20.5454 20.4173 17.0961 17.6313 18.7783 13.5864C19.6878 11.3994 21.8709 10 24.1669 10C26.4629 10 28.6461 11.3994 29.5556 13.5864C31.2356 17.6262 27.7948 20.4258 25.2146 22.9113Z" stroke="#FF0E04" stroke-opacity="0.5" stroke-width="2.5"/>
<path d="M24.1665 15.8333H24.1823" stroke="#FF0E04" stroke-width="3.33333" stroke-linecap="round" stroke-linejoin="round"/>
<path d="M4.1665 20C4.1665 12.5361 4.1665 8.80417 6.48524 6.48542C8.80399 4.16669 12.5359 4.16669 19.9998 4.16669C27.4637 4.16669 31.1957 4.16669 33.5145 6.48542C35.8332 8.80417 35.8332 12.5361 35.8332 20C35.8332 27.4639 35.8332 31.1959 33.5145 33.5147C31.1957 35.8334 27.4637 35.8334 19.9998 35.8334C12.5359 35.8334 8.80399 35.8334 6.48524 33.5147C4.1665 31.1959 4.1665 27.4639 4.1665 20Z" stroke="#FF0E04" stroke-width="2.5"/>
<path d="M28.3333 35L5 11.6667" stroke="#FF0E04" stroke-width="2.5" stroke-linecap="round" stroke-linejoin="round"/>
<path d="M16.6665 23.3333L6.6665 33.3333" stroke="#FF0E04" stroke-width="2.5" stroke-linecap="round" stroke-linejoin="round"/>
</svg>
