<svg width="40" height="40" viewBox="0 0 40 40" fill="none" xmlns="http://www.w3.org/2000/svg">
<path d="M3.3335 7.5H14.5958C15.9218 7.5 17.1937 8.02678 18.1313 8.96447L23.3335 14.1667" stroke="#FF0E04" stroke-width="2.5" stroke-linecap="round" stroke-linejoin="round"/>
<path d="M8.3335 22.5H3.3335" stroke="#FF0E04" stroke-width="2.5" stroke-linecap="round" stroke-linejoin="round"/>
<path d="M14.1668 12.5L17.5002 15.8333C18.4207 16.7538 18.4207 18.2462 17.5002 19.1667C16.5797 20.0872 15.0873 20.0872 14.1668 19.1667L11.6668 16.6667C10.2323 18.1012 7.96135 18.2625 6.3384 17.0453L5.8335 16.6667" stroke="#FF0E04" stroke-width="2.5" stroke-linecap="round" stroke-linejoin="round"/>
<path d="M8.3335 18.3334V25.8334C8.3335 28.976 8.3335 30.5474 9.30981 31.5237C10.2861 32.5 11.8575 32.5 15.0002 32.5H30.0002C33.1428 32.5 34.7142 32.5 35.6905 31.5237C36.6668 30.5474 36.6668 28.976 36.6668 25.8334V20.8334C36.6668 17.6907 36.6668 16.1193 35.6905 15.143C34.7142 14.1667 33.1428 14.1667 30.0002 14.1667H15.8335" stroke="#FF0E04" stroke-opacity="0.5" stroke-width="2.5" stroke-linecap="round" stroke-linejoin="round"/>
<path d="M25.4168 23.3334C25.4168 24.9442 24.111 26.25 22.5002 26.25C20.8893 26.25 19.5835 24.9442 19.5835 23.3334C19.5835 21.7225 20.8893 20.4167 22.5002 20.4167C24.111 20.4167 25.4168 21.7225 25.4168 23.3334Z" stroke="#FF0E04" stroke-width="2.5" stroke-linecap="round" stroke-linejoin="round"/>
</svg>
