<svg width="161" height="161" viewBox="0 0 161 161" fill="none" xmlns="http://www.w3.org/2000/svg">
<g filter="url(#filter0_d_1122_7628)">
<rect x="27" y="27" width="107" height="107" rx="5.70667" fill="white"/>
<rect x="27.3567" y="27.3567" width="106.287" height="106.287" rx="5.35" stroke="#FF5E04" stroke-width="0.713333"/>
<path d="M34.3784 34.3792H38.0681V38.0689H34.3784V34.3792Z" fill="black"/>
<path d="M38.0681 34.3792H41.7577V38.0689H38.0681V34.3792Z" fill="black"/>
<path d="M41.7577 34.3792H45.4474V38.0689H41.7577V34.3792Z" fill="black"/>
<path d="M45.4474 34.3792H49.137V38.0689H45.4474V34.3792Z" fill="black"/>
<path d="M49.137 34.3792H52.8267V38.0689H49.137V34.3792Z" fill="black"/>
<path d="M52.8267 34.3792H56.5163V38.0689H52.8267V34.3792Z" fill="black"/>
<path d="M56.5163 34.3792H60.206V38.0689H56.5163V34.3792Z" fill="black"/>
<path d="M78.6543 34.3792H82.3439V38.0689H78.6543V34.3792Z" fill="black"/>
<path d="M89.7232 34.3792H93.4129V38.0689H89.7232V34.3792Z" fill="black"/>
<path d="M93.4129 34.3792H97.1026V38.0689H93.4129V34.3792Z" fill="black"/>
<path d="M100.792 34.3792H104.482V38.0689H100.792V34.3792Z" fill="black"/>
<path d="M104.482 34.3792H108.172V38.0689H104.482V34.3792Z" fill="black"/>
<path d="M108.172 34.3792H111.861V38.0689H108.172V34.3792Z" fill="black"/>
<path d="M111.861 34.3792H115.551V38.0689H111.861V34.3792Z" fill="black"/>
<path d="M115.551 34.3792H119.24V38.0689H115.551V34.3792Z" fill="black"/>
<path d="M119.24 34.3792H122.93V38.0689H119.24V34.3792Z" fill="black"/>
<path d="M122.93 34.3792H126.62V38.0689H122.93V34.3792Z" fill="black"/>
<path d="M34.3784 38.0689H38.0681V41.7586H34.3784V38.0689Z" fill="black"/>
<path d="M56.5163 38.0689H60.206V41.7586H56.5163V38.0689Z" fill="black"/>
<path d="M71.275 38.0689H74.9646V41.7586H71.275V38.0689Z" fill="black"/>
<path d="M78.6543 38.0689H82.3439V41.7586H78.6543V38.0689Z" fill="black"/>
<path d="M82.3439 38.0689H86.0336V41.7586H82.3439V38.0689Z" fill="black"/>
<path d="M86.0336 38.0689H89.7232V41.7586H86.0336V38.0689Z" fill="black"/>
<path d="M93.4129 38.0689H97.1026V41.7586H93.4129V38.0689Z" fill="black"/>
<path d="M100.792 38.0689H104.482V41.7586H100.792V38.0689Z" fill="black"/>
<path d="M122.93 38.0689H126.62V41.7586H122.93V38.0689Z" fill="black"/>
<path d="M34.3784 41.7586H38.0681V45.4482H34.3784V41.7586Z" fill="black"/>
<path d="M41.7577 41.7586H45.4474V45.4482H41.7577V41.7586Z" fill="black"/>
<path d="M45.4474 41.7586H49.137V45.4482H45.4474V41.7586Z" fill="black"/>
<path d="M49.137 41.7586H52.8267V45.4482H49.137V41.7586Z" fill="black"/>
<path d="M56.5163 41.7586H60.206V45.4482H56.5163V41.7586Z" fill="black"/>
<path d="M63.8957 41.7586H67.5853V45.4482H63.8957V41.7586Z" fill="black"/>
<path d="M67.5853 41.7586H71.275V45.4482H67.5853V41.7586Z" fill="black"/>
<path d="M74.9646 41.7586H78.6543V45.4482H74.9646V41.7586Z" fill="black"/>
<path d="M82.3439 41.7586H86.0336V45.4482H82.3439V41.7586Z" fill="black"/>
<path d="M89.7232 41.7586H93.4129V45.4482H89.7232V41.7586Z" fill="black"/>
<path d="M93.4129 41.7586H97.1026V45.4482H93.4129V41.7586Z" fill="black"/>
<path d="M100.792 41.7586H104.482V45.4482H100.792V41.7586Z" fill="black"/>
<path d="M108.172 41.7586H111.861V45.4482H108.172V41.7586Z" fill="black"/>
<path d="M111.861 41.7586H115.551V45.4482H111.861V41.7586Z" fill="black"/>
<path d="M115.551 41.7586H119.24V45.4482H115.551V41.7586Z" fill="black"/>
<path d="M122.93 41.7586H126.62V45.4482H122.93V41.7586Z" fill="black"/>
<path d="M34.3784 45.4482H38.0681V49.1379H34.3784V45.4482Z" fill="black"/>
<path d="M41.7577 45.4482H45.4474V49.1379H41.7577V45.4482Z" fill="black"/>
<path d="M45.4474 45.4482H49.137V49.1379H45.4474V45.4482Z" fill="black"/>
<path d="M49.137 45.4482H52.8267V49.1379H49.137V45.4482Z" fill="black"/>
<path d="M56.5163 45.4482H60.206V49.1379H56.5163V45.4482Z" fill="black"/>
<path d="M63.8957 45.4482H67.5853V49.1379H63.8957V45.4482Z" fill="black"/>
<path d="M82.3439 45.4482H86.0336V49.1379H82.3439V45.4482Z" fill="black"/>
<path d="M86.0336 45.4482H89.7232V49.1379H86.0336V45.4482Z" fill="black"/>
<path d="M100.792 45.4482H104.482V49.1379H100.792V45.4482Z" fill="black"/>
<path d="M108.172 45.4482H111.861V49.1379H108.172V45.4482Z" fill="black"/>
<path d="M111.861 45.4482H115.551V49.1379H111.861V45.4482Z" fill="black"/>
<path d="M115.551 45.4482H119.24V49.1379H115.551V45.4482Z" fill="black"/>
<path d="M122.93 45.4482H126.62V49.1379H122.93V45.4482Z" fill="black"/>
<path d="M34.3784 49.1379H38.0681V52.8275H34.3784V49.1379Z" fill="black"/>
<path d="M41.7577 49.1379H45.4474V52.8275H41.7577V49.1379Z" fill="black"/>
<path d="M45.4474 49.1379H49.137V52.8275H45.4474V49.1379Z" fill="black"/>
<path d="M49.137 49.1379H52.8267V52.8275H49.137V49.1379Z" fill="black"/>
<path d="M56.5163 49.1379H60.206V52.8275H56.5163V49.1379Z" fill="black"/>
<path d="M74.9646 49.1379H78.6543V52.8275H74.9646V49.1379Z" fill="black"/>
<path d="M78.6543 49.1379H82.3439V52.8275H78.6543V49.1379Z" fill="black"/>
<path d="M82.3439 49.1379H86.0336V52.8275H82.3439V49.1379Z" fill="black"/>
<path d="M86.0336 49.1379H89.7232V52.8275H86.0336V49.1379Z" fill="black"/>
<path d="M100.792 49.1379H104.482V52.8275H100.792V49.1379Z" fill="black"/>
<path d="M108.172 49.1379H111.861V52.8275H108.172V49.1379Z" fill="black"/>
<path d="M111.861 49.1379H115.551V52.8275H111.861V49.1379Z" fill="black"/>
<path d="M115.551 49.1379H119.24V52.8275H115.551V49.1379Z" fill="black"/>
<path d="M122.93 49.1379H126.62V52.8275H122.93V49.1379Z" fill="black"/>
<path d="M34.3784 52.8275H38.0681V56.5172H34.3784V52.8275Z" fill="black"/>
<path d="M56.5163 52.8275H60.206V56.5172H56.5163V52.8275Z" fill="black"/>
<path d="M67.5853 52.8275H71.275V56.5172H67.5853V52.8275Z" fill="black"/>
<path d="M78.6543 52.8275H82.3439V56.5172H78.6543V52.8275Z" fill="black"/>
<path d="M93.4129 52.8275H97.1026V56.5172H93.4129V52.8275Z" fill="black"/>
<path d="M100.792 52.8275H104.482V56.5172H100.792V52.8275Z" fill="black"/>
<path d="M122.93 52.8275H126.62V56.5172H122.93V52.8275Z" fill="black"/>
<path d="M34.3784 56.5172H38.0681V60.2068H34.3784V56.5172Z" fill="black"/>
<path d="M38.0681 56.5172H41.7577V60.2068H38.0681V56.5172Z" fill="black"/>
<path d="M41.7577 56.5172H45.4474V60.2068H41.7577V56.5172Z" fill="black"/>
<path d="M45.4474 56.5172H49.137V60.2068H45.4474V56.5172Z" fill="black"/>
<path d="M49.137 56.5172H52.8267V60.2068H49.137V56.5172Z" fill="black"/>
<path d="M52.8267 56.5172H56.5163V60.2068H52.8267V56.5172Z" fill="black"/>
<path d="M56.5163 56.5172H60.206V60.2068H56.5163V56.5172Z" fill="black"/>
<path d="M63.8957 56.5172H67.5853V60.2068H63.8957V56.5172Z" fill="black"/>
<path d="M71.275 56.5172H74.9646V60.2068H71.275V56.5172Z" fill="black"/>
<path d="M78.6543 56.5172H82.3439V60.2068H78.6543V56.5172Z" fill="black"/>
<path d="M86.0336 56.5172H89.7232V60.2068H86.0336V56.5172Z" fill="black"/>
<path d="M93.4129 56.5172H97.1026V60.2068H93.4129V56.5172Z" fill="black"/>
<path d="M100.792 56.5172H104.482V60.2068H100.792V56.5172Z" fill="black"/>
<path d="M104.482 56.5172H108.172V60.2068H104.482V56.5172Z" fill="black"/>
<path d="M108.172 56.5172H111.861V60.2068H108.172V56.5172Z" fill="black"/>
<path d="M111.861 56.5172H115.551V60.2068H111.861V56.5172Z" fill="black"/>
<path d="M115.551 56.5172H119.24V60.2068H115.551V56.5172Z" fill="black"/>
<path d="M119.24 56.5172H122.93V60.2068H119.24V56.5172Z" fill="black"/>
<path d="M122.93 56.5172H126.62V60.2068H122.93V56.5172Z" fill="black"/>
<path d="M67.5853 60.2068H71.275V63.8965H67.5853V60.2068Z" fill="black"/>
<path d="M71.275 60.2068H74.9646V63.8965H71.275V60.2068Z" fill="black"/>
<path d="M74.9646 60.2068H78.6543V63.8965H74.9646V60.2068Z" fill="black"/>
<path d="M86.0336 60.2068H89.7232V63.8965H86.0336V60.2068Z" fill="black"/>
<path d="M45.4474 63.8965H49.137V67.5861H45.4474V63.8965Z" fill="black"/>
<path d="M49.137 63.8965H52.8267V67.5861H49.137V63.8965Z" fill="black"/>
<path d="M56.5163 63.8965H60.206V67.5861H56.5163V63.8965Z" fill="black"/>
<path d="M60.206 63.8965H63.8957V67.5861H60.206V63.8965Z" fill="black"/>
<path d="M74.9646 63.8965H78.6543V67.5861H74.9646V63.8965Z" fill="black"/>
<path d="M78.6543 63.8965H82.3439V67.5861H78.6543V63.8965Z" fill="black"/>
<path d="M86.0336 63.8965H89.7232V67.5861H86.0336V63.8965Z" fill="black"/>
<path d="M111.861 63.8965H115.551V67.5861H111.861V63.8965Z" fill="black"/>
<path d="M115.551 63.8965H119.24V67.5861H115.551V63.8965Z" fill="black"/>
<path d="M34.3784 67.5861H38.0681V71.2758H34.3784V67.5861Z" fill="black"/>
<path d="M38.0681 67.5861H41.7577V71.2758H38.0681V67.5861Z" fill="black"/>
<path d="M41.7577 67.5861H45.4474V71.2758H41.7577V67.5861Z" fill="black"/>
<path d="M45.4474 67.5861H49.137V71.2758H45.4474V67.5861Z" fill="black"/>
<path d="M49.137 67.5861H52.8267V71.2758H49.137V67.5861Z" fill="black"/>
<path d="M52.8267 67.5861H56.5163V71.2758H52.8267V67.5861Z" fill="black"/>
<path d="M63.8957 67.5861H67.5853V71.2758H63.8957V67.5861Z" fill="black"/>
<path d="M74.9646 67.5861H78.6543V71.2758H74.9646V67.5861Z" fill="black"/>
<path d="M78.6543 67.5861H82.3439V71.2758H78.6543V67.5861Z" fill="black"/>
<path d="M86.0336 67.5861H89.7232V71.2758H86.0336V67.5861Z" fill="black"/>
<path d="M108.172 67.5861H111.861V71.2758H108.172V67.5861Z" fill="black"/>
<path d="M111.861 67.5861H115.551V71.2758H111.861V67.5861Z" fill="black"/>
<path d="M115.551 67.5861H119.24V71.2758H115.551V67.5861Z" fill="black"/>
<path d="M119.24 67.5861H122.93V71.2758H119.24V67.5861Z" fill="black"/>
<path d="M49.137 71.2758H52.8267V74.9654H49.137V71.2758Z" fill="black"/>
<path d="M52.8267 71.2758H56.5163V74.9654H52.8267V71.2758Z" fill="black"/>
<path d="M56.5163 71.2758H60.206V74.9654H56.5163V71.2758Z" fill="black"/>
<path d="M86.0336 71.2758H89.7232V74.9654H86.0336V71.2758Z" fill="black"/>
<path d="M89.7232 71.2758H93.4129V74.9654H89.7232V71.2758Z" fill="black"/>
<path d="M104.482 71.2758H108.172V74.9654H104.482V71.2758Z" fill="black"/>
<path d="M115.551 71.2758H119.24V74.9654H115.551V71.2758Z" fill="black"/>
<path d="M122.93 71.2758H126.62V74.9654H122.93V71.2758Z" fill="black"/>
<path d="M38.0681 74.9654H41.7577V78.6551H38.0681V74.9654Z" fill="black"/>
<path d="M41.7577 74.9654H45.4474V78.6551H41.7577V74.9654Z" fill="black"/>
<path d="M45.4474 74.9654H49.137V78.6551H45.4474V74.9654Z" fill="black"/>
<path d="M60.206 74.9654H63.8957V78.6551H60.206V74.9654Z" fill="black"/>
<path d="M63.8957 74.9654H67.5853V78.6551H63.8957V74.9654Z" fill="black"/>
<path d="M74.9646 74.9654H78.6543V78.6551H74.9646V74.9654Z" fill="black"/>
<path d="M78.6543 74.9654H82.3439V78.6551H78.6543V74.9654Z" fill="black"/>
<path d="M82.3439 74.9654H86.0336V78.6551H82.3439V74.9654Z" fill="black"/>
<path d="M89.7232 74.9654H93.4129V78.6551H89.7232V74.9654Z" fill="black"/>
<path d="M97.1026 74.9654H100.792V78.6551H97.1026V74.9654Z" fill="black"/>
<path d="M104.482 74.9654H108.172V78.6551H104.482V74.9654Z" fill="black"/>
<path d="M108.172 74.9654H111.861V78.6551H108.172V74.9654Z" fill="black"/>
<path d="M115.551 74.9654H119.24V78.6551H115.551V74.9654Z" fill="black"/>
<path d="M34.3784 78.6551H38.0681V82.3448H34.3784V78.6551Z" fill="black"/>
<path d="M45.4474 78.6551H49.137V82.3448H45.4474V78.6551Z" fill="black"/>
<path d="M49.137 78.6551H52.8267V82.3448H49.137V78.6551Z" fill="black"/>
<path d="M56.5163 78.6551H60.206V82.3448H56.5163V78.6551Z" fill="black"/>
<path d="M67.5853 78.6551H71.275V82.3448H67.5853V78.6551Z" fill="black"/>
<path d="M78.6543 78.6551H82.3439V82.3448H78.6543V78.6551Z" fill="black"/>
<path d="M82.3439 78.6551H86.0336V82.3448H82.3439V78.6551Z" fill="black"/>
<path d="M93.4129 78.6551H97.1026V82.3448H93.4129V78.6551Z" fill="black"/>
<path d="M100.792 78.6551H104.482V82.3448H100.792V78.6551Z" fill="black"/>
<path d="M104.482 78.6551H108.172V82.3448H104.482V78.6551Z" fill="black"/>
<path d="M111.861 78.6551H115.551V82.3448H111.861V78.6551Z" fill="black"/>
<path d="M122.93 78.6551H126.62V82.3448H122.93V78.6551Z" fill="black"/>
<path d="M34.3784 82.3448H38.0681V86.0344H34.3784V82.3448Z" fill="black"/>
<path d="M38.0681 82.3448H41.7577V86.0344H38.0681V82.3448Z" fill="black"/>
<path d="M49.137 82.3448H52.8267V86.0344H49.137V82.3448Z" fill="black"/>
<path d="M60.206 82.3448H63.8957V86.0344H60.206V82.3448Z" fill="black"/>
<path d="M67.5853 82.3448H71.275V86.0344H67.5853V82.3448Z" fill="black"/>
<path d="M71.275 82.3448H74.9646V86.0344H71.275V82.3448Z" fill="black"/>
<path d="M74.9646 82.3448H78.6543V86.0344H74.9646V82.3448Z" fill="black"/>
<path d="M82.3439 82.3448H86.0336V86.0344H82.3439V82.3448Z" fill="black"/>
<path d="M86.0336 82.3448H89.7232V86.0344H86.0336V82.3448Z" fill="black"/>
<path d="M93.4129 82.3448H97.1026V86.0344H93.4129V82.3448Z" fill="black"/>
<path d="M108.172 82.3448H111.861V86.0344H108.172V82.3448Z" fill="black"/>
<path d="M111.861 82.3448H115.551V86.0344H111.861V82.3448Z" fill="black"/>
<path d="M115.551 82.3448H119.24V86.0344H115.551V82.3448Z" fill="black"/>
<path d="M119.24 82.3448H122.93V86.0344H119.24V82.3448Z" fill="black"/>
<path d="M34.3784 86.0344H38.0681V89.7241H34.3784V86.0344Z" fill="black"/>
<path d="M38.0681 86.0344H41.7577V89.7241H38.0681V86.0344Z" fill="black"/>
<path d="M41.7577 86.0344H45.4474V89.7241H41.7577V86.0344Z" fill="black"/>
<path d="M52.8267 86.0344H56.5163V89.7241H52.8267V86.0344Z" fill="black"/>
<path d="M56.5163 86.0344H60.206V89.7241H56.5163V86.0344Z" fill="black"/>
<path d="M67.5853 86.0344H71.275V89.7241H67.5853V86.0344Z" fill="black"/>
<path d="M71.275 86.0344H74.9646V89.7241H71.275V86.0344Z" fill="black"/>
<path d="M82.3439 86.0344H86.0336V89.7241H82.3439V86.0344Z" fill="black"/>
<path d="M86.0336 86.0344H89.7232V89.7241H86.0336V86.0344Z" fill="black"/>
<path d="M93.4129 86.0344H97.1026V89.7241H93.4129V86.0344Z" fill="black"/>
<path d="M100.792 86.0344H104.482V89.7241H100.792V86.0344Z" fill="black"/>
<path d="M104.482 86.0344H108.172V89.7241H104.482V86.0344Z" fill="black"/>
<path d="M111.861 86.0344H115.551V89.7241H111.861V86.0344Z" fill="black"/>
<path d="M119.24 86.0344H122.93V89.7241H119.24V86.0344Z" fill="black"/>
<path d="M122.93 86.0344H126.62V89.7241H122.93V86.0344Z" fill="black"/>
<path d="M34.3784 89.7241H38.0681V93.4137H34.3784V89.7241Z" fill="black"/>
<path d="M45.4474 89.7241H49.137V93.4137H45.4474V89.7241Z" fill="black"/>
<path d="M49.137 89.7241H52.8267V93.4137H49.137V89.7241Z" fill="black"/>
<path d="M52.8267 89.7241H56.5163V93.4137H52.8267V89.7241Z" fill="black"/>
<path d="M63.8957 89.7241H67.5853V93.4137H63.8957V89.7241Z" fill="black"/>
<path d="M67.5853 89.7241H71.275V93.4137H67.5853V89.7241Z" fill="black"/>
<path d="M78.6543 89.7241H82.3439V93.4137H78.6543V89.7241Z" fill="black"/>
<path d="M86.0336 89.7241H89.7232V93.4137H86.0336V89.7241Z" fill="black"/>
<path d="M89.7232 89.7241H93.4129V93.4137H89.7232V89.7241Z" fill="black"/>
<path d="M97.1026 89.7241H100.792V93.4137H97.1026V89.7241Z" fill="black"/>
<path d="M104.482 89.7241H108.172V93.4137H104.482V89.7241Z" fill="black"/>
<path d="M108.172 89.7241H111.861V93.4137H108.172V89.7241Z" fill="black"/>
<path d="M111.861 89.7241H115.551V93.4137H111.861V89.7241Z" fill="black"/>
<path d="M115.551 89.7241H119.24V93.4137H115.551V89.7241Z" fill="black"/>
<path d="M119.24 89.7241H122.93V93.4137H119.24V89.7241Z" fill="black"/>
<path d="M34.3784 93.4137H38.0681V97.1034H34.3784V93.4137Z" fill="black"/>
<path d="M41.7577 93.4137H45.4474V97.1034H41.7577V93.4137Z" fill="black"/>
<path d="M49.137 93.4137H52.8267V97.1034H49.137V93.4137Z" fill="black"/>
<path d="M52.8267 93.4137H56.5163V97.1034H52.8267V93.4137Z" fill="black"/>
<path d="M56.5163 93.4137H60.206V97.1034H56.5163V93.4137Z" fill="black"/>
<path d="M63.8957 93.4137H67.5853V97.1034H63.8957V93.4137Z" fill="black"/>
<path d="M74.9646 93.4137H78.6543V97.1034H74.9646V93.4137Z" fill="black"/>
<path d="M93.4129 93.4137H97.1026V97.1034H93.4129V93.4137Z" fill="black"/>
<path d="M97.1026 93.4137H100.792V97.1034H97.1026V93.4137Z" fill="black"/>
<path d="M100.792 93.4137H104.482V97.1034H100.792V93.4137Z" fill="black"/>
<path d="M104.482 93.4137H108.172V97.1034H104.482V93.4137Z" fill="black"/>
<path d="M108.172 93.4137H111.861V97.1034H108.172V93.4137Z" fill="black"/>
<path d="M115.551 93.4137H119.24V97.1034H115.551V93.4137Z" fill="black"/>
<path d="M122.93 93.4137H126.62V97.1034H122.93V93.4137Z" fill="black"/>
<path d="M63.8957 97.1034H67.5853V100.793H63.8957V97.1034Z" fill="black"/>
<path d="M67.5853 97.1034H71.275V100.793H67.5853V97.1034Z" fill="black"/>
<path d="M86.0336 97.1034H89.7232V100.793H86.0336V97.1034Z" fill="black"/>
<path d="M93.4129 97.1034H97.1026V100.793H93.4129V97.1034Z" fill="black"/>
<path d="M108.172 97.1034H111.861V100.793H108.172V97.1034Z" fill="black"/>
<path d="M115.551 97.1034H119.24V100.793H115.551V97.1034Z" fill="black"/>
<path d="M34.3784 100.793H38.0681V104.483H34.3784V100.793Z" fill="black"/>
<path d="M38.0681 100.793H41.7577V104.483H38.0681V100.793Z" fill="black"/>
<path d="M41.7577 100.793H45.4474V104.483H41.7577V100.793Z" fill="black"/>
<path d="M45.4474 100.793H49.137V104.483H45.4474V100.793Z" fill="black"/>
<path d="M49.137 100.793H52.8267V104.483H49.137V100.793Z" fill="black"/>
<path d="M52.8267 100.793H56.5163V104.483H52.8267V100.793Z" fill="black"/>
<path d="M56.5163 100.793H60.206V104.483H56.5163V100.793Z" fill="black"/>
<path d="M63.8957 100.793H67.5853V104.483H63.8957V100.793Z" fill="black"/>
<path d="M67.5853 100.793H71.275V104.483H67.5853V100.793Z" fill="black"/>
<path d="M71.275 100.793H74.9646V104.483H71.275V100.793Z" fill="black"/>
<path d="M74.9646 100.793H78.6543V104.483H74.9646V100.793Z" fill="black"/>
<path d="M89.7232 100.793H93.4129V104.483H89.7232V100.793Z" fill="black"/>
<path d="M93.4129 100.793H97.1026V104.483H93.4129V100.793Z" fill="black"/>
<path d="M100.792 100.793H104.482V104.483H100.792V100.793Z" fill="black"/>
<path d="M108.172 100.793H111.861V104.483H108.172V100.793Z" fill="black"/>
<path d="M111.861 100.793H115.551V104.483H111.861V100.793Z" fill="black"/>
<path d="M115.551 100.793H119.24V104.483H115.551V100.793Z" fill="black"/>
<path d="M122.93 100.793H126.62V104.483H122.93V100.793Z" fill="black"/>
<path d="M34.3784 104.483H38.0681V108.172H34.3784V104.483Z" fill="black"/>
<path d="M56.5163 104.483H60.206V108.172H56.5163V104.483Z" fill="black"/>
<path d="M67.5853 104.483H71.275V108.172H67.5853V104.483Z" fill="black"/>
<path d="M74.9646 104.483H78.6543V108.172H74.9646V104.483Z" fill="black"/>
<path d="M86.0336 104.483H89.7232V108.172H86.0336V104.483Z" fill="black"/>
<path d="M93.4129 104.483H97.1026V108.172H93.4129V104.483Z" fill="black"/>
<path d="M108.172 104.483H111.861V108.172H108.172V104.483Z" fill="black"/>
<path d="M111.861 104.483H115.551V108.172H111.861V104.483Z" fill="black"/>
<path d="M119.24 104.483H122.93V108.172H119.24V104.483Z" fill="black"/>
<path d="M122.93 104.483H126.62V108.172H122.93V104.483Z" fill="black"/>
<path d="M34.3784 108.172H38.0681V111.862H34.3784V108.172Z" fill="black"/>
<path d="M41.7577 108.172H45.4474V111.862H41.7577V108.172Z" fill="black"/>
<path d="M45.4474 108.172H49.137V111.862H45.4474V108.172Z" fill="black"/>
<path d="M49.137 108.172H52.8267V111.862H49.137V108.172Z" fill="black"/>
<path d="M56.5163 108.172H60.206V111.862H56.5163V108.172Z" fill="black"/>
<path d="M63.8957 108.172H67.5853V111.862H63.8957V108.172Z" fill="black"/>
<path d="M67.5853 108.172H71.275V111.862H67.5853V108.172Z" fill="black"/>
<path d="M71.275 108.172H74.9646V111.862H71.275V108.172Z" fill="black"/>
<path d="M86.0336 108.172H89.7232V111.862H86.0336V108.172Z" fill="black"/>
<path d="M89.7232 108.172H93.4129V111.862H89.7232V108.172Z" fill="black"/>
<path d="M93.4129 108.172H97.1026V111.862H93.4129V108.172Z" fill="black"/>
<path d="M97.1026 108.172H100.792V111.862H97.1026V108.172Z" fill="black"/>
<path d="M100.792 108.172H104.482V111.862H100.792V108.172Z" fill="black"/>
<path d="M104.482 108.172H108.172V111.862H104.482V108.172Z" fill="black"/>
<path d="M108.172 108.172H111.861V111.862H108.172V108.172Z" fill="black"/>
<path d="M111.861 108.172H115.551V111.862H111.861V108.172Z" fill="black"/>
<path d="M119.24 108.172H122.93V111.862H119.24V108.172Z" fill="black"/>
<path d="M34.3784 111.862H38.0681V115.552H34.3784V111.862Z" fill="black"/>
<path d="M41.7577 111.862H45.4474V115.552H41.7577V111.862Z" fill="black"/>
<path d="M45.4474 111.862H49.137V115.552H45.4474V111.862Z" fill="black"/>
<path d="M49.137 111.862H52.8267V115.552H49.137V111.862Z" fill="black"/>
<path d="M56.5163 111.862H60.206V115.552H56.5163V111.862Z" fill="black"/>
<path d="M63.8957 111.862H67.5853V115.552H63.8957V111.862Z" fill="black"/>
<path d="M82.3439 111.862H86.0336V115.552H82.3439V111.862Z" fill="black"/>
<path d="M89.7232 111.862H93.4129V115.552H89.7232V111.862Z" fill="black"/>
<path d="M93.4129 111.862H97.1026V115.552H93.4129V111.862Z" fill="black"/>
<path d="M97.1026 111.862H100.792V115.552H97.1026V111.862Z" fill="black"/>
<path d="M100.792 111.862H104.482V115.552H100.792V111.862Z" fill="black"/>
<path d="M104.482 111.862H108.172V115.552H104.482V111.862Z" fill="black"/>
<path d="M115.551 111.862H119.24V115.552H115.551V111.862Z" fill="black"/>
<path d="M122.93 111.862H126.62V115.552H122.93V111.862Z" fill="black"/>
<path d="M34.3784 115.552H38.0681V119.241H34.3784V115.552Z" fill="black"/>
<path d="M41.7577 115.552H45.4474V119.241H41.7577V115.552Z" fill="black"/>
<path d="M45.4474 115.552H49.137V119.241H45.4474V115.552Z" fill="black"/>
<path d="M49.137 115.552H52.8267V119.241H49.137V115.552Z" fill="black"/>
<path d="M56.5163 115.552H60.206V119.241H56.5163V115.552Z" fill="black"/>
<path d="M67.5853 115.552H71.275V119.241H67.5853V115.552Z" fill="black"/>
<path d="M78.6543 115.552H82.3439V119.241H78.6543V115.552Z" fill="black"/>
<path d="M82.3439 115.552H86.0336V119.241H82.3439V115.552Z" fill="black"/>
<path d="M86.0336 115.552H89.7232V119.241H86.0336V115.552Z" fill="black"/>
<path d="M93.4129 115.552H97.1026V119.241H93.4129V115.552Z" fill="black"/>
<path d="M97.1026 115.552H100.792V119.241H97.1026V115.552Z" fill="black"/>
<path d="M104.482 115.552H108.172V119.241H104.482V115.552Z" fill="black"/>
<path d="M108.172 115.552H111.861V119.241H108.172V115.552Z" fill="black"/>
<path d="M119.24 115.552H122.93V119.241H119.24V115.552Z" fill="black"/>
<path d="M122.93 115.552H126.62V119.241H122.93V115.552Z" fill="black"/>
<path d="M34.3784 119.241H38.0681V122.931H34.3784V119.241Z" fill="black"/>
<path d="M56.5163 119.241H60.206V122.931H56.5163V119.241Z" fill="black"/>
<path d="M67.5853 119.241H71.275V122.931H67.5853V119.241Z" fill="black"/>
<path d="M71.275 119.241H74.9646V122.931H71.275V119.241Z" fill="black"/>
<path d="M74.9646 119.241H78.6543V122.931H74.9646V119.241Z" fill="black"/>
<path d="M78.6543 119.241H82.3439V122.931H78.6543V119.241Z" fill="black"/>
<path d="M104.482 119.241H108.172V122.931H104.482V119.241Z" fill="black"/>
<path d="M108.172 119.241H111.861V122.931H108.172V119.241Z" fill="black"/>
<path d="M111.861 119.241H115.551V122.931H111.861V119.241Z" fill="black"/>
<path d="M115.551 119.241H119.24V122.931H115.551V119.241Z" fill="black"/>
<path d="M119.24 119.241H122.93V122.931H119.24V119.241Z" fill="black"/>
<path d="M122.93 119.241H126.62V122.931H122.93V119.241Z" fill="black"/>
<path d="M34.3784 122.931H38.0681V126.621H34.3784V122.931Z" fill="black"/>
<path d="M38.0681 122.931H41.7577V126.621H38.0681V122.931Z" fill="black"/>
<path d="M41.7577 122.931H45.4474V126.621H41.7577V122.931Z" fill="black"/>
<path d="M45.4474 122.931H49.137V126.621H45.4474V122.931Z" fill="black"/>
<path d="M49.137 122.931H52.8267V126.621H49.137V122.931Z" fill="black"/>
<path d="M52.8267 122.931H56.5163V126.621H52.8267V122.931Z" fill="black"/>
<path d="M56.5163 122.931H60.206V126.621H56.5163V122.931Z" fill="black"/>
<path d="M82.3439 122.931H86.0336V126.621H82.3439V122.931Z" fill="black"/>
<path d="M86.0336 122.931H89.7232V126.621H86.0336V122.931Z" fill="black"/>
<path d="M93.4129 122.931H97.1026V126.621H93.4129V122.931Z" fill="black"/>
<path d="M104.482 122.931H108.172V126.621H104.482V122.931Z" fill="black"/>
<path d="M108.172 122.931H111.861V126.621H108.172V122.931Z" fill="black"/>
<path d="M122.93 122.931H126.62V126.621H122.93V122.931Z" fill="black"/>
<path d="M38.0681 34.3792H34.3784V38.0689M38.0681 34.3792V38.0689M38.0681 34.3792H41.7577M38.0681 38.0689H34.3784M38.0681 38.0689H41.7577M38.0681 38.0689V41.7586M34.3784 38.0689V41.7586M41.7577 34.3792V38.0689M41.7577 34.3792H45.4474M41.7577 38.0689H45.4474M45.4474 34.3792V38.0689M45.4474 34.3792H49.137M45.4474 38.0689H49.137M49.137 34.3792V38.0689M49.137 34.3792H52.8267M49.137 38.0689H52.8267M52.8267 34.3792V38.0689M52.8267 34.3792H56.5163M52.8267 38.0689H56.5163M56.5163 34.3792V38.0689M56.5163 34.3792H60.206V38.0689M56.5163 38.0689H60.206M56.5163 38.0689V41.7586M60.206 38.0689V41.7586M82.3439 38.0689V34.3792H78.6543V38.0689M82.3439 38.0689H78.6543M82.3439 38.0689V41.7586M82.3439 38.0689H86.0336M78.6543 38.0689V41.7586M93.4129 34.3792H89.7232V38.0689M93.4129 34.3792V38.0689M93.4129 34.3792H97.1026V38.0689M93.4129 38.0689H89.7232M93.4129 38.0689H97.1026M93.4129 38.0689V41.7586M89.7232 38.0689H86.0336M89.7232 38.0689V41.7586M97.1026 38.0689V41.7586M104.482 34.3792H100.792V38.0689M104.482 34.3792V38.0689M104.482 34.3792H108.172M104.482 38.0689H100.792M104.482 38.0689H108.172M104.482 38.0689V41.7586M100.792 38.0689V41.7586M108.172 34.3792V38.0689M108.172 34.3792H111.861M108.172 38.0689H111.861M111.861 34.3792V38.0689M111.861 34.3792H115.551M111.861 38.0689H115.551M115.551 34.3792V38.0689M115.551 34.3792H119.24M115.551 38.0689H119.24M119.24 34.3792V38.0689M119.24 34.3792H122.93M119.24 38.0689H122.93M122.93 34.3792V38.0689M122.93 34.3792H126.62V38.0689M122.93 38.0689H126.62M122.93 38.0689V41.7586M126.62 38.0689V41.7586M38.0681 41.7586H34.3784M38.0681 41.7586V45.4482M34.3784 41.7586V45.4482M60.206 41.7586H56.5163M60.206 41.7586V45.4482M56.5163 41.7586V45.4482M74.9646 41.7586V38.0689H71.275V41.7586M74.9646 41.7586H71.275M74.9646 41.7586H78.6543M74.9646 41.7586V45.4482H78.6543V41.7586M71.275 41.7586H67.5853M71.275 41.7586V45.4482H67.5853M82.3439 41.7586H78.6543M82.3439 41.7586H86.0336M82.3439 41.7586V45.4482M86.0336 38.0689V41.7586M86.0336 41.7586H89.7232M86.0336 41.7586V45.4482M89.7232 41.7586H93.4129M89.7232 41.7586V45.4482M97.1026 41.7586H93.4129M97.1026 41.7586V45.4482H93.4129M93.4129 41.7586V45.4482M104.482 41.7586H100.792M104.482 41.7586V45.4482M100.792 41.7586V45.4482M126.62 41.7586H122.93M126.62 41.7586V45.4482M122.93 41.7586V45.4482M38.0681 45.4482H34.3784M38.0681 45.4482V49.1379M34.3784 45.4482V49.1379M45.4474 41.7586H41.7577V45.4482M45.4474 41.7586V45.4482M45.4474 41.7586H49.137M45.4474 45.4482H41.7577M45.4474 45.4482H49.137M45.4474 45.4482V49.1379M41.7577 45.4482V49.1379M49.137 41.7586V45.4482M49.137 41.7586H52.8267V45.4482M49.137 45.4482H52.8267M49.137 45.4482V49.1379M52.8267 45.4482V49.1379M60.206 45.4482H56.5163M60.206 45.4482V49.1379M56.5163 45.4482V49.1379M67.5853 41.7586H63.8957V45.4482M67.5853 41.7586V45.4482M67.5853 45.4482H63.8957M67.5853 45.4482V49.1379H63.8957V45.4482M86.0336 45.4482H82.3439M86.0336 45.4482V49.1379M86.0336 45.4482H89.7232M82.3439 45.4482V49.1379M93.4129 45.4482H89.7232M89.7232 45.4482V49.1379M104.482 45.4482H100.792M104.482 45.4482V49.1379M100.792 45.4482V49.1379M111.861 41.7586H108.172V45.4482M111.861 41.7586V45.4482M111.861 41.7586H115.551M111.861 45.4482H108.172M111.861 45.4482H115.551M111.861 45.4482V49.1379M108.172 45.4482V49.1379M115.551 41.7586V45.4482M115.551 41.7586H119.24V45.4482M115.551 45.4482H119.24M115.551 45.4482V49.1379M119.24 45.4482V49.1379M126.62 45.4482H122.93M126.62 45.4482V49.1379M122.93 45.4482V49.1379M38.0681 49.1379H34.3784M38.0681 49.1379V52.8275M34.3784 49.1379V52.8275M45.4474 49.1379H41.7577M45.4474 49.1379H49.137M45.4474 49.1379V52.8275M41.7577 49.1379V52.8275H45.4474M49.137 49.1379H52.8267M49.137 49.1379V52.8275M52.8267 49.1379V52.8275H49.137M60.206 49.1379H56.5163M60.206 49.1379V52.8275M56.5163 49.1379V52.8275M86.0336 49.1379H82.3439M86.0336 49.1379H89.7232M86.0336 49.1379V52.8275M82.3439 49.1379H78.6543M82.3439 49.1379V52.8275M89.7232 49.1379V52.8275H86.0336M104.482 49.1379H100.792M104.482 49.1379V52.8275M100.792 49.1379V52.8275M111.861 49.1379H108.172M111.861 49.1379H115.551M111.861 49.1379V52.8275M108.172 49.1379V52.8275H111.861M115.551 49.1379H119.24M115.551 49.1379V52.8275M119.24 49.1379V52.8275H115.551M126.62 49.1379H122.93M126.62 49.1379V52.8275M122.93 49.1379V52.8275M38.0681 52.8275H34.3784M38.0681 52.8275V56.5172M34.3784 52.8275V56.5172M45.4474 52.8275H49.137M60.206 52.8275H56.5163M60.206 52.8275V56.5172M56.5163 52.8275V56.5172M78.6543 49.1379H74.9646V52.8275H78.6543M78.6543 49.1379V52.8275M78.6543 52.8275H82.3439M78.6543 52.8275V56.5172M82.3439 52.8275H86.0336M82.3439 52.8275V56.5172M104.482 52.8275H100.792M104.482 52.8275V56.5172M100.792 52.8275V56.5172M111.861 52.8275H115.551M126.62 52.8275H122.93M126.62 52.8275V56.5172M122.93 52.8275V56.5172M38.0681 56.5172H34.3784M38.0681 56.5172V60.2068M38.0681 56.5172H41.7577M34.3784 56.5172V60.2068H38.0681M60.206 56.5172H56.5163M60.206 56.5172V60.2068H56.5163M56.5163 56.5172H52.8267M56.5163 56.5172V60.2068M71.275 56.5172V52.8275H67.5853V56.5172M71.275 56.5172H67.5853M71.275 56.5172H74.9646V60.2068M71.275 56.5172V60.2068M67.5853 56.5172H63.8957V60.2068H67.5853M67.5853 56.5172V60.2068M82.3439 56.5172H78.6543M82.3439 56.5172V60.2068H78.6543M78.6543 56.5172V60.2068M97.1026 56.5172V52.8275H93.4129V56.5172M97.1026 56.5172H93.4129M97.1026 56.5172V60.2068H93.4129V56.5172M104.482 56.5172H100.792M104.482 56.5172V60.2068M104.482 56.5172H108.172M100.792 56.5172V60.2068H104.482M126.62 56.5172H122.93M126.62 56.5172V60.2068H122.93M122.93 56.5172H119.24M122.93 56.5172V60.2068M38.0681 60.2068H41.7577M41.7577 56.5172V60.2068M41.7577 56.5172H45.4474M41.7577 60.2068H45.4474M45.4474 56.5172V60.2068M45.4474 56.5172H49.137M45.4474 60.2068H49.137M49.137 56.5172V60.2068M49.137 56.5172H52.8267M49.137 60.2068H52.8267M52.8267 56.5172V60.2068M52.8267 60.2068H56.5163M67.5853 60.2068H71.275M67.5853 60.2068V63.8965H71.275M74.9646 60.2068H71.275M74.9646 60.2068V63.8965M74.9646 60.2068H78.6543M71.275 60.2068V63.8965M78.6543 60.2068V63.8965M89.7232 60.2068V56.5172H86.0336V60.2068M89.7232 60.2068H86.0336M89.7232 60.2068V63.8965M86.0336 60.2068V63.8965M104.482 60.2068H108.172M108.172 56.5172V60.2068M108.172 56.5172H111.861M108.172 60.2068H111.861M111.861 56.5172V60.2068M111.861 56.5172H115.551M111.861 60.2068H115.551M115.551 56.5172V60.2068M115.551 56.5172H119.24M115.551 60.2068H119.24M119.24 56.5172V60.2068M119.24 60.2068H122.93M71.275 63.8965H74.9646M74.9646 63.8965H78.6543M74.9646 63.8965V67.5861M78.6543 63.8965V67.5861M78.6543 63.8965H82.3439V67.5861M89.7232 63.8965H86.0336M89.7232 63.8965V67.5861M86.0336 63.8965V67.5861M49.137 63.8965H45.4474V67.5861M49.137 63.8965V67.5861M49.137 63.8965H52.8267V67.5861M49.137 67.5861H45.4474M49.137 67.5861H52.8267M49.137 67.5861V71.2758M45.4474 67.5861H41.7577M45.4474 67.5861V71.2758M52.8267 67.5861V71.2758M52.8267 67.5861H56.5163M60.206 63.8965H56.5163V67.5861M60.206 63.8965V67.5861M60.206 63.8965H63.8957V67.5861M60.206 67.5861H56.5163M60.206 67.5861H63.8957M56.5163 67.5861V71.2758M63.8957 67.5861H67.5853V71.2758H63.8957V67.5861ZM78.6543 67.5861H74.9646M78.6543 67.5861H82.3439M78.6543 67.5861V71.2758M74.9646 67.5861V71.2758H78.6543M82.3439 67.5861V71.2758H78.6543M89.7232 67.5861H86.0336M89.7232 67.5861V71.2758M86.0336 67.5861V71.2758M115.551 63.8965H111.861V67.5861M115.551 63.8965V67.5861M115.551 63.8965H119.24V67.5861M115.551 67.5861H111.861M115.551 67.5861H119.24M115.551 67.5861V71.2758M111.861 67.5861H108.172V71.2758M111.861 67.5861V71.2758M119.24 67.5861V71.2758M119.24 67.5861H122.93V71.2758M38.0681 67.5861H34.3784V71.2758H38.0681M38.0681 67.5861V71.2758M38.0681 67.5861H41.7577M38.0681 71.2758H41.7577M41.7577 67.5861V71.2758M41.7577 71.2758H45.4474M45.4474 71.2758H49.137M49.137 71.2758H52.8267M49.137 71.2758V74.9654M52.8267 71.2758H56.5163M52.8267 71.2758V74.9654M56.5163 71.2758V74.9654M56.5163 71.2758H60.206V74.9654M89.7232 71.2758H86.0336M89.7232 71.2758V74.9654M89.7232 71.2758H93.4129V74.9654M86.0336 71.2758V74.9654M111.861 71.2758H108.172M111.861 71.2758H115.551M108.172 71.2758H104.482V74.9654M108.172 71.2758V74.9654M115.551 71.2758H119.24M115.551 71.2758V74.9654M119.24 71.2758H122.93M119.24 71.2758V74.9654M122.93 71.2758H126.62V74.9654H122.93V71.2758ZM52.8267 74.9654H49.137M52.8267 74.9654H56.5163M49.137 74.9654H45.4474M49.137 74.9654V78.6551M56.5163 74.9654H60.206M60.206 74.9654H63.8957M60.206 74.9654V78.6551M89.7232 74.9654H86.0336M89.7232 74.9654H93.4129M89.7232 74.9654V78.6551H93.4129M86.0336 74.9654H82.3439M86.0336 74.9654V78.6551M93.4129 74.9654V78.6551M108.172 74.9654H104.482M108.172 74.9654V78.6551M108.172 74.9654H111.861V78.6551M104.482 74.9654V78.6551M119.24 74.9654H115.551M119.24 74.9654V78.6551H115.551M115.551 74.9654V78.6551M41.7577 74.9654H38.0681V78.6551M41.7577 74.9654V78.6551M41.7577 74.9654H45.4474M41.7577 78.6551H38.0681M41.7577 78.6551H45.4474M38.0681 78.6551H34.3784V82.3448M38.0681 78.6551V82.3448M45.4474 74.9654V78.6551M45.4474 78.6551H49.137M45.4474 78.6551V82.3448H49.137M49.137 78.6551V82.3448M49.137 78.6551H52.8267V82.3448M63.8957 74.9654V78.6551M63.8957 74.9654H67.5853V78.6551M63.8957 78.6551H60.206M63.8957 78.6551H67.5853M60.206 78.6551H56.5163V82.3448H60.206M60.206 78.6551V82.3448M67.5853 78.6551H71.275V82.3448M67.5853 78.6551V82.3448M78.6543 74.9654H74.9646V78.6551H78.6543M78.6543 74.9654V78.6551M78.6543 74.9654H82.3439M78.6543 78.6551H82.3439M78.6543 78.6551V82.3448M82.3439 74.9654V78.6551M82.3439 78.6551H86.0336M82.3439 78.6551V82.3448M86.0336 78.6551V82.3448M93.4129 78.6551H97.1026M93.4129 78.6551V82.3448M100.792 78.6551V74.9654H97.1026V78.6551M100.792 78.6551H97.1026M100.792 78.6551H104.482M100.792 78.6551V82.3448H104.482M97.1026 78.6551V82.3448M108.172 78.6551H104.482M108.172 78.6551H111.861M108.172 78.6551V82.3448M104.482 78.6551V82.3448M111.861 78.6551H115.551M111.861 78.6551V82.3448M115.551 78.6551V82.3448M38.0681 82.3448H34.3784M38.0681 82.3448V86.0344M38.0681 82.3448H41.7577V86.0344M34.3784 82.3448V86.0344M49.137 82.3448H52.8267M49.137 82.3448V86.0344H52.8267M52.8267 82.3448V86.0344M60.206 82.3448H63.8957V86.0344H60.206M60.206 82.3448V86.0344M71.275 82.3448H67.5853M71.275 82.3448V86.0344M71.275 82.3448H74.9646M67.5853 82.3448V86.0344M82.3439 82.3448H78.6543M82.3439 82.3448H86.0336M82.3439 82.3448V86.0344M78.6543 82.3448H74.9646M78.6543 82.3448V86.0344H74.9646M86.0336 82.3448V86.0344M86.0336 82.3448H89.7232V86.0344M97.1026 82.3448H93.4129M97.1026 82.3448V86.0344M93.4129 82.3448V86.0344M104.482 82.3448H108.172M108.172 82.3448H111.861M108.172 82.3448V86.0344M115.551 82.3448H111.861M115.551 82.3448V86.0344M115.551 82.3448H119.24M111.861 82.3448V86.0344M122.93 82.3448H126.62V78.6551H122.93V82.3448ZM122.93 82.3448H119.24M122.93 82.3448V86.0344M38.0681 86.0344H34.3784M38.0681 86.0344H41.7577M38.0681 86.0344V89.7241M34.3784 86.0344V89.7241M41.7577 86.0344V89.7241M41.7577 86.0344H45.4474V89.7241M52.8267 86.0344H56.5163M52.8267 86.0344V89.7241M60.206 86.0344H56.5163M60.206 86.0344V89.7241H56.5163M71.275 86.0344H67.5853M71.275 86.0344H74.9646M71.275 86.0344V89.7241M67.5853 86.0344V89.7241M74.9646 82.3448V86.0344M74.9646 86.0344V89.7241H71.275M86.0336 86.0344H82.3439M86.0336 86.0344H89.7232M86.0336 86.0344V89.7241M82.3439 86.0344V89.7241M89.7232 86.0344V89.7241M97.1026 86.0344H93.4129M97.1026 86.0344V89.7241M93.4129 86.0344V89.7241M111.861 86.0344H108.172M111.861 86.0344H115.551M111.861 86.0344V89.7241M108.172 86.0344H104.482M108.172 86.0344V89.7241M115.551 86.0344H119.24M115.551 86.0344V89.7241M119.24 82.3448V86.0344M119.24 86.0344H122.93M119.24 86.0344V89.7241M122.93 86.0344V89.7241M122.93 86.0344H126.62V89.7241H122.93M38.0681 89.7241H34.3784M38.0681 89.7241H41.7577M38.0681 89.7241V93.4137M34.3784 89.7241V93.4137M41.7577 89.7241H45.4474M45.4474 89.7241H49.137M45.4474 89.7241V93.4137M56.5163 86.0344V89.7241M56.5163 89.7241H52.8267M56.5163 89.7241V93.4137M52.8267 89.7241H49.137M52.8267 89.7241V93.4137M71.275 89.7241H67.5853M71.275 89.7241V93.4137H67.5853M67.5853 89.7241H63.8957V93.4137M67.5853 89.7241V93.4137M86.0336 89.7241H82.3439M86.0336 89.7241H89.7232M86.0336 89.7241V93.4137H89.7232M82.3439 89.7241H78.6543V93.4137M82.3439 89.7241V93.4137H78.6543M89.7232 89.7241V93.4137M89.7232 89.7241H93.4129M97.1026 89.7241H93.4129M97.1026 89.7241H100.792M97.1026 89.7241V93.4137M93.4129 89.7241V93.4137M104.482 86.0344H100.792V89.7241M104.482 86.0344V89.7241M104.482 89.7241H100.792M104.482 89.7241H108.172M104.482 89.7241V93.4137M100.792 89.7241V93.4137M108.172 89.7241V93.4137M108.172 89.7241H111.861M115.551 89.7241H111.861M115.551 89.7241V93.4137M115.551 89.7241H119.24M111.861 89.7241V93.4137M122.93 89.7241H119.24M122.93 89.7241V93.4137M119.24 89.7241V93.4137M38.0681 93.4137H34.3784M38.0681 93.4137V97.1034H34.3784V93.4137M49.137 89.7241V93.4137M49.137 93.4137H45.4474M49.137 93.4137H52.8267M49.137 93.4137V97.1034H52.8267M45.4474 93.4137H41.7577V97.1034H45.4474V93.4137ZM52.8267 93.4137H56.5163M52.8267 93.4137V97.1034M56.5163 93.4137V97.1034M56.5163 93.4137H60.206V97.1034H56.5163M67.5853 93.4137H63.8957M67.5853 93.4137V97.1034M63.8957 93.4137V97.1034M78.6543 93.4137H74.9646V97.1034H78.6543V93.4137ZM89.7232 93.4137H93.4129M93.4129 93.4137H97.1026M93.4129 93.4137V97.1034M100.792 93.4137H97.1026M100.792 93.4137V97.1034M100.792 93.4137H104.482M97.1026 93.4137V97.1034M108.172 93.4137H104.482M108.172 93.4137H111.861M108.172 93.4137V97.1034M104.482 93.4137V97.1034M111.861 93.4137H115.551M111.861 93.4137V97.1034M115.551 93.4137H119.24M115.551 93.4137V97.1034M119.24 93.4137H122.93M119.24 93.4137V97.1034M122.93 93.4137H126.62V97.1034H122.93V93.4137ZM52.8267 97.1034H56.5163M67.5853 97.1034H63.8957M67.5853 97.1034V100.793M67.5853 97.1034H71.275V100.793M63.8957 97.1034V100.793M97.1026 97.1034H93.4129M97.1026 97.1034H100.792M97.1026 97.1034V100.793M93.4129 97.1034V100.793M100.792 97.1034H104.482M104.482 97.1034H108.172M108.172 97.1034H111.861M108.172 97.1034V100.793M111.861 97.1034V100.793M119.24 97.1034H115.551M119.24 97.1034V100.793M115.551 97.1034V100.793M67.5853 100.793H63.8957M67.5853 100.793H71.275M67.5853 100.793V104.483M63.8957 100.793V104.483H67.5853M71.275 100.793V104.483M71.275 100.793H74.9646M89.7232 100.793V97.1034H86.0336V100.793H89.7232ZM89.7232 100.793H93.4129M89.7232 100.793V104.483M97.1026 100.793H93.4129M97.1026 100.793V104.483M93.4129 100.793V104.483M111.861 100.793H108.172M111.861 100.793V104.483M111.861 100.793H115.551M108.172 100.793V104.483M119.24 100.793H115.551M119.24 100.793V104.483M115.551 100.793V104.483M38.0681 100.793H34.3784V104.483M38.0681 100.793V104.483M38.0681 100.793H41.7577M38.0681 104.483H34.3784M38.0681 104.483H41.7577M38.0681 104.483V108.172M34.3784 104.483V108.172M41.7577 100.793V104.483M41.7577 100.793H45.4474M41.7577 104.483H45.4474M45.4474 100.793V104.483M45.4474 100.793H49.137M45.4474 104.483H49.137M49.137 100.793V104.483M49.137 100.793H52.8267M49.137 104.483H52.8267M52.8267 100.793V104.483M52.8267 100.793H56.5163M52.8267 104.483H56.5163M56.5163 100.793V104.483M56.5163 100.793H60.206V104.483M56.5163 104.483H60.206M56.5163 104.483V108.172M60.206 104.483V108.172M67.5853 104.483H71.275M67.5853 104.483V108.172M71.275 104.483H74.9646M71.275 104.483V108.172M74.9646 100.793V104.483M74.9646 100.793H78.6543V104.483M74.9646 104.483H78.6543M74.9646 104.483V108.172M78.6543 104.483V108.172H74.9646M93.4129 104.483H89.7232M93.4129 104.483H97.1026M93.4129 104.483V108.172M89.7232 104.483H86.0336V108.172M89.7232 104.483V108.172M97.1026 104.483V108.172M111.861 104.483H108.172M111.861 104.483H115.551M111.861 104.483V108.172M108.172 104.483V108.172M115.551 104.483H119.24M115.551 104.483V108.172M119.24 104.483H122.93M119.24 104.483V108.172M126.62 104.483V100.793H122.93V104.483M126.62 104.483H122.93M126.62 104.483V108.172H122.93M122.93 104.483V108.172M38.0681 108.172H34.3784M38.0681 108.172V111.862M34.3784 108.172V111.862M60.206 108.172H56.5163M60.206 108.172V111.862M56.5163 108.172V111.862M71.275 108.172H67.5853M71.275 108.172V111.862M71.275 108.172H74.9646M67.5853 108.172H63.8957V111.862M67.5853 108.172V111.862M74.9646 108.172V111.862H71.275M89.7232 108.172H86.0336M89.7232 108.172V111.862M89.7232 108.172H93.4129M86.0336 108.172V111.862M97.1026 108.172H93.4129M97.1026 108.172V111.862M97.1026 108.172H100.792M93.4129 108.172V111.862M111.861 108.172H108.172M111.861 108.172H115.551M111.861 108.172V111.862M108.172 108.172H104.482M108.172 108.172V111.862M115.551 108.172V111.862M122.93 108.172H119.24M122.93 108.172V111.862M119.24 108.172V111.862M38.0681 111.862H34.3784M38.0681 111.862V115.552M34.3784 111.862V115.552M45.4474 108.172H41.7577V111.862M45.4474 108.172V111.862M45.4474 108.172H49.137M45.4474 111.862H41.7577M45.4474 111.862H49.137M45.4474 111.862V115.552M41.7577 111.862V115.552M49.137 108.172V111.862M49.137 108.172H52.8267V111.862M49.137 111.862H52.8267M49.137 111.862V115.552M52.8267 111.862V115.552M60.206 111.862H56.5163M60.206 111.862V115.552M56.5163 111.862V115.552M67.5853 111.862H63.8957M67.5853 111.862H71.275M67.5853 111.862V115.552M63.8957 111.862V115.552H67.5853M89.7232 111.862H86.0336M89.7232 111.862H93.4129M89.7232 111.862V115.552M86.0336 111.862H82.3439V115.552M86.0336 111.862V115.552M93.4129 111.862H97.1026M93.4129 111.862V115.552M97.1026 111.862H100.792M97.1026 111.862V115.552M100.792 108.172V111.862M100.792 108.172H104.482M100.792 111.862H104.482M100.792 111.862V115.552M104.482 108.172V111.862M104.482 111.862H108.172M104.482 111.862V115.552M108.172 111.862H111.861M108.172 111.862V115.552M111.861 111.862H115.551M115.551 111.862H119.24M115.551 111.862V115.552H119.24M122.93 111.862H119.24M122.93 111.862H126.62V115.552M122.93 111.862V115.552M119.24 111.862V115.552M38.0681 115.552H34.3784M38.0681 115.552V119.241M34.3784 115.552V119.241M45.4474 115.552H41.7577M45.4474 115.552H49.137M45.4474 115.552V119.241M41.7577 115.552V119.241H45.4474M49.137 115.552H52.8267M49.137 115.552V119.241M52.8267 115.552V119.241H49.137M60.206 115.552H56.5163M60.206 115.552V119.241M56.5163 115.552V119.241M67.5853 115.552H71.275V119.241M67.5853 115.552V119.241M86.0336 115.552H82.3439M86.0336 115.552V119.241M86.0336 115.552H89.7232M82.3439 115.552H78.6543V119.241M82.3439 115.552V119.241M93.4129 115.552H89.7232M93.4129 115.552H97.1026M93.4129 115.552V119.241H97.1026M89.7232 115.552V119.241H86.0336M97.1026 115.552H100.792M97.1026 115.552V119.241M100.792 115.552H104.482M100.792 115.552V119.241H97.1026M104.482 115.552H108.172M104.482 115.552V119.241M108.172 115.552V119.241M108.172 115.552H111.861V119.241M119.24 115.552H122.93M119.24 115.552V119.241M126.62 115.552H122.93M126.62 115.552V119.241M122.93 115.552V119.241M38.0681 119.241H34.3784M38.0681 119.241V122.931M34.3784 119.241V122.931M45.4474 119.241H49.137M60.206 119.241H56.5163M60.206 119.241V122.931M56.5163 119.241V122.931M71.275 119.241H67.5853M71.275 119.241V122.931M71.275 119.241H74.9646M67.5853 119.241V122.931H71.275M82.3439 119.241H78.6543M82.3439 119.241H86.0336M82.3439 119.241V122.931M78.6543 119.241H74.9646M78.6543 119.241V122.931M108.172 119.241H104.482M108.172 119.241H111.861M108.172 119.241V122.931M104.482 119.241V122.931M111.861 119.241V122.931M111.861 119.241H115.551M122.93 119.241H119.24M122.93 119.241H126.62M122.93 119.241V122.931M119.24 119.241H115.551M119.24 119.241V122.931M126.62 119.241V122.931M38.0681 122.931H34.3784M38.0681 122.931V126.621M38.0681 122.931H41.7577M34.3784 122.931V126.621H38.0681M60.206 122.931H56.5163M60.206 122.931V126.621H56.5163M56.5163 122.931H52.8267M56.5163 122.931V126.621M71.275 122.931H74.9646M74.9646 119.241V122.931M74.9646 122.931H78.6543M78.6543 122.931H82.3439M82.3439 122.931H86.0336M82.3439 122.931V126.621H86.0336M108.172 122.931H104.482M108.172 122.931H111.861M108.172 122.931V126.621M104.482 122.931V126.621H108.172M111.861 122.931H115.551M111.861 122.931V126.621H108.172M115.551 119.241V122.931M115.551 122.931H119.24M119.24 122.931H122.93M122.93 122.931H126.62M122.93 122.931V126.621H126.62V122.931M38.0681 126.621H41.7577M41.7577 122.931V126.621M41.7577 122.931H45.4474M41.7577 126.621H45.4474M45.4474 122.931V126.621M45.4474 122.931H49.137M45.4474 126.621H49.137M49.137 122.931V126.621M49.137 122.931H52.8267M49.137 126.621H52.8267M52.8267 122.931V126.621M52.8267 126.621H56.5163M86.0336 122.931V126.621M86.0336 122.931H89.7232V126.621H86.0336M100.792 100.793H104.482V104.483H100.792V100.793ZM93.4129 122.931H97.1026V126.621H93.4129V122.931Z" stroke="black" stroke-width="0.214"/>
</g>
<defs>
<filter id="filter0_d_1122_7628" x="0.68421" y="0.68421" width="159.632" height="159.632" filterUnits="userSpaceOnUse" color-interpolation-filters="sRGB">
<feFlood flood-opacity="0" result="BackgroundImageFix"/>
<feColorMatrix in="SourceAlpha" type="matrix" values="0 0 0 0 0 0 0 0 0 0 0 0 0 0 0 0 0 0 127 0" result="hardAlpha"/>
<feOffset/>
<feGaussianBlur stdDeviation="13.1579"/>
<feComposite in2="hardAlpha" operator="out"/>
<feColorMatrix type="matrix" values="0 0 0 0 1 0 0 0 0 0.368627 0 0 0 0 0.0156863 0 0 0 0.25 0"/>
<feBlend mode="normal" in2="BackgroundImageFix" result="effect1_dropShadow_1122_7628"/>
<feBlend mode="normal" in="SourceGraphic" in2="effect1_dropShadow_1122_7628" result="shape"/>
</filter>
</defs>
</svg>
