<svg width="93" height="93" viewBox="0 0 93 93" fill="none" xmlns="http://www.w3.org/2000/svg">
<path d="M0.378418 0.379242H4.06807V4.0689H0.378418V0.379242Z" fill="black"/>
<path d="M4.06807 0.379242H7.75773V4.0689H4.06807V0.379242Z" fill="black"/>
<path d="M7.75773 0.379242H11.4474V4.0689H7.75773V0.379242Z" fill="black"/>
<path d="M11.4474 0.379242H15.137V4.0689H11.4474V0.379242Z" fill="black"/>
<path d="M15.137 0.379242H18.8267V4.0689H15.137V0.379242Z" fill="black"/>
<path d="M18.8267 0.379242H22.5163V4.0689H18.8267V0.379242Z" fill="black"/>
<path d="M22.5163 0.379242H26.206V4.0689H22.5163V0.379242Z" fill="black"/>
<path d="M44.6543 0.379242H48.3439V4.0689H44.6543V0.379242Z" fill="black"/>
<path d="M55.7232 0.379242H59.4129V4.0689H55.7232V0.379242Z" fill="black"/>
<path d="M59.4129 0.379242H63.1026V4.0689H59.4129V0.379242Z" fill="black"/>
<path d="M66.7922 0.379242H70.4819V4.0689H66.7922V0.379242Z" fill="black"/>
<path d="M70.4819 0.379242H74.1715V4.0689H70.4819V0.379242Z" fill="black"/>
<path d="M74.1715 0.379242H77.8612V4.0689H74.1715V0.379242Z" fill="black"/>
<path d="M77.8612 0.379242H81.5508V4.0689H77.8612V0.379242Z" fill="black"/>
<path d="M81.5508 0.379242H85.2405V4.0689H81.5508V0.379242Z" fill="black"/>
<path d="M85.2405 0.379242H88.9301V4.0689H85.2405V0.379242Z" fill="black"/>
<path d="M88.9301 0.379242H92.6198V4.0689H88.9301V0.379242Z" fill="black"/>
<path d="M0.378418 4.0689H4.06807V7.75855H0.378418V4.0689Z" fill="black"/>
<path d="M22.5163 4.0689H26.206V7.75855H22.5163V4.0689Z" fill="black"/>
<path d="M37.275 4.0689H40.9646V7.75855H37.275V4.0689Z" fill="black"/>
<path d="M44.6543 4.0689H48.3439V7.75855H44.6543V4.0689Z" fill="black"/>
<path d="M48.3439 4.0689H52.0336V7.75855H48.3439V4.0689Z" fill="black"/>
<path d="M52.0336 4.0689H55.7232V7.75855H52.0336V4.0689Z" fill="black"/>
<path d="M59.4129 4.0689H63.1026V7.75855H59.4129V4.0689Z" fill="black"/>
<path d="M66.7922 4.0689H70.4819V7.75855H66.7922V4.0689Z" fill="black"/>
<path d="M88.9301 4.0689H92.6198V7.75855H88.9301V4.0689Z" fill="black"/>
<path d="M0.378418 7.75855H4.06807V11.4482H0.378418V7.75855Z" fill="black"/>
<path d="M7.75773 7.75855H11.4474V11.4482H7.75773V7.75855Z" fill="black"/>
<path d="M11.4474 7.75855H15.137V11.4482H11.4474V7.75855Z" fill="black"/>
<path d="M15.137 7.75855H18.8267V11.4482H15.137V7.75855Z" fill="black"/>
<path d="M22.5163 7.75855H26.206V11.4482H22.5163V7.75855Z" fill="black"/>
<path d="M29.8957 7.75855H33.5853V11.4482H29.8957V7.75855Z" fill="black"/>
<path d="M33.5853 7.75855H37.275V11.4482H33.5853V7.75855Z" fill="black"/>
<path d="M40.9646 7.75855H44.6543V11.4482H40.9646V7.75855Z" fill="black"/>
<path d="M48.3439 7.75855H52.0336V11.4482H48.3439V7.75855Z" fill="black"/>
<path d="M55.7232 7.75855H59.4129V11.4482H55.7232V7.75855Z" fill="black"/>
<path d="M59.4129 7.75855H63.1026V11.4482H59.4129V7.75855Z" fill="black"/>
<path d="M66.7922 7.75855H70.4819V11.4482H66.7922V7.75855Z" fill="black"/>
<path d="M74.1715 7.75855H77.8612V11.4482H74.1715V7.75855Z" fill="black"/>
<path d="M77.8612 7.75855H81.5508V11.4482H77.8612V7.75855Z" fill="black"/>
<path d="M81.5508 7.75855H85.2405V11.4482H81.5508V7.75855Z" fill="black"/>
<path d="M88.9301 7.75855H92.6198V11.4482H88.9301V7.75855Z" fill="black"/>
<path d="M0.378418 11.4482H4.06807V15.1379H0.378418V11.4482Z" fill="black"/>
<path d="M7.75773 11.4482H11.4474V15.1379H7.75773V11.4482Z" fill="black"/>
<path d="M11.4474 11.4482H15.137V15.1379H11.4474V11.4482Z" fill="black"/>
<path d="M15.137 11.4482H18.8267V15.1379H15.137V11.4482Z" fill="black"/>
<path d="M22.5163 11.4482H26.206V15.1379H22.5163V11.4482Z" fill="black"/>
<path d="M29.8957 11.4482H33.5853V15.1379H29.8957V11.4482Z" fill="black"/>
<path d="M48.3439 11.4482H52.0336V15.1379H48.3439V11.4482Z" fill="black"/>
<path d="M52.0336 11.4482H55.7232V15.1379H52.0336V11.4482Z" fill="black"/>
<path d="M66.7922 11.4482H70.4819V15.1379H66.7922V11.4482Z" fill="black"/>
<path d="M74.1715 11.4482H77.8612V15.1379H74.1715V11.4482Z" fill="black"/>
<path d="M77.8612 11.4482H81.5508V15.1379H77.8612V11.4482Z" fill="black"/>
<path d="M81.5508 11.4482H85.2405V15.1379H81.5508V11.4482Z" fill="black"/>
<path d="M88.9301 11.4482H92.6198V15.1379H88.9301V11.4482Z" fill="black"/>
<path d="M0.378418 15.1379H4.06807V18.8275H0.378418V15.1379Z" fill="black"/>
<path d="M7.75773 15.1379H11.4474V18.8275H7.75773V15.1379Z" fill="black"/>
<path d="M11.4474 15.1379H15.137V18.8275H11.4474V15.1379Z" fill="black"/>
<path d="M15.137 15.1379H18.8267V18.8275H15.137V15.1379Z" fill="black"/>
<path d="M22.5163 15.1379H26.206V18.8275H22.5163V15.1379Z" fill="black"/>
<path d="M40.9646 15.1379H44.6543V18.8275H40.9646V15.1379Z" fill="black"/>
<path d="M44.6543 15.1379H48.3439V18.8275H44.6543V15.1379Z" fill="black"/>
<path d="M48.3439 15.1379H52.0336V18.8275H48.3439V15.1379Z" fill="black"/>
<path d="M52.0336 15.1379H55.7232V18.8275H52.0336V15.1379Z" fill="black"/>
<path d="M66.7922 15.1379H70.4819V18.8275H66.7922V15.1379Z" fill="black"/>
<path d="M74.1715 15.1379H77.8612V18.8275H74.1715V15.1379Z" fill="black"/>
<path d="M77.8612 15.1379H81.5508V18.8275H77.8612V15.1379Z" fill="black"/>
<path d="M81.5508 15.1379H85.2405V18.8275H81.5508V15.1379Z" fill="black"/>
<path d="M88.9301 15.1379H92.6198V18.8275H88.9301V15.1379Z" fill="black"/>
<path d="M0.378418 18.8275H4.06807V22.5172H0.378418V18.8275Z" fill="black"/>
<path d="M22.5163 18.8275H26.206V22.5172H22.5163V18.8275Z" fill="black"/>
<path d="M33.5853 18.8275H37.275V22.5172H33.5853V18.8275Z" fill="black"/>
<path d="M44.6543 18.8275H48.3439V22.5172H44.6543V18.8275Z" fill="black"/>
<path d="M59.4129 18.8275H63.1026V22.5172H59.4129V18.8275Z" fill="black"/>
<path d="M66.7922 18.8275H70.4819V22.5172H66.7922V18.8275Z" fill="black"/>
<path d="M88.9301 18.8275H92.6198V22.5172H88.9301V18.8275Z" fill="black"/>
<path d="M0.378418 22.5172H4.06807V26.2068H0.378418V22.5172Z" fill="black"/>
<path d="M4.06807 22.5172H7.75773V26.2068H4.06807V22.5172Z" fill="black"/>
<path d="M7.75773 22.5172H11.4474V26.2068H7.75773V22.5172Z" fill="black"/>
<path d="M11.4474 22.5172H15.137V26.2068H11.4474V22.5172Z" fill="black"/>
<path d="M15.137 22.5172H18.8267V26.2068H15.137V22.5172Z" fill="black"/>
<path d="M18.8267 22.5172H22.5163V26.2068H18.8267V22.5172Z" fill="black"/>
<path d="M22.5163 22.5172H26.206V26.2068H22.5163V22.5172Z" fill="black"/>
<path d="M29.8957 22.5172H33.5853V26.2068H29.8957V22.5172Z" fill="black"/>
<path d="M37.275 22.5172H40.9646V26.2068H37.275V22.5172Z" fill="black"/>
<path d="M44.6543 22.5172H48.3439V26.2068H44.6543V22.5172Z" fill="black"/>
<path d="M52.0336 22.5172H55.7232V26.2068H52.0336V22.5172Z" fill="black"/>
<path d="M59.4129 22.5172H63.1026V26.2068H59.4129V22.5172Z" fill="black"/>
<path d="M66.7922 22.5172H70.4819V26.2068H66.7922V22.5172Z" fill="black"/>
<path d="M70.4819 22.5172H74.1715V26.2068H70.4819V22.5172Z" fill="black"/>
<path d="M74.1715 22.5172H77.8612V26.2068H74.1715V22.5172Z" fill="black"/>
<path d="M77.8612 22.5172H81.5508V26.2068H77.8612V22.5172Z" fill="black"/>
<path d="M81.5508 22.5172H85.2405V26.2068H81.5508V22.5172Z" fill="black"/>
<path d="M85.2405 22.5172H88.9301V26.2068H85.2405V22.5172Z" fill="black"/>
<path d="M88.9301 22.5172H92.6198V26.2068H88.9301V22.5172Z" fill="black"/>
<path d="M33.5853 26.2068H37.275V29.8965H33.5853V26.2068Z" fill="black"/>
<path d="M37.275 26.2068H40.9646V29.8965H37.275V26.2068Z" fill="black"/>
<path d="M40.9646 26.2068H44.6543V29.8965H40.9646V26.2068Z" fill="black"/>
<path d="M52.0336 26.2068H55.7232V29.8965H52.0336V26.2068Z" fill="black"/>
<path d="M11.4474 29.8965H15.137V33.5861H11.4474V29.8965Z" fill="black"/>
<path d="M15.137 29.8965H18.8267V33.5861H15.137V29.8965Z" fill="black"/>
<path d="M22.5163 29.8965H26.206V33.5861H22.5163V29.8965Z" fill="black"/>
<path d="M26.206 29.8965H29.8957V33.5861H26.206V29.8965Z" fill="black"/>
<path d="M40.9646 29.8965H44.6543V33.5861H40.9646V29.8965Z" fill="black"/>
<path d="M44.6543 29.8965H48.3439V33.5861H44.6543V29.8965Z" fill="black"/>
<path d="M52.0336 29.8965H55.7232V33.5861H52.0336V29.8965Z" fill="black"/>
<path d="M77.8612 29.8965H81.5508V33.5861H77.8612V29.8965Z" fill="black"/>
<path d="M81.5508 29.8965H85.2405V33.5861H81.5508V29.8965Z" fill="black"/>
<path d="M0.378418 33.5861H4.06807V37.2758H0.378418V33.5861Z" fill="black"/>
<path d="M4.06807 33.5861H7.75773V37.2758H4.06807V33.5861Z" fill="black"/>
<path d="M7.75773 33.5861H11.4474V37.2758H7.75773V33.5861Z" fill="black"/>
<path d="M11.4474 33.5861H15.137V37.2758H11.4474V33.5861Z" fill="black"/>
<path d="M15.137 33.5861H18.8267V37.2758H15.137V33.5861Z" fill="black"/>
<path d="M18.8267 33.5861H22.5163V37.2758H18.8267V33.5861Z" fill="black"/>
<path d="M29.8957 33.5861H33.5853V37.2758H29.8957V33.5861Z" fill="black"/>
<path d="M40.9646 33.5861H44.6543V37.2758H40.9646V33.5861Z" fill="black"/>
<path d="M44.6543 33.5861H48.3439V37.2758H44.6543V33.5861Z" fill="black"/>
<path d="M52.0336 33.5861H55.7232V37.2758H52.0336V33.5861Z" fill="black"/>
<path d="M74.1715 33.5861H77.8612V37.2758H74.1715V33.5861Z" fill="black"/>
<path d="M77.8612 33.5861H81.5508V37.2758H77.8612V33.5861Z" fill="black"/>
<path d="M81.5508 33.5861H85.2405V37.2758H81.5508V33.5861Z" fill="black"/>
<path d="M85.2405 33.5861H88.9301V37.2758H85.2405V33.5861Z" fill="black"/>
<path d="M15.137 37.2758H18.8267V40.9654H15.137V37.2758Z" fill="black"/>
<path d="M18.8267 37.2758H22.5163V40.9654H18.8267V37.2758Z" fill="black"/>
<path d="M22.5163 37.2758H26.206V40.9654H22.5163V37.2758Z" fill="black"/>
<path d="M52.0336 37.2758H55.7232V40.9654H52.0336V37.2758Z" fill="black"/>
<path d="M55.7232 37.2758H59.4129V40.9654H55.7232V37.2758Z" fill="black"/>
<path d="M70.4819 37.2758H74.1715V40.9654H70.4819V37.2758Z" fill="black"/>
<path d="M81.5508 37.2758H85.2405V40.9654H81.5508V37.2758Z" fill="black"/>
<path d="M88.9301 37.2758H92.6198V40.9654H88.9301V37.2758Z" fill="black"/>
<path d="M4.06807 40.9654H7.75773V44.6551H4.06807V40.9654Z" fill="black"/>
<path d="M7.75773 40.9654H11.4474V44.6551H7.75773V40.9654Z" fill="black"/>
<path d="M11.4474 40.9654H15.137V44.6551H11.4474V40.9654Z" fill="black"/>
<path d="M26.206 40.9654H29.8957V44.6551H26.206V40.9654Z" fill="black"/>
<path d="M29.8957 40.9654H33.5853V44.6551H29.8957V40.9654Z" fill="black"/>
<path d="M40.9646 40.9654H44.6543V44.6551H40.9646V40.9654Z" fill="black"/>
<path d="M44.6543 40.9654H48.3439V44.6551H44.6543V40.9654Z" fill="black"/>
<path d="M48.3439 40.9654H52.0336V44.6551H48.3439V40.9654Z" fill="black"/>
<path d="M55.7232 40.9654H59.4129V44.6551H55.7232V40.9654Z" fill="black"/>
<path d="M63.1026 40.9654H66.7922V44.6551H63.1026V40.9654Z" fill="black"/>
<path d="M70.4819 40.9654H74.1715V44.6551H70.4819V40.9654Z" fill="black"/>
<path d="M74.1715 40.9654H77.8612V44.6551H74.1715V40.9654Z" fill="black"/>
<path d="M81.5508 40.9654H85.2405V44.6551H81.5508V40.9654Z" fill="black"/>
<path d="M0.378418 44.6551H4.06807V48.3448H0.378418V44.6551Z" fill="black"/>
<path d="M11.4474 44.6551H15.137V48.3448H11.4474V44.6551Z" fill="black"/>
<path d="M15.137 44.6551H18.8267V48.3448H15.137V44.6551Z" fill="black"/>
<path d="M22.5163 44.6551H26.206V48.3448H22.5163V44.6551Z" fill="black"/>
<path d="M33.5853 44.6551H37.275V48.3448H33.5853V44.6551Z" fill="black"/>
<path d="M44.6543 44.6551H48.3439V48.3448H44.6543V44.6551Z" fill="black"/>
<path d="M48.3439 44.6551H52.0336V48.3448H48.3439V44.6551Z" fill="black"/>
<path d="M59.4129 44.6551H63.1026V48.3448H59.4129V44.6551Z" fill="black"/>
<path d="M66.7922 44.6551H70.4819V48.3448H66.7922V44.6551Z" fill="black"/>
<path d="M70.4819 44.6551H74.1715V48.3448H70.4819V44.6551Z" fill="black"/>
<path d="M77.8612 44.6551H81.5508V48.3448H77.8612V44.6551Z" fill="black"/>
<path d="M88.9301 44.6551H92.6198V48.3448H88.9301V44.6551Z" fill="black"/>
<path d="M0.378418 48.3448H4.06807V52.0344H0.378418V48.3448Z" fill="black"/>
<path d="M4.06807 48.3448H7.75773V52.0344H4.06807V48.3448Z" fill="black"/>
<path d="M15.137 48.3448H18.8267V52.0344H15.137V48.3448Z" fill="black"/>
<path d="M26.206 48.3448H29.8957V52.0344H26.206V48.3448Z" fill="black"/>
<path d="M33.5853 48.3448H37.275V52.0344H33.5853V48.3448Z" fill="black"/>
<path d="M37.275 48.3448H40.9646V52.0344H37.275V48.3448Z" fill="black"/>
<path d="M40.9646 48.3448H44.6543V52.0344H40.9646V48.3448Z" fill="black"/>
<path d="M48.3439 48.3448H52.0336V52.0344H48.3439V48.3448Z" fill="black"/>
<path d="M52.0336 48.3448H55.7232V52.0344H52.0336V48.3448Z" fill="black"/>
<path d="M59.4129 48.3448H63.1026V52.0344H59.4129V48.3448Z" fill="black"/>
<path d="M74.1715 48.3448H77.8612V52.0344H74.1715V48.3448Z" fill="black"/>
<path d="M77.8612 48.3448H81.5508V52.0344H77.8612V48.3448Z" fill="black"/>
<path d="M81.5508 48.3448H85.2405V52.0344H81.5508V48.3448Z" fill="black"/>
<path d="M85.2405 48.3448H88.9301V52.0344H85.2405V48.3448Z" fill="black"/>
<path d="M0.378418 52.0344H4.06807V55.7241H0.378418V52.0344Z" fill="black"/>
<path d="M4.06807 52.0344H7.75773V55.7241H4.06807V52.0344Z" fill="black"/>
<path d="M7.75773 52.0344H11.4474V55.7241H7.75773V52.0344Z" fill="black"/>
<path d="M18.8267 52.0344H22.5163V55.7241H18.8267V52.0344Z" fill="black"/>
<path d="M22.5163 52.0344H26.206V55.7241H22.5163V52.0344Z" fill="black"/>
<path d="M33.5853 52.0344H37.275V55.7241H33.5853V52.0344Z" fill="black"/>
<path d="M37.275 52.0344H40.9646V55.7241H37.275V52.0344Z" fill="black"/>
<path d="M48.3439 52.0344H52.0336V55.7241H48.3439V52.0344Z" fill="black"/>
<path d="M52.0336 52.0344H55.7232V55.7241H52.0336V52.0344Z" fill="black"/>
<path d="M59.4129 52.0344H63.1026V55.7241H59.4129V52.0344Z" fill="black"/>
<path d="M66.7922 52.0344H70.4819V55.7241H66.7922V52.0344Z" fill="black"/>
<path d="M70.4819 52.0344H74.1715V55.7241H70.4819V52.0344Z" fill="black"/>
<path d="M77.8612 52.0344H81.5508V55.7241H77.8612V52.0344Z" fill="black"/>
<path d="M85.2405 52.0344H88.9301V55.7241H85.2405V52.0344Z" fill="black"/>
<path d="M88.9301 52.0344H92.6198V55.7241H88.9301V52.0344Z" fill="black"/>
<path d="M0.378418 55.7241H4.06807V59.4137H0.378418V55.7241Z" fill="black"/>
<path d="M11.4474 55.7241H15.137V59.4137H11.4474V55.7241Z" fill="black"/>
<path d="M15.137 55.7241H18.8267V59.4137H15.137V55.7241Z" fill="black"/>
<path d="M18.8267 55.7241H22.5163V59.4137H18.8267V55.7241Z" fill="black"/>
<path d="M29.8957 55.7241H33.5853V59.4137H29.8957V55.7241Z" fill="black"/>
<path d="M33.5853 55.7241H37.275V59.4137H33.5853V55.7241Z" fill="black"/>
<path d="M44.6543 55.7241H48.3439V59.4137H44.6543V55.7241Z" fill="black"/>
<path d="M52.0336 55.7241H55.7232V59.4137H52.0336V55.7241Z" fill="black"/>
<path d="M55.7232 55.7241H59.4129V59.4137H55.7232V55.7241Z" fill="black"/>
<path d="M63.1026 55.7241H66.7922V59.4137H63.1026V55.7241Z" fill="black"/>
<path d="M70.4819 55.7241H74.1715V59.4137H70.4819V55.7241Z" fill="black"/>
<path d="M74.1715 55.7241H77.8612V59.4137H74.1715V55.7241Z" fill="black"/>
<path d="M77.8612 55.7241H81.5508V59.4137H77.8612V55.7241Z" fill="black"/>
<path d="M81.5508 55.7241H85.2405V59.4137H81.5508V55.7241Z" fill="black"/>
<path d="M85.2405 55.7241H88.9301V59.4137H85.2405V55.7241Z" fill="black"/>
<path d="M0.378418 59.4137H4.06807V63.1034H0.378418V59.4137Z" fill="black"/>
<path d="M7.75773 59.4137H11.4474V63.1034H7.75773V59.4137Z" fill="black"/>
<path d="M15.137 59.4137H18.8267V63.1034H15.137V59.4137Z" fill="black"/>
<path d="M18.8267 59.4137H22.5163V63.1034H18.8267V59.4137Z" fill="black"/>
<path d="M22.5163 59.4137H26.206V63.1034H22.5163V59.4137Z" fill="black"/>
<path d="M29.8957 59.4137H33.5853V63.1034H29.8957V59.4137Z" fill="black"/>
<path d="M40.9646 59.4137H44.6543V63.1034H40.9646V59.4137Z" fill="black"/>
<path d="M59.4129 59.4137H63.1026V63.1034H59.4129V59.4137Z" fill="black"/>
<path d="M63.1026 59.4137H66.7922V63.1034H63.1026V59.4137Z" fill="black"/>
<path d="M66.7922 59.4137H70.4819V63.1034H66.7922V59.4137Z" fill="black"/>
<path d="M70.4819 59.4137H74.1715V63.1034H70.4819V59.4137Z" fill="black"/>
<path d="M74.1715 59.4137H77.8612V63.1034H74.1715V59.4137Z" fill="black"/>
<path d="M81.5508 59.4137H85.2405V63.1034H81.5508V59.4137Z" fill="black"/>
<path d="M88.9301 59.4137H92.6198V63.1034H88.9301V59.4137Z" fill="black"/>
<path d="M29.8957 63.1034H33.5853V66.793H29.8957V63.1034Z" fill="black"/>
<path d="M33.5853 63.1034H37.275V66.793H33.5853V63.1034Z" fill="black"/>
<path d="M52.0336 63.1034H55.7232V66.793H52.0336V63.1034Z" fill="black"/>
<path d="M59.4129 63.1034H63.1026V66.793H59.4129V63.1034Z" fill="black"/>
<path d="M74.1715 63.1034H77.8612V66.793H74.1715V63.1034Z" fill="black"/>
<path d="M81.5508 63.1034H85.2405V66.793H81.5508V63.1034Z" fill="black"/>
<path d="M0.378418 66.793H4.06807V70.4827H0.378418V66.793Z" fill="black"/>
<path d="M4.06807 66.793H7.75773V70.4827H4.06807V66.793Z" fill="black"/>
<path d="M7.75773 66.793H11.4474V70.4827H7.75773V66.793Z" fill="black"/>
<path d="M11.4474 66.793H15.137V70.4827H11.4474V66.793Z" fill="black"/>
<path d="M15.137 66.793H18.8267V70.4827H15.137V66.793Z" fill="black"/>
<path d="M18.8267 66.793H22.5163V70.4827H18.8267V66.793Z" fill="black"/>
<path d="M22.5163 66.793H26.206V70.4827H22.5163V66.793Z" fill="black"/>
<path d="M29.8957 66.793H33.5853V70.4827H29.8957V66.793Z" fill="black"/>
<path d="M33.5853 66.793H37.275V70.4827H33.5853V66.793Z" fill="black"/>
<path d="M37.275 66.793H40.9646V70.4827H37.275V66.793Z" fill="black"/>
<path d="M40.9646 66.793H44.6543V70.4827H40.9646V66.793Z" fill="black"/>
<path d="M55.7232 66.793H59.4129V70.4827H55.7232V66.793Z" fill="black"/>
<path d="M59.4129 66.793H63.1026V70.4827H59.4129V66.793Z" fill="black"/>
<path d="M66.7922 66.793H70.4819V70.4827H66.7922V66.793Z" fill="black"/>
<path d="M74.1715 66.793H77.8612V70.4827H74.1715V66.793Z" fill="black"/>
<path d="M77.8612 66.793H81.5508V70.4827H77.8612V66.793Z" fill="black"/>
<path d="M81.5508 66.793H85.2405V70.4827H81.5508V66.793Z" fill="black"/>
<path d="M88.9301 66.793H92.6198V70.4827H88.9301V66.793Z" fill="black"/>
<path d="M0.378418 70.4827H4.06807V74.1723H0.378418V70.4827Z" fill="black"/>
<path d="M22.5163 70.4827H26.206V74.1723H22.5163V70.4827Z" fill="black"/>
<path d="M33.5853 70.4827H37.275V74.1723H33.5853V70.4827Z" fill="black"/>
<path d="M40.9646 70.4827H44.6543V74.1723H40.9646V70.4827Z" fill="black"/>
<path d="M52.0336 70.4827H55.7232V74.1723H52.0336V70.4827Z" fill="black"/>
<path d="M59.4129 70.4827H63.1026V74.1723H59.4129V70.4827Z" fill="black"/>
<path d="M74.1715 70.4827H77.8612V74.1723H74.1715V70.4827Z" fill="black"/>
<path d="M77.8612 70.4827H81.5508V74.1723H77.8612V70.4827Z" fill="black"/>
<path d="M85.2405 70.4827H88.9301V74.1723H85.2405V70.4827Z" fill="black"/>
<path d="M88.9301 70.4827H92.6198V74.1723H88.9301V70.4827Z" fill="black"/>
<path d="M0.378418 74.1723H4.06807V77.862H0.378418V74.1723Z" fill="black"/>
<path d="M7.75773 74.1723H11.4474V77.862H7.75773V74.1723Z" fill="black"/>
<path d="M11.4474 74.1723H15.137V77.862H11.4474V74.1723Z" fill="black"/>
<path d="M15.137 74.1723H18.8267V77.862H15.137V74.1723Z" fill="black"/>
<path d="M22.5163 74.1723H26.206V77.862H22.5163V74.1723Z" fill="black"/>
<path d="M29.8957 74.1723H33.5853V77.862H29.8957V74.1723Z" fill="black"/>
<path d="M33.5853 74.1723H37.275V77.862H33.5853V74.1723Z" fill="black"/>
<path d="M37.275 74.1723H40.9646V77.862H37.275V74.1723Z" fill="black"/>
<path d="M52.0336 74.1723H55.7232V77.862H52.0336V74.1723Z" fill="black"/>
<path d="M55.7232 74.1723H59.4129V77.862H55.7232V74.1723Z" fill="black"/>
<path d="M59.4129 74.1723H63.1026V77.862H59.4129V74.1723Z" fill="black"/>
<path d="M63.1026 74.1723H66.7922V77.862H63.1026V74.1723Z" fill="black"/>
<path d="M66.7922 74.1723H70.4819V77.862H66.7922V74.1723Z" fill="black"/>
<path d="M70.4819 74.1723H74.1715V77.862H70.4819V74.1723Z" fill="black"/>
<path d="M74.1715 74.1723H77.8612V77.862H74.1715V74.1723Z" fill="black"/>
<path d="M77.8612 74.1723H81.5508V77.862H77.8612V74.1723Z" fill="black"/>
<path d="M85.2405 74.1723H88.9301V77.862H85.2405V74.1723Z" fill="black"/>
<path d="M0.378418 77.862H4.06807V81.5517H0.378418V77.862Z" fill="black"/>
<path d="M7.75773 77.862H11.4474V81.5517H7.75773V77.862Z" fill="black"/>
<path d="M11.4474 77.862H15.137V81.5517H11.4474V77.862Z" fill="black"/>
<path d="M15.137 77.862H18.8267V81.5517H15.137V77.862Z" fill="black"/>
<path d="M22.5163 77.862H26.206V81.5517H22.5163V77.862Z" fill="black"/>
<path d="M29.8957 77.862H33.5853V81.5517H29.8957V77.862Z" fill="black"/>
<path d="M48.3439 77.862H52.0336V81.5517H48.3439V77.862Z" fill="black"/>
<path d="M55.7232 77.862H59.4129V81.5517H55.7232V77.862Z" fill="black"/>
<path d="M59.4129 77.862H63.1026V81.5517H59.4129V77.862Z" fill="black"/>
<path d="M63.1026 77.862H66.7922V81.5517H63.1026V77.862Z" fill="black"/>
<path d="M66.7922 77.862H70.4819V81.5517H66.7922V77.862Z" fill="black"/>
<path d="M70.4819 77.862H74.1715V81.5517H70.4819V77.862Z" fill="black"/>
<path d="M81.5508 77.862H85.2405V81.5517H81.5508V77.862Z" fill="black"/>
<path d="M88.9301 77.862H92.6198V81.5517H88.9301V77.862Z" fill="black"/>
<path d="M0.378418 81.5517H4.06807V85.2413H0.378418V81.5517Z" fill="black"/>
<path d="M7.75773 81.5517H11.4474V85.2413H7.75773V81.5517Z" fill="black"/>
<path d="M11.4474 81.5517H15.137V85.2413H11.4474V81.5517Z" fill="black"/>
<path d="M15.137 81.5517H18.8267V85.2413H15.137V81.5517Z" fill="black"/>
<path d="M22.5163 81.5517H26.206V85.2413H22.5163V81.5517Z" fill="black"/>
<path d="M33.5853 81.5517H37.275V85.2413H33.5853V81.5517Z" fill="black"/>
<path d="M44.6543 81.5517H48.3439V85.2413H44.6543V81.5517Z" fill="black"/>
<path d="M48.3439 81.5517H52.0336V85.2413H48.3439V81.5517Z" fill="black"/>
<path d="M52.0336 81.5517H55.7232V85.2413H52.0336V81.5517Z" fill="black"/>
<path d="M59.4129 81.5517H63.1026V85.2413H59.4129V81.5517Z" fill="black"/>
<path d="M63.1026 81.5517H66.7922V85.2413H63.1026V81.5517Z" fill="black"/>
<path d="M70.4819 81.5517H74.1715V85.2413H70.4819V81.5517Z" fill="black"/>
<path d="M74.1715 81.5517H77.8612V85.2413H74.1715V81.5517Z" fill="black"/>
<path d="M85.2405 81.5517H88.9301V85.2413H85.2405V81.5517Z" fill="black"/>
<path d="M88.9301 81.5517H92.6198V85.2413H88.9301V81.5517Z" fill="black"/>
<path d="M0.378418 85.2413H4.06807V88.931H0.378418V85.2413Z" fill="black"/>
<path d="M22.5163 85.2413H26.206V88.931H22.5163V85.2413Z" fill="black"/>
<path d="M33.5853 85.2413H37.275V88.931H33.5853V85.2413Z" fill="black"/>
<path d="M37.275 85.2413H40.9646V88.931H37.275V85.2413Z" fill="black"/>
<path d="M40.9646 85.2413H44.6543V88.931H40.9646V85.2413Z" fill="black"/>
<path d="M44.6543 85.2413H48.3439V88.931H44.6543V85.2413Z" fill="black"/>
<path d="M70.4819 85.2413H74.1715V88.931H70.4819V85.2413Z" fill="black"/>
<path d="M74.1715 85.2413H77.8612V88.931H74.1715V85.2413Z" fill="black"/>
<path d="M77.8612 85.2413H81.5508V88.931H77.8612V85.2413Z" fill="black"/>
<path d="M81.5508 85.2413H85.2405V88.931H81.5508V85.2413Z" fill="black"/>
<path d="M85.2405 85.2413H88.9301V88.931H85.2405V85.2413Z" fill="black"/>
<path d="M88.9301 85.2413H92.6198V88.931H88.9301V85.2413Z" fill="black"/>
<path d="M0.378418 88.931H4.06807V92.6206H0.378418V88.931Z" fill="black"/>
<path d="M4.06807 88.931H7.75773V92.6206H4.06807V88.931Z" fill="black"/>
<path d="M7.75773 88.931H11.4474V92.6206H7.75773V88.931Z" fill="black"/>
<path d="M11.4474 88.931H15.137V92.6206H11.4474V88.931Z" fill="black"/>
<path d="M15.137 88.931H18.8267V92.6206H15.137V88.931Z" fill="black"/>
<path d="M18.8267 88.931H22.5163V92.6206H18.8267V88.931Z" fill="black"/>
<path d="M22.5163 88.931H26.206V92.6206H22.5163V88.931Z" fill="black"/>
<path d="M48.3439 88.931H52.0336V92.6206H48.3439V88.931Z" fill="black"/>
<path d="M52.0336 88.931H55.7232V92.6206H52.0336V88.931Z" fill="black"/>
<path d="M59.4129 88.931H63.1026V92.6206H59.4129V88.931Z" fill="black"/>
<path d="M70.4819 88.931H74.1715V92.6206H70.4819V88.931Z" fill="black"/>
<path d="M74.1715 88.931H77.8612V92.6206H74.1715V88.931Z" fill="black"/>
<path d="M88.9301 88.931H92.6198V92.6206H88.9301V88.931Z" fill="black"/>
<path d="M4.06807 0.379242H0.378418V4.0689M4.06807 0.379242V4.0689M4.06807 0.379242H7.75773M4.06807 4.0689H0.378418M4.06807 4.0689H7.75773M4.06807 4.0689V7.75855M0.378418 4.0689V7.75855M7.75773 0.379242V4.0689M7.75773 0.379242H11.4474M7.75773 4.0689H11.4474M11.4474 0.379242V4.0689M11.4474 0.379242H15.137M11.4474 4.0689H15.137M15.137 0.379242V4.0689M15.137 0.379242H18.8267M15.137 4.0689H18.8267M18.8267 0.379242V4.0689M18.8267 0.379242H22.5163M18.8267 4.0689H22.5163M22.5163 0.379242V4.0689M22.5163 0.379242H26.206V4.0689M22.5163 4.0689H26.206M22.5163 4.0689V7.75855M26.206 4.0689V7.75855M48.3439 4.0689V0.379242H44.6543V4.0689M48.3439 4.0689H44.6543M48.3439 4.0689V7.75855M48.3439 4.0689H52.0336M44.6543 4.0689V7.75855M59.4129 0.379242H55.7232V4.0689M59.4129 0.379242V4.0689M59.4129 0.379242H63.1026V4.0689M59.4129 4.0689H55.7232M59.4129 4.0689H63.1026M59.4129 4.0689V7.75855M55.7232 4.0689H52.0336M55.7232 4.0689V7.75855M63.1026 4.0689V7.75855M70.4819 0.379242H66.7922V4.0689M70.4819 0.379242V4.0689M70.4819 0.379242H74.1715M70.4819 4.0689H66.7922M70.4819 4.0689H74.1715M70.4819 4.0689V7.75855M66.7922 4.0689V7.75855M74.1715 0.379242V4.0689M74.1715 0.379242H77.8612M74.1715 4.0689H77.8612M77.8612 0.379242V4.0689M77.8612 0.379242H81.5508M77.8612 4.0689H81.5508M81.5508 0.379242V4.0689M81.5508 0.379242H85.2405M81.5508 4.0689H85.2405M85.2405 0.379242V4.0689M85.2405 0.379242H88.9301M85.2405 4.0689H88.9301M88.9301 0.379242V4.0689M88.9301 0.379242H92.6198V4.0689M88.9301 4.0689H92.6198M88.9301 4.0689V7.75855M92.6198 4.0689V7.75855M4.06807 7.75855H0.378418M4.06807 7.75855V11.4482M0.378418 7.75855V11.4482M26.206 7.75855H22.5163M26.206 7.75855V11.4482M22.5163 7.75855V11.4482M40.9646 7.75855V4.0689H37.275V7.75855M40.9646 7.75855H37.275M40.9646 7.75855H44.6543M40.9646 7.75855V11.4482H44.6543V7.75855M37.275 7.75855H33.5853M37.275 7.75855V11.4482H33.5853M48.3439 7.75855H44.6543M48.3439 7.75855H52.0336M48.3439 7.75855V11.4482M52.0336 4.0689V7.75855M52.0336 7.75855H55.7232M52.0336 7.75855V11.4482M55.7232 7.75855H59.4129M55.7232 7.75855V11.4482M63.1026 7.75855H59.4129M63.1026 7.75855V11.4482H59.4129M59.4129 7.75855V11.4482M70.4819 7.75855H66.7922M70.4819 7.75855V11.4482M66.7922 7.75855V11.4482M92.6198 7.75855H88.9301M92.6198 7.75855V11.4482M88.9301 7.75855V11.4482M4.06807 11.4482H0.378418M4.06807 11.4482V15.1379M0.378418 11.4482V15.1379M11.4474 7.75855H7.75773V11.4482M11.4474 7.75855V11.4482M11.4474 7.75855H15.137M11.4474 11.4482H7.75773M11.4474 11.4482H15.137M11.4474 11.4482V15.1379M7.75773 11.4482V15.1379M15.137 7.75855V11.4482M15.137 7.75855H18.8267V11.4482M15.137 11.4482H18.8267M15.137 11.4482V15.1379M18.8267 11.4482V15.1379M26.206 11.4482H22.5163M26.206 11.4482V15.1379M22.5163 11.4482V15.1379M33.5853 7.75855H29.8957V11.4482M33.5853 7.75855V11.4482M33.5853 11.4482H29.8957M33.5853 11.4482V15.1379H29.8957V11.4482M52.0336 11.4482H48.3439M52.0336 11.4482V15.1379M52.0336 11.4482H55.7232M48.3439 11.4482V15.1379M59.4129 11.4482H55.7232M55.7232 11.4482V15.1379M70.4819 11.4482H66.7922M70.4819 11.4482V15.1379M66.7922 11.4482V15.1379M77.8612 7.75855H74.1715V11.4482M77.8612 7.75855V11.4482M77.8612 7.75855H81.5508M77.8612 11.4482H74.1715M77.8612 11.4482H81.5508M77.8612 11.4482V15.1379M74.1715 11.4482V15.1379M81.5508 7.75855V11.4482M81.5508 7.75855H85.2405V11.4482M81.5508 11.4482H85.2405M81.5508 11.4482V15.1379M85.2405 11.4482V15.1379M92.6198 11.4482H88.9301M92.6198 11.4482V15.1379M88.9301 11.4482V15.1379M4.06807 15.1379H0.378418M4.06807 15.1379V18.8275M0.378418 15.1379V18.8275M11.4474 15.1379H7.75773M11.4474 15.1379H15.137M11.4474 15.1379V18.8275M7.75773 15.1379V18.8275H11.4474M15.137 15.1379H18.8267M15.137 15.1379V18.8275M18.8267 15.1379V18.8275H15.137M26.206 15.1379H22.5163M26.206 15.1379V18.8275M22.5163 15.1379V18.8275M52.0336 15.1379H48.3439M52.0336 15.1379H55.7232M52.0336 15.1379V18.8275M48.3439 15.1379H44.6543M48.3439 15.1379V18.8275M55.7232 15.1379V18.8275H52.0336M70.4819 15.1379H66.7922M70.4819 15.1379V18.8275M66.7922 15.1379V18.8275M77.8612 15.1379H74.1715M77.8612 15.1379H81.5508M77.8612 15.1379V18.8275M74.1715 15.1379V18.8275H77.8612M81.5508 15.1379H85.2405M81.5508 15.1379V18.8275M85.2405 15.1379V18.8275H81.5508M92.6198 15.1379H88.9301M92.6198 15.1379V18.8275M88.9301 15.1379V18.8275M4.06807 18.8275H0.378418M4.06807 18.8275V22.5172M0.378418 18.8275V22.5172M11.4474 18.8275H15.137M26.206 18.8275H22.5163M26.206 18.8275V22.5172M22.5163 18.8275V22.5172M44.6543 15.1379H40.9646V18.8275H44.6543M44.6543 15.1379V18.8275M44.6543 18.8275H48.3439M44.6543 18.8275V22.5172M48.3439 18.8275H52.0336M48.3439 18.8275V22.5172M70.4819 18.8275H66.7922M70.4819 18.8275V22.5172M66.7922 18.8275V22.5172M77.8612 18.8275H81.5508M92.6198 18.8275H88.9301M92.6198 18.8275V22.5172M88.9301 18.8275V22.5172M4.06807 22.5172H0.378418M4.06807 22.5172V26.2068M4.06807 22.5172H7.75773M0.378418 22.5172V26.2068H4.06807M26.206 22.5172H22.5163M26.206 22.5172V26.2068H22.5163M22.5163 22.5172H18.8267M22.5163 22.5172V26.2068M37.275 22.5172V18.8275H33.5853V22.5172M37.275 22.5172H33.5853M37.275 22.5172H40.9646V26.2068M37.275 22.5172V26.2068M33.5853 22.5172H29.8957V26.2068H33.5853M33.5853 22.5172V26.2068M48.3439 22.5172H44.6543M48.3439 22.5172V26.2068H44.6543M44.6543 22.5172V26.2068M63.1026 22.5172V18.8275H59.4129V22.5172M63.1026 22.5172H59.4129M63.1026 22.5172V26.2068H59.4129V22.5172M70.4819 22.5172H66.7922M70.4819 22.5172V26.2068M70.4819 22.5172H74.1715M66.7922 22.5172V26.2068H70.4819M92.6198 22.5172H88.9301M92.6198 22.5172V26.2068H88.9301M88.9301 22.5172H85.2405M88.9301 22.5172V26.2068M4.06807 26.2068H7.75773M7.75773 22.5172V26.2068M7.75773 22.5172H11.4474M7.75773 26.2068H11.4474M11.4474 22.5172V26.2068M11.4474 22.5172H15.137M11.4474 26.2068H15.137M15.137 22.5172V26.2068M15.137 22.5172H18.8267M15.137 26.2068H18.8267M18.8267 22.5172V26.2068M18.8267 26.2068H22.5163M33.5853 26.2068H37.275M33.5853 26.2068V29.8965H37.275M40.9646 26.2068H37.275M40.9646 26.2068V29.8965M40.9646 26.2068H44.6543M37.275 26.2068V29.8965M44.6543 26.2068V29.8965M55.7232 26.2068V22.5172H52.0336V26.2068M55.7232 26.2068H52.0336M55.7232 26.2068V29.8965M52.0336 26.2068V29.8965M70.4819 26.2068H74.1715M74.1715 22.5172V26.2068M74.1715 22.5172H77.8612M74.1715 26.2068H77.8612M77.8612 22.5172V26.2068M77.8612 22.5172H81.5508M77.8612 26.2068H81.5508M81.5508 22.5172V26.2068M81.5508 22.5172H85.2405M81.5508 26.2068H85.2405M85.2405 22.5172V26.2068M85.2405 26.2068H88.9301M37.275 29.8965H40.9646M40.9646 29.8965H44.6543M40.9646 29.8965V33.5861M44.6543 29.8965V33.5861M44.6543 29.8965H48.3439V33.5861M55.7232 29.8965H52.0336M55.7232 29.8965V33.5861M52.0336 29.8965V33.5861M15.137 29.8965H11.4474V33.5861M15.137 29.8965V33.5861M15.137 29.8965H18.8267V33.5861M15.137 33.5861H11.4474M15.137 33.5861H18.8267M15.137 33.5861V37.2758M11.4474 33.5861H7.75773M11.4474 33.5861V37.2758M18.8267 33.5861V37.2758M18.8267 33.5861H22.5163M26.206 29.8965H22.5163V33.5861M26.206 29.8965V33.5861M26.206 29.8965H29.8957V33.5861M26.206 33.5861H22.5163M26.206 33.5861H29.8957M22.5163 33.5861V37.2758M29.8957 33.5861H33.5853V37.2758H29.8957V33.5861ZM44.6543 33.5861H40.9646M44.6543 33.5861H48.3439M44.6543 33.5861V37.2758M40.9646 33.5861V37.2758H44.6543M48.3439 33.5861V37.2758H44.6543M55.7232 33.5861H52.0336M55.7232 33.5861V37.2758M52.0336 33.5861V37.2758M81.5508 29.8965H77.8612V33.5861M81.5508 29.8965V33.5861M81.5508 29.8965H85.2405V33.5861M81.5508 33.5861H77.8612M81.5508 33.5861H85.2405M81.5508 33.5861V37.2758M77.8612 33.5861H74.1715V37.2758M77.8612 33.5861V37.2758M85.2405 33.5861V37.2758M85.2405 33.5861H88.9301V37.2758M4.06807 33.5861H0.378418V37.2758H4.06807M4.06807 33.5861V37.2758M4.06807 33.5861H7.75773M4.06807 37.2758H7.75773M7.75773 33.5861V37.2758M7.75773 37.2758H11.4474M11.4474 37.2758H15.137M15.137 37.2758H18.8267M15.137 37.2758V40.9654M18.8267 37.2758H22.5163M18.8267 37.2758V40.9654M22.5163 37.2758V40.9654M22.5163 37.2758H26.206V40.9654M55.7232 37.2758H52.0336M55.7232 37.2758V40.9654M55.7232 37.2758H59.4129V40.9654M52.0336 37.2758V40.9654M77.8612 37.2758H74.1715M77.8612 37.2758H81.5508M74.1715 37.2758H70.4819V40.9654M74.1715 37.2758V40.9654M81.5508 37.2758H85.2405M81.5508 37.2758V40.9654M85.2405 37.2758H88.9301M85.2405 37.2758V40.9654M88.9301 37.2758H92.6198V40.9654H88.9301V37.2758ZM18.8267 40.9654H15.137M18.8267 40.9654H22.5163M15.137 40.9654H11.4474M15.137 40.9654V44.6551M22.5163 40.9654H26.206M26.206 40.9654H29.8957M26.206 40.9654V44.6551M55.7232 40.9654H52.0336M55.7232 40.9654H59.4129M55.7232 40.9654V44.6551H59.4129M52.0336 40.9654H48.3439M52.0336 40.9654V44.6551M59.4129 40.9654V44.6551M74.1715 40.9654H70.4819M74.1715 40.9654V44.6551M74.1715 40.9654H77.8612V44.6551M70.4819 40.9654V44.6551M85.2405 40.9654H81.5508M85.2405 40.9654V44.6551H81.5508M81.5508 40.9654V44.6551M7.75773 40.9654H4.06807V44.6551M7.75773 40.9654V44.6551M7.75773 40.9654H11.4474M7.75773 44.6551H4.06807M7.75773 44.6551H11.4474M4.06807 44.6551H0.378418V48.3448M4.06807 44.6551V48.3448M11.4474 40.9654V44.6551M11.4474 44.6551H15.137M11.4474 44.6551V48.3448H15.137M15.137 44.6551V48.3448M15.137 44.6551H18.8267V48.3448M29.8957 40.9654V44.6551M29.8957 40.9654H33.5853V44.6551M29.8957 44.6551H26.206M29.8957 44.6551H33.5853M26.206 44.6551H22.5163V48.3448H26.206M26.206 44.6551V48.3448M33.5853 44.6551H37.275V48.3448M33.5853 44.6551V48.3448M44.6543 40.9654H40.9646V44.6551H44.6543M44.6543 40.9654V44.6551M44.6543 40.9654H48.3439M44.6543 44.6551H48.3439M44.6543 44.6551V48.3448M48.3439 40.9654V44.6551M48.3439 44.6551H52.0336M48.3439 44.6551V48.3448M52.0336 44.6551V48.3448M59.4129 44.6551H63.1026M59.4129 44.6551V48.3448M66.7922 44.6551V40.9654H63.1026V44.6551M66.7922 44.6551H63.1026M66.7922 44.6551H70.4819M66.7922 44.6551V48.3448H70.4819M63.1026 44.6551V48.3448M74.1715 44.6551H70.4819M74.1715 44.6551H77.8612M74.1715 44.6551V48.3448M70.4819 44.6551V48.3448M77.8612 44.6551H81.5508M77.8612 44.6551V48.3448M81.5508 44.6551V48.3448M4.06807 48.3448H0.378418M4.06807 48.3448V52.0344M4.06807 48.3448H7.75773V52.0344M0.378418 48.3448V52.0344M15.137 48.3448H18.8267M15.137 48.3448V52.0344H18.8267M18.8267 48.3448V52.0344M26.206 48.3448H29.8957V52.0344H26.206M26.206 48.3448V52.0344M37.275 48.3448H33.5853M37.275 48.3448V52.0344M37.275 48.3448H40.9646M33.5853 48.3448V52.0344M48.3439 48.3448H44.6543M48.3439 48.3448H52.0336M48.3439 48.3448V52.0344M44.6543 48.3448H40.9646M44.6543 48.3448V52.0344H40.9646M52.0336 48.3448V52.0344M52.0336 48.3448H55.7232V52.0344M63.1026 48.3448H59.4129M63.1026 48.3448V52.0344M59.4129 48.3448V52.0344M70.4819 48.3448H74.1715M74.1715 48.3448H77.8612M74.1715 48.3448V52.0344M81.5508 48.3448H77.8612M81.5508 48.3448V52.0344M81.5508 48.3448H85.2405M77.8612 48.3448V52.0344M88.9301 48.3448H92.6198V44.6551H88.9301V48.3448ZM88.9301 48.3448H85.2405M88.9301 48.3448V52.0344M4.06807 52.0344H0.378418M4.06807 52.0344H7.75773M4.06807 52.0344V55.7241M0.378418 52.0344V55.7241M7.75773 52.0344V55.7241M7.75773 52.0344H11.4474V55.7241M18.8267 52.0344H22.5163M18.8267 52.0344V55.7241M26.206 52.0344H22.5163M26.206 52.0344V55.7241H22.5163M37.275 52.0344H33.5853M37.275 52.0344H40.9646M37.275 52.0344V55.7241M33.5853 52.0344V55.7241M40.9646 48.3448V52.0344M40.9646 52.0344V55.7241H37.275M52.0336 52.0344H48.3439M52.0336 52.0344H55.7232M52.0336 52.0344V55.7241M48.3439 52.0344V55.7241M55.7232 52.0344V55.7241M63.1026 52.0344H59.4129M63.1026 52.0344V55.7241M59.4129 52.0344V55.7241M77.8612 52.0344H74.1715M77.8612 52.0344H81.5508M77.8612 52.0344V55.7241M74.1715 52.0344H70.4819M74.1715 52.0344V55.7241M81.5508 52.0344H85.2405M81.5508 52.0344V55.7241M85.2405 48.3448V52.0344M85.2405 52.0344H88.9301M85.2405 52.0344V55.7241M88.9301 52.0344V55.7241M88.9301 52.0344H92.6198V55.7241H88.9301M4.06807 55.7241H0.378418M4.06807 55.7241H7.75773M4.06807 55.7241V59.4137M0.378418 55.7241V59.4137M7.75773 55.7241H11.4474M11.4474 55.7241H15.137M11.4474 55.7241V59.4137M22.5163 52.0344V55.7241M22.5163 55.7241H18.8267M22.5163 55.7241V59.4137M18.8267 55.7241H15.137M18.8267 55.7241V59.4137M37.275 55.7241H33.5853M37.275 55.7241V59.4137H33.5853M33.5853 55.7241H29.8957V59.4137M33.5853 55.7241V59.4137M52.0336 55.7241H48.3439M52.0336 55.7241H55.7232M52.0336 55.7241V59.4137H55.7232M48.3439 55.7241H44.6543V59.4137M48.3439 55.7241V59.4137H44.6543M55.7232 55.7241V59.4137M55.7232 55.7241H59.4129M63.1026 55.7241H59.4129M63.1026 55.7241H66.7922M63.1026 55.7241V59.4137M59.4129 55.7241V59.4137M70.4819 52.0344H66.7922V55.7241M70.4819 52.0344V55.7241M70.4819 55.7241H66.7922M70.4819 55.7241H74.1715M70.4819 55.7241V59.4137M66.7922 55.7241V59.4137M74.1715 55.7241V59.4137M74.1715 55.7241H77.8612M81.5508 55.7241H77.8612M81.5508 55.7241V59.4137M81.5508 55.7241H85.2405M77.8612 55.7241V59.4137M88.9301 55.7241H85.2405M88.9301 55.7241V59.4137M85.2405 55.7241V59.4137M4.06807 59.4137H0.378418M4.06807 59.4137V63.1034H0.378418V59.4137M15.137 55.7241V59.4137M15.137 59.4137H11.4474M15.137 59.4137H18.8267M15.137 59.4137V63.1034H18.8267M11.4474 59.4137H7.75773V63.1034H11.4474V59.4137ZM18.8267 59.4137H22.5163M18.8267 59.4137V63.1034M22.5163 59.4137V63.1034M22.5163 59.4137H26.206V63.1034H22.5163M33.5853 59.4137H29.8957M33.5853 59.4137V63.1034M29.8957 59.4137V63.1034M44.6543 59.4137H40.9646V63.1034H44.6543V59.4137ZM55.7232 59.4137H59.4129M59.4129 59.4137H63.1026M59.4129 59.4137V63.1034M66.7922 59.4137H63.1026M66.7922 59.4137V63.1034M66.7922 59.4137H70.4819M63.1026 59.4137V63.1034M74.1715 59.4137H70.4819M74.1715 59.4137H77.8612M74.1715 59.4137V63.1034M70.4819 59.4137V63.1034M77.8612 59.4137H81.5508M77.8612 59.4137V63.1034M81.5508 59.4137H85.2405M81.5508 59.4137V63.1034M85.2405 59.4137H88.9301M85.2405 59.4137V63.1034M88.9301 59.4137H92.6198V63.1034H88.9301V59.4137ZM18.8267 63.1034H22.5163M33.5853 63.1034H29.8957M33.5853 63.1034V66.793M33.5853 63.1034H37.275V66.793M29.8957 63.1034V66.793M63.1026 63.1034H59.4129M63.1026 63.1034H66.7922M63.1026 63.1034V66.793M59.4129 63.1034V66.793M66.7922 63.1034H70.4819M70.4819 63.1034H74.1715M74.1715 63.1034H77.8612M74.1715 63.1034V66.793M77.8612 63.1034V66.793M85.2405 63.1034H81.5508M85.2405 63.1034V66.793M81.5508 63.1034V66.793M33.5853 66.793H29.8957M33.5853 66.793H37.275M33.5853 66.793V70.4827M29.8957 66.793V70.4827H33.5853M37.275 66.793V70.4827M37.275 66.793H40.9646M55.7232 66.793V63.1034H52.0336V66.793H55.7232ZM55.7232 66.793H59.4129M55.7232 66.793V70.4827M63.1026 66.793H59.4129M63.1026 66.793V70.4827M59.4129 66.793V70.4827M77.8612 66.793H74.1715M77.8612 66.793V70.4827M77.8612 66.793H81.5508M74.1715 66.793V70.4827M85.2405 66.793H81.5508M85.2405 66.793V70.4827M81.5508 66.793V70.4827M4.06807 66.793H0.378418V70.4827M4.06807 66.793V70.4827M4.06807 66.793H7.75773M4.06807 70.4827H0.378418M4.06807 70.4827H7.75773M4.06807 70.4827V74.1723M0.378418 70.4827V74.1723M7.75773 66.793V70.4827M7.75773 66.793H11.4474M7.75773 70.4827H11.4474M11.4474 66.793V70.4827M11.4474 66.793H15.137M11.4474 70.4827H15.137M15.137 66.793V70.4827M15.137 66.793H18.8267M15.137 70.4827H18.8267M18.8267 66.793V70.4827M18.8267 66.793H22.5163M18.8267 70.4827H22.5163M22.5163 66.793V70.4827M22.5163 66.793H26.206V70.4827M22.5163 70.4827H26.206M22.5163 70.4827V74.1723M26.206 70.4827V74.1723M33.5853 70.4827H37.275M33.5853 70.4827V74.1723M37.275 70.4827H40.9646M37.275 70.4827V74.1723M40.9646 66.793V70.4827M40.9646 66.793H44.6543V70.4827M40.9646 70.4827H44.6543M40.9646 70.4827V74.1723M44.6543 70.4827V74.1723H40.9646M59.4129 70.4827H55.7232M59.4129 70.4827H63.1026M59.4129 70.4827V74.1723M55.7232 70.4827H52.0336V74.1723M55.7232 70.4827V74.1723M63.1026 70.4827V74.1723M77.8612 70.4827H74.1715M77.8612 70.4827H81.5508M77.8612 70.4827V74.1723M74.1715 70.4827V74.1723M81.5508 70.4827H85.2405M81.5508 70.4827V74.1723M85.2405 70.4827H88.9301M85.2405 70.4827V74.1723M92.6198 70.4827V66.793H88.9301V70.4827M92.6198 70.4827H88.9301M92.6198 70.4827V74.1723H88.9301M88.9301 70.4827V74.1723M4.06807 74.1723H0.378418M4.06807 74.1723V77.862M0.378418 74.1723V77.862M26.206 74.1723H22.5163M26.206 74.1723V77.862M22.5163 74.1723V77.862M37.275 74.1723H33.5853M37.275 74.1723V77.862M37.275 74.1723H40.9646M33.5853 74.1723H29.8957V77.862M33.5853 74.1723V77.862M40.9646 74.1723V77.862H37.275M55.7232 74.1723H52.0336M55.7232 74.1723V77.862M55.7232 74.1723H59.4129M52.0336 74.1723V77.862M63.1026 74.1723H59.4129M63.1026 74.1723V77.862M63.1026 74.1723H66.7922M59.4129 74.1723V77.862M77.8612 74.1723H74.1715M77.8612 74.1723H81.5508M77.8612 74.1723V77.862M74.1715 74.1723H70.4819M74.1715 74.1723V77.862M81.5508 74.1723V77.862M88.9301 74.1723H85.2405M88.9301 74.1723V77.862M85.2405 74.1723V77.862M4.06807 77.862H0.378418M4.06807 77.862V81.5517M0.378418 77.862V81.5517M11.4474 74.1723H7.75773V77.862M11.4474 74.1723V77.862M11.4474 74.1723H15.137M11.4474 77.862H7.75773M11.4474 77.862H15.137M11.4474 77.862V81.5517M7.75773 77.862V81.5517M15.137 74.1723V77.862M15.137 74.1723H18.8267V77.862M15.137 77.862H18.8267M15.137 77.862V81.5517M18.8267 77.862V81.5517M26.206 77.862H22.5163M26.206 77.862V81.5517M22.5163 77.862V81.5517M33.5853 77.862H29.8957M33.5853 77.862H37.275M33.5853 77.862V81.5517M29.8957 77.862V81.5517H33.5853M55.7232 77.862H52.0336M55.7232 77.862H59.4129M55.7232 77.862V81.5517M52.0336 77.862H48.3439V81.5517M52.0336 77.862V81.5517M59.4129 77.862H63.1026M59.4129 77.862V81.5517M63.1026 77.862H66.7922M63.1026 77.862V81.5517M66.7922 74.1723V77.862M66.7922 74.1723H70.4819M66.7922 77.862H70.4819M66.7922 77.862V81.5517M70.4819 74.1723V77.862M70.4819 77.862H74.1715M70.4819 77.862V81.5517M74.1715 77.862H77.8612M74.1715 77.862V81.5517M77.8612 77.862H81.5508M81.5508 77.862H85.2405M81.5508 77.862V81.5517H85.2405M88.9301 77.862H85.2405M88.9301 77.862H92.6198V81.5517M88.9301 77.862V81.5517M85.2405 77.862V81.5517M4.06807 81.5517H0.378418M4.06807 81.5517V85.2413M0.378418 81.5517V85.2413M11.4474 81.5517H7.75773M11.4474 81.5517H15.137M11.4474 81.5517V85.2413M7.75773 81.5517V85.2413H11.4474M15.137 81.5517H18.8267M15.137 81.5517V85.2413M18.8267 81.5517V85.2413H15.137M26.206 81.5517H22.5163M26.206 81.5517V85.2413M22.5163 81.5517V85.2413M33.5853 81.5517H37.275V85.2413M33.5853 81.5517V85.2413M52.0336 81.5517H48.3439M52.0336 81.5517V85.2413M52.0336 81.5517H55.7232M48.3439 81.5517H44.6543V85.2413M48.3439 81.5517V85.2413M59.4129 81.5517H55.7232M59.4129 81.5517H63.1026M59.4129 81.5517V85.2413H63.1026M55.7232 81.5517V85.2413H52.0336M63.1026 81.5517H66.7922M63.1026 81.5517V85.2413M66.7922 81.5517H70.4819M66.7922 81.5517V85.2413H63.1026M70.4819 81.5517H74.1715M70.4819 81.5517V85.2413M74.1715 81.5517V85.2413M74.1715 81.5517H77.8612V85.2413M85.2405 81.5517H88.9301M85.2405 81.5517V85.2413M92.6198 81.5517H88.9301M92.6198 81.5517V85.2413M88.9301 81.5517V85.2413M4.06807 85.2413H0.378418M4.06807 85.2413V88.931M0.378418 85.2413V88.931M11.4474 85.2413H15.137M26.206 85.2413H22.5163M26.206 85.2413V88.931M22.5163 85.2413V88.931M37.275 85.2413H33.5853M37.275 85.2413V88.931M37.275 85.2413H40.9646M33.5853 85.2413V88.931H37.275M48.3439 85.2413H44.6543M48.3439 85.2413H52.0336M48.3439 85.2413V88.931M44.6543 85.2413H40.9646M44.6543 85.2413V88.931M74.1715 85.2413H70.4819M74.1715 85.2413H77.8612M74.1715 85.2413V88.931M70.4819 85.2413V88.931M77.8612 85.2413V88.931M77.8612 85.2413H81.5508M88.9301 85.2413H85.2405M88.9301 85.2413H92.6198M88.9301 85.2413V88.931M85.2405 85.2413H81.5508M85.2405 85.2413V88.931M92.6198 85.2413V88.931M4.06807 88.931H0.378418M4.06807 88.931V92.6206M4.06807 88.931H7.75773M0.378418 88.931V92.6206H4.06807M26.206 88.931H22.5163M26.206 88.931V92.6206H22.5163M22.5163 88.931H18.8267M22.5163 88.931V92.6206M37.275 88.931H40.9646M40.9646 85.2413V88.931M40.9646 88.931H44.6543M44.6543 88.931H48.3439M48.3439 88.931H52.0336M48.3439 88.931V92.6206H52.0336M74.1715 88.931H70.4819M74.1715 88.931H77.8612M74.1715 88.931V92.6206M70.4819 88.931V92.6206H74.1715M77.8612 88.931H81.5508M77.8612 88.931V92.6206H74.1715M81.5508 85.2413V88.931M81.5508 88.931H85.2405M85.2405 88.931H88.9301M88.9301 88.931H92.6198M88.9301 88.931V92.6206H92.6198V88.931M4.06807 92.6206H7.75773M7.75773 88.931V92.6206M7.75773 88.931H11.4474M7.75773 92.6206H11.4474M11.4474 88.931V92.6206M11.4474 88.931H15.137M11.4474 92.6206H15.137M15.137 88.931V92.6206M15.137 88.931H18.8267M15.137 92.6206H18.8267M18.8267 88.931V92.6206M18.8267 92.6206H22.5163M52.0336 88.931V92.6206M52.0336 88.931H55.7232V92.6206H52.0336M66.7922 66.793H70.4819V70.4827H66.7922V66.793ZM59.4129 88.931H63.1026V92.6206H59.4129V88.931Z" stroke="black" stroke-width="0.214"/>
</svg>
