<svg width="40" height="40" viewBox="0 0 40 40" fill="none" xmlns="http://www.w3.org/2000/svg">
<path d="M6.6665 23.3333H10.6579C11.1481 23.3333 11.6316 23.4438 12.0701 23.656L15.4734 25.3026C15.9119 25.5148 16.3954 25.6251 16.8857 25.6251H18.6233C20.304 25.6251 21.6665 26.9436 21.6665 28.57C21.6665 28.6356 21.6215 28.6935 21.5562 28.7115L17.3213 29.8825C16.5616 30.0925 15.7482 30.0193 15.0415 29.6773L11.4034 27.9171" stroke="#FF0E04" stroke-width="2.5" stroke-linecap="round" stroke-linejoin="round"/>
<path d="M21.6665 27.5L29.3212 25.1482C30.6782 24.7254 32.145 25.2267 32.995 26.4039C33.6097 27.2549 33.3593 28.4737 32.464 28.9904L19.938 36.2175C19.1413 36.6772 18.2013 36.7894 17.3252 36.5294L6.6665 33.3665" stroke="#FF0E04" stroke-width="2.5" stroke-linecap="round" stroke-linejoin="round"/>
<path d="M25 20H21.6667C18.524 20 16.9527 20 15.9763 19.0236C15 18.0473 15 16.476 15 13.3333V9.99998C15 6.85728 15 5.28593 15.9763 4.30963C16.9527 3.33331 18.524 3.33331 21.6667 3.33331H25C28.1427 3.33331 29.714 3.33331 30.6903 4.30963C31.6667 5.28593 31.6667 6.85728 31.6667 9.99998V13.3333C31.6667 16.476 31.6667 18.0473 30.6903 19.0236C29.714 20 28.1427 20 25 20Z" stroke="#FF0E04" stroke-opacity="0.5" stroke-width="2.5" stroke-linecap="round" stroke-linejoin="round"/>
<path d="M21.6665 8.33331H24.9998" stroke="#FF0E04" stroke-width="2.5" stroke-linecap="round" stroke-linejoin="round"/>
</svg>
