<svg width="133" height="118" viewBox="0 0 133 118" fill="none" xmlns="http://www.w3.org/2000/svg">
<path fill-rule="evenodd" clip-rule="evenodd" d="M70.6909 25.9536H70.6924L71.0785 25.6571L71.1995 25.5635L71.7113 25.1702L72.0966 24.8737L72.2279 24.773L72.7476 24.3734L73.1312 24.0777L73.2712 23.9699L73.7995 23.5633L74.1816 23.2691L74.3309 23.1543L74.8663 22.7429L75.2461 22.4503L75.4049 22.3284L75.9466 21.9116L76.3232 21.6221L76.4914 21.4923L77.0394 21.0707L77.4128 20.7837L77.5905 20.6476L78.144 20.2228L78.5135 19.9397L78.7006 19.7965L79.2588 19.3687L79.6228 19.0894L79.8194 18.9392L80.3823 18.5082L80.7416 18.2337L80.9476 18.0764L81.5136 17.643L81.8674 17.3732L82.082 17.2088L82.652 16.7746L83.0003 16.5096L83.2236 16.3397L83.7959 15.9047L84.1372 15.6459L84.3699 15.4698L84.9446 15.034L85.2787 14.7815C86.0256 14.2168 86.7748 13.6536 87.5241 13.0912L87.5697 13.0566L87.8276 12.8639L88.4054 12.4313L88.7167 12.1985L88.9825 12.0003L89.5603 11.5709L89.8638 11.3459L90.1374 11.143L90.7145 10.7167L91.0093 10.4988L91.2907 10.2912L91.8662 9.86799L92.1524 9.65798L92.4409 9.4464C93.088 8.9729 93.7334 8.50333 94.3758 8.03849L94.4269 8.00152L94.7288 7.78365C95.3585 7.32981 95.9843 6.88148 96.6062 6.43787L96.7595 6.32932L97.7745 5.61042L97.8146 5.58211L98.839 4.86399L98.9789 4.76646L99.9059 4.12385L100.094 3.99407L101.043 3.3436L101.125 3.28854L102.103 2.62549L102.212 2.55312L103.01 2.01827L103.199 1.89243L103.272 1.84445C103.926 1.41106 104.57 0.989473 105.206 0.581256L105.354 0.485298L106.115 0L53.4811 24.4906C52.3788 24.4647 51.2703 24.4521 50.1578 24.4521C1.5694 24.4537 -37.8205 48.9734 -37.8205 79.22C-37.8205 88.7568 -33.9029 97.7234 -27.0166 105.532H-27.0198L-38.1767 137.339C-38.1767 137.339 -42.625 149.15 -30.8423 159C-33.4996 152.951 -34.1293 146.426 -28.6582 141.65C-28.4546 141.472 -28.2431 141.293 -28.0253 141.111L-27.9852 141.078C-27.78 140.907 -27.5701 140.736 -27.3524 140.563L-27.2863 140.51C-27.063 140.332 -26.8342 140.153 -26.5984 139.972L-26.5897 139.965L-26.5803 139.958L-26.5465 139.933C-26.3138 139.753 -26.0756 139.574 -25.8311 139.392L-25.765 139.343C-25.5237 139.164 -25.276 138.984 -25.0244 138.802L-24.9655 138.759C-24.7044 138.571 -24.4379 138.382 -24.1659 138.192L-24.1447 138.177L-24.1054 138.15C-23.8333 137.96 -23.5558 137.769 -23.2736 137.576L-23.2421 137.554C-22.9638 137.365 -22.6808 137.173 -22.393 136.981L-22.3105 136.927C-22.0204 136.734 -21.7256 136.539 -21.4268 136.344L-21.3898 136.32L-21.3442 136.29C-21.0549 136.102 -20.7617 135.913 -20.4645 135.723L-20.3426 135.645C-20.058 135.463 -19.7703 135.282 -19.4778 135.098L-19.3984 135.047L-19.3001 134.986L-18.4133 134.435L-18.3599 134.402L-18.326 134.381C-17.6672 133.975 -16.9927 133.566 -16.3047 133.155L-16.208 133.097L-16.1168 133.042L-15.1687 132.48H-15.1671L-15.0956 132.438L-14.9391 132.346L-14.2025 131.914L-13.9627 131.774L-13.877 131.724L-12.9296 131.176L-12.8093 131.107L-12.7276 131.06L-11.7291 130.489L-11.6387 130.437L-11.5986 130.415L-10.5089 129.798L-10.4515 129.766L-10.2078 129.629L-9.35792 129.153L-9.24943 129.092L-9.18024 129.054L-9.11263 129.016L-8.14247 128.477L-8.03397 128.418L-8.02611 128.413L-6.82952 127.755L-6.80672 127.741L-6.57008 127.612L-6.04254 127.323L-5.56846 127.065L-5.51264 127.035L-4.98117 126.747L-4.44814 126.458L-4.32077 126.389L-3.91352 126.169L-3.37812 125.881L-3.066 125.713L-2.84194 125.592L-2.30339 125.304L-1.80495 125.039L-1.76485 125.017L-1.22552 124.73L-0.685406 124.443L-0.540745 124.366L-0.145294 124.157L-0.142147 124.154H-0.139786C15.3545 115.95 31.3418 108.261 35.0275 105.187C39.8107 101.199 43.4398 93.2417 44.987 89.423C45.2276 88.7144 45.4996 88.0025 45.8039 87.2892L45.807 87.2813C46.7159 85.1537 47.9038 83.0151 49.352 80.9181C52.3922 76.5174 56.5747 72.2992 61.6976 68.7424C70.2113 62.83 77.0921 57.0229 84.0365 56.3905C85.4753 56.26 86.7772 57.0858 87.2709 58.445C87.7654 59.8049 87.2984 61.275 86.1113 62.0993L68.6963 74.1924C66.7866 75.5193 66.3094 78.166 67.6349 80.0773C68.9604 81.9871 71.606 82.4653 73.5165 81.1392L96.3138 65.3076C97.6731 64.3637 99.5238 64.6335 100.557 65.9274C100.834 66.2743 101.113 66.6329 101.393 67.0018C101.45 67.0773 101.497 67.1442 101.547 67.2244C101.796 67.6161 102.033 68.0031 102.261 68.383C103.111 69.8035 102.717 71.633 101.357 72.5776L78.5607 88.4084C76.651 89.7345 76.1738 92.382 77.4993 94.2926C78.8248 96.2031 81.4704 96.6813 83.3801 95.3552L100.795 83.2621C101.982 82.4378 103.522 82.5133 104.622 83.4524C105.721 84.3899 106.041 85.8993 105.415 87.2026C102.394 93.4903 94.5503 97.9091 86.035 103.821C80.9122 107.378 75.5 109.824 70.3158 111.135C67.8456 111.759 65.4289 112.125 63.1182 112.233H63.1096C62.3352 112.268 61.5734 112.275 60.8257 112.253C56.7084 112.367 47.9879 112.986 42.5813 116.075C39.7164 117.711 32.7766 124.034 24.4618 131.611H24.4626H24.4603L24.4595 131.613L24.0923 131.947L23.7236 132.283L23.6843 132.319L23.3533 132.62L22.9814 132.959L22.6795 133.234L22.608 133.3L22.2322 133.641L21.8564 133.984L21.663 134.159L21.4782 134.328L21.0985 134.674L20.718 135.021L20.637 135.094L20.3359 135.367L19.9522 135.716L19.6016 136.034L19.5678 136.065L19.1825 136.414L18.7957 136.765L18.5583 136.981L18.4089 137.117L18.0205 137.468L17.6306 137.821L17.5079 137.932L17.2406 138.173L16.8499 138.526L16.4576 138.879L16.4505 138.886L16.0645 139.233L15.6714 139.587L15.3883 139.842L15.2775 139.941L14.8828 140.295L14.4882 140.649L14.3223 140.799L14.0935 141.003L13.698 141.357L13.3026 141.71L13.2538 141.753L12.9055 142.064L12.5085 142.417L12.1822 142.708L12.1123 142.77L11.7152 143.121L11.3182 143.474L11.1099 143.658L10.9212 143.824L10.5242 144.175L10.1271 144.525L10.0375 144.604L9.7301 144.873L9.33386 145.221L8.96592 145.544L8.93762 145.569L8.54138 145.915L8.14592 146.26L7.89669 146.477L7.75047 146.603L7.35501 146.946L6.96034 147.288L6.83062 147.401L6.56724 147.628L6.17336 147.967L5.78105 148.305L5.76847 148.316L5.38952 148.641L4.998 148.975L4.71103 149.22L4.60804 149.308L3.82893 149.969L3.65989 150.111L3.64024 150.128L3.05374 150.622L2.66771 150.945L2.61504 150.99L2.53799 151.054L1.8996 151.587L1.57883 151.853L1.51751 151.905L1.13621 152.219L0.756474 152.532L0.737606 152.548L0.421555 152.808L-0.374859 153.456C13.4905 147.417 28.2521 138.26 35.9143 133.274V133.272C40.5497 133.742 45.307 133.987 50.1562 133.987C98.7455 133.987 132.958 111.387 132.958 81.1392C132.958 64.6988 114.443 54.0612 96.0158 44.0233L96.0181 44.0217C104.407 35.7504 126.149 18.9054 126.149 18.9054L126.02 18.9888L125.919 19.054C125.414 19.3781 124.885 19.7061 124.335 20.0364L124.258 20.0821C123.995 20.2402 123.728 20.3982 123.455 20.5579L123.315 20.6389C123.052 20.7907 122.786 20.9441 122.514 21.0983L122.42 21.1518L121.584 21.6198L121.498 21.6677L121.419 21.7102L120.54 22.1892L120.498 22.212L120.399 22.2655C120.102 22.426 119.801 22.5856 119.495 22.7469L119.422 22.7854C118.787 23.1197 118.137 23.4555 117.471 23.7938L117.32 23.8708L117.277 23.8921C116.56 24.2547 115.827 24.6196 115.079 24.9862L115.051 25.0003L113.904 25.558L113.878 25.5706L112.774 26.0991L112.654 26.1565L111.52 26.6922L111.516 26.6937L110.556 27.1421L110.293 27.264L110.069 27.3678L109.089 27.8185L109.054 27.835L109.03 27.846C108.229 28.2134 107.418 28.5799 106.6 28.9472L106.532 28.9779L106.096 29.1729L105.251 29.5497L105.082 29.6244C104.281 29.9799 103.473 30.3362 102.661 30.6902L102.523 30.7515C100.83 31.4901 99.1205 32.2263 97.4081 32.9546L97.3342 32.9861V32.9885L97.3311 32.9869C81.5207 39.7126 65.5389 45.8477 61.6897 48.5479C47.6137 58.4238 53.9551 70.0174 32.0848 82.6493C16.0102 91.9337 -1.79708 91.1818 -7.6904 80.9701C-13.5837 70.7576 -5.33103 54.9535 10.7435 45.6691C32.6123 33.0372 39.4789 44.3273 55.066 37.0698C57.6298 35.8759 63.4634 31.5003 70.6909 25.9544V25.9536Z" fill="#FF5E04" fill-opacity="0.11"/>
</svg>
